<?xml version="1.0" encoding="utf-8"?>
<!-- Generator: Adobe Illustrator 18.0.0, SVG Export Plug-In . SVG Version: 6.00 Build 0)  -->
<!DOCTYPE svg PUBLIC "-//W3C//DTD SVG 1.1//EN" "http://www.w3.org/Graphics/SVG/1.1/DTD/svg11.dtd">
<svg version="1.1" id="Layer_1" xmlns="http://www.w3.org/2000/svg" xmlns:xlink="http://www.w3.org/1999/xlink" x="0px" y="0px"
	 viewBox="0 0 216 216" enable-background="new 0 0 216 216" xml:space="preserve">
<path d="M198,106c0,3.3-2.7,6-6,6h-20.8c-2,0-3.9-1-5-2.7L153,88.9l-15.8,84.4c-0.5,2.8-3,4.7-5.8,4.7c0,0,0,0-0.1,0
	c-2.8,0-5.3-1.8-5.9-4.6L101.8,60.2l-14.9,77.4c-0.5,2.7-2.7,4.7-5.4,4.9c-2.7,0.2-5.2-1.4-6.1-4L54.7,79.9l-10.2,28.1
	c-0.9,2.4-3.1,3.9-5.6,3.9H18c-3.3,0-6-2.7-6-6s2.7-6,6-6h16.6l14.5-40c0.9-2.4,3.1-4,5.6-4c0,0,0,0,0,0c2.5,0,4.8,1.7,5.6,4.1
	l18.9,53.6l16.4-84.9c0.5-2.8,3-4.7,5.8-4.7c0,0,0,0,0,0c2.8,0,5.3,1.9,5.9,4.6l23.5,112.8l13-69.6c0.5-2.4,2.3-4.3,4.7-4.8
	c2.4-0.5,4.9,0.6,6.2,2.6l19.6,30.3H192C195.3,100,198,102.7,198,106z"/>
</svg>
