<?xml version="1.0" encoding="utf-8"?>
<!-- Generator: Adobe Illustrator 18.0.0, SVG Export Plug-In . SVG Version: 6.00 Build 0)  -->
<!DOCTYPE svg PUBLIC "-//W3C//DTD SVG 1.1//EN" "http://www.w3.org/Graphics/SVG/1.1/DTD/svg11.dtd">
<svg version="1.1" id="Layer_1" xmlns="http://www.w3.org/2000/svg" xmlns:xlink="http://www.w3.org/1999/xlink" x="0px" y="0px"
	 viewBox="0 0 216 216" enable-background="new 0 0 216 216" xml:space="preserve">
<path d="M42,40c0-3.3,2.7-6,6-6h51c2.4,0,4.6,1.4,5.5,3.7c0.9,2.2,0.5,4.8-1.2,6.5L62.1,87H99c3.3,0,6,2.7,6,6s-2.7,6-6,6H48
	c-2.4,0-4.6-1.4-5.5-3.7c-0.9-2.2-0.5-4.8,1.2-6.5L84.9,46H48C44.7,46,42,43.3,42,40z M37.4,176.3l31-56.2c1.1-1.9,3.2-3.1,5.4-3.1
	c2.2,0,4.2,1.3,5.2,3.3l28.5,56.2c1.5,3,0.3,6.6-2.6,8.1c-0.9,0.4-1.8,0.7-2.7,0.7c-2.2,0-4.3-1.2-5.4-3.3l-3-6c-0.2,0-0.5,0-0.7,0
	H52c-0.3,0-0.5,0-0.8-0.1l-3.4,6.1c-1.6,2.9-5.3,4-8.2,2.4C36.8,182.8,35.8,179.2,37.4,176.3z M57.8,164h29.8l-14.3-28.2L57.8,164z
	 M140,166.3c0.6,0.2,1.3,0.3,2,0.3c1.8,0,3.5-0.8,4.7-2.3l37.2-47c2.1-2.6,1.6-6.4-1-8.4c-2.6-2.1-6.4-1.6-8.4,1L148,143.4V60
	c0-3.3-2.7-6-6-6s-6,2.7-6,6v100.6C136,163.2,137.6,165.4,140,166.3z"/>
</svg>
