<?xml version="1.0" encoding="utf-8"?>
<!-- Generator: Adobe Illustrator 18.0.0, SVG Export Plug-In . SVG Version: 6.00 Build 0)  -->
<!DOCTYPE svg PUBLIC "-//W3C//DTD SVG 1.1//EN" "http://www.w3.org/Graphics/SVG/1.1/DTD/svg11.dtd">
<svg version="1.1" id="Layer_1" xmlns="http://www.w3.org/2000/svg" xmlns:xlink="http://www.w3.org/1999/xlink" x="0px" y="0px"
	 viewBox="0 0 216 216" enable-background="new 0 0 216 216" xml:space="preserve">
<path d="M157,43.9c-14-11.2-30.9-17.1-48.9-17.1c-19.5,0-38.2,7.2-52.7,20.3C39,62,29.5,83.2,29.5,105.3c0,42.9,34.6,77.8,77.3,78.5
	c0.4,0.1,0.8,0.1,1.2,0.1c0.4,0,0.8,0,1.1-0.1c42.8-0.6,77.5-35.6,77.5-78.5C186.7,81.3,175.9,58.9,157,43.9z M63.4,56
	c12.3-11.1,28.1-17.2,44.7-17.2c15.2,0,29.6,5,41.4,14.5c14.6,11.6,23.4,28.4,24.9,46.8h-41.2c-2.5-11.6-12.8-20.3-25.1-20.3
	c-12.3,0-22.6,8.7-25.1,20.3H41.8C43.1,83.2,50.8,67.4,63.4,56z M102,171.6c-31.7-2.9-57-28-60.1-59.6h41.4
	c2.4,9,9.6,16.1,18.7,18.3V171.6z M108.1,119.2c-7.6,0-13.8-6.2-13.8-13.8s6.2-13.8,13.8-13.8s13.8,6.2,13.8,13.8
	S115.7,119.2,108.1,119.2z M114,171.6v-41.3c9.2-2.2,16.5-9.3,18.9-18.3h41.4C171.2,143.7,145.8,168.8,114,171.6z"/>
</svg>
