<?xml version="1.0" encoding="utf-8"?>
<!-- Generator: Adobe Illustrator 18.0.0, SVG Export Plug-In . SVG Version: 6.00 Build 0)  -->
<!DOCTYPE svg PUBLIC "-//W3C//DTD SVG 1.1//EN" "http://www.w3.org/Graphics/SVG/1.1/DTD/svg11.dtd">
<svg version="1.1" id="Layer_1" xmlns="http://www.w3.org/2000/svg" xmlns:xlink="http://www.w3.org/1999/xlink" x="0px" y="0px"
	 viewBox="0 0 216 216" enable-background="new 0 0 216 216" xml:space="preserve">
<path d="M192,113.6C191.9,113.6,191.9,113.5,192,113.6c0-0.3-0.1-0.5-0.1-0.7c0-0.1,0-0.1-0.1-0.2c0-0.2-0.1-0.3-0.2-0.5
	c0-0.1,0-0.1-0.1-0.2c-0.2-0.4-0.4-0.8-0.7-1.2c0,0-0.1-0.1-0.1-0.1c-0.1-0.2-0.2-0.3-0.4-0.4c0,0-0.1-0.1-0.1-0.1
	c-0.2-0.2-0.3-0.3-0.5-0.5c0,0,0,0,0,0c-0.2-0.2-0.4-0.3-0.6-0.4c0,0,0,0,0,0c0,0-0.1,0-0.1-0.1c-0.1-0.1-0.2-0.1-0.3-0.2L154,91.4
	V49.3c0,0,0-0.1,0-0.1c0-0.2,0-0.4,0-0.6c0,0,0,0,0-0.1c0-0.2-0.1-0.5-0.1-0.7c0-0.1,0-0.1-0.1-0.2c0-0.2-0.1-0.3-0.2-0.5
	c0-0.1-0.1-0.1-0.1-0.2c-0.1-0.2-0.2-0.4-0.3-0.5c0,0,0-0.1,0-0.1c-0.1-0.2-0.2-0.4-0.4-0.6c0,0-0.1-0.1-0.1-0.1
	c-0.1-0.2-0.2-0.3-0.4-0.4c0,0-0.1-0.1-0.1-0.1c-0.1-0.1-0.3-0.3-0.4-0.4c0,0-0.1-0.1-0.1-0.1c-0.2-0.1-0.4-0.3-0.6-0.4c0,0,0,0,0,0
	c0,0-0.1,0-0.1,0c-0.1-0.1-0.3-0.2-0.4-0.2l-39.9-19.6c-1.7-0.8-3.7-0.8-5.3,0L65.3,44.5c-0.1,0.1-0.3,0.1-0.4,0.2c0,0-0.1,0-0.1,0
	c0,0,0,0,0,0c-0.2,0.1-0.4,0.3-0.6,0.4c0,0-0.1,0-0.1,0.1c-0.2,0.1-0.3,0.3-0.4,0.4c0,0-0.1,0.1-0.1,0.1c-0.1,0.1-0.3,0.3-0.4,0.4
	c0,0-0.1,0.1-0.1,0.1c-0.1,0.2-0.3,0.4-0.4,0.6c0,0,0,0,0,0c-0.1,0.2-0.2,0.4-0.3,0.6c0,0.1,0,0.1-0.1,0.2c-0.1,0.2-0.1,0.3-0.2,0.5
	c0,0.1,0,0.1-0.1,0.2c-0.1,0.5-0.2,0.9-0.2,1.4c0,0,0,0,0,0.1V91l-36.7,18.5c-0.1,0.1-0.3,0.1-0.4,0.2c0,0-0.1,0-0.1,0.1
	c0,0,0,0,0,0c-0.2,0.1-0.4,0.3-0.6,0.4c0,0-0.1,0.1-0.1,0.1c-0.2,0.1-0.3,0.3-0.4,0.4c0,0-0.1,0.1-0.1,0.1c-0.1,0.1-0.2,0.3-0.4,0.4
	c0,0-0.1,0.1-0.1,0.1c-0.1,0.2-0.3,0.4-0.4,0.6c0,0,0,0,0,0c-0.1,0.2-0.2,0.4-0.3,0.6c0,0.1,0,0.1-0.1,0.2c-0.1,0.2-0.1,0.3-0.2,0.5
	c0,0.1,0,0.1-0.1,0.2c-0.1,0.2-0.1,0.4-0.1,0.7c0,0,0,0,0,0c0,0.2,0,0.5,0,0.7c0,0,0,0,0,0.1v44c0,2.2,1.2,4.2,3.1,5.3l39.3,21.2
	c1,0.7,2.2,1.1,3.5,1.1c0,0,0,0,0.1,0c0,0,0,0,0,0c1.1,0,2.1-0.3,3.1-0.8c0.1-0.1,0.2-0.2,0.4-0.3l36.5-19.6l35.1,20
	c0.9,0.5,1.9,0.8,3,0.8c0.5,0,1-0.1,1.5-0.2c0.5,0.1,1,0.2,1.5,0.2c0.9,0,1.9-0.2,2.8-0.7l36.9-19.2c2-1,3.2-3.1,3.2-5.3v-47
	c0,0,0,0,0-0.1C192,114.1,192,113.8,192,113.6z M146,127.7l-25.3-13l25.8-12.9c0.5,0.1,1,0.2,1.5,0.2c0.1,0,0.2,0,0.3,0l24.3,12.3
	L146,127.7z M142,90.6l-28,14V73.5l28-14.4V90.6z M102,105.1L74,91V59.5l28,13.7V105.1z M68,101.4l26,13L68.4,128l-27-13.2L68,101.4
	z M74,138.6l28-14.8v31.5l-28,15.1V138.6z M108.1,36.4l26.6,13.1l-26.3,13.5L81.5,49.8L108.1,36.4z M34,124.5l28,13.7v32.3l-28-15.1
	V124.5z M140,170.2l-26-14.8v-30.7l26,13.4V170.2z M180,157.7l-28,14.5v-34.1l28-14.1V157.7z"/>
</svg>
