<?xml version="1.0" encoding="utf-8"?>
<!-- Generator: Adobe Illustrator 18.0.0, SVG Export Plug-In . SVG Version: 6.00 Build 0)  -->
<!DOCTYPE svg PUBLIC "-//W3C//DTD SVG 1.1//EN" "http://www.w3.org/Graphics/SVG/1.1/DTD/svg11.dtd">
<svg version="1.1" id="Layer_1" xmlns="http://www.w3.org/2000/svg" xmlns:xlink="http://www.w3.org/1999/xlink" x="0px" y="0px"
	 viewBox="0 0 216 216" enable-background="new 0 0 216 216" xml:space="preserve">
<path d="M21.6,63.5c0,13.4,8.8,24.8,20.9,28.9c-2.8,7.4-4.4,15.4-4.4,23.7c0,36.9,30,66.9,66.9,66.9s66.9-30,66.9-66.9
	c0-7.5-1.3-14.7-3.6-21.5c14.7-2.1,26.1-14.8,26.1-30.1c0-16.8-13.6-30.4-30.4-30.4c-13.9,0-25.6,9.4-29.2,22.1
	c-9-4.5-19.1-7-29.7-7c-8.5,0-16.7,1.6-24.2,4.5c-4.1-12-15.4-20.6-28.8-20.6C35.3,33.1,21.6,46.7,21.6,63.5z M164,47.1
	c9.6,0,17.4,7.8,17.4,17.4c0,9.6-7.8,17.4-17.4,17.4c-0.5,0-1,0.1-1.4,0.2c-4.2-7-9.6-13.2-15.9-18.3C147,54.5,154.6,47.1,164,47.1z
	 M158.9,116.1c0,29.7-24.2,53.9-53.9,53.9s-53.9-24.2-53.9-53.9c0-8.8,2.2-17.2,5.9-24.6c0.5-0.6,0.9-1.3,1.2-2.1
	c4.6-8,11.2-14.8,19.2-19.6c1.2-0.3,2.3-0.9,3.2-1.7c7.3-3.8,15.7-5.9,24.5-5.9C134.7,62.2,158.9,86.3,158.9,116.1z M52,46.1
	c8.3,0,15.3,5.9,17,13.6C60.7,65,53.7,72.2,48.4,80.5c-7.9-1.7-13.8-8.7-13.8-17C34.6,53.9,42.4,46.1,52,46.1z M82.5,89.8
	c5.6,0,10.1,4.5,10.1,10.1c0,5.6-4.5,10.1-10.1,10.1s-10.1-4.5-10.1-10.1C72.3,94.3,76.9,89.8,82.5,89.8z M114.7,99.9
	c0-5.6,4.5-10.1,10.1-10.1c5.6,0,10.1,4.5,10.1,10.1c0,5.6-4.5,10.1-10.1,10.1C119.3,110.1,114.7,105.5,114.7,99.9z M105.1,119.2
	c8.7,0,15.7,3.5,15.7,7.9c0,4.3-7.1,7.9-15.7,7.9c-8.7,0-15.7-3.5-15.7-7.9C89.4,122.8,96.4,119.2,105.1,119.2z"/>
</svg>
