<?xml version="1.0" encoding="utf-8"?>
<!-- Generator: Adobe Illustrator 18.0.0, SVG Export Plug-In . SVG Version: 6.00 Build 0)  -->
<!DOCTYPE svg PUBLIC "-//W3C//DTD SVG 1.1//EN" "http://www.w3.org/Graphics/SVG/1.1/DTD/svg11.dtd">
<svg version="1.1" id="Layer_1" xmlns="http://www.w3.org/2000/svg" xmlns:xlink="http://www.w3.org/1999/xlink" x="0px" y="0px"
	 viewBox="0 0 216 216" enable-background="new 0 0 216 216" xml:space="preserve">
<path d="M61.8,146.9c-6.8,3.6-11.4,10.7-11.4,18.9c0,11.7,9.6,21.3,21.3,21.3c11.7,0,21.3-9.6,21.3-21.3c0-1.1-0.1-2.2-0.3-3.2
	c5,1.1,10.3,1.8,15.7,1.8c5.4,0,10.6-0.6,15.7-1.8c-0.4,1.7-0.7,3.4-0.7,5.2c0,11.7,9.6,21.3,21.3,21.3c11.7,0,21.3-9.6,21.3-21.3
	c0-8.7-5.2-16.2-12.7-19.5c16.1-13.1,26.3-33,26.3-55.3c0-18.5-7-36.1-19.8-49.4c-12.8-13.4-30.1-21.1-48.5-21.8
	c-1.6-0.1-3.2,0.6-4.4,1.7c-1.2,1.1-1.8,2.7-1.8,4.3V87H43.1c-3.3,0-6,2.7-6,6C37.1,114.5,46.7,133.8,61.8,146.9z M71.7,175
	c-5.1,0-9.3-4.2-9.3-9.3s4.2-9.3,9.3-9.3s9.3,4.2,9.3,9.3S76.8,175,71.7,175z M144.7,177c-5.1,0-9.3-4.2-9.3-9.3s4.2-9.3,9.3-9.3
	s9.3,4.2,9.3,9.3S149.8,177,144.7,177z M117,34.4c13,1.8,24.9,7.9,34.1,17.5c9.2,9.7,14.9,21.9,16.2,35.1H117V34.4z M111,99h56.3
	c-3,29.9-28.3,53.2-58.9,53.2c-30.6,0-55.9-23.4-58.9-53.2H111z"/>
</svg>
