<?xml version="1.0" encoding="utf-8"?>
<!-- Generator: Adobe Illustrator 18.0.0, SVG Export Plug-In . SVG Version: 6.00 Build 0)  -->
<!DOCTYPE svg PUBLIC "-//W3C//DTD SVG 1.1//EN" "http://www.w3.org/Graphics/SVG/1.1/DTD/svg11.dtd">
<svg version="1.1" id="Layer_1" xmlns="http://www.w3.org/2000/svg" xmlns:xlink="http://www.w3.org/1999/xlink" x="0px" y="0px"
	 viewBox="0 0 216 216" enable-background="new 0 0 216 216" xml:space="preserve">
<path d="M151.1,164c3.3,0,5.9-2.7,5.9-6v-20h25c3.3,0,6-3.1,6-6.4V89.3c0-3.3-2.6-6.3-6-6.3h-25V61.2c0-3.3-2.6-6.2-5.9-6.2H32.2
	c-3.3,0-6.2,2.9-6.2,6.2V158c0,3.3,2.9,6,6.2,6H151.1z M161,95h15v31h-15V95z M38,67h107v85H38V67z M117.2,92.8l-16.7,16.7
	l16.7,16.7c2.3,2.3,2.3,6.1,0,8.5c-1.2,1.2-2.7,1.8-4.2,1.8s-3.1-0.6-4.2-1.8L91.9,118l-16.7,16.7c-1.2,1.2-2.7,1.8-4.2,1.8
	s-3.1-0.6-4.2-1.8c-2.3-2.3-2.3-6.1,0-8.5l16.7-16.7L66.7,92.8c-2.3-2.3-2.3-6.1,0-8.5c2.3-2.3,6.1-2.3,8.5,0L91.9,101l16.7-16.7
	c2.3-2.3,6.1-2.3,8.5,0C119.5,86.6,119.5,90.4,117.2,92.8z"/>
</svg>
