<?xml version="1.0" encoding="utf-8"?>
<!-- Generator: Adobe Illustrator 18.0.0, SVG Export Plug-In . SVG Version: 6.00 Build 0)  -->
<!DOCTYPE svg PUBLIC "-//W3C//DTD SVG 1.1//EN" "http://www.w3.org/Graphics/SVG/1.1/DTD/svg11.dtd">
<svg version="1.1" id="Layer_1" xmlns="http://www.w3.org/2000/svg" xmlns:xlink="http://www.w3.org/1999/xlink" x="0px" y="0px"
	 viewBox="0 0 216 216" enable-background="new 0 0 216 216" xml:space="preserve">
<path d="M27,108.7v49.1c0,14.8,11.6,27.1,26.4,27.1h109.2c14.8,0,26.4-12.3,26.4-27.1V78.5c0-14.8-11.6-26.5-26.4-26.5h-17.1
	c-2.2-17-13.6-26-25-26H92.3c-11.3,0-22.8,9-25,26h-14C38.6,52,27,63.7,27,78.5V108.7C27,108.7,27,108.7,27,108.7z M162.6,173H53.4
	c-8.2,0-14.4-6.9-14.4-15.1v-33c9,8.4,25.3,18,50.6,21.1c1.3,7.9,8,14,16.3,14h1.6c8.3,0,15-6,16.3-14c26.4-3.3,44.1-13.6,53.1-22
	v33.9C177,166.1,170.8,173,162.6,173z M112,143.2c0,2.6-2.1,4.8-4.8,4.8h-1.4c-2.6,0-4.8-2.1-4.8-4.8v-16.4c0-2.6,2.1-4.8,4.8-4.8
	h1.4c2.6,0,4.8,2.1,4.8,4.8V143.2z M92.3,38h28.2c6.4,0,11.2,6,12.8,14H79.5C81.1,44,85.9,38,92.3,38z M53.4,64h109.2
	c8.2,0,14.4,6.3,14.4,14.5v28.3c-1,2.2-5.6,6.7-12.3,11.6c-7.9,5.7-20.7,12.7-40.7,15.5V127c0-9.3-7.2-17-16.5-17h-1.6
	c-9.3,0-16.9,7.7-16.9,17v7c-34-4.7-47-22.2-50-26.9V78.5C39,70.3,45.2,64,53.4,64z"/>
</svg>
