<?xml version="1.0" encoding="utf-8"?>
<!-- Generator: Adobe Illustrator 18.0.0, SVG Export Plug-In . SVG Version: 6.00 Build 0)  -->
<!DOCTYPE svg PUBLIC "-//W3C//DTD SVG 1.1//EN" "http://www.w3.org/Graphics/SVG/1.1/DTD/svg11.dtd">
<svg version="1.1" id="Layer_1" xmlns="http://www.w3.org/2000/svg" xmlns:xlink="http://www.w3.org/1999/xlink" x="0px" y="0px"
	 viewBox="0 0 216 216" enable-background="new 0 0 216 216" xml:space="preserve">
<path d="M30,61.2V158c0,3.3,2.9,6,6.2,6h118.9c3.3,0,5.9-2.7,5.9-6v-20h25c3.3,0,6-3.1,6-6.4V89.3c0-3.3-2.6-6.3-6-6.3h-25V61.2
	c0-3.3-2.6-6.2-5.9-6.2H36.2C32.9,55,30,57.9,30,61.2z M165,95h15v31h-15V95z M42,67h107v85H42V67z M71,88v44c0,3.3-2.7,6-6,6
	s-6-2.7-6-6V88c0-3.3,2.7-6,6-6S71,84.7,71,88z M101,88v44c0,3.3-2.7,6-6,6s-6-2.7-6-6V88c0-3.3,2.7-6,6-6S101,84.7,101,88z"/>
</svg>
