<?xml version="1.0" encoding="utf-8"?>
<!-- Generator: Adobe Illustrator 18.0.0, SVG Export Plug-In . SVG Version: 6.00 Build 0)  -->
<!DOCTYPE svg PUBLIC "-//W3C//DTD SVG 1.1//EN" "http://www.w3.org/Graphics/SVG/1.1/DTD/svg11.dtd">
<svg version="1.1" id="Layer_1" xmlns="http://www.w3.org/2000/svg" xmlns:xlink="http://www.w3.org/1999/xlink" x="0px" y="0px"
	 viewBox="0 0 216 216" enable-background="new 0 0 216 216" xml:space="preserve">
<path d="M50,169c3.3,0,6-2.7,6-6v-42.1l52,47.3c1.1,1,2.6,1.6,4,1.6c0.8,0,1.6-0.2,2.4-0.5c2.2-1,3.6-3.1,3.6-5.5v-43.8l53,48.2
	c1.1,1,2.6,1.6,4,1.6c0.8,0,1.6-0.2,2.4-0.5c2.2-1,3.6-3.1,3.6-5.5V52.3c0-2.4-1.4-4.5-3.6-5.5c-2.2-1-4.7-0.5-6.5,1l-53,48.2V52.3
	c0-2.4-1.4-4.5-3.6-5.5c-2.2-1-4.7-0.5-6.5,1L56,95.1V53c0-3.3-2.7-6-6-6s-6,2.7-6,6v110C44,166.3,46.7,169,50,169z M169,65.9v84.3
	L122.7,108L169,65.9z M106,65.9v84.3L59.7,108L106,65.9z"/>
</svg>
