<?xml version="1.0" encoding="utf-8"?>
<!-- Generator: Adobe Illustrator 18.0.0, SVG Export Plug-In . SVG Version: 6.00 Build 0)  -->
<!DOCTYPE svg PUBLIC "-//W3C//DTD SVG 1.1//EN" "http://www.w3.org/Graphics/SVG/1.1/DTD/svg11.dtd">
<svg version="1.1" id="Layer_1" xmlns="http://www.w3.org/2000/svg" xmlns:xlink="http://www.w3.org/1999/xlink" x="0px" y="0px"
	 viewBox="0 0 216 216" enable-background="new 0 0 216 216" xml:space="preserve">
<path d="M47,89.2c-1.1,1.3-1.7,3.1-1.5,4.8l11.1,90.5c0.4,3,2.9,5.5,6,5.5h88.9c3,0,5.6-2.5,6-5.5l11.1-90.4
	c0.2-1.7-0.3-3.6-1.5-4.9c-1.1-1.3-2.8-2.2-4.5-2.2h-19.8c1.9-12,3.9-36.5-7.8-51.4c-6.4-8.2-15.8-12.3-27.9-12.3
	c-12.2,0-21.8,4.1-28.3,12.4C66.5,50.9,68.7,76,70.5,87h-19C49.7,87,48.1,87.9,47,89.2z M88,43.1c4.2-5.3,10.4-7.9,18.9-7.9
	c8.3,0,14.3,2.4,18.4,7.6c8.7,11.1,7.2,33.1,5.1,44.1H82.7C80.7,77,79,54.5,88,43.1z M135.4,99C135.4,99,135.4,99,135.4,99
	C135.4,99,135.4,99,135.4,99h20.3l-9.6,79H67.9l-9.6-79H135.4z"/>
</svg>
