<?xml version="1.0" encoding="utf-8"?>
<!-- Generator: Adobe Illustrator 18.0.0, SVG Export Plug-In . SVG Version: 6.00 Build 0)  -->
<!DOCTYPE svg PUBLIC "-//W3C//DTD SVG 1.1//EN" "http://www.w3.org/Graphics/SVG/1.1/DTD/svg11.dtd">
<svg version="1.1" id="Layer_1" xmlns="http://www.w3.org/2000/svg" xmlns:xlink="http://www.w3.org/1999/xlink" x="0px" y="0px"
	 viewBox="0 0 216 216" enable-background="new 0 0 216 216" xml:space="preserve">
<path d="M163,61.2c0-3.3-2.6-6.2-5.9-6.2h-26.6c-3.3,0-6,2.7-6,6s2.7,6,6,6H151v85h-21.5c-3.3,0-6,2.7-6,6s2.7,6,6,6h27.6
	c3.3,0,5.9-2.7,5.9-6v-20h25c3.3,0,6-3.1,6-6.4V89.3c0-3.3-2.6-6.3-6-6.3h-25V61.2z M167,95h15v31h-15V95z M75.5,61c0,3.3-2.7,6-6,6
	H44v85h21c3.3,0,6,2.7,6,6s-2.7,6-6,6H38.2c-3.3,0-6.2-2.7-6.2-6V61.2c0-3.3,2.9-6.2,6.2-6.2h31.3C72.8,55,75.5,57.7,75.5,61z
	 M68,108l29.1-49.7c1.7-2.9,5.4-3.8,8.2-2.1c2.9,1.7,3.8,5.4,2.1,8.2L83.7,105H122c2.1,0,4.1,1.1,5.2,3c1.1,1.9,1.1,4.1,0,6
	L99,162.7c-1.1,1.9-3.1,3-5.2,3c-1,0-2.1-0.3-3-0.8c-2.9-1.7-3.8-5.3-2.2-8.2l23-39.7H73.2c-2.2,0-4.1-1.2-5.2-3
	C66.9,112.1,66.9,109.8,68,108z"/>
</svg>
