<?xml version="1.0" encoding="utf-8"?>
<!-- Generator: Adobe Illustrator 18.0.0, SVG Export Plug-In . SVG Version: 6.00 Build 0)  -->
<!DOCTYPE svg PUBLIC "-//W3C//DTD SVG 1.1//EN" "http://www.w3.org/Graphics/SVG/1.1/DTD/svg11.dtd">
<svg version="1.1" id="Layer_1" xmlns="http://www.w3.org/2000/svg" xmlns:xlink="http://www.w3.org/1999/xlink" x="0px" y="0px"
	 viewBox="0 0 216 216" enable-background="new 0 0 216 216" xml:space="preserve">
<path d="M163.8,36.4c-1-2.1-3.1-3.4-5.4-3.4H80.7c-2.5,0-4.7,1.5-5.6,3.9l-33.7,88c-0.7,1.8-0.5,3.9,0.7,5.5c1.1,1.6,3,2.6,4.9,2.6
	h37.8l-1.7,53.7c-0.1,2.6,1.5,4.9,3.9,5.8c0.7,0.3,1.4,0.4,2.1,0.4c1.8,0,3.5-0.8,4.6-2.2l81.9-98.9c1.5-1.8,1.8-4.3,0.8-6.4
	s-3.1-3.4-5.4-3.4h-38.7l30.8-39.3C164.5,40.9,164.8,38.4,163.8,36.4z M115.3,84.3c-1.4,1.8-1.7,4.3-0.7,6.3c1,2.1,3.1,3.4,5.4,3.4
	h38.3l-62.6,75.6l1.3-42.4c0.1-1.6-0.6-3.2-1.7-4.4c-1.1-1.2-2.7-1.8-4.3-1.8H55.7l29.1-76h61.3L115.3,84.3z"/>
</svg>
