<?xml version="1.0" encoding="utf-8"?>
<!-- Generator: Adobe Illustrator 18.0.0, SVG Export Plug-In . SVG Version: 6.00 Build 0)  -->
<!DOCTYPE svg PUBLIC "-//W3C//DTD SVG 1.1//EN" "http://www.w3.org/Graphics/SVG/1.1/DTD/svg11.dtd">
<svg version="1.1" id="Layer_1" xmlns="http://www.w3.org/2000/svg" xmlns:xlink="http://www.w3.org/1999/xlink" x="0px" y="0px"
	 viewBox="0 0 216 216" enable-background="new 0 0 216 216" xml:space="preserve">
<path d="M34.2,163.9h118.9c3.3,0,5.9-2.7,5.9-6v-20h25c3.3,0,6-3.1,6-6.4V89.3c0-3.3-2.6-6.3-6-6.3h-25V61.1c0-3.3-2.6-6.2-5.9-6.2
	H34.2c-3.3,0-6.2,2.9-6.2,6.2v96.8C28,161.2,30.9,163.9,34.2,163.9z M163,94.9h15v31h-15V94.9z M40,66.9h107v85H40V66.9z M69,87.9
	v44c0,3.3-2.7,6-6,6s-6-2.7-6-6v-44c0-3.3,2.7-6,6-6S69,84.6,69,87.9z M99,87.9v44c0,3.3-2.7,6-6,6s-6-2.7-6-6v-44c0-3.3,2.7-6,6-6
	S99,84.6,99,87.9z M129,87.9v44c0,3.3-2.7,6-6,6s-6-2.7-6-6v-44c0-3.3,2.7-6,6-6S129,84.6,129,87.9z"/>
</svg>
