<?xml version="1.0" encoding="utf-8"?>
<!-- Generator: Adobe Illustrator 18.0.0, SVG Export Plug-In . SVG Version: 6.00 Build 0)  -->
<!DOCTYPE svg PUBLIC "-//W3C//DTD SVG 1.1//EN" "http://www.w3.org/Graphics/SVG/1.1/DTD/svg11.dtd">
<svg version="1.1" id="Layer_1" xmlns="http://www.w3.org/2000/svg" xmlns:xlink="http://www.w3.org/1999/xlink" x="0px" y="0px"
	 viewBox="0 0 216 216" enable-background="new 0 0 216 216" xml:space="preserve">
<path d="M101,186.9v-76.1c-3.3-2.2-5.5-6-5.5-10.3c0-6.8,5.5-12.3,12.3-12.3s12.3,5.5,12.3,12.3c0,5-3,9.3-7.2,11.2v75.2
	c0,3.3-2.7,6-6,6S101,190.2,101,186.9z M137.7,124.8c1,0.6,2,0.9,3.1,0.9c2,0,4-1,5.1-2.9c4.5-7.4,6.7-15.9,6.3-24.6
	c-1-24.2-21.5-43.1-45.8-42.2C94.8,56.5,84,61.5,76,70.2c-8,8.6-12.1,19.9-11.6,31.6c0.3,6.9,2.1,13.5,5.4,19.5
	c1.6,2.9,5.3,4,8.2,2.3c2.9-1.6,3.9-5.3,2.3-8.2c-2.4-4.4-3.7-9.1-4-14.2c-0.3-8.5,2.7-16.7,8.4-23S98.5,68.4,107,68
	c17.6-0.7,32.6,13,33.3,30.7c0.3,6.3-1.3,12.5-4.6,17.9C134,119.4,134.9,123.1,137.7,124.8z M155.3,147.9c2.5,2.1,6.3,1.8,8.5-0.7
	C174.9,134,181,117.3,181,100c0-40.3-32.7-73-73-73s-73,32.7-73,73c0,18.3,6.8,35.7,19.1,49.2c1.2,1.3,2.8,2,4.4,2
	c1.4,0,2.9-0.5,4-1.6c2.4-2.2,2.6-6,0.4-8.5C52.7,129.9,47,115.3,47,100c0-33.6,27.4-61,61-61s61,27.4,61,61
	c0,14.4-5.1,28.4-14.4,39.4C152.4,141.9,152.7,145.7,155.3,147.9z"/>
</svg>
