<?xml version="1.0" encoding="utf-8"?>
<!-- Generator: Adobe Illustrator 18.0.0, SVG Export Plug-In . SVG Version: 6.00 Build 0)  -->
<!DOCTYPE svg PUBLIC "-//W3C//DTD SVG 1.1//EN" "http://www.w3.org/Graphics/SVG/1.1/DTD/svg11.dtd">
<svg version="1.1" id="Layer_1" xmlns="http://www.w3.org/2000/svg" xmlns:xlink="http://www.w3.org/1999/xlink" x="0px" y="0px"
	 viewBox="0 0 216 216" enable-background="new 0 0 216 216" xml:space="preserve">
<path d="M170.6,93.2c-3.9-7.4-11.8-16.2-27.9-16.2c-6.8,0-11.8-1.5-14.4-4.4c-2.7-3.1-2.3-7-2.3-7.1c0-0.3,0.1-0.6,0.1-0.9V35.7
	c0-0.2,0-0.5,0-0.7c-0.6-5.2-4.9-13-14.2-13h-11.1c-9.3,0-14.1,7.5-15.4,12c-0.2,0.6-0.3,1.1-0.3,1.7v28.9c0,0.4,0,0.7,0.1,1.1
	c0,0,0.5,4-1.9,6.9C80.8,75.5,75.9,77,69,77c-16.2,0-24,8.9-27.6,16.3c-3.7,7.5-3.9,14.8-3.9,15.6c0,1.6,0.6,3.1,1.7,4.3
	c1.1,1.1,2.7,1.8,4.3,1.8H46v63c0,3.3,2.7,6,6,6h108.9c3.3,0,6.1-2.7,6.1-6v-63h1.9c0,0,0,0,0,0c3.3,0,6-2.7,6-6
	c0-0.3,0-0.6-0.1-0.8C174.7,106.1,174,99.7,170.6,93.2z M155,172h-10v-34c0-3.3-2.7-6-6-6s-6,2.7-6,6v34h-9v-23c0-3.3-2.7-6-6-6
	s-6,2.7-6,6v23h-10v-25c0-3.3-2.7-6-6-6s-6,2.7-6,6v25H79v-34c0-3.3-2.7-6-6-6s-6,2.7-6,6v34h-9v-57h97V172z M52.2,98.7
	C55.4,92.2,60.9,89,69,89c10.7,0,18.5-2.9,23.4-8.7c5.3-6.4,4.9-13.8,4.6-16.1V36.8c0.5-1,1.6-2.8,3.6-2.8h11.1c0.5,0,1.8,0,2.2,2.2
	v28c-0.2,2.2-0.5,9.7,5.1,16.1c5,5.8,12.9,8.7,23.6,8.7c8.1,0,13.7,3.1,17.1,9.5c0.8,1.5,1.4,3.1,1.9,4.5H50.5
	C50.9,101.6,51.4,100.1,52.2,98.7z"/>
</svg>
