<?xml version="1.0" encoding="utf-8"?>
<!-- Generator: Adobe Illustrator 18.0.0, SVG Export Plug-In . SVG Version: 6.00 Build 0)  -->
<!DOCTYPE svg PUBLIC "-//W3C//DTD SVG 1.1//EN" "http://www.w3.org/Graphics/SVG/1.1/DTD/svg11.dtd">
<svg version="1.1" id="Layer_1" xmlns="http://www.w3.org/2000/svg" xmlns:xlink="http://www.w3.org/1999/xlink" x="0px" y="0px"
	 viewBox="0 0 216 216" enable-background="new 0 0 216 216" xml:space="preserve">
<path d="M148.2,70.1c0-1.6-0.7-3.2-1.8-4.3L103.2,24c-1.7-1.7-4.3-2.2-6.5-1.2c-2.2,0.9-3.7,3.1-3.7,5.5v56.8L73.6,65.3
	c-2.3-2.4-6.1-2.4-8.5-0.1c-2.4,2.3-2.4,6.1-0.1,8.5L93,102.2v6.4l-34.1,32.5c-2.4,2.3-2.5,6.1-0.2,8.5c2.3,2.4,6.1,2.5,8.5,0.2
	L93,125.2v59.6c0,2.4,1.4,4.6,3.7,5.5c0.8,0.3,1.6,0.5,2.3,0.5c1.5,0,3-0.6,4.2-1.7l42.8-41.4c1.1-1.1,1.8-2.6,1.8-4.2
	c0-1.6-0.6-3.1-1.7-4.3l-32.7-33.3l33-31.4C147.5,73.3,148.2,71.7,148.2,70.1z M133.3,143.2L105,170.6v-56.1L133.3,143.2z M105,97.2
	V42.5l28.5,27.6L105,97.2z"/>
</svg>
