<?xml version="1.0" encoding="utf-8"?>
<!-- Generator: Adobe Illustrator 18.0.0, SVG Export Plug-In . SVG Version: 6.00 Build 0)  -->
<!DOCTYPE svg PUBLIC "-//W3C//DTD SVG 1.1//EN" "http://www.w3.org/Graphics/SVG/1.1/DTD/svg11.dtd">
<svg version="1.1" id="Layer_1" xmlns="http://www.w3.org/2000/svg" xmlns:xlink="http://www.w3.org/1999/xlink" x="0px" y="0px"
	 viewBox="0 0 216 216" enable-background="new 0 0 216 216" xml:space="preserve">
<path d="M63.2,167.6l40.9,24.5c0.9,0.6,2,0.9,3.1,0.9c1,0,2.1-0.3,3-0.8l42.4-24.5c2.8-1.6,3.8-5.1,2.4-8l-41.6-82.5
	c3.5-2.1,5.8-5.9,5.8-10.3c0-6.6-5.4-12-12-12s-12,5.4-12,12c0,4.4,2.4,8.2,5.9,10.3l-40.1,82.6C59.6,162.6,60.6,166,63.2,167.6z
	 M91.2,125l13.5,7.5c0.9,0.5,1.9,0.8,2.9,0.8c1.1,0,2.1-0.3,3-0.8l13.2-7.8l7.1,14c-1.1-0.1-2.3,0.2-3.3,0.8l-19.7,11.6l-22.4-12.4
	c-0.3-0.1-0.5-0.3-0.8-0.4L91.2,125z M96.5,114.2L107.3,92l11.1,22l-10.9,6.4L96.5,114.2z M79.5,149.1c0.1,0,0.1,0.1,0.2,0.1
	l25.4,14.1c0.9,0.5,1.9,0.8,2.9,0.8c1.1,0,2.1-0.3,3-0.8l22.7-13.4c0.8-0.5,1.5-1.1,1.9-1.8l6.1,12.1L107.3,180l-33.2-19.8
	L79.5,149.1z M165,107.6c9.7-10.5,15-24.1,15-38.4c0-14.1-5.2-27.7-14.7-38.1c-2.2-2.5-2-6.2,0.4-8.5c2.5-2.2,6.2-2,8.5,0.4
	c11.5,12.7,17.8,29.1,17.8,46.2c0,17.3-6.4,33.8-18.1,46.5c-1.2,1.3-2.8,1.9-4.4,1.9c-1.5,0-2.9-0.5-4.1-1.6
	C162.9,113.8,162.7,110.1,165,107.6z M161.1,69.3c0,10.1-3.8,19.7-10.6,27.1c-1.2,1.3-2.8,1.9-4.4,1.9c-1.5,0-2.9-0.5-4.1-1.6
	c-2.4-2.2-2.6-6-0.4-8.5c4.8-5.2,7.4-11.9,7.4-19c0-7-2.6-13.7-7.3-18.8c-2.2-2.5-2-6.2,0.4-8.5c2.5-2.2,6.2-2,8.5,0.4
	C157.4,49.8,161.1,59.3,161.1,69.3z M42.2,115.7C30.5,103,24.1,86.5,24.1,69.2c0-17.1,6.3-33.5,17.8-46.2c2.2-2.5,6-2.6,8.5-0.4
	c2.5,2.2,2.6,6,0.4,8.5c-9.5,10.4-14.7,24-14.7,38.1c0,14.3,5.3,27.9,15,38.4c2.2,2.4,2.1,6.2-0.4,8.5c-1.2,1.1-2.6,1.6-4.1,1.6
	C45,117.7,43.4,117,42.2,115.7z M74.2,50.5c-4.7,5.2-7.3,11.9-7.3,18.8c0,7.1,2.6,13.8,7.4,19c2.2,2.4,2.1,6.2-0.4,8.5
	c-1.2,1.1-2.6,1.6-4.1,1.6c-1.6,0-3.2-0.7-4.4-1.9c-6.8-7.4-10.6-17-10.6-27.1c0-10,3.7-19.5,10.4-26.9c2.2-2.5,6-2.6,8.5-0.4
	C76.2,44.2,76.4,48,74.2,50.5z"/>
</svg>
