<?xml version="1.0" encoding="utf-8"?>
<!-- Generator: Adobe Illustrator 18.0.0, SVG Export Plug-In . SVG Version: 6.00 Build 0)  -->
<!DOCTYPE svg PUBLIC "-//W3C//DTD SVG 1.1//EN" "http://www.w3.org/Graphics/SVG/1.1/DTD/svg11.dtd">
<svg version="1.1" id="Layer_1" xmlns="http://www.w3.org/2000/svg" xmlns:xlink="http://www.w3.org/1999/xlink" x="0px" y="0px"
	 viewBox="0 0 216 216" enable-background="new 0 0 216 216" xml:space="preserve">
<path d="M82.2,104.1c-0.7,0.3-1.3,0.9-1.8,1.5l-26.6,30.3c-2.2,2.5-1.9,6.3,0.5,8.5c1.1,1,2.6,1.5,4,1.5c1.7,0,3.3-0.7,4.5-2
	l17.8-20.2l4.1,20.6c0.2,3.4,1.6,6.5,3.8,9l-5.3,35c-0.5,3.3,1.8,6.3,5,6.8c0.3,0,0.6,0.1,0.9,0.1c2.9,0,5.5-2.1,5.9-5.1l4.6-30.5
	c1.3,0.2,2.6,0.5,4,0.5h8.4c1.8,0,3.5-0.3,5.1-0.7l6.6,31c0.6,2.8,3.1,4.7,5.9,4.7c0.4,0,0.8-0.1,1.3-0.1c3.2-0.7,5.3-3.9,4.6-7.1
	l-7.6-35.3c1.8-2.4,2.9-5.1,3.1-8.1l4.1-20.6l19.6,20c1.2,1.2,2.7,1.8,4.3,1.8c1.5,0,3-0.6,4.2-1.7c2.4-2.3,2.4-6.1,0.1-8.5
	L135.1,106c-3.2-5.2-9.5-9-16.9-9h-3.4c10.2-3,17.6-12.1,17.6-23.2c0-13.5-10.9-24.3-24.4-24.3S83.6,60.3,83.6,73.7
	c0,11.1,7.5,20.3,17.6,23.3h-3.4C91.3,97,85.7,100,82.2,104.1z M95.6,74c0-6.8,5.6-12.4,12.4-12.4s12.4,5.6,12.4,12.4
	s-5.6,12.4-12.4,12.4S95.6,80.8,95.6,74z M125.2,113.1l-5.8,29.2c-0.1,0.4-0.1,0.9-0.1,1.3c0,2-3.1,4.4-7,4.4h-8.4c-4,0-7-2.4-7-4.3
	c0-0.4,0-0.8-0.1-1.2l-5.8-29.4c0.4-1.9,3.3-4.1,7-4.1h20.4C121.9,109,124.8,111.2,125.2,113.1z"/>
</svg>
