<?xml version="1.0" encoding="utf-8"?>
<!-- Generator: Adobe Illustrator 18.0.0, SVG Export Plug-In . SVG Version: 6.00 Build 0)  -->
<!DOCTYPE svg PUBLIC "-//W3C//DTD SVG 1.1//EN" "http://www.w3.org/Graphics/SVG/1.1/DTD/svg11.dtd">
<svg version="1.1" id="Layer_1" xmlns="http://www.w3.org/2000/svg" xmlns:xlink="http://www.w3.org/1999/xlink" x="0px" y="0px"
	 viewBox="0 0 216 216" enable-background="new 0 0 216 216" xml:space="preserve">
<path d="M71.6,183.7c22.7,0,40.4-11.6,40.4-26.4v-4.6c7.2,4.4,16.9,7,27.7,7c22.6,0,40.3-11.6,40.3-26.3v-25V104V82.2V79V58.4
	c0.2-1.1,0.3-2.3,0.3-3.5c0-1.6-0.2-3.1-0.6-4.5c0,0,0-0.1,0-0.1c-3.3-12.4-19.6-21.6-39.8-21.6c-19.2,0-34.8,8.2-39.2,19.7
	c-0.9,1.1-1.4,2.5-1.4,3.9l0,26.1c0,0.2,0,0.5,0,0.7l0,5.5c-7.2-4.3-16.9-7-27.7-7c-19.4,0-35.2,8.5-39.4,20.2
	c-0.7,1-1.1,2.2-1.1,3.5l0,29.8c0,0.1,0,0.3,0,0.4l0,26C31.1,172.1,48.9,183.7,71.6,183.7z M168,108.4c0,6.8-11.6,14.4-28.3,14.4
	c-14.4,0-25-5.6-27.7-11.5v-5.9c0-0.5,0.1-1,0.1-1.5s0-1-0.1-1.5v-0.9c7.2,4.4,16.9,7.1,27.7,7.1c11.1,0,21.1-2.8,28.3-7.4v3V108.4z
	 M168,79v3.2c0,6.7-11.6,14.2-28.3,14.2c-16.7,0-28.3-7.7-28.3-14.5l0-8.2c7.3,4.7,17.3,7.5,28.6,7.5c11,0,20.9-2.7,28.1-7.2V79z
	 M99.3,133.4c0,0.2,0,0.3,0,0.5c-2.6,5.9-13.3,11.5-27.8,11.5c-13.3,0-28.1-6.1-28.4-14.2l0-3.2c0-0.1,0-0.2,0-0.3l0-5
	c7.3,4.6,17.3,7.5,28.5,7.5c10.8,0,20.5-2.6,27.7-7L99.3,133.4z M71.6,171.7c-16.8,0-28.4-7.5-28.4-14.3l0-7.4
	c7.3,4.6,17.2,7.5,28.4,7.5c11.2,0,21.2-2.8,28.4-7.4v7.3C100,164.1,88.3,171.7,71.6,171.7z M139.7,147.8c-14.4,0-25-5.6-27.7-11.5
	v-5.1V128v-0.3c7.2,4.4,16.9,7,27.7,7c11.1,0,21.1-2.8,28.3-7.4v6.1C168,140.2,156.4,147.8,139.7,147.8z M139.9,40.6
	c15.1,0,26.1,6.1,28.1,12.3v4.1c-2,6.2-13,12.3-28.1,12.3c-16.8,0-28.4-7.5-28.4-14.3C111.5,48.1,123.1,40.6,139.9,40.6z M71.6,89.5
	c14.3,0,24.9,5.5,27.7,11.3l0,2.5c0,0.2,0,0.5,0,0.7l0,2.9c-2.8,5.8-13.4,11.2-27.7,11.2c-16.8,0-28.4-7.5-28.4-14.3
	S54.9,89.5,71.6,89.5z"/>
</svg>
