<?xml version="1.0" encoding="utf-8"?>
<!-- Generator: Adobe Illustrator 18.0.0, SVG Export Plug-In . SVG Version: 6.00 Build 0)  -->
<!DOCTYPE svg PUBLIC "-//W3C//DTD SVG 1.1//EN" "http://www.w3.org/Graphics/SVG/1.1/DTD/svg11.dtd">
<svg version="1.1" id="Layer_1" xmlns="http://www.w3.org/2000/svg" xmlns:xlink="http://www.w3.org/1999/xlink" x="0px" y="0px"
	 viewBox="0 0 216 216" enable-background="new 0 0 216 216" xml:space="preserve">
<path d="M153,114V47H53v125h46c3.3,0,6,2.7,6,6s-2.7,6-6,6H47c-3.3,0-6-2.7-6-6V41c0-3.3,2.7-6,6-6h112c3.3,0,6,2.7,6,6v73
	c0,3.3-2.7,6-6,6S153,117.3,153,114z M183.9,128.6c-2.5-2.2-6.3-2-8.5,0.5l-32.9,36.6L126,149.8c-2.4-2.3-6.2-2.2-8.5,0.2
	c-2.3,2.4-2.2,6.2,0.2,8.5l21,20.2c1.1,1.1,2.6,1.7,4.2,1.7c0.1,0,0.1,0,0.2,0c1.6-0.1,3.2-0.8,4.2-2l37-41.2
	C186.6,134.6,186.4,130.8,183.9,128.6z M131,70H77c-3.3,0-6,2.7-6,6s2.7,6,6,6h54c3.3,0,6-2.7,6-6S134.3,70,131,70z M137,109
	c0-3.3-2.7-6-6-6H77c-3.3,0-6,2.7-6,6s2.7,6,6,6h54C134.3,115,137,112.3,137,109z M77,135c-3.3,0-6,2.7-6,6s2.7,6,6,6h16
	c3.3,0,6-2.7,6-6s-2.7-6-6-6H77z"/>
</svg>
