<?xml version="1.0" encoding="utf-8"?>
<!-- Generator: Adobe Illustrator 18.0.0, SVG Export Plug-In . SVG Version: 6.00 Build 0)  -->
<!DOCTYPE svg PUBLIC "-//W3C//DTD SVG 1.1//EN" "http://www.w3.org/Graphics/SVG/1.1/DTD/svg11.dtd">
<svg version="1.1" id="Layer_1" xmlns="http://www.w3.org/2000/svg" xmlns:xlink="http://www.w3.org/1999/xlink" x="0px" y="0px"
	 viewBox="0 0 216 216" enable-background="new 0 0 216 216" xml:space="preserve">
<path d="M33.4,151h22.1l0.1,27.4c0,2.3,1.3,4.4,3.4,5.4c0.8,0.4,1.7,0.6,2.6,0.6c1.3,0,2.6-0.4,3.7-1.3l40.8-32.1h75.3
	c3.3,0,6-2.7,6-6V37c0-3.3-2.7-6-6-6h-148c-3.3,0-6,2.7-6,6v108C27.4,148.3,30.1,151,33.4,151z M39.4,43h136v96h-71.4
	c-1.3,0-2.6,0.5-3.7,1.3L67.6,166l-0.1-21c0-3.3-2.7-6-6-6H39.4V43z"/>
</svg>
