<?xml version="1.0" encoding="utf-8"?>
<!-- Generator: Adobe Illustrator 18.0.0, SVG Export Plug-In . SVG Version: 6.00 Build 0)  -->
<!DOCTYPE svg PUBLIC "-//W3C//DTD SVG 1.1//EN" "http://www.w3.org/Graphics/SVG/1.1/DTD/svg11.dtd">
<svg version="1.1" id="Layer_1" xmlns="http://www.w3.org/2000/svg" xmlns:xlink="http://www.w3.org/1999/xlink" x="0px" y="0px"
	 viewBox="0 0 216 216" enable-background="new 0 0 216 216" xml:space="preserve">
<path d="M183,32H36c-3.3,0-6,2.7-6,6v137c0,3.3,2.7,6,6,6h72c0.8,0.3,1.6,0.5,2.5,0.5s1.7-0.2,2.5-0.5h70c3.3,0,6-2.7,6-6V38
	C189,34.7,186.3,32,183,32z M42,44h62v125H42V44z M177,169h-60V44h60V169z M131.5,102.8c0-4.3,3.5-7.9,7.9-7.9
	c4.3,0,7.9,3.5,7.9,7.9c0,4.3-3.5,7.9-7.9,7.9C135,110.7,131.5,107.1,131.5,102.8z M89.3,102.8c0,4.3-3.5,7.9-7.9,7.9
	c-4.3,0-7.9-3.5-7.9-7.9c0-4.3,3.5-7.9,7.9-7.9C85.8,94.9,89.3,98.4,89.3,102.8z"/>
</svg>
