<?xml version="1.0" encoding="utf-8"?>
<!-- Generator: Adobe Illustrator 18.0.0, SVG Export Plug-In . SVG Version: 6.00 Build 0)  -->
<!DOCTYPE svg PUBLIC "-//W3C//DTD SVG 1.1//EN" "http://www.w3.org/Graphics/SVG/1.1/DTD/svg11.dtd">
<svg version="1.1" id="Layer_1" xmlns="http://www.w3.org/2000/svg" xmlns:xlink="http://www.w3.org/1999/xlink" x="0px" y="0px"
	 viewBox="0 0 216 216" enable-background="new 0 0 216 216" xml:space="preserve">
<path d="M21,185V39c0-3.3,2.7-6,6-6h21c3.3,0,6,2.7,6,6s-2.7,6-6,6H33v134h148V45h-13c-3.3,0-6-2.7-6-6s2.7-6,6-6h19
	c3.3,0,6,2.7,6,6v146c0,3.3-2.7,6-6,6H27C23.7,191,21,188.3,21,185z M121,39c0-3.3-2.7-6-6-6H98c-3.3,0-6,2.7-6,6s2.7,6,6,6h17
	C118.3,45,121,42.3,121,39z M63,143H53c-3.3,0-6,2.7-6,6v10c0,3.3,2.7,6,6,6h10c3.3,0,6-2.7,6-6v-10C69,145.7,66.3,143,63,143z
	 M85,165h11c3.3,0,6-2.7,6-6v-10c0-3.3-2.7-6-6-6H85c-3.3,0-6,2.7-6,6v10C79,162.3,81.7,165,85,165z M118,165h10c3.3,0,6-2.7,6-6
	v-10c0-3.3-2.7-6-6-6h-10c-3.3,0-6,2.7-6,6v10C112,162.3,114.7,165,118,165z M69,117c0-3.3-2.7-6-6-6H53c-3.3,0-6,2.7-6,6v10
	c0,3.3,2.7,6,6,6h10c3.3,0,6-2.7,6-6V117z M102,117c0-3.3-2.7-6-6-6H85c-3.3,0-6,2.7-6,6v10c0,3.3,2.7,6,6,6h11c3.3,0,6-2.7,6-6V117
	z M134,117c0-3.3-2.7-6-6-6h-10c-3.3,0-6,2.7-6,6v10c0,3.3,2.7,6,6,6h10c3.3,0,6-2.7,6-6V117z M151,133h10c3.3,0,6-2.7,6-6v-10
	c0-3.3-2.7-6-6-6h-10c-3.3,0-6,2.7-6,6v10C145,130.3,147.7,133,151,133z M102,85c0-3.3-2.7-6-6-6H85c-3.3,0-6,2.7-6,6v10
	c0,3.3,2.7,6,6,6h11c3.3,0,6-2.7,6-6V85z M75,57c3.3,0,6-2.7,6-6V23c0-3.3-2.7-6-6-6h-6c-3.3,0-6,2.7-6,6v28c0,3.3,2.7,6,6,6H75z
	 M144,57c3.3,0,6-2.7,6-6V23c0-3.3-2.7-6-6-6h-6c-3.3,0-6,2.7-6,6v28c0,3.3,2.7,6,6,6H144z M134,85c0-3.3-2.7-6-6-6h-10
	c-3.3,0-6,2.7-6,6v10c0,3.3,2.7,6,6,6h10c3.3,0,6-2.7,6-6V85z M167,85c0-3.3-2.7-6-6-6h-10c-3.3,0-6,2.7-6,6v10c0,3.3,2.7,6,6,6h10
	c3.3,0,6-2.7,6-6V85z"/>
</svg>
