<?xml version="1.0" encoding="utf-8"?>
<!-- Generator: Adobe Illustrator 18.0.0, SVG Export Plug-In . SVG Version: 6.00 Build 0)  -->
<!DOCTYPE svg PUBLIC "-//W3C//DTD SVG 1.1//EN" "http://www.w3.org/Graphics/SVG/1.1/DTD/svg11.dtd">
<svg version="1.1" id="Layer_1" xmlns="http://www.w3.org/2000/svg" xmlns:xlink="http://www.w3.org/1999/xlink" x="0px" y="0px"
	 viewBox="0 0 216 216" enable-background="new 0 0 216 216" xml:space="preserve">
<path d="M177,178H36c-3.3,0-6-2.7-6-6V47c0-3.3,2.7-6,6-6s6,2.7,6,6v119h135c3.3,0,6,2.7,6,6S180.3,178,177,178z M100.9,81
	c-2.4-1.9-5.9-1.6-8,0.6l-37.7,39.7c-2.3,2.4-2.2,6.2,0.2,8.5c1.2,1.1,2.6,1.6,4.1,1.6c1.6,0,3.2-0.6,4.4-1.9l34-35.8l21.6,16.6
	c2.4,1.9,5.9,1.6,8-0.7L170,64.5V91c0,3.3,2.7,6,6,6s6-2.7,6-6V50c0-3.3-2.7-6-6-6h-40c-3.3,0-6,2.7-6,6s2.7,6,6,6h25.5l-39,41.6
	L100.9,81z"/>
</svg>
