<?xml version="1.0" encoding="utf-8"?>
<!-- Generator: Adobe Illustrator 18.0.0, SVG Export Plug-In . SVG Version: 6.00 Build 0)  -->
<!DOCTYPE svg PUBLIC "-//W3C//DTD SVG 1.1//EN" "http://www.w3.org/Graphics/SVG/1.1/DTD/svg11.dtd">
<svg version="1.1" id="Layer_1" xmlns="http://www.w3.org/2000/svg" xmlns:xlink="http://www.w3.org/1999/xlink" x="0px" y="0px"
	 viewBox="0 0 216 216" enable-background="new 0 0 216 216" xml:space="preserve">
<path d="M40.8,128.3c-0.5-3.3-3.6-5.5-6.8-5c-3.3,0.5-5.5,3.6-5,6.8c1.3,8.2,9,23.1,29,25.4v9.4c0,3.3,2.7,6,6,6s6-2.7,6-6v-9.5
	c22.9-2.6,29.2-19,29.2-28.1c0-10-3.5-22-29.2-28.1V68.7c12.3,2.1,14.7,10,14.9,11l0-0.1l11.8-2.4c-0.2-0.8-4-17.9-26.6-20.6V48
	c0-3.3-2.7-6-6-6s-6,2.7-6,6v8.4C31,59.1,30.7,81,30.7,82c0,0.2,0,0.5,0,0.8c-0.3,8.6,2.4,20.5,27.3,26.3v34.4
	C43.5,141.1,41.1,129.7,40.8,128.3z M85,119.5c2.3,2.7,2.3,5.4,2.3,8c0,0.6-0.2,13.4-17.2,16v-31.7C78.9,114.2,83,117.2,85,119.5z
	 M44.4,89.7c-1.9-2.3-1.8-4.4-1.7-6.5c0-0.4,0-0.8,0-1.2c0-1.5,0.6-4.9,3-7.7c2.6-3.1,6.7-5,12.3-5.8v28.2
	C49.9,94.5,46.1,91.7,44.4,89.7z M144.6,135H170c3.3,0,6,2.7,6,6s-2.7,6-6,6h-28.3c-0.2,1.7-0.2,3.5-0.2,5.4c0,1.3,0,2.5,0.1,3.6
	H170c3.3,0,6,2.7,6,6s-2.7,6-6,6h-26.1c1.5,3.8,3.7,6.7,6.5,8.7c10.6,7.5,27.9,1.6,28.1,1.6c3.1-1.1,6.6,0.5,7.7,3.7
	c1.1,3.1-0.5,6.6-3.7,7.7c-0.6,0.2-8.4,2.9-18,2.9c-6.8,0-14.5-1.4-21-6c-6-4.2-10.1-10.4-12.2-18.5H124c-3.3,0-6-2.7-6-6s2.7-6,6-6
	h5.5c-0.1-1.2-0.1-2.4-0.1-3.6c0-1.8,0.1-3.6,0.2-5.4H124c-3.3,0-6-2.7-6-6s2.7-6,6-6h7.8c2.3-7.4,6.2-13.2,11.8-17.3
	c15.6-11.5,37.8-4.8,38.7-4.5c3.2,1,4.9,4.3,4,7.5c-1,3.2-4.3,4.9-7.5,4c-0.4-0.1-17.5-5.1-28.1,2.8
	C148.2,129.3,146.1,131.8,144.6,135z M121,56h2.4c-1.2-2.9-2-6.4-2-10.9c0-13.8,7.4-21.8,20.4-21.8c9.8,0,16,5.5,18.1,8.8l-10,6.6
	l0.1,0.1c-0.1-0.1-2.6-3.5-8.2-3.5c-7.1,0-8.4,3.6-8.4,9.8c0,4.7,1.3,7.1,3.4,10.7c0,0.1,0.1,0.1,0.1,0.2h9.2c3.3,0,6,2.7,6,6
	s-2.7,6-6,6h-4.7c0.1,4-1.4,8.6-4.4,14H160c3.3,0,6,2.7,6,6s-2.7,6-6,6h-34.4c-2.3,0-4.4-1.3-5.4-3.5c-1-2.1-0.7-4.6,0.8-6.4
	c4.8-5.8,8.7-13.5,8.3-16.2H121c-3.3,0-6-2.7-6-6S117.7,56,121,56z"/>
</svg>
