<?xml version="1.0" encoding="utf-8"?>
<!-- Generator: Adobe Illustrator 18.0.0, SVG Export Plug-In . SVG Version: 6.00 Build 0)  -->
<!DOCTYPE svg PUBLIC "-//W3C//DTD SVG 1.1//EN" "http://www.w3.org/Graphics/SVG/1.1/DTD/svg11.dtd">
<svg version="1.1" id="Layer_1" xmlns="http://www.w3.org/2000/svg" xmlns:xlink="http://www.w3.org/1999/xlink" x="0px" y="0px"
	 viewBox="0 0 216 216" enable-background="new 0 0 216 216" xml:space="preserve">
<path d="M52.2,123.9c-1.6,1.1-2.7,2.9-2.7,5l0.2,24.9c0,18.5,25.5,33.1,58.1,33.1s58.1-14.5,58.1-33.1v-19c0-0.3,0-0.7,0-1
	c0-0.4,0-0.7,0-1.1V132c0-0.7-0.1-1.3-0.3-1.9c-1.1-5.8-4.7-11.3-10.5-15.8c5.9-8.7,9.3-19.2,9.3-30.5c0-30.1-24.5-54.7-54.7-54.7
	S55.2,53.6,55.2,83.8c0,10.4,2.9,20.2,8.1,28.5C58.2,115.7,54.4,119.6,52.2,123.9z M107.9,174.9c-26.8,0-45.6-10.8-46.1-20.7
	c10.6,7.8,27.1,12.7,46.1,12.7c19,0,35.6-4.9,46.1-12.7C153.5,164.1,134.7,174.9,107.9,174.9z M109.9,41.1
	c23.5,0,42.7,19.1,42.7,42.7c0,23.5-19.1,42.7-42.7,42.7c-23.5,0-42.7-19.1-42.7-42.7C67.2,60.2,86.3,41.1,109.9,41.1z M70.6,121.8
	c9.9,10.3,23.8,16.6,39.2,16.6c14.5,0,27.8-5.7,37.6-15c3.1,2.4,6.3,5.8,6.6,9.8v1.4c-0.9,9.8-19.6,20.3-46.1,20.3
	c-27.2,0-46.2-11.1-46.2-21.1C61.7,129.7,64.9,125.4,70.6,121.8z M105.7,56.3c0-3.3,2.7-6,6-6c9.8,0,22.6,5.4,26.2,20.8
	c0.7,3.2-1.3,6.5-4.5,7.2c-0.5,0.1-0.9,0.2-1.4,0.2c-2.7,0-5.2-1.9-5.8-4.6c-2.5-10.7-11.7-11.5-14.5-11.5
	C108.4,62.3,105.7,59.6,105.7,56.3z M139.4,88.3l-0.2,3c-0.2,3.2-2.9,5.6-6,5.6c-0.1,0-0.3,0-0.4,0c-3.3-0.2-5.8-3.1-5.5-6.4l0.2-3
	c0.2-3.3,3.1-5.8,6.4-5.5C137.2,82.1,139.7,85,139.4,88.3z"/>
</svg>
