<?xml version="1.0" encoding="utf-8"?>
<!-- Generator: Adobe Illustrator 18.0.0, SVG Export Plug-In . SVG Version: 6.00 Build 0)  -->
<!DOCTYPE svg PUBLIC "-//W3C//DTD SVG 1.1//EN" "http://www.w3.org/Graphics/SVG/1.1/DTD/svg11.dtd">
<svg version="1.1" id="Layer_1" xmlns="http://www.w3.org/2000/svg" xmlns:xlink="http://www.w3.org/1999/xlink" x="0px" y="0px"
	 viewBox="0 0 216 216" enable-background="new 0 0 216 216" xml:space="preserve">
<path d="M165,41v73c0,3.3-2.7,6-6,6s-6-2.7-6-6V47H53v125h46c3.3,0,6,2.7,6,6s-2.7,6-6,6H47c-3.3,0-6-2.7-6-6V41c0-3.3,2.7-6,6-6
	h112C162.3,35,165,37.7,165,41z M77,82h54c3.3,0,6-2.7,6-6s-2.7-6-6-6H77c-3.3,0-6,2.7-6,6S73.7,82,77,82z M137,109c0-3.3-2.7-6-6-6
	H77c-3.3,0-6,2.7-6,6s2.7,6,6,6h54C134.3,115,137,112.3,137,109z M77,135c-3.3,0-6,2.7-6,6s2.7,6,6,6h16c3.3,0,6-2.7,6-6s-2.7-6-6-6
	H77z M166.7,135.3c-2.3-2.3-6.1-2.3-8.5,0L144,149.5l-14.3-14.3c-2.3-2.3-6.1-2.3-8.5,0c-2.3,2.3-2.3,6.1,0,8.5l14.3,14.3
	l-14.3,14.3c-2.3,2.3-2.3,6.1,0,8.5c1.2,1.2,2.7,1.8,4.2,1.8s3.1-0.6,4.2-1.8l14.3-14.3l14.3,14.3c1.2,1.2,2.7,1.8,4.2,1.8
	s3.1-0.6,4.2-1.8c2.3-2.3,2.3-6.1,0-8.5L152.5,158l14.3-14.3C169.1,141.4,169.1,137.6,166.7,135.3z"/>
</svg>
