<?xml version="1.0" encoding="utf-8"?>
<!-- Generator: Adobe Illustrator 18.0.0, SVG Export Plug-In . SVG Version: 6.00 Build 0)  -->
<!DOCTYPE svg PUBLIC "-//W3C//DTD SVG 1.1//EN" "http://www.w3.org/Graphics/SVG/1.1/DTD/svg11.dtd">
<svg version="1.1" id="Layer_1" xmlns="http://www.w3.org/2000/svg" xmlns:xlink="http://www.w3.org/1999/xlink" x="0px" y="0px"
	 viewBox="0 0 216 216" enable-background="new 0 0 216 216" xml:space="preserve">
<path d="M174.2,100.5c0.5-5.2,0.8-13.7-1.7-23c-3.6-13.9-13.9-32.1-42.2-40.6c-6.2-1.9-12.2-2.8-17.8-2.8
	c-29.1,0-44.1,25.1-49.4,42.2c-1.6-0.2-3.5-0.3-5.6-0.3c-21.1,0-35.7,12.2-40.2,33.4c-3.6,17.4,1.8,28.6,6.9,34.9
	c9.4,11.6,24.2,15.7,34,15.7H163c0.4,0,1.2,0.1,2.2,0.1c0,0,0,0,0,0c22.1,0,28.4-15.2,29.8-19.9
	C201.2,119.5,186.1,106.2,174.2,100.5z M183.5,136.7c-1.3,4.2-5.3,11.4-18.3,11.4c-0.8,0-1.3,0-1.3,0c0,0,0,0,0,0
	c-0.2,0-0.4,0-0.6,0H58.4c-7.5,0-18.5-3.5-24.7-11.2c-5.1-6.3-6.6-14.7-4.5-24.9C32.5,96,42.1,88,57.6,88c4.9,0,8.5,0.9,8.5,0.9
	c1.6,0.4,3.3,0.2,4.7-0.7c1.4-0.9,2.4-2.3,2.7-3.9c0.1-0.4,8.2-38.2,39.1-38.2c4.5,0,9.3,0.8,14.4,2.3c43.5,13,35.2,52.9,34.9,54.6
	c-0.7,3,1,6,3.9,7C166.6,110.3,189,118.3,183.5,136.7z"/>
</svg>
