<?xml version="1.0" encoding="utf-8"?>
<!-- Generator: Adobe Illustrator 18.0.0, SVG Export Plug-In . SVG Version: 6.00 Build 0)  -->
<!DOCTYPE svg PUBLIC "-//W3C//DTD SVG 1.1//EN" "http://www.w3.org/Graphics/SVG/1.1/DTD/svg11.dtd">
<svg version="1.1" id="Layer_1" xmlns="http://www.w3.org/2000/svg" xmlns:xlink="http://www.w3.org/1999/xlink" x="0px" y="0px"
	 viewBox="0 0 216 216" enable-background="new 0 0 216 216" xml:space="preserve">
<path d="M101.6,30.6c-1.7-0.1-3.3,0.7-4.5,1.9c-0.5,0.5-12.3,13.2-24.3,31.1C56.5,88.1,48.2,109.8,48.2,128c0,14,5.3,27.9,14.5,38.3
	c7.4,8.3,20.7,18.2,42,18.2c36.8,0,53.4-33,53.4-56.5c0-36.6-49.9-93-52.1-95.4C104.9,31.4,103.3,30.7,101.6,30.6z M146.1,128
	c0,18.5-12.8,44.5-41.4,44.5c-21.6,0-44.5-15.6-44.5-44.5c0-31,29.8-68.8,41.3-82.3c4.7,5.7,12.6,15.5,20.4,26.9
	C137.7,95.9,146.1,115.1,146.1,128z M102.7,143.2c5.2,0,8.8-1.3,11-4c3.7-4.6,3-12.9,2.4-15.7c-0.7-3.2,1.3-6.4,4.6-7.1
	c3.2-0.7,6.4,1.3,7.1,4.5c0.4,1.6,3.3,15.8-4.7,25.8c-4.5,5.7-11.4,8.6-20.4,8.6c-3.3,0-6-2.7-6-6S99.3,143.2,102.7,143.2z"/>
</svg>
