<?xml version="1.0" encoding="utf-8"?>
<!-- Generator: Adobe Illustrator 18.0.0, SVG Export Plug-In . SVG Version: 6.00 Build 0)  -->
<!DOCTYPE svg PUBLIC "-//W3C//DTD SVG 1.1//EN" "http://www.w3.org/Graphics/SVG/1.1/DTD/svg11.dtd">
<svg version="1.1" id="Layer_1" xmlns="http://www.w3.org/2000/svg" xmlns:xlink="http://www.w3.org/1999/xlink" x="0px" y="0px"
	 viewBox="0 0 216 216" enable-background="new 0 0 216 216" xml:space="preserve">
<path d="M110,172c-3.3,0-6,2.7-6,6s2.7,6,6,6h55c3.3,0,6-2.7,6-6V82.5c0-1.7-0.7-3.3-1.9-4.4l-45-41.5c-1.1-1-2.6-1.6-4.1-1.6H53
	c-3.3,0-6,2.7-6,6v65c0,3.3,2.7,6,6,6s6-2.7,6-6V47h48v52c0,3.3,2.7,6,6,6h45c0.3,0,0.7,0,1-0.1V172H110z M158,93h-39V48.2l40,36.9
	v8C158.7,93,158.3,93,158,93z M32.1,176.4l14.1-14.1l-13.4-13.4c-2.3-2.3-2.3-6.1,0-8.5c2.3-2.3,6.1-2.3,8.5,0l13.4,13.4l12.7-12.7
	c2.3-2.3,6.1-2.3,8.5,0c2.3,2.3,2.3,6.1,0,8.5l-12.7,12.7l13.4,13.4c2.3,2.3,2.3,6.1,0,8.5c-1.2,1.2-2.7,1.8-4.2,1.8
	s-3.1-0.6-4.2-1.8l-13.4-13.4l-14.1,14.1c-1.2,1.2-2.7,1.8-4.2,1.8s-3.1-0.6-4.2-1.8C29.7,182.6,29.7,178.8,32.1,176.4z"/>
</svg>
