<?xml version="1.0" encoding="utf-8"?>
<!-- Generator: Adobe Illustrator 18.0.0, SVG Export Plug-In . SVG Version: 6.00 Build 0)  -->
<!DOCTYPE svg PUBLIC "-//W3C//DTD SVG 1.1//EN" "http://www.w3.org/Graphics/SVG/1.1/DTD/svg11.dtd">
<svg version="1.1" id="Layer_1" xmlns="http://www.w3.org/2000/svg" xmlns:xlink="http://www.w3.org/1999/xlink" x="0px" y="0px"
	 viewBox="0 0 216 216" enable-background="new 0 0 216 216" xml:space="preserve">
<path d="M39.7,98.4c2.9,1.6,6.6,0.5,8.2-2.4l3.4-6.1c0.2,0,0.5,0.1,0.8,0.1h41c0.2,0,0.5,0,0.7,0l3,6c1.1,2.1,3.2,3.3,5.4,3.3
	c0.9,0,1.8-0.2,2.7-0.7c3-1.5,4.1-5.1,2.6-8.1L79,34.3c-1-2-3-3.2-5.2-3.3c-2.2,0-4.3,1.2-5.4,3.1l-31,56.2
	C35.8,93.2,36.8,96.8,39.7,98.4z M73.4,49.8L87.7,78H57.8L73.4,49.8z M43.7,172.8L84.9,130H48c-3.3,0-6-2.7-6-6s2.7-6,6-6h51
	c2.4,0,4.6,1.4,5.5,3.7c0.9,2.2,0.5,4.8-1.2,6.5L62.1,171H99c3.3,0,6,2.7,6,6s-2.7,6-6,6H48c-2.4,0-4.6-1.4-5.5-3.7
	C41.5,177.1,42,174.6,43.7,172.8z M136,160.6V60c0-3.3,2.7-6,6-6s6,2.7,6,6v83.4l26.5-33.5c2.1-2.6,5.8-3,8.4-1c2.6,2.1,3,5.8,1,8.4
	l-37.2,47c-1.2,1.5-2.9,2.3-4.7,2.3c-0.7,0-1.3-0.1-2-0.3C137.6,165.4,136,163.2,136,160.6z"/>
</svg>
