<?xml version="1.0" encoding="utf-8"?>
<!-- Generator: Adobe Illustrator 18.0.0, SVG Export Plug-In . SVG Version: 6.00 Build 0)  -->
<!DOCTYPE svg PUBLIC "-//W3C//DTD SVG 1.1//EN" "http://www.w3.org/Graphics/SVG/1.1/DTD/svg11.dtd">
<svg version="1.1" id="Layer_1" xmlns="http://www.w3.org/2000/svg" xmlns:xlink="http://www.w3.org/1999/xlink" x="0px" y="0px"
	 viewBox="0 0 216 216" enable-background="new 0 0 216 216" xml:space="preserve">
<path d="M166.7,62.5c-3.7-1.1-7.6-2.2-11.8-3L183,20c1.9-2.7,1.3-6.4-1.4-8.4c-2.7-1.9-6.4-1.3-8.4,1.4l-31.6,44.2
	c-8.9-1.1-18.4-1.7-28.2-1.7c-9.9,0-19.5,0.6-28.4,1.7L52.8,13c-2-2.7-5.7-3.3-8.4-1.3c-2.7,2-3.3,5.7-1.3,8.4l28.8,39.4
	c-4.1,0.9-8,1.9-11.5,3C39.2,69.1,34.8,78,34.8,84.3c0,0.2,0,0.4,0,0.7c-0.5,0.9-0.8,1.9-0.8,3v69.1c0,6.3,4.4,15.2,25.4,21.8
	c14.3,4.5,33.1,7,53.1,7c20,0,38.9-2.4,53.1-6.9c21-6.6,25.4-15.5,25.4-21.8V89.9c0.9-2,1.2-3.9,1.2-5.6
	C192.2,78,187.8,69.1,166.7,62.5z M79.7,70.2l11.6,15.9c1.2,1.6,3,2.5,4.9,2.5c1.2,0,2.5-0.4,3.5-1.2c2.7-2,3.3-5.7,1.3-8.4
	l-7.7-10.6c6.2-0.6,12.9-0.9,20.3-0.9c7.3,0,14.1,0.3,20.2,0.9l-8.6,12.1c-1.9,2.7-1.3,6.4,1.4,8.4c1.1,0.8,2.3,1.1,3.5,1.1
	c1.9,0,3.7-0.9,4.9-2.5l12.3-17.3c18.2,3.1,28.9,8.4,32.1,12c-0.2,0.6-0.3,1.1-0.3,1.7v2.6c-5.2,5.6-27.3,14.4-65.5,14.4
	c-44,0-66.7-11.7-66.7-16.7C46.8,80.8,57.9,74,79.7,70.2z M112.5,173.9c-43.9,0-66.5-11.8-66.5-16.8V99.9c3.6,2.2,8.3,4.2,14.3,6.1
	c14.3,4.5,33.2,6.9,53.2,6.9s38.9-2.5,53.2-6.9c5-1.6,9-3.2,12.3-5v56.2C179,162.3,156.4,173.9,112.5,173.9z"/>
</svg>
