<?xml version="1.0" encoding="utf-8"?>
<!-- Generator: Adobe Illustrator 18.0.0, SVG Export Plug-In . SVG Version: 6.00 Build 0)  -->
<!DOCTYPE svg PUBLIC "-//W3C//DTD SVG 1.1//EN" "http://www.w3.org/Graphics/SVG/1.1/DTD/svg11.dtd">
<svg version="1.1" id="Layer_1" xmlns="http://www.w3.org/2000/svg" xmlns:xlink="http://www.w3.org/1999/xlink" x="0px" y="0px"
	 viewBox="0 0 216 216" enable-background="new 0 0 216 216" xml:space="preserve">
<path d="M39.7,30L15.3,82.3l92.6,104.5l88.6-105.4L172,30H39.7z M105.6,42l25,33H79.3l25.3-33H105.6z M120.7,42h31.5l-11.3,26.6
	L120.7,42z M133.2,87l-27.3,67.9L79.4,87H133.2z M70.6,66.6L58.9,42h30.6L70.6,66.6z M91,149.7L35.5,87h31L91,149.7z M146.2,87H176
	l-57.3,68.2L146.2,87z M151.2,75l13.7-32.1L180.1,75H151.2z M46.5,43.9L61.2,75H31.9L46.5,43.9z"/>
</svg>
