<?xml version="1.0" encoding="utf-8"?>
<!-- Generator: Adobe Illustrator 18.0.0, SVG Export Plug-In . SVG Version: 6.00 Build 0)  -->
<!DOCTYPE svg PUBLIC "-//W3C//DTD SVG 1.1//EN" "http://www.w3.org/Graphics/SVG/1.1/DTD/svg11.dtd">
<svg version="1.1" id="Layer_1" xmlns="http://www.w3.org/2000/svg" xmlns:xlink="http://www.w3.org/1999/xlink" x="0px" y="0px"
	 viewBox="0 0 216 216" enable-background="new 0 0 216 216" xml:space="preserve">
<path d="M111.3,19.4c-47.8,0-86.6,38.8-86.6,86.6s38.8,86.6,86.6,86.6c47.8,0,86.6-38.8,86.6-86.6S159,19.4,111.3,19.4z
	 M111.3,180.6c-41.1,0-74.6-33.5-74.6-74.6s33.5-74.6,74.6-74.6c41.1,0,74.6,33.5,74.6,74.6S152.4,180.6,111.3,180.6z M161.2,77.7
	c1.5,3,0.3,6.6-2.7,8.1c-0.9,0.4-1.8,0.6-2.7,0.6c-2.2,0-4.3-1.2-5.4-3.3c-6.3-12.5-18.8-20.2-32.8-20.2c-3.3,0-6-2.7-6-6s2.7-6,6-6
	C136.3,50.9,152.9,61.2,161.2,77.7z M111.9,155.4c0,3.3-2.7,6-6,6c-18.5,0-35.2-10.3-43.5-26.9c-1.5-3-0.3-6.6,2.7-8.1
	c3-1.5,6.6-0.3,8.1,2.7c6.3,12.5,18.8,20.2,32.8,20.2C109.2,149.4,111.9,152.1,111.9,155.4z M111.3,79.1
	c-14.8,0-26.9,12.1-26.9,26.9s12.1,26.9,26.9,26.9c14.8,0,26.9-12.1,26.9-26.9S126.1,79.1,111.3,79.1z M111.3,120.9
	c-8.2,0-14.9-6.7-14.9-14.9s6.7-14.9,14.9-14.9c8.2,0,14.9,6.7,14.9,14.9S119.5,120.9,111.3,120.9z"/>
</svg>
