<?xml version="1.0" encoding="utf-8"?>
<!-- Generator: Adobe Illustrator 18.0.0, SVG Export Plug-In . SVG Version: 6.00 Build 0)  -->
<!DOCTYPE svg PUBLIC "-//W3C//DTD SVG 1.1//EN" "http://www.w3.org/Graphics/SVG/1.1/DTD/svg11.dtd">
<svg version="1.1" id="Layer_1" xmlns="http://www.w3.org/2000/svg" xmlns:xlink="http://www.w3.org/1999/xlink" x="0px" y="0px"
	 viewBox="0 0 216 216" enable-background="new 0 0 216 216" xml:space="preserve">
<path d="M175,169c3.3,0,6-2.7,6-6V53c0-3.3-2.7-6-6-6s-6,2.7-6,6v42.1l-52-47.3c-1.8-1.6-4.3-2-6.5-1s-3.6,3.1-3.6,5.5v43.8L54,47.9
	c-1.8-1.6-4.3-2-6.5-1c-2.2,1-3.6,3.1-3.6,5.5v111.4c0,2.4,1.4,4.5,3.6,5.5c0.8,0.3,1.6,0.5,2.4,0.5c1.5,0,2.9-0.5,4-1.6l53-48.2
	v43.8c0,2.4,1.4,4.5,3.6,5.5c0.8,0.3,1.6,0.5,2.4,0.5c1.5,0,2.9-0.5,4-1.6l52-47.3V163C169,166.3,171.7,169,175,169z M56,150.1V65.9
	l46.3,42.1L56,150.1z M119,150.1V65.9l46.3,42.1L119,150.1z"/>
</svg>
