<?xml version="1.0" encoding="utf-8"?>
<!-- Generator: Adobe Illustrator 18.0.0, SVG Export Plug-In . SVG Version: 6.00 Build 0)  -->
<!DOCTYPE svg PUBLIC "-//W3C//DTD SVG 1.1//EN" "http://www.w3.org/Graphics/SVG/1.1/DTD/svg11.dtd">
<svg version="1.1" id="Layer_1" xmlns="http://www.w3.org/2000/svg" xmlns:xlink="http://www.w3.org/1999/xlink" x="0px" y="0px"
	 viewBox="0 0 216 216" enable-background="new 0 0 216 216" xml:space="preserve">
<path d="M63,166h13l-6.8,26.4c-0.8,3.2,1.1,6.5,4.3,7.3c0.5,0.1,1,0.2,1.5,0.2c2.7,0,5.1-1.8,5.8-4.5l7.6-29.4h39.1l7.7,28.5
	c0.7,2.7,3.1,4.4,5.8,4.4c0.5,0,1-0.1,1.6-0.2c3.2-0.9,5.1-4.2,4.2-7.4l-6.8-25.4H153c3.3,0,6-2.7,6-6V50c0-3.3-2.7-6-6-6h-31.9
	l-7.5-22.8c-0.8-2.5-3.1-4.2-5.7-4.2c0,0,0,0,0,0c-2.6,0-4.9,1.7-5.7,4.2L94.8,44H63c-3.3,0-6,2.7-6,6v110C57,163.3,59.7,166,63,166
	z M108,42.4l0.5,1.6h-1L108,42.4z M69,56h78v98H86.3c-0.3-0.1-0.6-0.2-0.9-0.3c-1.3-0.3-2.7-0.2-3.9,0.3H69V56z"/>
</svg>
