<?xml version="1.0" encoding="utf-8"?>
<!-- Generator: Adobe Illustrator 18.0.0, SVG Export Plug-In . SVG Version: 6.00 Build 0)  -->
<!DOCTYPE svg PUBLIC "-//W3C//DTD SVG 1.1//EN" "http://www.w3.org/Graphics/SVG/1.1/DTD/svg11.dtd">
<svg version="1.1" id="Layer_1" xmlns="http://www.w3.org/2000/svg" xmlns:xlink="http://www.w3.org/1999/xlink" x="0px" y="0px"
	 viewBox="0 0 216 216" enable-background="new 0 0 216 216" xml:space="preserve">
<path d="M108.6,168.9c0.8,0.3,1.6,0.5,2.4,0.5c1.5,0,2.9-0.5,4-1.6l60.9-55.4c1.2-1.1,2-2.7,2-4.4s-0.7-3.3-2-4.4L115,48.2
	c-1.8-1.6-4.3-2-6.5-1s-3.6,3.1-3.6,5.5v42.9L53,48.2c-1.8-1.6-4.3-2-6.5-1S43,50.2,43,52.6v110.8c0,2.4,1.4,4.5,3.6,5.5
	c0.8,0.3,1.6,0.5,2.4,0.5c1.5,0,2.9-0.5,4-1.6l52-47.3v42.9C105,165.8,106.4,167.9,108.6,168.9z M55,149.8V66.2l46,41.8L55,149.8z
	 M117,66.2l46,41.8l-46,41.8V66.2z"/>
</svg>
