<?xml version="1.0" encoding="utf-8"?>
<!-- Generator: Adobe Illustrator 18.0.0, SVG Export Plug-In . SVG Version: 6.00 Build 0)  -->
<!DOCTYPE svg PUBLIC "-//W3C//DTD SVG 1.1//EN" "http://www.w3.org/Graphics/SVG/1.1/DTD/svg11.dtd">
<svg version="1.1" id="Layer_1" xmlns="http://www.w3.org/2000/svg" xmlns:xlink="http://www.w3.org/1999/xlink" x="0px" y="0px"
	 viewBox="0 0 216 216" enable-background="new 0 0 216 216" xml:space="preserve">
<path d="M118.4,186.2c1.5,1.4,3.7,1.8,5.7,1.3c1.4-0.4,34.3-10.5,50.8-45.5c7.2-15.3,5.5-33.2-4.9-51.6c-7.6-13.3-17-22.3-17.4-22.7
	c-1.3-1.2-3.2-1.8-5-1.6c-1.8,0.3-3.4,1.3-4.3,2.9l-10.9,18.6c-5.4-11.3-7.8-36-9.8-56.6c-0.2-2.3-1.7-4.2-3.8-5
	c-2.1-0.8-4.5-0.4-6.2,1.1C93.3,44.3,82.3,57.4,73.7,81.9l-9-13.1c-1-1.5-2.6-2.4-4.4-2.6c-1.8-0.2-3.5,0.5-4.8,1.7
	c-0.7,0.7-16.2,16.6-19.5,58.4c-1.5,18.7,7.9,35.4,27.2,48.5c13.9,9.4,28.1,13.6,28.7,13.8c0.5,0.2,1.1,0.4,1.7,0.4c0,0,0,0,0,0
	c3.3,0,6-2.8,6-6.1c0-0.4,0-0.9-0.1-1.2c-0.8-8.8,0.1-21.3,7.7-34.7c7.3,13.2,10.6,25.3,9.2,33.8
	C116.2,182.8,116.9,184.9,118.4,186.2z M112.6,132.4c-1.1-1.6-2.9-2.7-4.8-2.7c-1.9-0.1-3.8,0.8-5,2.4c-11.5,15.2-15,30.1-15.4,42
	c-14-5.9-41.4-20.7-39.3-46.7c1.5-19.3,5.8-32.1,9.2-39.5c0.9-2,1.8-3.6,2.6-5l11.1,16.2c1.3,1.9,3.6,2.9,5.9,2.5
	c2.3-0.4,4.2-2.1,4.8-4.3c7.3-26.4,15.8-39,30.1-52.9c3.4,31.7,7.1,51.7,18.1,58.8c1.4,0.9,3,1.2,4.6,0.8c1.6-0.4,3-1.4,3.8-2.8
	l11.2-19c3,3.5,6.8,8.6,10.2,14.5c8.4,15,9.9,28.5,4.4,40.3c-9.5,20.3-25.8,31-35.4,35.8C127.5,161,122,147.1,112.6,132.4z"/>
</svg>
