<?xml version="1.0" encoding="utf-8"?>
<!-- Generator: Adobe Illustrator 18.0.0, SVG Export Plug-In . SVG Version: 6.00 Build 0)  -->
<!DOCTYPE svg PUBLIC "-//W3C//DTD SVG 1.1//EN" "http://www.w3.org/Graphics/SVG/1.1/DTD/svg11.dtd">
<svg version="1.1" id="Layer_1" xmlns="http://www.w3.org/2000/svg" xmlns:xlink="http://www.w3.org/1999/xlink" x="0px" y="0px"
	 viewBox="0 0 216 216" enable-background="new 0 0 216 216" xml:space="preserve">
<path d="M83.6,42c0,11.9,8.5,21.8,19.7,24c-5.6,1.3-10.4,4.8-13.1,9.5c-0.3,0.2-0.6,0.4-0.8,0.6l-38.6,35.7c-2.4,2.3-2.6,6-0.3,8.5
	c1.2,1.3,2.8,1.9,4.4,1.9c1.5,0,2.9-0.5,4.1-1.6l25.6-23.7l-5.6,23.3c-0.1,0.4-0.1,0.7-0.2,1.1c-0.7,2.4-6.1,9.7-9.3,14.1
	c-8,10.7-12,15.9-9.4,21c1.2,2.4,3.6,3.6,6.5,3.6h21.3l-4.5,31c-0.5,3.3,1.8,6.4,5.1,6.9c0.3,0,0.6,0.1,0.9,0.1
	c2.9,0,5.5-2.4,5.9-5.3l4.7-32.7h17.3l6.8,33c0.6,2.8,3.1,4.9,5.9,4.9c0.4,0,0.8,0,1.2-0.1c3.2-0.7,5.3-4.1,4.7-7.3l-6.3-30.5h23.8
	c2.9,0,5.4-1.2,6.5-3.7c2.4-5.2-1.8-9.9-11-20.5c-4-4.5-10.5-12-11.5-14.7c0-0.3-0.1-0.6-0.1-0.9l-5.6-23.1l24.8,23.7
	c1.2,1.1,2.7,1.7,4.1,1.7c1.6,0,3.2-0.6,4.3-1.9c2.3-2.4,2.2-6.2-0.2-8.5l-38-36.3c-0.3-0.3-0.6-0.5-1-0.8
	c-2.8-4.5-7.4-7.9-12.9-9.1c11.2-2.2,19.7-12.1,19.7-24c0-13.5-10.9-24.4-24.4-24.4S83.6,28.5,83.6,42z M116.2,84
	c0,0.5,0.1,1.1,0.2,1.5l8.9,36.9c0.5,4.9,4.9,10.2,14.3,21c1.2,1.4,2.7,3.5,4.1,4.5h-69c1.4-2,3.1-3.9,4.4-5.7
	c7-9.4,11.2-15.1,11.7-19.9l8.9-36.8c0.1-0.5,0.2-1.1,0.2-1.6c0-3.5,3.9-7,8-7h0.4C112.3,77,116.2,80.5,116.2,84z M120.4,42
	c0,6.8-5.6,12.4-12.4,12.4S95.6,48.8,95.6,42s5.6-12.4,12.4-12.4S120.4,35.2,120.4,42z"/>
</svg>
