<?xml version="1.0" encoding="utf-8"?>
<!-- Generator: Adobe Illustrator 18.0.0, SVG Export Plug-In . SVG Version: 6.00 Build 0)  -->
<!DOCTYPE svg PUBLIC "-//W3C//DTD SVG 1.1//EN" "http://www.w3.org/Graphics/SVG/1.1/DTD/svg11.dtd">
<svg version="1.1" id="Layer_1" xmlns="http://www.w3.org/2000/svg" xmlns:xlink="http://www.w3.org/1999/xlink" x="0px" y="0px"
	 viewBox="0 0 216 216" enable-background="new 0 0 216 216" xml:space="preserve">
<path d="M169,42c0-3.3-2.7-6-6-6H53c-3.3,0-6,2.7-6,6v138c0,3.3,2.7,6,6,6h110c3.3,0,6-2.7,6-6V42z M157,174H59V48h98V174z M75,77
	c0-3.3,2.7-6,6-6h54c3.3,0,6,2.7,6,6s-2.7,6-6,6H81C77.7,83,75,80.3,75,77z M75,109c0-3.3,2.7-6,6-6h54c3.3,0,6,2.7,6,6s-2.7,6-6,6
	H81C77.7,115,75,112.3,75,109z M75,143c0-3.3,2.7-6,6-6h54c3.3,0,6,2.7,6,6s-2.7,6-6,6H81C77.7,149,75,146.3,75,143z"/>
</svg>
