<?xml version="1.0" encoding="utf-8"?>
<!-- Generator: Adobe Illustrator 18.0.0, SVG Export Plug-In . SVG Version: 6.00 Build 0)  -->
<!DOCTYPE svg PUBLIC "-//W3C//DTD SVG 1.1//EN" "http://www.w3.org/Graphics/SVG/1.1/DTD/svg11.dtd">
<svg version="1.1" id="Layer_1" xmlns="http://www.w3.org/2000/svg" xmlns:xlink="http://www.w3.org/1999/xlink" x="0px" y="0px"
	 viewBox="0 0 216 216" enable-background="new 0 0 216 216" xml:space="preserve">
<path d="M182.2,35H41.7c-3.3,0-5.7,2.8-5.7,6.1v139.1c0,0.1,0,0.1,0,0.2v0.1c0,3.3,2.4,6.5,5.7,6.5h24.8c0.6,0,1.2-1,1.8-1h87.3
	c0.6,0,1.2,1,1.8,1h24.8c3.3,0,5.8-3.2,5.8-6.5v-0.1c0-0.1,0-0.1,0-0.2V41.1C188,37.8,185.5,35,182.2,35z M163,94h13v11h-13V94z
	 M176,82h-13V70h13V82z M176,117v11h-13v-11H176z M163,140h13v11h-13V140z M176,47v11h-13V47H176z M151,64.4v23.2V105H73V87.6V64.4
	V47h78V64.4z M61,105H48V94h13V105z M61,82H48V70h13V82z M48,140h13v11H48V140z M61,128H48v-11h13V128z M61,58H48V47h13V58z M48,174
	v-11h13v11H48z M73,157.3v-23.2V117h78v17.1v23.2V174H73V157.3z M163,163h13v11h-13V163z"/>
</svg>
