<?xml version="1.0" encoding="utf-8"?>
<!-- Generator: Adobe Illustrator 18.0.0, SVG Export Plug-In . SVG Version: 6.00 Build 0)  -->
<!DOCTYPE svg PUBLIC "-//W3C//DTD SVG 1.1//EN" "http://www.w3.org/Graphics/SVG/1.1/DTD/svg11.dtd">
<svg version="1.1" id="Layer_1" xmlns="http://www.w3.org/2000/svg" xmlns:xlink="http://www.w3.org/1999/xlink" x="0px" y="0px"
	 viewBox="0 0 216 216" enable-background="new 0 0 216 216" xml:space="preserve">
<path d="M149,21H66.6c-3.3,0-5.6,3-5.6,6.3v156.4c0,3.3,2.3,6.3,5.6,6.3H149c3.3,0,6-2.9,6-6.3V84.4c0-0.1,0-0.3,0-0.4s0-0.3,0-0.4
	V27.3C155,24,152.3,21,149,21z M143,33v45H73V33H143z M73,178V90h70v88H73z M96,108v24c0,3.3-2.7,6-6,6s-6-2.7-6-6v-24
	c0-3.3,2.7-6,6-6S96,104.7,96,108z M84,61V49c0-3.3,2.7-6,6-6s6,2.7,6,6v12c0,3.3-2.7,6-6,6S84,64.3,84,61z"/>
</svg>
