<?xml version="1.0" encoding="utf-8"?>
<!-- Generator: Adobe Illustrator 18.0.0, SVG Export Plug-In . SVG Version: 6.00 Build 0)  -->
<!DOCTYPE svg PUBLIC "-//W3C//DTD SVG 1.1//EN" "http://www.w3.org/Graphics/SVG/1.1/DTD/svg11.dtd">
<svg version="1.1" id="Layer_1" xmlns="http://www.w3.org/2000/svg" xmlns:xlink="http://www.w3.org/1999/xlink" x="0px" y="0px"
	 viewBox="0 0 216 216" enable-background="new 0 0 216 216" xml:space="preserve">
<path d="M179.5,34.5c-3.3,0-6,2.7-6,6s2.7,6,6,6c3.9,0,7,2.3,7.8,5.7c-0.2,0.6-0.3,1.2-0.3,1.8v41c-7.2-7.1-17.1-11.5-28-11.5
	c-14.6,0-27.3,7.8-34.3,19.5c-3.6-3.4-8.4-5.5-13.7-5.5s-10.1,2.1-13.7,5.5c-7-11.6-19.8-19.5-34.3-19.5c-11.4,0-21.7,4.8-29,12.5
	V56.4c0.3-0.7,0.5-1.5,0.5-2.4c0-4.4,3.1-7.5,7.5-7.5c3.3,0,6-2.7,6-6s-2.7-6-6-6c-10.1,0-18,7-19.3,16.7C22.3,52,22,53,22,54v70
	c0,1.4,0.5,2.6,1.2,3.6c2.1,20.1,19.1,35.9,39.8,35.9c22.1,0,40-17.9,40-40c0-1.5-0.1-2.9-0.2-4.3c0.2-0.5,0.2-1.1,0.2-1.7
	c0-4.4,3.6-8,8-8s8,3.6,8,8c0,0.6,0.1,1.1,0.2,1.7c-0.2,1.4-0.2,2.9-0.2,4.3c0,22.1,17.9,40,40,40c21.7,0,39.4-17.4,40-39
	c0-0.2,0-0.3,0-0.5V56.4c0.3-0.7,0.5-1.5,0.5-2.4C199.5,43.1,190.7,34.5,179.5,34.5z M63,151.5c-15.4,0-28-12.6-28-28s12.6-28,28-28
	s28,12.6,28,28S78.4,151.5,63,151.5z M159,151.5c-15.4,0-28-12.6-28-28s12.6-28,28-28s28,12.6,28,28S174.4,151.5,159,151.5z"/>
</svg>
