<?xml version="1.0" encoding="utf-8"?>
<!-- Generator: Adobe Illustrator 18.0.0, SVG Export Plug-In . SVG Version: 6.00 Build 0)  -->
<!DOCTYPE svg PUBLIC "-//W3C//DTD SVG 1.1//EN" "http://www.w3.org/Graphics/SVG/1.1/DTD/svg11.dtd">
<svg version="1.1" id="Layer_1" xmlns="http://www.w3.org/2000/svg" xmlns:xlink="http://www.w3.org/1999/xlink" x="0px" y="0px"
	 viewBox="0 0 216 216" enable-background="new 0 0 216 216" xml:space="preserve">
<path d="M190.1,121.1c-0.7-2.4-2.8-4.1-5.3-4.1h-16.7l-7.9-28.9c-0.7-2.4-2.8-4.1-5.3-4.1h-17l-7.9-28.9c-0.7-2.4-2.8-4.1-5.3-4.1
	H90.4c-2.5,0-4.7,1.7-5.3,4.1L77.4,84H59.9c-2.5,0-4.7,1.7-5.3,4.1L46.9,117H31c-2.5,0-4.7,1.7-5.3,4.1l-8.8,33
	c-0.4,1.7-0.1,3.4,1,4.8c1,1.4,2.7,2.1,4.4,2.1h52.1c1.7,0,3.2-0.8,4.3-2c1,1.3,2.6,2,4.3,2H135c1.2,0,2.4-0.4,3.3-1.1
	c0.9,0.7,2.1,1.1,3.3,1.1h52.1c1.7,0,3.3-0.8,4.4-2.2c1-1.4,1.4-3.1,0.9-4.8L190.1,121.1z M156.7,117h-6.3H126h-7.1l5.9-22h9h17
	L156.7,117z M107.4,117l-6-22h11.9l-5.9,22H107.4z M94.6,62h25.9l6,22h-6H94.3h-5.5L94.6,62z M64.1,95h17.5h8.4l6,22h-4.4H65.4h-7.1
	L64.1,95z M29.4,150l5.9-22h15.9h10.1l6,22H29.4z M78.6,150.2l-6-22.2h11.9L78.6,150.2z M90,150l5.9-22h7.3h8.5h10.1l6,22H90z
	 M138.3,146.7l-5.1-18.7h10.1L138.3,146.7z M148.8,150l5.9-22h9.2h16.7l6,22H148.8z"/>
</svg>
