<?xml version="1.0" encoding="utf-8"?>
<!-- Generator: Adobe Illustrator 18.0.0, SVG Export Plug-In . SVG Version: 6.00 Build 0)  -->
<!DOCTYPE svg PUBLIC "-//W3C//DTD SVG 1.1//EN" "http://www.w3.org/Graphics/SVG/1.1/DTD/svg11.dtd">
<svg version="1.1" id="Layer_1" xmlns="http://www.w3.org/2000/svg" xmlns:xlink="http://www.w3.org/1999/xlink" x="0px" y="0px"
	 viewBox="0 0 216 216" enable-background="new 0 0 216 216" xml:space="preserve">
<path d="M191.6,107.3c-0.4-45.7-37.7-82.8-83.6-82.8c-45.8,0-83.2,37.1-83.6,82.9c0,0.2,0,0.4,0,0.6c0,0,0,0.1,0,0.1s0,0.1,0,0.1
	c0,0.2,0,0.4,0,0.6c0.4,45.8,37.7,82.9,83.6,82.9c45.8,0,83.2-37.1,83.6-82.8c0-0.2,0-0.5,0-0.7S191.6,107.5,191.6,107.3z
	 M78.5,42.8C71.9,52.4,66.8,65.2,64,80c-4.5,1-8.8,2.2-12.8,3.6c-4.8,1.7-8.9,3.4-12.2,5.2C44.8,68.3,59.4,51.5,78.5,42.8z
	 M36.4,108c0-3.3,5.8-8.6,18.7-13c2.2-0.8,4.6-1.5,7-2.1c-0.5,4.9-0.7,10-0.7,15.2s0.3,10.3,0.7,15.2c-2.5-0.7-4.8-1.4-7-2.1
	C42.2,116.6,36.4,111.3,36.4,108z M39.1,127.2c3.3,1.8,7.3,3.6,12.2,5.2c3.9,1.3,8.2,2.5,12.8,3.6c2.9,14.8,7.9,27.7,14.6,37.2
	C59.4,164.5,44.8,147.7,39.1,127.2z M102,178.4c-6.3-2.5-12.5-8.9-17.4-18.3c-3.3-6.4-6-13.7-7.8-21.8c8,1.2,16.5,1.9,25.3,2.1
	V178.4z M102,128.4c-9.7-0.3-19-1.1-27.5-2.6c-0.7-5.8-1.1-11.7-1.1-17.8s0.4-12.1,1.1-17.8c8.5-1.4,17.8-2.3,27.5-2.6V128.4z
	 M102,75.6c-8.8,0.2-17.3,0.9-25.3,2.1c1.9-8,4.5-15.4,7.8-21.8c4.9-9.4,11.1-15.8,17.4-18.3V75.6z M176.9,88.8
	c-3.3-1.8-7.3-3.6-12.2-5.2c-3.9-1.3-8.2-2.5-12.8-3.6c-2.9-14.8-7.9-27.7-14.6-37.2C156.6,51.5,171.2,68.3,176.9,88.8z M114,37.6
	c6.3,2.5,12.5,8.9,17.4,18.3c3.3,6.4,6,13.7,7.8,21.8c-8-1.2-16.5-1.9-25.3-2.1V37.6z M114,87.6c9.7,0.3,19,1.1,27.5,2.6
	c0.7,5.8,1.1,11.7,1.1,17.8s-0.4,12.1-1.1,17.8c-8.5,1.4-17.8,2.3-27.5,2.6V87.6z M114,178.4v-38c8.8-0.2,17.3-0.9,25.3-2.1
	c-1.9,8-4.5,15.4-7.8,21.8C126.5,169.5,120.3,175.9,114,178.4z M137.5,173.2c6.6-9.6,11.7-22.4,14.6-37.2c4.5-1,8.8-2.2,12.8-3.6
	c4.8-1.7,8.9-3.4,12.2-5.2C171.2,147.7,156.6,164.5,137.5,173.2z M160.9,121c-2.2,0.8-4.6,1.5-7,2.1c0.5-4.9,0.7-10,0.7-15.2
	s-0.3-10.3-0.7-15.2c2.5,0.7,4.8,1.4,7,2.1c12.9,4.4,18.7,9.7,18.7,13S173.8,116.6,160.9,121z"/>
</svg>
