<?xml version="1.0" encoding="utf-8"?>
<!-- Generator: Adobe Illustrator 18.0.0, SVG Export Plug-In . SVG Version: 6.00 Build 0)  -->
<!DOCTYPE svg PUBLIC "-//W3C//DTD SVG 1.1//EN" "http://www.w3.org/Graphics/SVG/1.1/DTD/svg11.dtd">
<svg version="1.1" id="Layer_1" xmlns="http://www.w3.org/2000/svg" xmlns:xlink="http://www.w3.org/1999/xlink" x="0px" y="0px"
	 viewBox="0 0 216 216" enable-background="new 0 0 216 216" xml:space="preserve">
<path d="M108,24.4c-46.1,0-83.6,37.5-83.6,83.6s37.5,83.6,83.6,83.6s83.6-37.5,83.6-83.6S154.1,24.4,108,24.4z M174.3,81
	c-5.7-3.9-12.7-7.3-20.6-9.9c-3-10.1-7.1-19-12.2-26.3C156.2,52.6,167.9,65.4,174.3,81z M158.5,102c-0.2-5.9-0.8-11.5-1.7-17
	c1.2,0.5,2.3,1,3.4,1.6c9.1,4.4,15.3,9.8,17.9,15.4H158.5z M146.5,102H114V76.2c10.5,0.4,20.5,1.9,29.6,4.3
	C145.2,87.2,146.2,94.5,146.5,102z M114,64.2V37.3c10.4,3.2,19.6,14.4,25.5,29.9C131.6,65.6,123,64.5,114,64.2z M102,37.3v26.9
	c-9,0.3-17.6,1.4-25.5,3C82.4,51.7,91.6,40.5,102,37.3z M102,76.2V102H69.5c0.4-7.5,1.4-14.8,2.9-21.5C81.5,78.1,91.5,76.6,102,76.2
	z M57.5,102H37.9c2.6-5.6,8.8-11,17.9-15.4c1.1-0.5,2.3-1.1,3.4-1.6C58.3,90.5,57.7,96.1,57.5,102z M57.5,114
	c0.2,5.9,0.8,11.5,1.7,17c-1.2-0.5-2.3-1-3.4-1.6c-9.1-4.4-15.3-9.8-17.9-15.4H57.5z M69.5,114H102v25.8
	c-10.5-0.4-20.5-1.9-29.6-4.3C70.8,128.8,69.8,121.5,69.5,114z M102,151.8v26.9c-10.4-3.2-19.6-14.4-25.5-29.9
	C84.4,150.4,93,151.5,102,151.8z M114,178.7v-26.9c9-0.3,17.6-1.4,25.5-3C133.6,164.3,124.4,175.5,114,178.7z M114,139.8V114h32.5
	c-0.4,7.5-1.4,14.8-2.9,21.5C134.5,137.9,124.5,139.4,114,139.8z M158.5,114h19.6c-2.6,5.6-8.8,11-17.9,15.4
	c-1.1,0.5-2.3,1.1-3.4,1.6C157.7,125.5,158.3,119.9,158.5,114z M74.6,44.7C69.5,52,65.3,60.9,62.4,71c-7.9,2.7-14.9,6-20.6,9.9
	C48.1,65.4,59.8,52.6,74.6,44.7z M41.7,135c5.7,3.9,12.7,7.3,20.6,9.9c3,10.1,7.1,19,12.2,26.3C59.8,163.4,48.1,150.6,41.7,135z
	 M141.4,171.3c5.1-7.3,9.2-16.2,12.2-26.3c7.9-2.7,14.9-6,20.6-9.9C167.9,150.6,156.2,163.4,141.4,171.3z"/>
</svg>
