<?xml version="1.0" encoding="utf-8"?>
<!-- Generator: Adobe Illustrator 18.0.0, SVG Export Plug-In . SVG Version: 6.00 Build 0)  -->
<!DOCTYPE svg PUBLIC "-//W3C//DTD SVG 1.1//EN" "http://www.w3.org/Graphics/SVG/1.1/DTD/svg11.dtd">
<svg version="1.1" id="Layer_1" xmlns="http://www.w3.org/2000/svg" xmlns:xlink="http://www.w3.org/1999/xlink" x="0px" y="0px"
	 viewBox="0 0 216 216" enable-background="new 0 0 216 216" xml:space="preserve">
<path d="M38.7,122H45v59.3c0,3.3,2.4,5.7,5.7,5.7h114.6c3.3,0,5.7-2.4,5.7-5.7V122h6.3c3.3,0,5.7-2.3,5.7-5.7V74.9
	c0-3.3-2.4-5.9-5.7-5.9h-28.2c13.2-7,19.9-13.4,20.9-20.8c0.6-4.5-0.8-11-10.5-16.9c-10.3-6.2-18.8-4.9-24.2-2.7
	c-8.8,3.6-16.6,12.4-23,26.2c-1,2.1-1.8,4.1-2.6,6c-0.8-1.9-1.6-3.9-2.6-6c-6.5-13.8-14.2-22.6-23-26.2c-5.4-2.2-13.9-3.5-24.2,2.7
	c-9.8,5.9-11.1,12.5-10.5,17C50.3,55.6,57,62,70.2,69H38.7c-3.3,0-5.7,2.6-5.7,5.9v41.4C33,119.7,35.4,122,38.7,122z M57,122h45v53
	H57V122z M159,175h-45v-53h45V175z M171,110h-5.7H114V81h3.3c0,0,0,0,0,0c0,0,0,0,0,0H171V110z M123.2,59.8
	C128.2,49,134,42,139.9,39.6c1.5-0.6,3-0.9,4.6-0.9c2.8,0,5.7,0.9,8.8,2.8c3.1,1.9,5,3.9,4.9,5.1c-0.7,5.4-18.2,15-38.4,21.3
	C120.7,65.5,121.8,62.7,123.2,59.8z M61.2,46.6c-0.2-1.2,1.7-3.2,4.9-5.1c3.1-1.9,6-2.8,8.8-2.8c1.6,0,3.1,0.3,4.6,0.9
	c9.3,3.8,16.3,17.9,20.2,28.3C79.4,61.6,61.9,52,61.2,46.6z M45,81h57v29H50.7H45V81z"/>
</svg>
