<?xml version="1.0" encoding="utf-8"?>
<!-- Generator: Adobe Illustrator 18.0.0, SVG Export Plug-In . SVG Version: 6.00 Build 0)  -->
<!DOCTYPE svg PUBLIC "-//W3C//DTD SVG 1.1//EN" "http://www.w3.org/Graphics/SVG/1.1/DTD/svg11.dtd">
<svg version="1.1" id="Layer_1" xmlns="http://www.w3.org/2000/svg" xmlns:xlink="http://www.w3.org/1999/xlink" x="0px" y="0px"
	 viewBox="0 0 216 216" enable-background="new 0 0 216 216" xml:space="preserve">
<path d="M188.4,83h-70.7c-0.4,0-0.8-0.3-1.3-0.5C106,78.8,96,72.4,95.8,69.1c0-0.6,1.2-2.9,7.4-5.8c13.3-6.3,20.4-13.7,21.2-22
	c0.9-9.6-6.9-15.5-7.8-16.1c-2.7-1.9-6.5-1.4-8.4,1.3c-1.9,2.7-1.4,6.4,1.3,8.4c0,0,3.3,2.6,3,5.4c-0.1,1.3-1.6,6.1-14.4,12.3
	c-9.8,4.7-14.6,10.3-14.2,17.1c0.3,5.3,3.8,10.4,8.4,13.4H27.8c-3.3,0-6.3,3-6.3,6.3v84c0,3.3,3,5.7,6.3,5.7h160.7
	c3.3,0,6-2.4,6-5.7v-84C194.4,86,191.7,83,188.4,83z M182.4,167h-149V95h149V167z M45.4,131c0-3.3,2.7-6,6-6h12v-12c0-3.3,2.7-6,6-6
	s6,2.7,6,6v12h11c3.3,0,6,2.7,6,6s-2.7,6-6,6h-11v11c0,3.3-2.7,6-6,6s-6-2.7-6-6v-11h-12C48.1,137,45.4,134.3,45.4,131z
	 M122.4,135.3c0-5.1,4.1-9.2,9.2-9.2c5.1,0,9.2,4.1,9.2,9.2s-4.1,9.2-9.2,9.2C126.5,144.5,122.4,140.4,122.4,135.3z M148.7,123.7
	c0-5.1,4.1-9.2,9.2-9.2c5.1,0,9.2,4.1,9.2,9.2s-4.1,9.2-9.2,9.2C152.8,132.8,148.7,128.7,148.7,123.7z"/>
</svg>
