<?xml version="1.0" encoding="utf-8"?>
<!-- Generator: Adobe Illustrator 18.0.0, SVG Export Plug-In . SVG Version: 6.00 Build 0)  -->
<!DOCTYPE svg PUBLIC "-//W3C//DTD SVG 1.1//EN" "http://www.w3.org/Graphics/SVG/1.1/DTD/svg11.dtd">
<svg version="1.1" id="Layer_1" xmlns="http://www.w3.org/2000/svg" xmlns:xlink="http://www.w3.org/1999/xlink" x="0px" y="0px"
	 viewBox="0 0 216 216" enable-background="new 0 0 216 216" xml:space="preserve">
<path d="M172.7,178c0-23.3-6.4-38.7-19.6-47.1c-5.8-3.7-12.5-5.8-19.5-7c7.1-5.7,12.3-13.7,14.4-22.9h7.8v2.9
	c0,5.4,4.7,9.8,10.1,9.8h0c5.4,0,9.9-4.4,9.9-9.8V86.2c0-5.4-4.3-9.8-9.8-9.8h0c-0.1,0-0.1,0-0.2,0c-7.1-25.6-30.6-44.4-58.5-44.4
	c-27.8,0-51.3,18.8-58.5,44.4c-5.1,0.4-9.1,4.6-9.1,9.8v17.7c0,5.4,4.4,9.8,9.8,9.8h0.2c5.4,0,10-4.4,10-9.8V86.2
	c0-0.5-0.2-1-0.3-1.5c3.8-23.1,23.8-40.7,48-40.7c25.6,0,46.6,19.9,48.5,45.1h-7c-1.3-21.9-19.4-39.3-41.6-39.3
	c-23,0-41.7,18.7-41.7,41.7c0,13.4,6.4,25.4,16.3,33c-6,1.3-11.6,3.2-16.6,6.5c-13.2,8.4-19.6,23.9-19.6,47.1c0,3.3,2.7,6,6,6h114.9
	C170,184,172.7,181.3,172.7,178z M77.8,91.4c0-16.4,13.3-29.7,29.7-29.7c15.6,0,28.4,12,29.6,27.3h-19.2c-3.3,0-6,2.7-6,6s2.7,6,6,6
	h17.7c-4,11.7-15.1,20.1-28.1,20.1C91.1,121.1,77.8,107.8,77.8,91.4z M58,172c2-34.9,21.8-37.6,51.3-37.6s49.3,2.7,51.3,37.6H58z"/>
</svg>
