<?xml version="1.0" encoding="utf-8"?>
<!-- Generator: Adobe Illustrator 18.0.0, SVG Export Plug-In . SVG Version: 6.00 Build 0)  -->
<!DOCTYPE svg PUBLIC "-//W3C//DTD SVG 1.1//EN" "http://www.w3.org/Graphics/SVG/1.1/DTD/svg11.dtd">
<svg version="1.1" id="Layer_1" xmlns="http://www.w3.org/2000/svg" xmlns:xlink="http://www.w3.org/1999/xlink" x="0px" y="0px"
	 viewBox="0 0 216 216" enable-background="new 0 0 216 216" xml:space="preserve">
<path d="M181.2,109.3c0-42.1-31.9-76.3-71-76.3c-38.7,0-70.2,33.4-70.9,74.8c-0.2,1.2-0.3,2.5-0.3,3.8v27c0,11.6,9.4,21,21,21
	c11.6,0,21-9.4,21-21v-27c0-11.6-9.5-21-21.1-21c-2.2,0-4.4,0.4-6.4,1c7.1-26.8,29.8-46.5,56.7-46.5c27,0,49.8,19.9,56.8,46.9
	c-2.3-0.8-4.6-1.3-7.2-1.3c-11.6,0-20.9,9.4-20.9,21v27c0,8.8,5.3,16.4,13,19.5c-2.6,4.7-8.5,10.9-20.3,10.9h-29.7c-3.3,0-6,2.7-6,6
	s2.7,6,6,6h29.7c19.7,0,29.6-12.9,33-22c9.3-2.2,16.3-10.5,16.3-20.5v-26l0.3-2.2C181.2,110,181.2,109.6,181.2,109.3z M59.8,102.5
	c5,0,9.1,4.1,9.1,9v27c0,5-4.1,9.4-9.1,9.4h0c-5,0-9-4.5-9-9.4v-27c0-0.1,0-0.2,0-0.4c0.2-0.6,0.3-1.2,0.3-1.9c0,0,0-0.1,0-0.1
	C52.2,105.3,55.7,102.5,59.8,102.5z M159.9,147.6c-5,0-9-4.1-9-9v-27c0-5,4-9,9-9s9,4.1,9,9v0.1c0,0.5,0,1,0,1.4v25.5
	C168.9,143.5,164.9,147.6,159.9,147.6z"/>
</svg>
