<?xml version="1.0" encoding="utf-8"?>
<!-- Generator: Adobe Illustrator 18.0.0, SVG Export Plug-In . SVG Version: 6.00 Build 0)  -->
<!DOCTYPE svg PUBLIC "-//W3C//DTD SVG 1.1//EN" "http://www.w3.org/Graphics/SVG/1.1/DTD/svg11.dtd">
<svg version="1.1" id="Layer_1" xmlns="http://www.w3.org/2000/svg" xmlns:xlink="http://www.w3.org/1999/xlink" x="0px" y="0px"
	 viewBox="0 0 216 216" enable-background="new 0 0 216 216" xml:space="preserve">
<path d="M41.5,174.4c5,6.9,10.8,7.5,12.5,7.5c0,0,0.1,0,0.2,0h11.3c6.7,0,12.5-5.5,12.5-12.2v-65.6C78,97.4,72.2,92,65.5,92H54.1
	c-0.3,0-0.7,0-1,0.1c-0.7,0.1-1.9,0.4-3.3,1.2c6.7-28.4,32.2-49.6,62.6-49.6c30.2,0,55.6,20.9,62.5,49c-1.8-0.6-3.2-0.7-3.9-0.7
	c0,0-0.1,0-0.2,0h-11.3c-6.7,0-12.4,5.4-12.4,12.1v65.6c0,6.7,5.7,12.2,12.4,12.2h11.4c0.3,0,0.7-0.1,1-0.1
	c3.2-0.6,19.4-5.5,19.4-46.6c0-10.2-1-18.6-3-25.3c0.2-0.6,0.3-1.2,0.3-1.9c0-42.1-34.2-76.3-76.3-76.3S36,65.9,36,108
	c0,1.2,0.4,2.4,1,3.3c-2,6.6-3.4,15.5-3.4,27.4C33.6,155.2,36.2,167.2,41.5,174.4z M169.7,170h-10.3c-0.1,0-0.4-0.2-0.4-0.2v-65.6
	c0-0.1,0.3-0.1,0.4-0.1h11.4c2.3,0,8.5,7,8.5,31.3C179.3,162.9,171.5,169,169.7,170z M55.1,104h10.3c0.1,0,0.5,0.1,0.5,0.1v65.6
	c0,0.1-0.5,0.2-0.5,0.2H54.1c-2.3-1-8.5-7-8.5-31.3C45.6,111.1,53.3,105,55.1,104z"/>
</svg>
