<?xml version="1.0" encoding="utf-8"?>
<!-- Generator: Adobe Illustrator 18.0.0, SVG Export Plug-In . SVG Version: 6.00 Build 0)  -->
<!DOCTYPE svg PUBLIC "-//W3C//DTD SVG 1.1//EN" "http://www.w3.org/Graphics/SVG/1.1/DTD/svg11.dtd">
<svg version="1.1" id="Layer_1" xmlns="http://www.w3.org/2000/svg" xmlns:xlink="http://www.w3.org/1999/xlink" x="0px" y="0px"
	 viewBox="0 0 216 216" enable-background="new 0 0 216 216" xml:space="preserve">
<path d="M38,182c0,3.3,2.7,6,6,6h131c3.3,0,6-2.7,6-6v-25.1c0.8-1.5,1-3.3,0.4-4.9l-17.9-49.8c-0.9-2.4-3.1-4.2-5.6-4.2H125V76.8
	c8-5.5,12.7-14.5,12.7-24.6c0-16.7-13.6-30.4-30.3-30.4S77.2,35.5,77.2,52.2c0,10.1,4.8,19.1,12.8,24.6V98H61.7
	c-2.5,0-4.8,1.8-5.6,4.2l-17.9,49.7c-0.4,1.2-0.5,2.6-0.1,3.8V182z M50,176v-16h119v16H50z M107.4,33.8c10.1,0,18.4,8.2,18.4,18.4
	s-8.2,18.4-18.4,18.4s-18.4-8.2-18.4-18.4S97.3,33.8,107.4,33.8z M107.5,82.6c2,0,3.5-0.2,5.5-0.6v39h-11V82
	C104,82.4,105.5,82.6,107.5,82.6z M65.9,110H90v17.5c0,3.3,2.3,5.5,5.6,5.5h23.6c3.3,0,5.8-2.2,5.8-5.5V110h28.6l13.6,38H52.3
	L65.9,110z"/>
</svg>
