<?xml version="1.0" encoding="utf-8"?>
<!-- Generator: Adobe Illustrator 18.0.0, SVG Export Plug-In . SVG Version: 6.00 Build 0)  -->
<!DOCTYPE svg PUBLIC "-//W3C//DTD SVG 1.1//EN" "http://www.w3.org/Graphics/SVG/1.1/DTD/svg11.dtd">
<svg version="1.1" id="Layer_1" xmlns="http://www.w3.org/2000/svg" xmlns:xlink="http://www.w3.org/1999/xlink" x="0px" y="0px"
	 viewBox="0 0 216 216" enable-background="new 0 0 216 216" xml:space="preserve">
<path d="M100.8,185c19.6,0,35.5-15.9,35.5-35.5c0-17.9-13.3-32.7-30.5-35.1c0.1-0.5,0.2-0.9,0.2-1.4V74h14c3.3,0,6-2.7,6-6
	s-2.7-6-6-6h-14V44h24c3.3,0,6-2.7,6-6s-2.7-6-6-6h-30c-3.3,0-6,2.7-6,6v75c0,0.6,0.1,1.2,0.3,1.7c-16.4,3.1-28.8,17.5-28.8,34.8
	C65.3,169.1,81.2,185,100.8,185z M100.8,126.1c12.9,0,23.5,10.5,23.5,23.5S113.7,173,100.8,173s-23.5-10.5-23.5-23.5
	S87.9,126.1,100.8,126.1z"/>
</svg>
