<?xml version="1.0" encoding="utf-8"?>
<!-- Generator: Adobe Illustrator 18.0.0, SVG Export Plug-In . SVG Version: 6.00 Build 0)  -->
<!DOCTYPE svg PUBLIC "-//W3C//DTD SVG 1.1//EN" "http://www.w3.org/Graphics/SVG/1.1/DTD/svg11.dtd">
<svg version="1.1" id="Layer_1" xmlns="http://www.w3.org/2000/svg" xmlns:xlink="http://www.w3.org/1999/xlink" x="0px" y="0px"
	 viewBox="0 0 216 216" enable-background="new 0 0 216 216" xml:space="preserve">
<path d="M123.8,29.4c-2-1-4.4-0.9-6.2,0.4L89.7,49.5c-1.6,1.1-2.7,2.9-2.7,4.9V96h-2.6c-3.3,0-6.4,3-6.4,6.3v74.1
	c0,3.3,3.1,5.6,6.4,5.6h45.7c3.3,0,5.9-2.3,5.9-5.6v-74.1c0-3.3-2.6-6.3-5.9-6.3H127V34.7C127,32.5,125.8,30.4,123.8,29.4z M99,57.5
	l16-11.1V96H99V57.5z M124,170H90v-62h34V170z"/>
</svg>
