<?xml version="1.0" encoding="utf-8"?>
<!-- Generator: Adobe Illustrator 18.0.0, SVG Export Plug-In . SVG Version: 6.00 Build 0)  -->
<!DOCTYPE svg PUBLIC "-//W3C//DTD SVG 1.1//EN" "http://www.w3.org/Graphics/SVG/1.1/DTD/svg11.dtd">
<svg version="1.1" id="Layer_1" xmlns="http://www.w3.org/2000/svg" xmlns:xlink="http://www.w3.org/1999/xlink" x="0px" y="0px"
	 viewBox="0 0 216 216" enable-background="new 0 0 216 216" xml:space="preserve">
<path d="M71.9,69.5c-11,6.4-24.7,14.3-29,37c-3.5,18.1,3.3,34.9,19.6,48.6c6.7,5.7,13.7,9.7,18.6,12.1l-10.8,19.5
	c-1.6,2.9-0.5,6.6,2.4,8.2c0.9,0.5,1.9,0.7,2.9,0.7c2.1,0,4.2-1.1,5.3-3.1L93,170.3c1.8,0.3,10.2,1.3,20.8,1.3
	c14.8,0,34-2.1,45.6-11.5c12.9-10.4,18.8-28.1,16.8-50c-1.7-18.5-9.1-38.7-19.9-53.8c-26.9-37.9-66.5-33.7-68.2-33.5
	c-1.8,0.2-3.4,1.3-4.4,2.8c-1,1.6-1.2,3.5-0.5,5.2c3.3,8.9,5.9,21.1,4.4,24.5C84.8,62,79.1,65.3,71.9,69.5z M98.7,60.1
	c2.8-6.5,0.7-17.5-1.6-25.4c11.3,0.8,33.2,5.6,49.4,28.5c19.6,27.6,26,70.9,5.3,87.5c-12.1,9.7-38.5,9.5-52.4,8.2
	c10.1-18.5,25.7-53.1,29.9-81.9c0.5-3.3-1.8-6.3-5.1-6.8c-3.3-0.5-6.3,1.8-6.8,5.1c-4.1,27.9-20.5,64-30.5,81.4
	c-10.9-5.3-37.5-21.2-32.4-47.9c3.3-17.3,13-23,23.3-28.9C85.9,75.2,94.3,70.4,98.7,60.1z"/>
</svg>
