<?xml version="1.0" encoding="utf-8"?>
<!-- Generator: Adobe Illustrator 18.0.0, SVG Export Plug-In . SVG Version: 6.00 Build 0)  -->
<!DOCTYPE svg PUBLIC "-//W3C//DTD SVG 1.1//EN" "http://www.w3.org/Graphics/SVG/1.1/DTD/svg11.dtd">
<svg version="1.1" id="Layer_1" xmlns="http://www.w3.org/2000/svg" xmlns:xlink="http://www.w3.org/1999/xlink" x="0px" y="0px"
	 viewBox="0 0 216 216" enable-background="new 0 0 216 216" xml:space="preserve">
<path d="M167.9,111.4c1.1-1.6,1.4-3.7,0.7-5.5l-28.2-75c-0.9-2.3-3.1-3.9-5.6-3.9H83c-2.5,0-4.7,1.5-5.6,3.8l-29.9,75
	c-0.7,1.8-0.5,3.9,0.6,5.6c1.1,1.6,3,2.6,5,2.6h16.5c-8,11-12.7,24.5-12.7,37.1c0,25.1,19,40,50.7,40s50.7-15,50.7-40
	c0-12.6-4.7-26.1-12.7-37.1h17.3C164.9,114,166.8,113,167.9,111.4z M107.6,179.1c-33.7,0-38.7-17.6-38.7-28c0-12.6,6.3-26.9,16-36.6
	c0.2-0.2,0.3-0.3,0.4-0.5H119v28c0,3.3,2.7,6,6,6s6-2.7,6-6v-26.8c9.3,9.6,15.3,23.6,15.3,35.9C146.3,161.5,141.3,179.1,107.6,179.1
	z M61.9,102l25.1-63h43.5l23.7,63H61.9z"/>
</svg>
