<?xml version="1.0" encoding="utf-8"?>
<!-- Generator: Adobe Illustrator 18.0.0, SVG Export Plug-In . SVG Version: 6.00 Build 0)  -->
<!DOCTYPE svg PUBLIC "-//W3C//DTD SVG 1.1//EN" "http://www.w3.org/Graphics/SVG/1.1/DTD/svg11.dtd">
<svg version="1.1" id="Layer_1" xmlns="http://www.w3.org/2000/svg" xmlns:xlink="http://www.w3.org/1999/xlink" x="0px" y="0px"
	 viewBox="0 0 216 216" enable-background="new 0 0 216 216" xml:space="preserve">
<path d="M163.9,42.5L39.3,95.7c-2.3,1-3.8,3.3-3.6,5.8s1.8,4.7,4.2,5.4l51.6,15.8l15.8,53c0.7,2.4,2.9,4.1,5.4,4.3
	c0.1,0,0.2,0,0.3,0c2.4,0,4.6-1.4,5.5-3.7l53.2-126c1-2.3,0.4-4.9-1.3-6.6C168.8,42.1,166.2,41.6,163.9,42.5z M114.1,156.3
	l-11.9-40.1c-0.6-1.9-2.1-3.4-4-4l-39-11.9L155,59.4L114.1,156.3z"/>
</svg>
