<?xml version="1.0" encoding="utf-8"?>
<!-- Generator: Adobe Illustrator 18.0.0, SVG Export Plug-In . SVG Version: 6.00 Build 0)  -->
<!DOCTYPE svg PUBLIC "-//W3C//DTD SVG 1.1//EN" "http://www.w3.org/Graphics/SVG/1.1/DTD/svg11.dtd">
<svg version="1.1" id="Layer_1" xmlns="http://www.w3.org/2000/svg" xmlns:xlink="http://www.w3.org/1999/xlink" x="0px" y="0px"
	 viewBox="0 0 216 216" enable-background="new 0 0 216 216" xml:space="preserve">
<path d="M161.5,76.5c0-30.1-24.4-54.5-54.5-54.5S52.5,46.4,52.5,76.5c0,21.8,7.5,34.6,13.6,44.9c4.2,7.1,7.6,12.9,8.3,20.5
	c-0.7,0.3-1.4,0.8-2,1.4c-1.1,1.3-1.7,2.9-1.5,4.6l4,41.5c0.3,3.1,2.9,5.6,6,5.6h52.3c3.1,0,5.7-2.5,6-5.6l4-41.5
	c0.2-1.7-0.4-3.4-1.5-4.6c-0.4-0.4-0.9-0.8-1.4-1.1c0.7-7.5,4.2-14.2,8.3-21.8C154.6,109.1,161.5,96.3,161.5,76.5z M64.5,76.5
	C64.5,53.1,83.6,34,107,34s42.5,19.1,42.5,42.5c0,16.8-5.9,27.5-11.6,38.1c-4.6,8.5-8.9,16.4-9.7,26.4h-12.6l16.6-46.1
	c1-2.9-0.3-6-3.1-7.3c-2.8-1.3-6.2-0.2-7.7,2.4c-0.9,1.5-3.5,4.6-5.9,4.6c-1.6,0-2.3-2.8-2.3-2.8v0c-0.5-2.5-2.6-4.4-5.1-4.8
	c-2.5-0.3-5,1-6.2,3.3c-0.9,1.8-2.5,3.7-3.4,4.2c-1.2-0.5-3.7-2.9-5.3-5.1c-1.8-2.4-5-3.2-7.7-1.8c-2.7,1.4-3.8,4.4-2.8,7.2
	l17.4,46.1H86.4c-0.9-10-5.5-18.2-10-25.8C70.6,105.2,64.5,95,64.5,76.5z M107.9,127.7l-8-21.2c2.7-0.3,5-1.6,6.9-3.1
	c2.1,1.8,4.9,3.2,8.6,3.2L107.9,127.7z M127.7,183H86.3l-2.8-30h47.1L127.7,183z"/>
</svg>
