<?xml version="1.0" encoding="utf-8"?>
<!-- Generator: Adobe Illustrator 18.0.0, SVG Export Plug-In . SVG Version: 6.00 Build 0)  -->
<!DOCTYPE svg PUBLIC "-//W3C//DTD SVG 1.1//EN" "http://www.w3.org/Graphics/SVG/1.1/DTD/svg11.dtd">
<svg version="1.1" id="Layer_1" xmlns="http://www.w3.org/2000/svg" xmlns:xlink="http://www.w3.org/1999/xlink" x="0px" y="0px"
	 viewBox="0 0 216 216" enable-background="new 0 0 216 216" xml:space="preserve">
<path d="M69.1,103.6c0.3,0,0.5,0,0.8,0l75.6,61.8c1.1,0.9,2.5,1.4,3.8,1.4c1.5,0,3.1-0.6,4.2-1.8l3.2-3.2l17,16.1
	c1.2,1.1,2.6,1.6,4.1,1.6c1.6,0,3.2-0.6,4.4-1.9c2.3-2.4,2.2-6.2-0.2-8.5l-16.8-15.9l3.8-3.8c2.2-2.2,2.4-5.7,0.4-8l-62.8-76.9
	c-0.4-9.5-4.2-18.3-11-25.1c-7.1-7.1-16.5-11-26.6-11c-10,0-19.5,3.9-26.6,11c-7.1,7.1-11,16.5-11,26.6c0,10,3.9,19.5,11,26.6
	C49.6,99.7,59.1,103.6,69.1,103.6z M154.3,147.2c-0.9,0.3-1.8,0.8-2.6,1.6c-0.7,0.7-1.1,1.5-1.4,2.4l-1.5,1.5l-64.2-52.4
	c4-1.8,7.7-4.4,10.9-7.6c3.6-3.6,6.4-7.8,8.2-12.4l52.8,64.6L154.3,147.2z M51,48c4.8-4.8,11.2-7.5,18.1-7.5
	c6.8,0,13.2,2.7,18.1,7.5c4.8,4.8,7.5,11.2,7.5,18.1c0,6.8-2.7,13.2-7.5,18.1c-4.8,4.8-11.2,7.5-18.1,7.5c-6.8,0-13.2-2.7-18.1-7.5
	c-4.8-4.8-7.5-11.2-7.5-18.1C43.5,59.2,46.2,52.8,51,48z"/>
</svg>
