<?xml version="1.0" encoding="utf-8"?>
<!-- Generator: Adobe Illustrator 18.0.0, SVG Export Plug-In . SVG Version: 6.00 Build 0)  -->
<!DOCTYPE svg PUBLIC "-//W3C//DTD SVG 1.1//EN" "http://www.w3.org/Graphics/SVG/1.1/DTD/svg11.dtd">
<svg version="1.1" id="Layer_1" xmlns="http://www.w3.org/2000/svg" xmlns:xlink="http://www.w3.org/1999/xlink" x="0px" y="0px"
	 viewBox="0 0 216 216" enable-background="new 0 0 216 216" xml:space="preserve">
<path d="M42,137H24.1c-3.3,0-6.1-2.7-6.1-6v-27.2c0-3.3,2.8-5.7,6.1-5.7H42V38c0-3.3,2.7-6,6-6s6,2.7,6,6v60h19.7
	c3.3,0,6.3,2.4,6.3,5.7v27.2c0,3.3-3,6-6.3,6H54v35c0,3.3-2.7,6-6,6s-6-2.7-6-6V137z M108,178c3.3,0,6-2.7,6-6V89h20.2
	c3.3,0,5.8-2.3,5.8-5.6V56.1c0-3.3-2.5-6.2-5.8-6.2H114V38c0-3.3-2.7-6-6-6s-6,2.7-6,6v12H84.6c-3.3,0-5.6,2.8-5.6,6.2v27.2
	c0,3.3,2.3,5.6,5.6,5.6H102v83C102,175.3,104.7,178,108,178z M194.5,122H174V38c0-3.3-2.7-6-6-6s-6,2.7-6,6v84h-17.1
	c-3.3,0-5.9,3-5.9,6.3v27.2c0,3.3,2.6,6.4,5.9,6.4H162v10c0,3.3,2.7,6,6,6s6-2.7,6-6v-10h20.5c3.3,0,5.5-3.1,5.5-6.4v-27.2
	C200,125,197.8,122,194.5,122z"/>
</svg>
