<?xml version="1.0" encoding="utf-8"?>
<!-- Generator: Adobe Illustrator 18.0.0, SVG Export Plug-In . SVG Version: 6.00 Build 0)  -->
<!DOCTYPE svg PUBLIC "-//W3C//DTD SVG 1.1//EN" "http://www.w3.org/Graphics/SVG/1.1/DTD/svg11.dtd">
<svg version="1.1" id="Layer_1" xmlns="http://www.w3.org/2000/svg" xmlns:xlink="http://www.w3.org/1999/xlink" x="0px" y="0px"
	 viewBox="0 0 216 216" enable-background="new 0 0 216 216" xml:space="preserve">
<path d="M129.5,38h-43c-3.6,0-6.5,2.9-6.5,6.5V81H43.5c-3.6,0-6.5,2.9-6.5,6.5v42c0,3.6,2.9,6.5,6.5,6.5H80v36.5
	c0,3.6,2.9,6.5,6.5,6.5h43c3.6,0,6.5-2.9,6.5-6.5V136h35.5c3.6,0,6.5-2.9,6.5-6.5v-42c0-3.6-2.9-6.5-6.5-6.5H136V44.5
	C136,40.9,133.1,38,129.5,38z M165,94v29h-35.5c-3.6,0-6.5,2.9-6.5,6.5V166H93v-36.5c0-3.6-2.9-6.5-6.5-6.5H50V94h36.5
	c3.6,0,6.5-2.9,6.5-6.5V51h30v36.5c0,3.6,2.9,6.5,6.5,6.5H165z"/>
</svg>
