<?xml version="1.0" encoding="utf-8"?>
<!-- Generator: Adobe Illustrator 18.0.0, SVG Export Plug-In . SVG Version: 6.00 Build 0)  -->
<!DOCTYPE svg PUBLIC "-//W3C//DTD SVG 1.1//EN" "http://www.w3.org/Graphics/SVG/1.1/DTD/svg11.dtd">
<svg version="1.1" id="Layer_1" xmlns="http://www.w3.org/2000/svg" xmlns:xlink="http://www.w3.org/1999/xlink" x="0px" y="0px"
	 viewBox="0 0 216 216" enable-background="new 0 0 216 216" xml:space="preserve">
<path d="M88,26.6c-11.8,0-23.3,2.5-34,7.4c-2.1,1-3.5,3.1-3.5,5.5s1.4,4.5,3.5,5.5C78.6,56.2,94.4,81,94.4,108S78.6,159.8,54,171.1
	c-2.1,1-3.5,3.1-3.5,5.5s1.4,4.5,3.5,5.5c10.7,4.9,22.2,7.4,34,7.4c44.9,0,81.4-36.5,81.4-81.4S132.9,26.6,88,26.6z M88,177.4
	c-5.9,0-11.6-0.7-17.2-2.1c22-15,35.6-40.2,35.6-67.3S92.8,55.7,70.8,40.7c5.6-1.4,11.3-2.1,17.2-2.1c38.3,0,69.4,31.2,69.4,69.4
	S126.3,177.4,88,177.4z"/>
</svg>
