<?xml version="1.0" encoding="utf-8"?>
<!-- Generator: Adobe Illustrator 18.0.0, SVG Export Plug-In . SVG Version: 6.00 Build 0)  -->
<!DOCTYPE svg PUBLIC "-//W3C//DTD SVG 1.1//EN" "http://www.w3.org/Graphics/SVG/1.1/DTD/svg11.dtd">
<svg version="1.1" id="Layer_1" xmlns="http://www.w3.org/2000/svg" xmlns:xlink="http://www.w3.org/1999/xlink" x="0px" y="0px"
	 viewBox="0 0 216 216" enable-background="new 0 0 216 216" xml:space="preserve">
<path d="M83.6,41.8c0,11.1,7.5,20.2,17.6,23.2h-3.4c-6.9,0-13,3.9-16.3,9.5c-0.3,0.4-0.6,0.9-0.8,1.3l-26.6,50.3
	c-1.5,2.9-0.4,6.6,2.5,8.1c0.9,0.5,1.9,0.7,2.8,0.7c2.2,0,4.2-1.2,5.3-3.2l16.5-31.2l3.6,22.5c0.1,4.2,1.6,8.1,4.1,11.2
	c0,0.2-0.1,0.4-0.1,0.7l-5.5,56.6c-0.3,3.3,2.1,6.2,5.4,6.6c0.2,0,0.4,0,0.6,0c3.1,0,5.7-2.3,6-5.4l5-51.2c1.2,0.2,2.4,0.6,3.6,0.6
	h8.4c1.6,0,3.1-0.4,4.5-0.8l7.2,51.7c0.4,3,3,5.1,5.9,5.1c0.3,0,0.5,0,0.8-0.1c3.3-0.5,5.6-3.5,5.1-6.8l-7.8-56.3
	c-0.1-0.4-0.2-0.9-0.3-1.3c2.1-3,3.4-6.6,3.5-10.5l3.8-24.3l19,32.6c1.1,1.9,3.1,3,5.2,3c1,0,2.1-0.3,3-0.8c2.9-1.7,3.8-5.3,2.2-8.2
	l-28.6-49.1c-0.4-0.6-0.8-1.4-1.4-1.8c-3.3-5.5-9.4-9.4-16.3-9.4h-3.4c10.2-3,17.6-12.1,17.6-23.2c0-13.5-10.9-24.4-24.4-24.4
	S83.6,28.3,83.6,41.8z M125.2,83.8l-5.9,37.6c0,0.3-0.1,0.9-0.1,1.2c0,3.9-3.2,7.3-7,7.3h-8.4c-3.9,0-7-3.4-7-7.2c0-0.3,0-0.7-0.1-1
	l-5.9-37.8c0.2-3.7,3.3-6.9,7-6.9h20.4C122,77,125,80.2,125.2,83.8z M120.4,42c0,6.8-5.6,12.4-12.4,12.4S95.6,48.8,95.6,42
	s5.6-12.4,12.4-12.4S120.4,35.2,120.4,42z"/>
</svg>
