<?xml version="1.0" encoding="utf-8"?>
<!-- Generator: Adobe Illustrator 18.0.0, SVG Export Plug-In . SVG Version: 6.00 Build 0)  -->
<!DOCTYPE svg PUBLIC "-//W3C//DTD SVG 1.1//EN" "http://www.w3.org/Graphics/SVG/1.1/DTD/svg11.dtd">
<svg version="1.1" id="Layer_1" xmlns="http://www.w3.org/2000/svg" xmlns:xlink="http://www.w3.org/1999/xlink" x="0px" y="0px"
	 viewBox="0 0 216 216" enable-background="new 0 0 216 216" xml:space="preserve">
<path d="M171.1,62.1C171.1,62.1,171.1,62,171.1,62.1L169,19.7c0,0,0,0,0,0c0-0.5-0.1-0.9-0.2-1.4c0-0.1-0.1-0.3-0.1-0.4c0,0,0,0,0,0
	c-0.1-0.2-0.1-0.4-0.2-0.5c0,0,0,0,0,0c0,0,0-0.1-0.1-0.1c-0.1-0.1-0.1-0.3-0.2-0.4c-0.1-0.1-0.1-0.2-0.2-0.3
	c-0.1-0.1-0.1-0.1-0.2-0.2c-0.1-0.1-0.2-0.2-0.3-0.3c0,0-0.1-0.1-0.1-0.1c-0.1-0.1-0.2-0.2-0.3-0.3c0,0-0.1-0.1-0.1-0.1
	c-0.1-0.1-0.2-0.2-0.3-0.3c0,0-0.1-0.1-0.1-0.1c-0.1-0.1-0.2-0.1-0.3-0.2c-0.1,0-0.1-0.1-0.2-0.1c-0.1-0.1-0.2-0.1-0.3-0.2
	c-0.1,0-0.2-0.1-0.2-0.1c-0.1,0-0.2-0.1-0.2-0.1c-0.1,0-0.2-0.1-0.3-0.1c-0.1,0-0.2,0-0.2-0.1c-0.1,0-0.2-0.1-0.3-0.1
	c-0.1,0-0.2,0-0.3-0.1c-0.1,0-0.2,0-0.3-0.1c-0.1,0-0.2,0-0.4,0c-0.1,0-0.1,0-0.2,0c-0.2,0-0.3,0-0.5,0c0,0,0,0-0.1,0c0,0,0,0,0,0
	c-0.4,0-0.8,0.1-1.1,0.2c0,0,0,0-0.1,0c0,0-0.1,0-0.1,0c-0.4,0.1-0.7,0.2-1,0.4c0,0,0,0,0,0L76.7,55.7c0,0,0,0,0,0l0,0
	c0,0-0.1,0-0.1,0.1c-0.1,0.1-0.3,0.1-0.4,0.2c-0.1,0-0.1,0.1-0.2,0.1c-0.1,0.1-0.2,0.1-0.3,0.2c-0.1,0.1-0.2,0.1-0.3,0.2
	c-0.1,0.1-0.1,0.1-0.2,0.2c-0.1,0.1-0.2,0.2-0.3,0.3c0,0.1-0.1,0.1-0.1,0.2c-0.1,0.1-0.2,0.2-0.2,0.3c0,0.1-0.1,0.1-0.1,0.2
	c-0.1,0.1-0.1,0.2-0.2,0.3c0,0.1-0.1,0.1-0.1,0.2c0,0.1-0.1,0.2-0.1,0.2c0,0.1-0.1,0.2-0.1,0.3c0,0.1-0.1,0.1-0.1,0.2
	c0,0.1-0.1,0.2-0.1,0.3c0,0.1,0,0.1-0.1,0.2c0,0.1-0.1,0.2-0.1,0.3c0,0.1,0,0.2-0.1,0.2c0,0.1,0,0.2-0.1,0.3c0,0.1,0,0.2,0,0.3
	c0,0.1,0,0.2,0,0.2c0,0.2,0,0.3,0,0.5c0,0,0,0.1,0,0.1l0,0c0,0,0,0,0,0.1l3.3,73.6c-4.2-2.1-9.3-3.2-14.9-3.2
	c-4.6,0-9.3,0.8-13.9,2.3c-18.1,6-28.7,21.3-24.2,34.8c3.2,9.5,13.5,15.7,26.3,15.7c4.6,0,9.3-0.8,13.9-2.3
	c16.4-5.4,26.6-18.4,25.1-30.9c0.3-0.7,0.4-1.5,0.4-2.3l-2-44.1l72.3-33.5l2,41.5c-4.2-2.1-9.3-3.2-14.8-3.2
	c-4.6,0-9.3,0.8-13.9,2.3c-8.2,2.7-15.3,7.6-19.9,13.7c-5,6.7-6.6,14.3-4.4,21.1c3.2,9.5,13.5,15.7,26.3,15.7
	c4.6,0,9.3-0.8,13.9-2.3c8.2-2.7,15.3-7.6,19.9-13.7c4.1-5.4,5.9-11.5,5.2-17.2c0.3-0.7,0.4-1.5,0.4-2.4L171.1,62.1z M60,170.9
	c-3.4,1.1-6.8,1.7-10.1,1.7c-7.5,0-13.4-2.9-14.9-7.5c-2.3-6.9,5.3-15.8,16.6-19.6c3.4-1.1,6.8-1.7,10.1-1.7
	c7.5,0,13.4,2.9,14.9,7.5C78.9,158.1,71.3,167.1,60,170.9z M86.7,92l-1.2-27.2l72.1-35.4l1.4,29.1L86.7,92z M159.2,139.2
	c-3.1,4.1-8.2,7.6-14.1,9.5c-3.4,1.1-6.8,1.7-10.1,1.7c-7.5,0-13.4-2.9-14.9-7.5c-1.3-4,1-8,2.6-10.1c3.1-4.1,8.2-7.6,14.1-9.5
	c3.4-1.1,6.8-1.7,10.2-1.7c7.5,0,13.4,2.9,14.9,7.5C163.1,133.2,160.7,137.2,159.2,139.2z"/>
</svg>
