<?xml version="1.0" encoding="utf-8"?>
<!-- Generator: Adobe Illustrator 18.0.0, SVG Export Plug-In . SVG Version: 6.00 Build 0)  -->
<!DOCTYPE svg PUBLIC "-//W3C//DTD SVG 1.1//EN" "http://www.w3.org/Graphics/SVG/1.1/DTD/svg11.dtd">
<svg version="1.1" id="Layer_1" xmlns="http://www.w3.org/2000/svg" xmlns:xlink="http://www.w3.org/1999/xlink" x="0px" y="0px"
	 viewBox="0 0 216 216" enable-background="new 0 0 216 216" xml:space="preserve">
<path d="M73.7,98H54V38c0-3.3-2.7-6-6-6s-6,2.7-6,6v60H24.1c-3.3,0-6.1,2.4-6.1,5.7v27.2c0,3.3,2.8,6,6.1,6H42v35c0,3.3,2.7,6,6,6
	s6-2.7,6-6v-35h19.7c3.3,0,6.3-2.7,6.3-6v-27.2C80,100.4,77,98,73.7,98z M67,125H30v-16h37V125z M140,56.1c0-3.3-2.5-6.2-5.8-6.2
	H114V38c0-3.3-2.7-6-6-6s-6,2.7-6,6v12H84.6c-3.3,0-5.6,2.8-5.6,6.2v27.2c0,3.3,2.3,5.6,5.6,5.6H102v83c0,3.3,2.7,6,6,6s6-2.7,6-6
	V89h20.2c3.3,0,5.8-2.3,5.8-5.6V56.1z M127,78H90V62h37V78z M194.5,122H174V38c0-3.3-2.7-6-6-6s-6,2.7-6,6v84h-17.1
	c-3.3,0-5.9,3-5.9,6.3v27.2c0,3.3,2.6,6.4,5.9,6.4H162v10c0,3.3,2.7,6,6,6s6-2.7,6-6v-10h20.5c3.3,0,5.5-3.1,5.5-6.4v-27.2
	C200,125,197.8,122,194.5,122z M188,149h-37v-16h37V149z"/>
</svg>
