<?xml version="1.0" encoding="utf-8"?>
<!-- Generator: Adobe Illustrator 18.0.0, SVG Export Plug-In . SVG Version: 6.00 Build 0)  -->
<!DOCTYPE svg PUBLIC "-//W3C//DTD SVG 1.1//EN" "http://www.w3.org/Graphics/SVG/1.1/DTD/svg11.dtd">
<svg version="1.1" id="Layer_1" xmlns="http://www.w3.org/2000/svg" xmlns:xlink="http://www.w3.org/1999/xlink" x="0px" y="0px"
	 viewBox="0 0 216 216" enable-background="new 0 0 216 216" xml:space="preserve">
<path d="M31,60.1v111.5c0,2.2,1.2,4.3,3.2,5.3c2,1,4.3,0.9,6.2-0.4l37.9-25.9l45.9,40.1c1.1,1,2.5,1.5,3.9,1.5
	c1.1,0,2.1-0.3,3.1-0.9l46.9-28.1c1.8-1.1,2.9-3,2.9-5.1V38.6c0-2.2-1.2-4.2-3.1-5.3c-1.9-1-4.3-1-6.1,0.2l-42.9,27.6L85.8,24.8
	c-2.1-1.7-5-1.9-7.3-0.4L33.6,55.1C32,56.2,31,58.1,31,60.1z M43,63.2l38.5-26.3L122,71.1V147c0,3.3,2.7,6,6,6s6-2.7,6-6V72.2
	l35-22.6v105.2l-40.2,24.1L85,140.6V118c0-3.3-2.7-6-6-6s-6,2.7-6,6v21.8l-30,20.5V63.2z M71,100.2c-1.2,1.2-2.7,1.8-4.2,1.8
	s-3.1-0.6-4.2-1.8c-2.3-2.3-2.3-6.1,0-8.5l10.2-10.2L62.5,71.3c-2.3-2.3-2.3-6.1,0-8.5c2.3-2.3,6.1-2.3,8.5,0L81.2,73l10.2-10.2
	c2.3-2.3,6.1-2.3,8.5,0c2.3,2.3,2.3,6.1,0,8.5L89.7,81.5l10.2,10.2c2.3,2.3,2.3,6.1,0,8.5c-1.2,1.2-2.7,1.8-4.2,1.8
	s-3.1-0.6-4.2-1.8L81.2,90L71,100.2z"/>
</svg>
