<?xml version="1.0" encoding="utf-8"?>
<!-- Generator: Adobe Illustrator 18.0.0, SVG Export Plug-In . SVG Version: 6.00 Build 0)  -->
<!DOCTYPE svg PUBLIC "-//W3C//DTD SVG 1.1//EN" "http://www.w3.org/Graphics/SVG/1.1/DTD/svg11.dtd">
<svg version="1.1" id="Layer_1" xmlns="http://www.w3.org/2000/svg" xmlns:xlink="http://www.w3.org/1999/xlink" x="0px" y="0px"
	 viewBox="0 0 216 216" enable-background="new 0 0 216 216" xml:space="preserve">
<path d="M116,172c-3.3,0-6,2.7-6,6s2.7,6,6,6h55c3.3,0,6-2.7,6-6V82.5c0-1.7-0.7-3.3-1.9-4.4l-45-41.5c-1.1-1-2.6-1.6-4.1-1.6H59
	c-3.3,0-6,2.7-6,6v65c0,3.3,2.7,6,6,6s6-2.7,6-6V47h48v52c0,3.3,2.7,6,6,6h45c0.3,0,0.7,0,1-0.1V172H116z M164,93h-39V48.2l40,36.9
	v8C164.7,93,164.3,93,164,93z M29,163c0-3.3,2.7-6,6-6h18v-19c0-3.3,2.7-6,6-6s6,2.7,6,6v19h20c3.3,0,6,2.7,6,6s-2.7,6-6,6H65v19
	c0,3.3-2.7,6-6,6s-6-2.7-6-6v-19H35C31.7,169,29,166.3,29,163z"/>
</svg>
