<?xml version="1.0" encoding="utf-8"?>
<!-- Generator: Adobe Illustrator 18.0.0, SVG Export Plug-In . SVG Version: 6.00 Build 0)  -->
<!DOCTYPE svg PUBLIC "-//W3C//DTD SVG 1.1//EN" "http://www.w3.org/Graphics/SVG/1.1/DTD/svg11.dtd">
<svg version="1.1" id="Layer_1" xmlns="http://www.w3.org/2000/svg" xmlns:xlink="http://www.w3.org/1999/xlink" x="0px" y="0px"
	 viewBox="0 0 216 216" enable-background="new 0 0 216 216" xml:space="preserve">
<path d="M177.6,78.2L195.6,55c1.2-1.5,1.5-3.4,1.1-5.2c-0.5-1.8-1.8-3.3-3.5-4l-58.2-24c-2.5-1-5.4-0.3-7,1.9l-16.7,21.4L94.6,23.6
	c-1.7-2.2-4.6-2.9-7.1-1.8l-58.2,25c-1.7,0.7-3,2.3-3.5,4.1s0,3.8,1.2,5.2l18,22.1l-19.2,26.3c-1.1,1.5-1.4,3.5-0.9,5.3
	s1.9,3.2,3.7,3.9l17.5,6.5v42.3c0,2.5,1.5,4.7,3.8,5.6l59.5,23.4c0.7,0.3,1.5,0.4,2.2,0.4s1.5-0.1,2.2-0.4l59.5-23.4
	c2.3-0.9,3.8-3.1,3.8-5.6V120l17.1-6.3c1.8-0.7,3.1-2.1,3.7-3.9s0.2-3.8-0.9-5.3L177.6,78.2z M134.6,34.6l46.7,19.2l-13.8,17.7
	l-47.4-18.3L134.6,34.6z M111.5,94.7L68.2,79.2l41.8-17l44.4,17.1L111.5,94.7z M87.9,34.7l13.9,17.9L55,71.6L41.3,54.8L87.9,34.7z
	 M53.6,86.7l48.2,17.3l-14.1,18.8l-47.6-17.6L53.6,86.7z M165,158.4l-53.5,21.1L58,158.4v-33.8l29.8,11c0.7,0.2,1.4,0.4,2.1,0.4
	c1.8,0,3.6-0.9,4.8-2.4l16.6-22.2l16.6,22.2c1.2,1.5,3,2.4,4.8,2.4c0.7,0,1.4-0.1,2.1-0.4l30.2-11.1V158.4z M134.8,122.8l-14-18.6
	L169,86.8l13.4,18.4L134.8,122.8z"/>
</svg>
