<?xml version="1.0" encoding="utf-8"?>
<!-- Generator: Adobe Illustrator 18.0.0, SVG Export Plug-In . SVG Version: 6.00 Build 0)  -->
<!DOCTYPE svg PUBLIC "-//W3C//DTD SVG 1.1//EN" "http://www.w3.org/Graphics/SVG/1.1/DTD/svg11.dtd">
<svg version="1.1" id="Layer_1" xmlns="http://www.w3.org/2000/svg" xmlns:xlink="http://www.w3.org/1999/xlink" x="0px" y="0px"
	 viewBox="0 0 216 216" enable-background="new 0 0 216 216" xml:space="preserve">
<path d="M182.4,82.3c-1.5-3-5.1-4.2-8-2.7l-57,28c-2.1,1-3.4,3.1-3.4,5.4v63.5c0,3.3,2.7,6,6,6c38.3,0,69.5-31.2,69.5-69.5
	C189.5,102.2,187.1,91.9,182.4,82.3z M126,170.2v-53.4l48-23.6c2.3,6.3,3.5,13,3.5,19.9C177.5,142.7,154.9,167.2,126,170.2z
	 M159.7,74.1c0.5-1.5,0.4-3.2-0.3-4.6c-11.8-23.9-35.7-38.8-62.3-38.8c-38.4,0-69.6,31.2-69.6,69.5s31.1,69.5,69.4,69.5
	c3.3,0,6-2.7,6-6v-59.8l53.7-26.4C158.1,76.8,159.2,75.6,159.7,74.1z M94.4,94.8c-2.1,1-3.4,3.1-3.4,5.4v57.2
	c-28.9-3-51.4-27.5-51.4-57.2c0-31.7,25.8-57.5,57.6-57.5c20,0,38.1,10.1,48.6,26.8L94.4,94.8z"/>
</svg>
