<?xml version="1.0" encoding="utf-8"?>
<!-- Generator: Adobe Illustrator 18.0.0, SVG Export Plug-In . SVG Version: 6.00 Build 0)  -->
<!DOCTYPE svg PUBLIC "-//W3C//DTD SVG 1.1//EN" "http://www.w3.org/Graphics/SVG/1.1/DTD/svg11.dtd">
<svg version="1.1" id="Layer_1" xmlns="http://www.w3.org/2000/svg" xmlns:xlink="http://www.w3.org/1999/xlink" x="0px" y="0px"
	 viewBox="0 0 216 216" enable-background="new 0 0 216 216" xml:space="preserve">
<path d="M184.7,52.7c-1.7-1-3.9-1.1-5.7-0.2l-38.9,19.1c-3.1,0.4-5.4,3-5.3,6.1l1.9,58.6c-3.4-1.4-7.2-2.2-11.4-2.2
	c-3.8,0-7.6,0.6-11.3,1.8c-15.4,4.9-24.6,17.9-20.9,29.6c2.7,8.4,11.6,13.9,22.8,13.9c3.8,0,7.6-0.6,11.3-1.8
	c13.9-4.4,22.7-15.3,21.7-25.9c0.2-0.6,0.3-1.3,0.3-2.1l-1.1-35l37.9-16.8c2.3-1,3.7-3.3,3.6-5.8l-1.8-34.4
	C187.6,55.5,186.5,53.7,184.7,52.7z M123.6,166.1c-2.6,0.8-5.2,1.2-7.7,1.2c-5.8,0-10.4-2.2-11.4-5.5c-1.4-4.4,3.6-11.5,13.1-14.5
	c2.6-0.8,5.2-1.2,7.7-1.2c5.8,0,10.4,2.2,11.4,5.5C138.1,156.1,133.1,163.1,123.6,166.1z M147.6,101.6l-0.6-20l29.2-14.3l1.1,21.2
	L147.6,101.6z M142.4,46h-99c-3.3,0-6-2.7-6-6s2.7-6,6-6h99c3.3,0,6,2.7,6,6S145.7,46,142.4,46z M113.4,75c0,3.3-2.7,6-6,6h-64
	c-3.3,0-6-2.7-6-6s2.7-6,6-6h64C110.7,69,113.4,71.7,113.4,75z M113.4,109c0,3.3-2.7,6-6,6h-64c-3.3,0-6-2.7-6-6s2.7-6,6-6h64
	C110.7,103,113.4,105.7,113.4,109z"/>
</svg>
