<?xml version="1.0" encoding="utf-8"?>
<!-- Generator: Adobe Illustrator 18.0.0, SVG Export Plug-In . SVG Version: 6.00 Build 0)  -->
<!DOCTYPE svg PUBLIC "-//W3C//DTD SVG 1.1//EN" "http://www.w3.org/Graphics/SVG/1.1/DTD/svg11.dtd">
<svg version="1.1" id="Layer_1" xmlns="http://www.w3.org/2000/svg" xmlns:xlink="http://www.w3.org/1999/xlink" x="0px" y="0px"
	 viewBox="0 0 216 216" enable-background="new 0 0 216 216" xml:space="preserve">
<path d="M134.1,11c-1.7-1.7-4.2-2.2-6.4-1.4c-2.2,0.8-3.7,2.9-3.9,5.3l-1.5,25.8L90.1,73.1l-39.2-4.7c-2.5-0.3-5,1-6.1,3.3
	c-1.1,2.3-0.7,5.1,1.2,6.9l28.8,28.8l-49.9,67.8c-1.7,2.3-1.5,5.6,0.5,7.7c1.2,1.2,2.7,1.8,4.3,1.8c1.2,0,2.3-0.3,3.3-1l70.6-47.4
	l29,29c1.2,1.2,2.7,1.8,4.2,1.8c0.9,0,1.8-0.2,2.6-0.6c2.3-1.1,3.7-3.5,3.4-6l-3.9-38.4l32.2-32.2l26.4-1.3c2.4-0.1,4.5-1.6,5.3-3.8
	c0.9-2.2,0.3-4.7-1.4-6.4L134.1,11z M55,154.5L83.3,116L95,127.6L55,154.5z M168.2,77.9c-1.5,0.1-2.9,0.7-4,1.8l-35.9,35.9
	c-1.3,1.3-1.9,3.1-1.7,4.9l2.5,24.5L66.7,82.3l24.9,3c1.8,0.2,3.7-0.4,5-1.7l36-36c1-1,1.7-2.4,1.7-3.9l0.8-14.7l48.2,48.2
	L168.2,77.9z"/>
</svg>
