<?xml version="1.0" encoding="utf-8"?>
<!-- Generator: Adobe Illustrator 18.0.0, SVG Export Plug-In . SVG Version: 6.00 Build 0)  -->
<!DOCTYPE svg PUBLIC "-//W3C//DTD SVG 1.1//EN" "http://www.w3.org/Graphics/SVG/1.1/DTD/svg11.dtd">
<svg version="1.1" id="Layer_1" xmlns="http://www.w3.org/2000/svg" xmlns:xlink="http://www.w3.org/1999/xlink" x="0px" y="0px"
	 viewBox="0 0 216 216" enable-background="new 0 0 216 216" xml:space="preserve">
<path d="M186.2,34c-5.7-6.6-18.4-12-47.1,0c-26.6-10.5-57.8-6-80.4,13.3c-22.7,19.3-31.9,49.2-25.9,77c-0.4,0.3-0.7,0.7-1,1.2
	c-16.4,26.5-13.1,40-7.5,46.6c3.2,3.7,8.7,7.1,18.2,7.1c6.7,0,15.4-1.7,26.6-6.2c0.7-0.3,1.4-0.6,2.1-0.9c-0.2,2.4,1,4.7,3.3,5.9
	c11.3,5.6,23.4,8.4,35.4,8.4c18.4,0,36.6-6.4,51.3-18.9c25.9-22.1,34.7-58.1,22-89.7c-0.4-0.9-0.9-1.6-1.5-2.2
	C194.8,52.4,191.4,40.2,186.2,34z M33.5,164.3c-3.4-4-1.7-13.4,4.2-24.9c1.7,3.8,3.7,7.5,6,11.1c1.2,1.8,3.1,2.7,5,2.7
	c1.1,0,2.3-0.3,3.3-1c2.8-1.8,3.6-5.5,1.7-8.3c-18.3-28.1-12.9-65.7,12.7-87.5c24.1-20.6,59.7-21.4,84.7-1.9c2.6,2,6.4,1.6,8.4-1
	c2-2.6,1.6-6.4-1-8.4c-1.6-1.3-3.3-2.5-5-3.6c11.5-3.5,20.3-3.5,23.5,0.3c3.1,3.6,2.8,13.5-7.3,30.5c-9.9,16.7-26.3,35.2-46.2,52.2
	C79,162.4,41.1,173.2,33.5,164.3z M153.4,158.4c-20.3,17.3-48.6,20.9-72.6,9.4c16.2-8.1,33.7-19.9,50.4-34.2
	c17.3-14.7,32.1-30.7,42.7-45.8C181.8,113.1,173.9,140.9,153.4,158.4z"/>
</svg>
