<?xml version="1.0" encoding="utf-8"?>
<!-- Generator: Adobe Illustrator 18.0.0, SVG Export Plug-In . SVG Version: 6.00 Build 0)  -->
<!DOCTYPE svg PUBLIC "-//W3C//DTD SVG 1.1//EN" "http://www.w3.org/Graphics/SVG/1.1/DTD/svg11.dtd">
<svg version="1.1" id="Layer_1" xmlns="http://www.w3.org/2000/svg" xmlns:xlink="http://www.w3.org/1999/xlink" x="0px" y="0px"
	 viewBox="0 0 216 216" enable-background="new 0 0 216 216" xml:space="preserve">
<path d="M48.4,166.3c6.3,6.3,14.8,9.8,23.7,9.8c9,0,17.4-3.5,23.7-9.8l70.9-70.9c6.3-6.3,9.8-14.8,9.8-23.7c0-9-3.5-17.4-9.8-23.7
	c-6.3-6.3-14.8-9.8-23.7-9.8c-9,0-17.4,3.5-23.7,9.8l-70.9,70.9c-6.3,6.3-9.8,14.8-9.8,23.7S42,160,48.4,166.3z M127.8,56.4
	c4.1-4.1,9.5-6.3,15.3-6.3c5.8,0,11.2,2.2,15.3,6.3c4.1,4.1,6.3,9.5,6.3,15.3c0,5.8-2.2,11.2-6.3,15.3l-32.4,32.4L95.3,88.8
	L127.8,56.4z M56.9,127.3l30-30l30.5,30.5l-30,30c-4.1,4.1-9.5,6.3-15.3,6.3c-5.8,0-11.2-2.2-15.3-6.3c-4.1-4.1-6.3-9.5-6.3-15.3
	S52.8,131.4,56.9,127.3z"/>
</svg>
