<?xml version="1.0" encoding="utf-8"?>
<!-- Generator: Adobe Illustrator 18.0.0, SVG Export Plug-In . SVG Version: 6.00 Build 0)  -->
<!DOCTYPE svg PUBLIC "-//W3C//DTD SVG 1.1//EN" "http://www.w3.org/Graphics/SVG/1.1/DTD/svg11.dtd">
<svg version="1.1" id="Layer_1" xmlns="http://www.w3.org/2000/svg" xmlns:xlink="http://www.w3.org/1999/xlink" x="0px" y="0px"
	 viewBox="0 0 216 216" enable-background="new 0 0 216 216" xml:space="preserve">
<path d="M174.3,78.5c0.5-5.2,0.8-13.7-1.7-23c-3.6-13.9-13.9-32.1-42.2-40.6c-6.2-1.9-12.2-2.8-17.8-2.8
	c-29.1,0-44.1,25.1-49.4,42.2c-1.6-0.2-3.5-0.3-5.6-0.3C36.6,54,22,66.2,17.5,87.4c-3.6,17.4,1.8,28.6,6.9,34.9
	c9.4,11.6,24.2,15.7,34,15.7h104.6c0.4,0,1.2,0.1,2.2,0.1c22.1,0,28.4-15.2,29.8-19.9C201.3,97.5,186.2,84.2,174.3,78.5z
	 M183.6,114.7c-1.3,4.2-5.3,11.4-18.3,11.4c-0.8,0-1.3,0-1.3,0c-0.2,0-0.4,0-0.6,0H58.5c-7.5,0-18.5-3.5-24.7-11.2
	c-5.1-6.3-6.6-14.7-4.5-24.9C32.6,74,42.2,66,57.7,66c4.9,0,8.5,0.9,8.5,0.9c1.6,0.4,3.3,0.1,4.7-0.7c1.4-0.9,2.4-2.3,2.7-3.9
	c0-0.1,2.2-10.1,8.3-19.8c7.7-12.2,18.1-18.4,30.8-18.4c4.5,0,9.3,0.8,14.4,2.3c43.5,13,35.2,52.9,34.9,54.6c-0.7,3,1,6,3.9,7
	C166.7,88.3,189.1,96.3,183.6,114.7z M43.4,194.2c-2.8-1.7-3.7-5.4-2-8.3l16.1-26.1c1.7-2.8,5.4-3.7,8.3-2c2.8,1.7,3.7,5.4,2,8.3
	l-16.1,26.1c-1.1,1.8-3.1,2.9-5.1,2.9C45.5,195.1,44.4,194.8,43.4,194.2z M90.4,194.2c-2.8-1.7-3.7-5.4-2-8.3l16.1-26.1
	c1.7-2.8,5.4-3.7,8.3-2c2.8,1.7,3.7,5.4,2,8.3l-16.1,26.1c-1.1,1.8-3.1,2.9-5.1,2.9C92.5,195.1,91.4,194.8,90.4,194.2z M136.4,194.2
	c-2.8-1.7-3.7-5.4-2-8.3l16.1-26.1c1.7-2.8,5.4-3.7,8.3-2c2.8,1.7,3.7,5.4,2,8.3l-16.1,26.1c-1.1,1.8-3.1,2.9-5.1,2.9
	C138.5,195.1,137.4,194.8,136.4,194.2z"/>
</svg>
