<?xml version="1.0" encoding="utf-8"?>
<!-- Generator: Adobe Illustrator 18.0.0, SVG Export Plug-In . SVG Version: 6.00 Build 0)  -->
<!DOCTYPE svg PUBLIC "-//W3C//DTD SVG 1.1//EN" "http://www.w3.org/Graphics/SVG/1.1/DTD/svg11.dtd">
<svg version="1.1" id="Layer_1" xmlns="http://www.w3.org/2000/svg" xmlns:xlink="http://www.w3.org/1999/xlink" x="0px" y="0px"
	 viewBox="0 0 216 216" enable-background="new 0 0 216 216" xml:space="preserve">
<path d="M36.7,39.9c-0.4-3.3,1.9-6.3,5.2-6.7c3.3-0.4,6.3,1.9,6.7,5.2l3.6,27.9c13.6-20.2,36.6-32.7,61.4-32.7
	c31.6,0,59.7,20.1,70,49.9c1.1,3.1-0.6,6.5-3.7,7.6c-0.6,0.2-1.3,0.3-2,0.3c-2.5,0-4.8-1.6-5.7-4c-8.6-25-32.2-41.8-58.6-41.8
	c-21.6,0-41.7,11.4-52.9,29.6l30-3.4c3.3-0.4,6.3,2,6.6,5.3s-2,6.3-5.3,6.6l-43.2,4.9c-0.2,0-0.5,0-0.7,0c-3,0-5.6-2.2-5.9-5.2
	L36.7,39.9z M185.3,120.2l-43.2,4.9c-3.3,0.4-5.7,3.3-5.3,6.6s3.3,5.7,6.6,5.3l26.1-2.9c-10.2,21.5-31.9,35.4-56,35.4
	c-27.1,0-51.5-18.1-59.3-44c-1-3.2-4.3-5-7.5-4c-3.2,1-5,4.3-4,7.5c4.5,14.9,13.9,28.3,26.3,37.7c12.9,9.7,28.3,14.9,44.5,14.9
	c29.6,0,56.1-17.6,67.8-44.3l4.2,33.3c0.4,3,3,5.2,5.9,5.2c0.3,0,0.5,0,0.8,0c3.3-0.4,5.6-3.4,5.2-6.7l-5.6-43.5
	C191.5,122.2,188.6,119.9,185.3,120.2z"/>
</svg>
