<?xml version="1.0" encoding="utf-8"?>
<!-- Generator: Adobe Illustrator 18.0.0, SVG Export Plug-In . SVG Version: 6.00 Build 0)  -->
<!DOCTYPE svg PUBLIC "-//W3C//DTD SVG 1.1//EN" "http://www.w3.org/Graphics/SVG/1.1/DTD/svg11.dtd">
<svg version="1.1" id="Layer_1" xmlns="http://www.w3.org/2000/svg" xmlns:xlink="http://www.w3.org/1999/xlink" x="0px" y="0px"
	 viewBox="0 0 216 216" enable-background="new 0 0 216 216" xml:space="preserve">
<path d="M103,169.4c0.8,0,1.6-0.2,2.4-0.5c2.2-1,3.6-3.1,3.6-5.5v-42.9l52,47.3c1.1,1,2.6,1.6,4,1.6c0.8,0,1.6-0.2,2.4-0.5
	c2.2-1,3.6-3.1,3.6-5.5V52.6c0-2.4-1.4-4.5-3.6-5.5c-2.2-1-4.7-0.5-6.5,1l-52,47.3V52.6c0-2.4-1.4-4.5-3.6-5.5c-2.2-1-4.7-0.5-6.5,1
	l-60.9,55.4c-1.2,1.1-2,2.7-2,4.4s0.7,3.3,2,4.4L99,167.8C100.1,168.9,101.5,169.4,103,169.4z M159,66.2v83.7L113,108L159,66.2z
	 M97,149.8L51,108l46-41.8V149.8z"/>
</svg>
