<?xml version="1.0" encoding="utf-8"?>
<!-- Generator: Adobe Illustrator 18.0.0, SVG Export Plug-In . SVG Version: 6.00 Build 0)  -->
<!DOCTYPE svg PUBLIC "-//W3C//DTD SVG 1.1//EN" "http://www.w3.org/Graphics/SVG/1.1/DTD/svg11.dtd">
<svg version="1.1" id="Layer_1" xmlns="http://www.w3.org/2000/svg" xmlns:xlink="http://www.w3.org/1999/xlink" x="0px" y="0px"
	 viewBox="0 0 216 216" enable-background="new 0 0 216 216" xml:space="preserve">
<path d="M99.7,69.1c0,5.3-4.3,9.6-9.6,9.6c-5.3,0-9.6-4.3-9.6-9.6c0-5.3,4.3-9.6,9.6-9.6C95.4,59.5,99.7,63.8,99.7,69.1z
	 M124.3,59.5c-5.3,0-9.6,4.3-9.6,9.6c0,5.3,4.3,9.6,9.6,9.6c5.3,0,9.6-4.3,9.6-9.6C133.9,63.8,129.6,59.5,124.3,59.5z M165,77
	c0,22.2-13.6,28.8-28,33.9V127c0,3.3-2.7,6-6,6H85c-3.3,0-6-2.7-6-6v-16c-14.4-4.8-28.1-11.2-28.1-34c0-31.4,25.6-57,57-57
	C139.4,20,165,45.6,165,77z M153,77c0-24.8-20.2-45-45-45c-24.8,0-45,20.2-45,45c0,14.9,6.2,18.2,23.9,23.9c2.5,0.8,4.2,3.1,4.2,5.7
	V121h34v-14.4c0-2.6,1.6-4.8,4.1-5.7C145.6,95.2,153,92.1,153,77z M158.1,196c2.2,0,4.3-1.2,5.3-3.3c1.5-3,0.3-6.6-2.6-8.1
	l-40.2-20.5l39.9-21.2c2.9-1.6,4-5.2,2.5-8.1c-1.6-2.9-5.2-4-8.1-2.5l-47.3,25.2l-45.1-23c-3-1.5-6.6-0.3-8.1,2.6
	c-1.5,3-0.3,6.6,2.6,8.1l37.6,19.2l-37.2,19.8c-2.9,1.6-4,5.2-2.5,8.1c1.1,2,3.2,3.2,5.3,3.2c1,0,1.9-0.2,2.8-0.7l44.6-23.8
	l47.7,24.3C156.3,195.8,157.2,196,158.1,196z"/>
</svg>
