<?xml version="1.0" encoding="utf-8"?>
<!-- Generator: Adobe Illustrator 18.0.0, SVG Export Plug-In . SVG Version: 6.00 Build 0)  -->
<!DOCTYPE svg PUBLIC "-//W3C//DTD SVG 1.1//EN" "http://www.w3.org/Graphics/SVG/1.1/DTD/svg11.dtd">
<svg version="1.1" id="Layer_1" xmlns="http://www.w3.org/2000/svg" xmlns:xlink="http://www.w3.org/1999/xlink" x="0px" y="0px"
	 viewBox="0 0 216 216" enable-background="new 0 0 216 216" xml:space="preserve">
<path d="M33.6,109.5c0.5,1.6,1.7,2.8,3.2,3.5c1.5,0.7,3.2,0.7,4.7,0.1l15.5-6.3V172c0,3.3,2.7,6,6,6h89c3.3,0,6-2.7,6-6v-65.6
	l15.9,5.7c3.1,1.1,6.5-0.5,7.7-3.6L195.5,70c1.1-3-0.3-6.3-3.2-7.5l-55.7-24.5c-2.8-1.2-6.1-0.2-7.6,2.5
	c-0.1,0.1-8.8,14.6-21.3,14.6h-0.4c-12.5,0-20.8-14.4-20.9-14.5c-1.5-2.7-4.8-3.8-7.7-2.6L23.1,62.5c-2.9,1.3-4.3,4.5-3.2,7.5
	L33.6,109.5z M79,50.9C83.6,57,93.3,67,107.3,67h0.4c13.9,0,23.9-10,28.6-16.1l46,20.2l-10,27.7L154,92.3c-1.8-0.7-3.9-0.4-5.5,0.7
	c-1.6,1.1-2.5,3-2.5,4.9V166H69V97.9c0-2-1-3.9-2.6-5c-1.7-1.1-3.8-1.3-5.6-0.6l-17.9,7.2L33,71.2L79,50.9z"/>
</svg>
