<?xml version="1.0" encoding="utf-8"?>
<!-- Generator: Adobe Illustrator 18.0.0, SVG Export Plug-In . SVG Version: 6.00 Build 0)  -->
<!DOCTYPE svg PUBLIC "-//W3C//DTD SVG 1.1//EN" "http://www.w3.org/Graphics/SVG/1.1/DTD/svg11.dtd">
<svg version="1.1" id="Layer_1" xmlns="http://www.w3.org/2000/svg" xmlns:xlink="http://www.w3.org/1999/xlink" x="0px" y="0px"
	 viewBox="0 0 216 216" enable-background="new 0 0 216 216" xml:space="preserve">
<path d="M55,135.9c3.3,0,6,2.7,6,6v22c0,3.3-2.7,6-6,6s-6-2.7-6-6v-22C49,138.6,51.7,135.9,55,135.9z M94,163.9v-52c0-3.3-2.7-6-6-6
	s-6,2.7-6,6v52c0,3.3,2.7,6,6,6S94,167.2,94,163.9z M129,163.9v-82c0-3.3-2.7-6-6-6s-6,2.7-6,6v82c0,3.3,2.7,6,6,6
	S129,167.2,129,163.9z M165,163.9v-112c0-3.3-2.7-6-6-6s-6,2.7-6,6v112c0,3.3,2.7,6,6,6S165,167.2,165,163.9z"/>
</svg>
