<?xml version="1.0" encoding="utf-8"?>
<!-- Generator: Adobe Illustrator 18.0.0, SVG Export Plug-In . SVG Version: 6.00 Build 0)  -->
<!DOCTYPE svg PUBLIC "-//W3C//DTD SVG 1.1//EN" "http://www.w3.org/Graphics/SVG/1.1/DTD/svg11.dtd">
<svg version="1.1" id="Layer_1" xmlns="http://www.w3.org/2000/svg" xmlns:xlink="http://www.w3.org/1999/xlink" x="0px" y="0px"
	 viewBox="0 0 216 216" enable-background="new 0 0 216 216" xml:space="preserve">
<path d="M195,117.9c-4.7,15.7-19.6,19.7-29.1,19.7c-1.2,0-2.3-0.1-3.2-0.2c-3.3-0.4-5.7-3.3-5.3-6.6c0.4-3.3,3.3-5.7,6.6-5.3
	c0.1,0,4.4,0.4,9.1-1c5.5-1.6,9-4.9,10.5-10.1c5.5-18.4-16.8-26.3-17.8-26.6c-2.9-1-4.6-4-3.9-7c0.4-1.7,8.7-41.4-34.9-54.5
	c-12.2-3.7-22.8-2.9-31.5,2.3C78.5,38.7,73.5,62,73.5,62.3c-0.3,1.6-1.3,3-2.7,3.9c-1.4,0.9-3.1,1.1-4.7,0.7
	c-0.1,0-14.1-3.5-24.7,3.1c-6.1,3.8-10.2,10.4-12.1,19.6c-2.1,10.2-0.6,18.5,4.4,24.8c6.2,7.7,17.2,11.2,24.8,11.2c3.3,0,6,2.7,6,6
	s-2.7,6-6,6c-9.9,0-24.8-4.1-34.1-15.6c-5.1-6.3-10.5-17.5-6.9-34.8c2.6-12.6,8.6-21.8,17.6-27.4c10.1-6.2,21.4-6.2,28.2-5.5
	c2.9-9,10.2-26.5,26-35.9c11.7-7,25.5-8.2,41.1-3.5c28.3,8.5,38.6,26.8,42.2,40.6c2.4,9.3,2.2,17.8,1.7,23
	C186.1,84,201.2,97.2,195,117.9z M49.4,195.1c2,0,4-1,5.1-2.9l16.1-26.1c1.7-2.8,0.9-6.5-2-8.3c-2.8-1.7-6.5-0.9-8.3,2L44.3,186
	c-1.7,2.8-0.9,6.5,2,8.3C47.3,194.8,48.4,195.1,49.4,195.1z M127.2,75.2c-2.7-1.9-6.5-1.2-8.3,1.6l-35.4,51.8
	c-1.3,1.8-1.4,4.2-0.4,6.2c1,2,3.1,3.2,5.3,3.2h32.2l-30.4,48.2c-1.8,2.8-0.9,6.5,1.9,8.3c1,0.6,2.1,0.9,3.2,0.9c2,0,3.9-1,5.1-2.8
	l36.1-57.4c1.2-1.8,1.2-4.2,0.2-6.1s-3.1-3.1-5.3-3.1H99.8l29-42.5C130.6,80.8,129.9,77.1,127.2,75.2z M139.3,194.2
	c1,0.6,2.1,0.9,3.1,0.9c2,0,4-1,5.1-2.9l16.1-26.1c1.7-2.8,0.9-6.5-2-8.3c-2.8-1.7-6.5-0.9-8.3,2L137.3,186
	C135.6,188.8,136.5,192.5,139.3,194.2z"/>
</svg>
