<?xml version="1.0" encoding="utf-8"?>
<!-- Generator: Adobe Illustrator 18.0.0, SVG Export Plug-In . SVG Version: 6.00 Build 0)  -->
<!DOCTYPE svg PUBLIC "-//W3C//DTD SVG 1.1//EN" "http://www.w3.org/Graphics/SVG/1.1/DTD/svg11.dtd">
<svg version="1.1" id="Layer_1" xmlns="http://www.w3.org/2000/svg" xmlns:xlink="http://www.w3.org/1999/xlink" x="0px" y="0px"
	 viewBox="0 0 216 216" enable-background="new 0 0 216 216" xml:space="preserve">
<path d="M107,46c-3.3,0-6-2.7-6-6V25c0-3.3,2.7-6,6-6s6,2.7,6,6v15C113,43.3,110.3,46,107,46z M101,177v15c0,3.3,2.7,6,6,6
	s6-2.7,6-6v-15c0-3.3-2.7-6-6-6S101,173.7,101,177z M197,110c0-3.3-2.7-6-6-6h-15c-3.3,0-6,2.7-6,6s2.7,6,6,6h15
	C194.3,116,197,113.3,197,110z M24,116h15c3.3,0,6-2.7,6-6s-2.7-6-6-6H24c-3.3,0-6,2.7-6,6S20.7,116,24,116z M171.1,45.6
	c-2.3-2.3-6.1-2.3-8.5,0L152,56.2c-2.3,2.3-2.3,6.1,0,8.5c1.2,1.2,2.7,1.8,4.2,1.8s3.1-0.6,4.2-1.8l10.6-10.6
	C173.5,51.7,173.5,47.9,171.1,45.6z M44.6,172.1c1.2,1.2,2.7,1.8,4.2,1.8s3.1-0.6,4.2-1.8l10.6-10.6c2.3-2.3,2.3-6.1,0-8.5
	c-2.3-2.3-6.1-2.3-8.5,0l-10.6,10.6C42.2,166,42.2,169.8,44.6,172.1z M151.3,153c-2.3,2.3-2.3,6.1,0,8.5l10.6,10.6
	c1.2,1.2,2.7,1.8,4.2,1.8c1.5,0,3.1-0.6,4.2-1.8c2.3-2.3,2.3-6.1,0-8.5L159.8,153C157.5,150.7,153.7,150.7,151.3,153z M43.9,54.1
	l10.6,10.6c1.2,1.2,2.7,1.8,4.2,1.8s3.1-0.6,4.2-1.8c2.3-2.3,2.3-6.1,0-8.5L52.3,45.6c-2.3-2.3-6.1-2.3-8.5,0
	C41.5,47.9,41.5,51.7,43.9,54.1z M108,149.4c-22.8,0-41.4-18.6-41.4-41.4S85.2,66.6,108,66.6s41.4,18.6,41.4,41.4
	S130.8,149.4,108,149.4z M137.4,108c0-16.2-13.2-29.4-29.4-29.4S78.6,91.8,78.6,108s13.2,29.4,29.4,29.4S137.4,124.2,137.4,108z"/>
</svg>
