<?xml version="1.0" encoding="utf-8"?>
<!-- Generator: Adobe Illustrator 18.0.0, SVG Export Plug-In . SVG Version: 6.00 Build 0)  -->
<!DOCTYPE svg PUBLIC "-//W3C//DTD SVG 1.1//EN" "http://www.w3.org/Graphics/SVG/1.1/DTD/svg11.dtd">
<svg version="1.1" id="Layer_1" xmlns="http://www.w3.org/2000/svg" xmlns:xlink="http://www.w3.org/1999/xlink" x="0px" y="0px"
	 viewBox="0 0 216 216" enable-background="new 0 0 216 216" xml:space="preserve">
<path d="M118.4,109.4l21.8,13.4l38.4,2.8c3.3,0.2,5.8,3.1,5.5,6.4c-0.2,3.3-3.1,5.8-6.4,5.5l-28.9-2.1l14.4,26.2
	c1.6,2.9,0.5,6.6-2.4,8.1c-0.9,0.5-1.9,0.7-2.9,0.7c-2.1,0-4.2-1.1-5.3-3.1l-18.9-34.5L112,119.5v23.3c0.1,0.2,0.2,0.4,0.3,0.6
	l18.3,35.6c1.5,2.9,0.4,6.6-2.6,8.1c-0.9,0.5-1.8,0.7-2.7,0.7c-2.2,0-4.3-1.2-5.3-3.2l-13.3-25.7l-14.9,26c-1.6,2.9-5.3,3.9-8.2,2.2
	c-2.9-1.6-3.9-5.3-2.2-8.2l18.6-32.5v-25.4l-19.7,12.3l-19.6,33.1c-1.1,1.9-3.1,2.9-5.2,2.9c-1,0-2.1-0.3-3.1-0.8
	c-2.9-1.7-3.8-5.4-2.1-8.2l14.8-24.9l-29.9,1.2c-3.3,0.2-6.1-2.5-6.2-5.8s2.5-6.1,5.8-6.2L74,123l21.6-13.5L73.8,96.1l-38.4-2.8
	c-3.3-0.2-5.8-3.1-5.5-6.4c0.2-3.3,3.1-5.8,6.4-5.5l28.9,2.1L50.8,57.2c-1.6-2.9-0.5-6.6,2.4-8.1c2.9-1.6,6.6-0.5,8.1,2.4l18.9,34.5
	L100,98.1V73c0-0.2,0-0.4,0-0.6L83.3,40c-1.5-2.9-0.4-6.6,2.6-8.1c2.9-1.5,6.6-0.4,8.1,2.6l13.3,25.7l14.9-26
	c1.6-2.9,5.3-3.9,8.2-2.2c2.9,1.6,3.9,5.3,2.2,8.2l-20.3,35.7c-0.1,0.1-0.1,0.2-0.2,0.3v23.1l21.7-13.6l19.6-33.1
	c1.7-2.9,5.4-3.8,8.2-2.1c2.9,1.7,3.8,5.4,2.1,8.2l-14.8,24.9l29.9-1.2c3.3-0.2,6.1,2.5,6.2,5.8c0.1,3.3-2.5,6.1-5.8,6.2L140,95.9
	L118.4,109.4z"/>
</svg>
