<?xml version="1.0" encoding="utf-8"?>
<!-- Generator: Adobe Illustrator 18.0.0, SVG Export Plug-In . SVG Version: 6.00 Build 0)  -->
<!DOCTYPE svg PUBLIC "-//W3C//DTD SVG 1.1//EN" "http://www.w3.org/Graphics/SVG/1.1/DTD/svg11.dtd">
<svg version="1.1" id="Layer_1" xmlns="http://www.w3.org/2000/svg" xmlns:xlink="http://www.w3.org/1999/xlink" x="0px" y="0px"
	 viewBox="0 0 216 216" enable-background="new 0 0 216 216" xml:space="preserve">
<path d="M82.6,20.7l2.2,12.8c0.6,3.3-1.7,6.4-4.9,6.9c-0.3,0.1-0.7,0.1-1,0.1c-2.9,0-5.4-2.1-5.9-5l-2.2-12.8
	c-0.6-3.3,1.7-6.4,4.9-6.9C79,15.2,82.1,17.4,82.6,20.7z M17,112.9l12.8-2.2c3.3-0.6,5.5-3.6,4.9-6.9c-0.6-3.3-3.6-5.5-6.9-4.9
	L15,101.1c-3.3,0.6-5.5,3.6-4.9,6.9c0.5,2.9,3,5,5.9,5C16.4,113,16.7,113,17,112.9z M127.1,31.2L119.4,42c-1.9,2.7-1.3,6.4,1.4,8.4
	c1.1,0.8,2.3,1.1,3.5,1.1c1.9,0,3.7-0.9,4.9-2.5l7.7-10.8c1.9-2.7,1.3-6.4-1.4-8.4S129,28.5,127.1,31.2z M44.1,63.3
	c1.9-2.7,1.3-6.4-1.4-8.4l-10.8-7.7c-2.7-1.9-6.4-1.3-8.4,1.4c-1.9,2.7-1.3,6.4,1.4,8.4l10.8,7.7c1.1,0.8,2.3,1.1,3.5,1.1
	C41.1,65.8,42.9,64.9,44.1,63.3z M197.9,171.6c-4.1,13.6-16.9,18.4-27.5,18.4c0,0,0,0,0,0c-0.6,0-1,0-1.2,0H77.3
	c-9.4,0-22.4-4.4-30.3-14.1c-4.7-5.8-9.6-16-6.3-31.6c2.6-12.6,9.3-21.7,18.9-26.4c-4.9-6.4-7.5-14.2-7.5-22.5
	c0-20.6,16.7-37.3,37.3-37.3c13.3,0,25.7,7.2,32.3,18.7c0.1,0.2,0.2,0.4,0.3,0.6c1-0.1,1.9-0.1,2.9-0.1c5,0,10.4,0.8,15.9,2.5
	c38.9,11.6,40.1,43.8,39,56.3C190.2,141.3,203.4,153.2,197.9,171.6z M72.2,114.3c1.6-0.2,3.2-0.3,4.9-0.3c1.4,0,2.7,0.1,3.8,0.2
	c3.8-11.8,12.7-27.6,28.5-34.1c-4.7-6.3-12.2-10.1-20.2-10.1C75.3,70.1,64,81.4,64,95.4c0,6.8,2.6,13.1,7.4,17.9
	C71.7,113.6,72,113.9,72.2,114.3z M181.3,151.5c-4.6-4.1-10.1-6.1-10.1-6.2c-2.9-1-4.5-4-3.8-7c0.3-1.4,7.4-35.9-30.1-47.2
	c-4.4-1.3-8.6-2-12.4-2c-26.5,0-33.5,32.6-33.6,32.9c-0.3,1.6-1.3,3-2.7,3.9c-1.4,0.9-3.1,1.1-4.6,0.8c0,0-2.9-0.7-6.8-0.7
	c-13.6,0-21.9,7-24.8,20.7c-1.8,8.8-0.5,16.1,3.9,21.6c5.4,6.7,14.7,9.7,21,9.7h92.1c0.1,0,0.3,0,0.4,0c0,0,0.3,0,0.6,0
	c3.9,0,13.3-1,16-9.9C188.3,161.8,186.6,156.3,181.3,151.5z"/>
</svg>
