<?xml version="1.0" encoding="utf-8"?>
<!-- Generator: Adobe Illustrator 18.0.0, SVG Export Plug-In . SVG Version: 6.00 Build 0)  -->
<!DOCTYPE svg PUBLIC "-//W3C//DTD SVG 1.1//EN" "http://www.w3.org/Graphics/SVG/1.1/DTD/svg11.dtd">
<svg version="1.1" id="Layer_1" xmlns="http://www.w3.org/2000/svg" xmlns:xlink="http://www.w3.org/1999/xlink" x="0px" y="0px"
	 viewBox="0 0 216 216" enable-background="new 0 0 216 216" xml:space="preserve">
<path d="M46,162h-2c-3.3,0-6-2.7-6-6s2.7-6,6-6h2c3.3,0,6,2.7,6,6S49.3,162,46,162z M49,199h2c3.3,0,6-2.7,6-6s-2.7-6-6-6h-2
	c-3.3,0-6,2.7-6,6S45.7,199,49,199z M82,170c-3.3,0-6,2.7-6,6s2.7,6,6,6h2c3.3,0,6-2.7,6-6s-2.7-6-6-6H82z M166,161
	c-3.3,0-6,2.7-6,6s2.7,6,6,6h2c3.3,0,6-2.7,6-6s-2.7-6-6-6H166z M130,181c-3.3,0-6,2.7-6,6s2.7,6,6,6h2c3.3,0,6-2.7,6-6s-2.7-6-6-6
	H130z M111,152c-3.3,0-6,2.7-6,6s2.7,6,6,6h1c3.3,0,6-2.7,6-6s-2.7-6-6-6H111z M24.4,122.3c-5.2-6.4-10.6-17.6-6.9-34.9
	C21.9,66.2,36.5,54,57.6,54c2.1,0,3.9,0.1,5.6,0.3c5.3-17.1,20.3-42.2,49.4-42.2c5.6,0,11.6,0.9,17.8,2.8
	c28.3,8.5,38.6,26.8,42.2,40.6c2.4,9.3,2.2,17.8,1.7,23c11.8,5.7,26.9,18.9,20.7,39.6c-1.4,4.7-7.7,19.9-29.8,19.9
	c-1,0-1.7,0-2.2-0.1H58.4C48.6,138,33.8,133.9,24.4,122.3z M33.7,114.8C40,122.5,50.9,126,58.4,126h104.9c0.2,0,0.4,0,0.6,0
	c0,0,0.5,0,1.3,0c12.9,0,17-7.1,18.3-11.4c5.6-18.5-16.9-26.4-17.8-26.7c-2.9-1-4.6-4-3.9-7c0.4-1.7,8.7-41.5-34.9-54.6
	c-5.1-1.5-9.9-2.3-14.4-2.3c-12.7,0-23,6.2-30.8,18.4c-6.2,9.7-8.3,19.7-8.3,19.8c-0.3,1.6-1.3,3-2.7,3.9c-1.4,0.9-3.1,1.1-4.7,0.7
	c0,0-3.6-0.9-8.5-0.9c-15.5,0-25.1,8-28.4,23.8C27.1,100.1,28.6,108.5,33.7,114.8z"/>
</svg>
