<?xml version="1.0" encoding="utf-8"?>
<!-- Generator: Adobe Illustrator 18.0.0, SVG Export Plug-In . SVG Version: 6.00 Build 0)  -->
<!DOCTYPE svg PUBLIC "-//W3C//DTD SVG 1.1//EN" "http://www.w3.org/Graphics/SVG/1.1/DTD/svg11.dtd">
<svg version="1.1" id="Layer_1" xmlns="http://www.w3.org/2000/svg" xmlns:xlink="http://www.w3.org/1999/xlink" x="0px" y="0px"
	 viewBox="0 0 216 216" enable-background="new 0 0 216 216" xml:space="preserve">
<path d="M173,22c0-3.3-2.7-6-6-6H50c-3.3,0-6,2.7-6,6v166c0,3.3,2.7,6,6,6h117c3.3,0,6-2.7,6-6V22z M161,182H56V28h105V182z
	 M108.1,171.6c22.8,0,41.3-18.5,41.3-41.3s-18.5-41.3-41.3-41.3s-41.3,18.5-41.3,41.3S85.3,171.6,108.1,171.6z M108.1,100.9
	c16.2,0,29.3,13.2,29.3,29.3s-13.2,29.3-29.3,29.3s-29.3-13.2-29.3-29.3S91.9,100.9,108.1,100.9z M108.1,79.7
	c11.3,0,20.5-9.2,20.5-20.5s-9.2-20.5-20.5-20.5S87.6,48,87.6,59.3S96.8,79.7,108.1,79.7z M108.1,50.8c4.7,0,8.5,3.8,8.5,8.5
	s-3.8,8.5-8.5,8.5s-8.5-3.8-8.5-8.5S103.4,50.8,108.1,50.8z"/>
</svg>
