<?xml version="1.0" encoding="utf-8"?>
<!-- Generator: Adobe Illustrator 18.0.0, SVG Export Plug-In . SVG Version: 6.00 Build 0)  -->
<!DOCTYPE svg PUBLIC "-//W3C//DTD SVG 1.1//EN" "http://www.w3.org/Graphics/SVG/1.1/DTD/svg11.dtd">
<svg version="1.1" id="Layer_1" xmlns="http://www.w3.org/2000/svg" xmlns:xlink="http://www.w3.org/1999/xlink" x="0px" y="0px"
	 viewBox="0 0 216 216" enable-background="new 0 0 216 216" xml:space="preserve">
<path d="M181.7,41.7c-0.1-2.6-1.9-4.8-4.4-5.5c-2.5-0.7-5.1,0.3-6.6,2.5c-0.1,0.2-12.5,18.1-27.7,18.1c-13.1,0-25.5-16.2-28.7-20.7
	c-0.1-0.3-0.2-0.6-0.4-0.9c-1.1-1.9-3.1-3.1-5.3-3.1h-0.3c-2.2,0-4.2,1.2-5.3,3.1c-0.2,0.3-0.3,0.6-0.4,0.9
	c-3.2,4.5-15.7,20.7-28.7,20.7c-15.3,0-27.6-17.4-27.7-17.5c-1.5-2.1-4.1-3-6.6-2.4c-2.5,0.7-4.2,2.9-4.4,5.5
	C35.3,45.6,31.5,121,57,153.7c25.2,32.2,49,33.3,51.6,33.3c0,0,0.1,0,0.2,0c0.6,0,1.1-0.3,1.7-0.4c6.7-0.6,27.6-5.2,49.6-33.4
	C185.7,120.5,181.9,44.9,181.7,41.7z M168.8,83.5c-2.6,28.9-8.8,50.4-18.1,62.3c-22,28.1-42,28.7-42.2,28.7c-0.3,0-0.6,0-1,0.1
	c-4.5-0.5-22-4.1-41.1-28.5C50,125,47.4,80.6,47.2,57.6c6.6,5.6,15.9,11.2,26.9,11.2c9,0,18.3-4.4,27.5-13c2.8-2.6,5.1-5.2,7.1-7.6
	c1.9,2.3,4.3,5,7.1,7.6c9.2,8.6,18.4,13,27.5,13c11,0,20.3-5.7,26.9-11.5C169.9,64.4,169.6,73.6,168.8,83.5z"/>
</svg>
