<?xml version="1.0" encoding="utf-8"?>
<!-- Generator: Adobe Illustrator 18.0.0, SVG Export Plug-In . SVG Version: 6.00 Build 0)  -->
<!DOCTYPE svg PUBLIC "-//W3C//DTD SVG 1.1//EN" "http://www.w3.org/Graphics/SVG/1.1/DTD/svg11.dtd">
<svg version="1.1" id="Layer_1" xmlns="http://www.w3.org/2000/svg" xmlns:xlink="http://www.w3.org/1999/xlink" x="0px" y="0px"
	 viewBox="0 0 216 216" enable-background="new 0 0 216 216" xml:space="preserve">
<path d="M89.9,102.4C61.7,71.2,36.8,72.1,36.5,72.2c-3.4,0.2-6.1-2.4-6.3-5.7c-0.2-3.3,2.4-6.1,5.7-6.3c1.3-0.1,30.2-1.2,61.7,32.9
	c30.2-38.5,58.2-37.4,66.3-36l-12.4-14.2c-2.2-2.5-1.9-6.3,0.6-8.5c2.5-2.2,6.3-1.9,8.5,0.6l21.2,24.3c2,2.3,2,5.7,0,7.9L161,90.5
	c-1.2,1.3-2.8,2-4.5,2c-1.4,0-2.8-0.5-4-1.5c-2.5-2.2-2.7-6-0.5-8.5l11.8-13.3c-0.3,0-0.7-0.1-1-0.2c-1.2-0.3-26.4-6.5-56.3,32
	c-0.3,0.4-0.7,0.8-1,1.3c0.3,0.4,0.7,0.8,1,1.3c30.4,39.2,56,32.1,56.2,32c0.5-0.1,1-0.2,1.5-0.2l-11.3-13.4
	c-2.1-2.5-1.8-6.3,0.7-8.5c2.5-2.1,6.3-1.8,8.5,0.7l19.7,23.3c1.9,2.3,1.9,5.6,0,7.8l-20.2,23.3c-1.2,1.4-2.9,2.1-4.5,2.1
	c-1.4,0-2.8-0.5-3.9-1.5c-2.5-2.2-2.8-6-0.6-8.5l11.4-13.2c-1.5,0.2-3.6,0.5-6.3,0.5c-12,0-35.3-4.9-60.1-36.5
	c-28.9,31.3-55.7,32.9-60.9,32.9c-0.5,0-0.8,0-0.9,0c-3.3-0.2-5.8-3-5.7-6.3c0.2-3.3,3-5.8,6.3-5.7
	C37.6,132.6,62.1,133.1,89.9,102.4z"/>
</svg>
