<?xml version="1.0" encoding="utf-8"?>
<!-- Generator: Adobe Illustrator 18.0.0, SVG Export Plug-In . SVG Version: 6.00 Build 0)  -->
<!DOCTYPE svg PUBLIC "-//W3C//DTD SVG 1.1//EN" "http://www.w3.org/Graphics/SVG/1.1/DTD/svg11.dtd">
<svg version="1.1" id="Layer_1" xmlns="http://www.w3.org/2000/svg" xmlns:xlink="http://www.w3.org/1999/xlink" x="0px" y="0px"
	 viewBox="0 0 216 216" enable-background="new 0 0 216 216" xml:space="preserve">
<path d="M94.6,88.4c2.7-10.5,1.9-23-2-35.1C85.3,31.1,69,15.5,52.9,15.5c-2.5,0-5,0.4-7.4,1.2c-9,2.9-15.6,10.9-18.5,22.4
	c-2.7,10.5-1.9,23,2,35.1c0.7,2.1,1.5,4.2,2.3,6.1c0,0.3,0.1,0.6,0.1,0.9c0.2,1.5,1,2.8,2.1,3.8c8.4,16.3,21.9,27,35.2,27
	c0.5,0,1,0,1.5-0.1l14.2,43.5c0.8,2.5,3.2,4.1,5.7,4.1c0.6,0,1.2-0.1,1.9-0.3c3.2-1,4.9-4.4,3.8-7.6l-14.2-43.5
	C87.8,104.2,92.4,97.4,94.6,88.4z M38.6,42c1.1-4.3,3.9-11.7,10.5-13.9c1.2-0.4,2.4-0.6,3.7-0.6c10.6,0,22.8,12.7,28.3,29.6
	c0.1,0.3,0.2,0.6,0.3,0.9l-21-6.5c-2.1-0.7-4.4-0.1-6,1.5C47.8,59.5,43.1,64.3,39.7,68C37.1,58.8,36.7,49.7,38.6,42z M83,85.5
	c-1.1,4.3-3.9,11.7-10.5,13.9c-1.2,0.4-2.4,0.6-3.7,0.6c-8.4,0-17.8-8-24.1-19.6c3.2-3.7,9.5-10.3,15.7-16.4l23.7,7.4
	C84.4,76.4,84.1,81.2,83,85.5z M166.8,49.7c-3.1-1.4-6.5-2.1-10.1-2.1c-15.4,0-31.8,13.4-40.9,33.4c-5.3,11.6-7.4,23.9-5.9,34.6
	c1.3,9.2,5,16.5,10.8,21.1l-19,41.7c-1.4,3,0,6.6,3,7.9c0.8,0.4,1.6,0.5,2.5,0.5c2.3,0,4.5-1.3,5.5-3.5l19-41.7
	c1.4,0.2,2.8,0.4,4.3,0.4c15.4,0,31.8-13.4,40.9-33.4C188.2,83.4,183.9,57.5,166.8,49.7z M156.7,59.6c1.8,0,3.6,0.4,5.1,1.1
	c9.8,4.4,12.1,21.6,5.7,38.8l-22.2-3.8c-5.7-10.3-10-15.9-13.3-18.9C139.1,66.4,148.5,59.6,156.7,59.6z M135.9,130
	c-1.8,0-3.6-0.4-5.1-1.1c-6.4-2.9-8.3-10.6-8.9-15c-1.1-8,0.4-17.2,4.1-26.2c2.9,3.6,6.9,9.9,10.2,16.1c0.9,1.6,2.4,2.8,4.3,3.1
	l21.6,3.7C154.9,122.2,144.6,130,135.9,130z"/>
</svg>
