<?xml version="1.0" encoding="utf-8"?>
<!-- Generator: Adobe Illustrator 18.0.0, SVG Export Plug-In . SVG Version: 6.00 Build 0)  -->
<!DOCTYPE svg PUBLIC "-//W3C//DTD SVG 1.1//EN" "http://www.w3.org/Graphics/SVG/1.1/DTD/svg11.dtd">
<svg version="1.1" id="Layer_1" xmlns="http://www.w3.org/2000/svg" xmlns:xlink="http://www.w3.org/1999/xlink" x="0px" y="0px"
	 viewBox="0 0 216 216" enable-background="new 0 0 216 216" xml:space="preserve">
<path d="M151.8,128c-0.5-9.1-4-16.5-10.4-21.8c-9.3-7.7-22.1-9.1-31.2-9c-1.5-10.2-2.9-19.4-3.9-26.2c1-0.6,2-1.2,2.9-1.8
	c2.6-1.6,5.2-3.1,7.6-4.6c16.6-10.2,27.1-26.3,25.6-39c-0.9-7.6-5.9-13.2-13.9-15.8c-12-3.9-27.1,3-33,15.1
	c-5.3,10.9-3,34.3-2.7,36.9c0,0.1,0,0.2,0,0.3c0.1,0.9,0.3,1.8,0.4,2.8c-19.9,12.3-41,26.7-46.7,41.7c-5.3,13.9-5.2,26.8,0.2,37.3
	c5.2,10.1,14.8,17.3,27.8,20.8c9.3,2.5,21.1,2.3,32.8-0.1c0.6,5.4,1,9.3,1,10.9c0,6.9-1.5,12.1-4.2,14.4c-0.6,0.5-2.5,2.1-7.3,1.4
	c-5.1-0.8-10.8-6.1-12.5-8.2c-2.2-2.5-6-2.7-8.5-0.6c-2.5,2.2-2.8,6-0.6,8.5c0.9,1.1,9.5,10.6,19.8,12.1c1.5,0.2,2.8,0.3,4.1,0.3
	c6.2,0,10.3-2.3,12.8-4.5c6.9-5.9,8.4-16.1,8.4-23.5c0-2.2-0.5-7.2-1.3-14c8.2-2.7,15.7-6.5,21.2-11
	C148.3,144,152.3,136.3,151.8,128z M106.4,30.2c2.9-6,9.7-9.4,15.2-9.4c1.2,0,2.3,0.2,3.3,0.5c4.7,1.5,5.5,4.1,5.7,5.8
	c1,8.7-9.6,20.9-20,27.4c-1.9,1.2-3.9,2.4-6,3.7C103.8,49.1,103.8,35.5,106.4,30.2z M77.7,153.1c-9.7-2.6-16.7-7.7-20.2-14.7
	c-3.8-7.5-3.7-17,0.3-27.6c4-10.5,20.9-22.6,37.4-33c1,6.7,2,13.7,3.1,20.7c-7.6,2-14.1,6.7-18.4,13.6c-4.5,7.2-6.2,15.9-4.3,21.8
	c1.1,3.1,4.5,4.8,7.6,3.8c3.1-1.1,4.8-4.5,3.8-7.6c-0.5-1.5-0.2-6.5,3-11.6c1.8-2.9,4.9-6.3,10-8c2.2,15.4,4.3,30.4,5.8,42.1
	C95.8,154.8,85.4,155.2,77.7,153.1z M132.7,141.2c-4,3.2-9.3,6-15.2,8.2c-1.6-12-3.6-26.4-5.6-40.1c6.8,0,15.8,1.2,21.8,6.2
	c3.8,3.2,5.8,7.5,6.1,13.3C140.1,133,137.7,137.2,132.7,141.2z"/>
</svg>
