<?xml version="1.0" encoding="utf-8"?>
<!-- Generator: Adobe Illustrator 18.0.0, SVG Export Plug-In . SVG Version: 6.00 Build 0)  -->
<!DOCTYPE svg PUBLIC "-//W3C//DTD SVG 1.1//EN" "http://www.w3.org/Graphics/SVG/1.1/DTD/svg11.dtd">
<svg version="1.1" id="Layer_1" xmlns="http://www.w3.org/2000/svg" xmlns:xlink="http://www.w3.org/1999/xlink" x="0px" y="0px"
	 viewBox="0 0 216 216" enable-background="new 0 0 216 216" xml:space="preserve">
<path d="M184.3,119c1.8-1.2,2.8-3.3,2.6-5.4c-0.1-0.8-1.5-19.2-12-37.9c-9.3-16.6-27.5-36.1-62-38.2V27c0-3.3-2.7-6-6-6s-6,2.7-6,6
	v10.4c-34.8,2-52.2,21.7-60.8,38.5c-9.6,18.7-10.1,37.2-10.1,38c0,2,0.9,3.9,2.5,5c1,0.7,2.3,1.1,3.5,1.1c0.7,0,1.4-0.1,2.1-0.4
	c10.1-3.7,28.8-9.6,35.5-9.6c5.8,0,20.1,4.3,30.4,7.9v50.2c0,0.1,0,0.3,0,0.4c0,0.1,0.3,6.5-3.4,10.4c-2.2,2.4-5.7,3.6-10.3,3.6
	c-15.2,0-17.2-13.5-17.4-14.9c-0.3-3.3-3.3-5.7-6.6-5.4c-3.3,0.3-5.7,3.3-5.4,6.6c0.9,8.9,8.2,25.7,29.3,25.7
	c8.2,0,14.6-2.5,19.2-7.4c6.8-7.3,6.6-17.1,6.5-19.1v-49.4c8.6-3.1,25.1-8.5,32.8-8.5c8.6,0,24.2,6.8,29.5,9.4
	C180.2,120.3,182.5,120.2,184.3,119z M148.8,98c-11,0-31.1,7.1-38,9.6c-7-2.5-27.6-9.6-37.2-9.6c-7.4,0-21.2,4.1-30.5,7.2
	c1.1-6.3,3.3-15.1,7.8-23.8c10.9-21.3,29.7-32.1,55.9-32.1c26.1,0,45.5,10.8,57.5,32c4.7,8.2,7.3,16.5,8.8,22.8
	C165.9,101.1,156.2,98,148.8,98z"/>
</svg>
