<?xml version="1.0" encoding="utf-8"?>
<!-- Generator: Adobe Illustrator 18.0.0, SVG Export Plug-In . SVG Version: 6.00 Build 0)  -->
<!DOCTYPE svg PUBLIC "-//W3C//DTD SVG 1.1//EN" "http://www.w3.org/Graphics/SVG/1.1/DTD/svg11.dtd">
<svg version="1.1" id="Layer_1" xmlns="http://www.w3.org/2000/svg" xmlns:xlink="http://www.w3.org/1999/xlink" x="0px" y="0px"
	 viewBox="0 0 216 216" enable-background="new 0 0 216 216" xml:space="preserve">
<path d="M27,79v58c0,3.3,2.7,6,6,6h35.9l31.1,27.4c1.1,1,2.5,1.5,4,1.5c0.8,0,1.7-0.2,2.5-0.5c2.2-1,3.5-3.1,3.5-5.5V46.3
	c0-2.5-1.5-4.7-3.8-5.6c-2.3-0.9-4.9-0.3-6.6,1.5L71.4,73H33C29.7,73,27,75.7,27,79z M39,85h35c1.7,0,3.3-0.7,4.4-1.9L98,61.7v91
	l-22.8-20.1c-1.1-1-2.5-1.5-4-1.5H39V85z M131,128.4c5.7-6.2,8.8-14.1,8.8-22.5c0-8.3-3.1-16.2-8.6-22.3c-2.2-2.5-2-6.2,0.4-8.5
	c2.5-2.2,6.2-2,8.5,0.4c7.6,8.3,11.7,19.1,11.7,30.4c0,11.4-4.2,22.3-12,30.6c-1.2,1.3-2.8,1.9-4.4,1.9c-1.5,0-2.9-0.5-4.1-1.6
	C128.9,134.6,128.7,130.8,131,128.4z"/>
</svg>
