<?xml version="1.0" encoding="utf-8"?>
<!-- Generator: Adobe Illustrator 18.0.0, SVG Export Plug-In . SVG Version: 6.00 Build 0)  -->
<!DOCTYPE svg PUBLIC "-//W3C//DTD SVG 1.1//EN" "http://www.w3.org/Graphics/SVG/1.1/DTD/svg11.dtd">
<svg version="1.1" id="Layer_1" xmlns="http://www.w3.org/2000/svg" xmlns:xlink="http://www.w3.org/1999/xlink" x="0px" y="0px"
	 viewBox="0 0 216 216" enable-background="new 0 0 216 216" xml:space="preserve">
<path d="M35.3,145.4c-0.4,1.5-0.2,3.2,0.6,4.6s2.1,2.4,3.7,2.8l25.5,6.7l11,24c0.7,1.5,1.9,2.6,3.4,3.1c1.5,0.5,3.2,0.5,4.6-0.2
	l23.9-11.3l23.9,11.3c0.8,0.4,1.7,0.6,2.6,0.6c0.7,0,1.4-0.1,2.1-0.4c1.5-0.5,2.7-1.7,3.4-3.1l11-24l25.5-6.7
	c1.6-0.4,2.9-1.4,3.7-2.8s1-3,0.6-4.6l-7-25.5L189,98.4c0.9-1.3,1.3-2.9,1-4.5s-1.2-3-2.5-3.9l-21.7-15l-2.1-26.3
	c-0.1-1.6-0.9-3.1-2.1-4.1c-1.2-1-2.8-1.5-4.4-1.4l-26.3,2.5l-18.6-18.8c-1.1-1.1-2.7-1.8-4.3-1.8s-3.1,0.6-4.3,1.8L85.2,45.6
	l-26.3-2.5c-1.6-0.1-3.2,0.3-4.4,1.4c-1.2,1-2,2.5-2.1,4.1L50.2,75L28.5,90c-1.3,0.9-2.2,2.3-2.5,3.9c-0.3,1.6,0.1,3.2,1,4.5
	l15.3,21.5L35.3,145.4z M40.3,96.4l19.1-13.2c1.5-1,2.4-2.7,2.6-4.4l1.9-23.1l23.1,2.2c1.8,0.2,3.6-0.5,4.8-1.8L108,39.6l16.3,16.5
	c1.3,1.3,3,1.9,4.8,1.8l23.1-2.2l1.9,23.1c0.1,1.8,1.1,3.4,2.6,4.4l19.1,13.2l-13.4,18.9c-1,1.5-1.4,3.3-0.9,5.1l6.1,22.3l-22.4,5.9
	c-1.7,0.5-3.2,1.7-3.9,3.3l-9.7,21.1l-20.9-9.9c-0.8-0.4-1.7-0.6-2.6-0.6c-0.9,0-1.8,0.2-2.6,0.6l-20.9,9.9l-9.7-21.1
	c-0.8-1.6-2.2-2.8-3.9-3.3l-22.4-5.9l6.1-22.3c0.5-1.7,0.1-3.6-0.9-5.1L40.3,96.4z M101.9,113V73c0-3.3,2.7-6,6-6s6,2.7,6,6v40
	c0,3.3-2.7,6-6,6S101.9,116.3,101.9,113z M101.9,139v-4c0-3.3,2.7-6,6-6s6,2.7,6,6v4c0,3.3-2.7,6-6,6S101.9,142.3,101.9,139z"/>
</svg>
