<?xml version="1.0" encoding="utf-8"?>
<!-- Generator: Adobe Illustrator 18.0.0, SVG Export Plug-In . SVG Version: 6.00 Build 0)  -->
<!DOCTYPE svg PUBLIC "-//W3C//DTD SVG 1.1//EN" "http://www.w3.org/Graphics/SVG/1.1/DTD/svg11.dtd">
<svg version="1.1" id="Layer_1" xmlns="http://www.w3.org/2000/svg" xmlns:xlink="http://www.w3.org/1999/xlink" x="0px" y="0px"
	 viewBox="0 0 216 216" enable-background="new 0 0 216 216" xml:space="preserve">
<path d="M162.1,55.6l0,0.1l11.8,2.1c-0.1,0.8-4,20.6-34.3,20.6c-14.7,0-21.9-8.2-28.2-15.3c-6.7-7.6-12.6-14.2-27.6-14.2
	c-27.7,0-32.8,22.9-33,23.9c-0.7,3.2-3.8,5.3-7.1,4.7c-3.2-0.6-5.3-3.8-4.7-7c2.2-11.6,14.5-33.6,44.7-33.6
	c20.4,0,29.4,10.1,36.6,18.3c5.8,6.6,10,11.3,19.2,11.3C159.4,66.4,162,56,162.1,55.6z M162.1,103l0-0.1
	c-0.1,0.4-2.7,10.8-22.5,10.8c-9.2,0-13.4-4.7-19.2-11.3c-7.2-8.1-16.1-18.3-36.6-18.3c-30.2,0-42.5,22-44.7,33.6
	c-0.6,3.2,1.5,6.4,4.7,7c3.2,0.6,6.4-1.5,7.1-4.7c0.2-1,5.2-23.9,33-23.9c15,0,20.9,6.6,27.6,14.2c6.4,7.2,13.6,15.3,28.2,15.3
	c30.3,0,34.1-19.7,34.3-20.6L162.1,103z M173.9,149.7l-11.8-2.1l0-0.1c-0.1,0.4-2.7,10.8-22.5,10.8c-9.2,0-13.4-4.7-19.2-11.3
	c-7.2-8.1-16.1-18.3-36.6-18.3c-30.2,0-42.5,22-44.7,33.6c-0.6,3.2,1.5,6.4,4.7,7c3.2,0.6,6.4-1.5,7.1-4.7c0.2-1,5.2-23.9,33-23.9
	c15,0,20.9,6.6,27.6,14.2c6.4,7.2,13.6,15.3,28.2,15.3C169.9,170.2,173.8,150.5,173.9,149.7z"/>
</svg>
