<?xml version="1.0" standalone="no"?>
<!DOCTYPE svg PUBLIC "-//W3C//DTD SVG 1.1//EN" "http://www.w3.org/Graphics/SVG/1.1/DTD/svg11.dtd">
<svg xmlns="http://www.w3.org/2000/svg">
<metadata>Anton Saputro</metadata>
<defs>
<font id="fontello" horiz-adv-x="1000" >
<font-face font-family="fontello" font-weight="400" font-stretch="normal" units-per-em="1000" ascent="850" descent="-150" />
<missing-glyph horiz-adv-x="1000" />
<glyph glyph-name="oi-announce" unicode="&#xe800;" d="m143 499l-1-232c0-8 3-15 9-20 5-5 13-8 20-8 1 0 24 2 61 3 0-9 3-44 20-79 18-40 58-87 138-89 2 0 4 0 5 0 42 0 77 13 104 38 32 30 44 70 48 96 133-47 211-116 212-117v0c5-4 12-7 19-7 4 0 8 1 11 3 10 4 17 14 17 25v531c0 11-7 21-17 26-10 4-22 2-30-5-1-1-112-100-196-126-49-15-117-23-201-23-100 0-187 11-188 11-8 1-16-1-22-6-6-6-9-13-9-21z m252-370c-1 0-2 0-3 0-42 1-71 19-89 56-12 24-15 49-15 57 11 0 23 0 34-1 4-1 7-2 11-2 0 0 0 0 0 0 4 0 6 0 10 2 49-3 103-8 150-18-3-29-20-94-98-94z m184 356c60 18 128 65 171 99v-416c-39 26-102 64-184 93-59 21-134 30-204 34l1 164c90 1 163 9 216 26z m-381-17c26-3 65-6 109-7l0-163c-13 0-25 0-36 0-30 0-55-1-74-1l1 171z" horiz-adv-x="1000" />
<glyph glyph-name="oi-arrow-down" unicode="&#xe801;" d="m500 697c-15 0-28-12-28-28v-565l-180 203c-10 11-28 12-40 2-11-10-12-28-2-40l227-254c5-8 14-12 23-12 0 0 0 0 0 0 0 0 0 0 0 0 8 0 15 3 21 9l230 257c10 12 9 30-3 40-11 10-29 9-39-2l-181-204v566c0 16-13 28-28 28z" horiz-adv-x="1000" />
<glyph glyph-name="oi-arrow-left" unicode="&#xe802;" d="m162 370c-1 0-1-1-1-1-1 0-1 0-1 0-1-1-1-1-1-2-1 0-1 0-1-1-1 0-1-1-1-1 0-1 0-1 0-1-1-1-1-1-1-2 0 0-1 0-1-1 0 0 0-1-1-2 0 0 0 0 0 0 0-1 0-2 0-2 0 0 0-1 0-1 0-1-1-1-1-2 0 0 0-1 0-1 0-1 0-2 0-2s0-2 0-3c0 0 0-1 0-1 0-1 0-1 1-2 0 0 0-1 0-1 0 0 0-1 0-2 0 0 0 0 0 0 1-1 1-2 1-2 0-1 1-1 1-1 0-1 0-1 1-2 0 0 0 0 0-1 0 0 0-1 1-1 0-1 0-1 1-1 0-1 0-1 1-2 0 0 0 0 1 0 0-1 1-1 1-1 0 0 0-1 0-1l257-229c6-5 13-7 19-7 8 0 15 3 21 9 10 11 9 29-2 39l-204 180h566c16 0 28 13 28 28s-12 28-28 28h-566l203 181c12 10 13 28 2 39s-27 13-39 3l-257-230c0-1 0-1 0-1z" horiz-adv-x="1000" />
<glyph glyph-name="oi-arrow-right" unicode="&#xe803;" d="m153 350c0-15 12-28 28-28h566l-203-181c-12-10-12-28-2-39 5-6 13-9 21-9 6 0 13 2 18 7l257 229c6 5 10 13 10 21s-4 15-10 21l-257 230c-12 10-29 9-39-3-10-11-10-29 2-39l203-181h-566c-16 0-28-13-28-28z" horiz-adv-x="1000" />
<glyph glyph-name="oi-arrow-up" unicode="&#xe804;" d="m500 3c15 0 28 12 28 28v566l181-203c6-6 13-10 21-10 7 0 13 3 19 7 11 10 12 28 2 40l-230 257c-5 6-13 9-21 9-2 0-4 0-6-1-7-1-12-5-17-11l-227-254c-10-12-9-30 2-40 12-10 30-9 40 3l180 202v-565c0-16 13-28 28-28z" horiz-adv-x="1000" />
<glyph glyph-name="oi-attachment" unicode="&#xe805;" d="m649 507c10 11 10 28 0 39-11 11-29 11-40 0l-291-291c-35-35-35-92 0-126 35-35 92-35 126 0l306 305c2 1 5 3 8 5 41 41 149 149 45 254-40 39-88 55-138 44-41-9-84-36-127-78l-330-331c-39-39-60-94-58-153 2-57 26-113 65-152 40-40 94-62 151-64 1 0 3 0 4 0 57 0 109 22 147 60l326 326c11 11 11 28 0 39-11 11-28 11-39 0l-326-326c-29-28-68-44-111-43-42 1-83 18-112 47-63 63-66 169-8 227l331 330c34 35 68 57 98 63 32 7 61-2 87-29 26-26 34-50 25-79-7-21-22-44-47-72-2-1-4-3-5-4l-330-330c-13-13-35-13-48 0-13 13-13 34 0 47l291 292z" horiz-adv-x="1000" />
<glyph glyph-name="oi-backward" unicode="&#xe806;" d="m510-16c-6-12-3-27 7-35 5-5 11-6 17-6 7 0 14 2 19 6 4 4 86 77 160 168 105 130 138 229 98 294-36 58-103 98-200 121-52 12-100 16-130 17v181c0 11-7 21-18 26-10 4-22 1-30-7l-319-333c-5-6-8-13-8-21s4-15 10-20l315-268c8-7 19-9 29-5 9 4 16 13 17 24l11 167c12 1 29 3 46 3 22 0 75-3 79-30 3-13 2-53-46-164-27-63-56-118-57-118z m25 368c-41 0-76-7-78-7-12-2-21-13-22-26l-9-134-251 213 251 262v-139c0-7 3-14 8-20s13-8 20-7c0 0 1 0 3 0 25 0 239-4 307-112 25-42-8-123-94-230-13-16-27-32-41-47 33 80 46 136 40 171-6 35-34 76-134 76z" horiz-adv-x="1000" />
<glyph glyph-name="oi-badge" unicode="&#xe807;" d="m926 432l-119 83-12 144c0 7-4 14-9 19-6 4-13 7-21 6l-144-13-101 103c-5 5-13 8-20 8s-14-3-20-8l-101-103-144 13c-8 1-15-1-21-6-5-5-9-12-9-19l-12-144-119-83c-6-4-10-10-11-18s0-14 4-20l84-118-39-139c-2-7-1-15 3-22s10-11 17-13l140-36 60-132c3-7 9-12 16-14 7-3 15-2 21 1l131 62 130-62c4-2 8-3 12-3 3 0 7 0 10 2 7 2 12 8 16 14l60 132 140 36c7 2 13 7 17 13s4 14 3 22l-39 139 84 118c4 6 6 13 5 21s-6 13-12 17z m-130-135c-4-7-6-15-4-23l34-125-125-33c-8-3-15-8-18-15l-54-118-117 55c-4 2-8 3-12 3s-9-1-12-3l-118-55-54 118c-3 7-10 12-18 15l-125 33 34 125c2 8 0 16-4 23l-74 106 106 73c7 5 11 13 12 21l11 129 129-12c8-1 17 2 22 8l91 93 91-92c6-6 14-9 22-9l130 12 10-129c1-8 5-15 12-20l107-74-76-106z" horiz-adv-x="1000" />
<glyph glyph-name="oi-bell" unicode="&#xe808;" d="m150 85c4-10 14-17 26-17h201c9-60 61-106 123-106s113 46 122 106h202c0 0 0 0 0 0 2 0 3 0 4 0 10 1 19 8 23 18 3 10 0 21-7 29-1 0-1 1-2 1-3 3-14 16-24 42-12 28-26 79-26 157 0 154-59 236-107 277-33 27-65 41-86 47-1 19-6 45-23 66-13 14-35 31-75 31-40 0-63-17-75-31-18-21-23-48-24-67-21-6-54-20-86-46-89-73-108-191-108-276 0-76-14-127-26-156-13-31-25-45-25-45 0 0 0 0 0 0-9-8-11-20-7-30z m350-67c-31 0-57 21-66 50h132c-9-29-35-50-66-50z m-236 298c0 249 163 272 169 273 8 1 15 5 19 11 5 6 7 13 6 21-1 9-2 35 10 49 2 3 10 12 33 12 22 0 30-9 32-12 12-13 11-38 10-47-1-7 1-15 5-21 5-6 11-10 19-11 1 0 42-6 83-41 58-49 87-128 87-235 0-95 18-155 36-192h-546c17 38 37 100 37 193z" horiz-adv-x="1000" />
<glyph glyph-name="oi-book" unicode="&#xe809;" d="m811 642c-55 46-117 66-176 57-76-13-120-49-144-79-25 30-69 66-145 79-9 2-20 2-29 2-68 0-133-37-194-110 0 0 0-1 0-1-5-3-8-8-10-13-2-5-2-9-1-13v-538c0-11 6-21 16-25 10-5 23-3 30 5 1 1 109 103 198 103 79 0 107-87 108-91 0 0 0 0 0-1 0 0 1-1 1-2 1-1 1-2 2-2 0-1 0-1 1-2 0-1 1-2 1-3 1 0 1-1 1-1 1 0 2-1 3-2 0 0 0 0 1-1 1-1 2-2 3-2 0 0 0 0 0-1 5-2 9-3 14-3 0 0 0 0 1 0 0 0 0 0 0 0 1 0 2 0 2 0 1 0 1 0 2 0 0 0 1 0 1 1 1 0 3 0 4 0 0 0 0 1 0 1 1 1 3 1 4 2 0 0 0 0 1 0 1 1 1 2 2 3 1 0 1 0 1 1 1 1 2 1 3 2 0 0 0 1 1 1 0 1 1 2 1 3 1 1 1 1 1 2 1 1 1 2 1 3 0 0 1 0 1 1 1 3 28 91 108 91 88 0 197-102 198-103 5-5 12-8 19-8 3 0 7 1 11 2 10 4 16 14 16 26v535c1 2 1 4 1 6 0 9-2 15-20 35-7 10-21 25-39 40z m-455-477c-70 0-143-45-189-80v472c56 67 114 96 170 87 87-14 119-67 126-82v-440c-30 28-66 43-107 43z m459-79c-46 34-120 79-189 79-41 0-77-14-107-43v440c7 15 39 67 125 82 7 1 14 2 21 2 73 0 133-66 150-87v-473z" horiz-adv-x="1000" />
<glyph glyph-name="oi-bookmark" unicode="&#xe80a;" d="m713 725h-444c-16 0-28-12-28-28v-711c0-12 7-22 17-26 11-4 23-2 31 7l207 227 196-226c6-6 13-10 21-10 3 0 6 0 10 2 10 4 18 14 18 26v711c0 16-13 28-28 28z m-28-665l-167 194c-5 6-12 10-21 10-8 0-15-3-21-9l-180-198v612h389v-609z" horiz-adv-x="1000" />
<glyph glyph-name="oi-building" unicode="&#xe80b;" d="m444 308h-50c-16 0-28-12-28-27v-47c0-15 12-27 28-27h50c16 0 28 12 28 27v47c0 15-12 27-28 27z m186-74v47c0 15-13 27-28 27h-46c-16 0-28-12-28-27v-47c0-15 12-27 28-27h46c15 0 28 12 28 27z m-186 227h-50c-16 0-28-12-28-28v-46c0-15 12-28 28-28h50c16 0 28 13 28 28v46c0 16-12 28-28 28z m112-102h46c15 0 28 13 28 28v46c0 16-13 28-28 28h-46c-16 0-28-12-28-28v-46c0-15 12-28 28-28z m-112 250h-50c-16 0-28-12-28-27v-47c0-15 12-28 28-28h50c16 0 28 13 28 28v47c0 15-12 27-28 27z m112-102h46c15 0 28 13 28 28v47c0 15-13 27-28 27h-46c-16 0-28-12-28-27v-47c0-15 12-28 28-28z m199 93v120c0 16-13 28-28 28h-458c-16 0-28-12-28-28v-120l-127-131c-5-5-7-12-7-19v-489c0-15 12-28 27-28h135 120c10 0 19 6 24 14 7 5 13 13 13 23v107h143v-107c0-12 9-23 20-27 5-6 13-10 22-10h116 134c15 0 28 13 28 28v489c0 7-3 14-8 19l-126 131z m-593-162l79 82v-531h-79v449z m236-306c-15 0-28-12-28-27v-116h-74v599 105h403v-105-599h-74v116c0 15-12 27-28 27h-199z m435-143h-78v531l78-82v-449z" horiz-adv-x="1000" />
<glyph glyph-name="oi-calendar" unicode="&#xe80c;" d="m870 693h-83c-15 0-28-13-28-28s13-28 28-28h56v-620h-686v620h75c15 0 27 13 27 28s-12 28-27 28h-102c-16 0-28-13-28-28v-676c0-15 12-28 28-28h740c16 0 28 13 28 28v676c0 15-12 28-28 28z m-333 0h-79c-15 0-27-13-27-28s12-28 27-28h79c15 0 28 13 28 28s-13 28-28 28z m-204-500h-64c-16 0-28-13-28-28v-46c0-16 12-28 28-28h64c16 0 28 12 28 28v46c0 15-12 28-28 28z m199 0h-69c-15 0-28-13-28-28v-46c0-16 13-28 28-28h69c16 0 28 12 28 28v46c0 15-12 28-28 28z m-171 125c0 15-12 27-28 27h-64c-16 0-28-12-28-27v-47c0-15 12-27 28-27h64c16 0 28 12 28 27v47z m199 0c0 15-12 27-28 27h-69c-15 0-28-12-28-27v-47c0-15 13-27 28-27h69c16 0 28 12 28 27v47z m167 27h-65c-15 0-28-12-28-27v-47c0-15 13-27 28-27h65c15 0 28 12 28 27v47c0 15-13 27-28 27z m-486 130v-46c0-16 12-28 28-28h64c16 0 28 12 28 28v46c0 15-12 28-28 28h-64c-16 0-28-13-28-28z m319 0c0 15-12 28-28 28h-69c-15 0-28-13-28-28v-46c0-16 13-28 28-28h69c16 0 28 12 28 28v46z m195 0c0 15-13 28-28 28h-65c-15 0-28-13-28-28v-46c0-16 13-28 28-28h65c15 0 28 12 28 28v46z m-403 107c15 0 28 12 28 27v130c0 15-13 28-28 28h-28c-15 0-28-13-28-28v-130c0-15 13-27 28-27h28z m319 185h-27c-16 0-28-13-28-28v-130c0-15 12-27 28-27h27c16 0 28 12 28 27v130c0 15-12 28-28 28z" horiz-adv-x="1000" />
<glyph glyph-name="oi-call" unicode="&#xe80d;" d="m189 40c1-1 3-2 5-4l25-16c1 0 3-1 4-1 38-18 81-26 124-26 74 0 141 26 187 72l241 241c74 74 93 202 44 310 0 2-1 3-2 4l-16 25c-1 1-2 3-3 4l-43 43c-14 14-32 21-50 21-17 0-34-7-46-19l-125-125c-27-26-26-69 1-96l49-49-167-167-50 50c-12 13-29 20-48 20-17 0-34-7-47-20l-125-125c-12-12-20-30-21-48 0-19 6-37 19-50l44-44z m-2 103l125 125c4 5 12 4 17-1l69-69c11-11 28-11 40 0l206 206c5 5 8 12 8 19s-3 15-8 20l-69 69c-5 5-6 14-1 18l125 125c2 2 3 3 6 3 4 0 8-2 11-5l41-40 13-21c44-102 13-199-34-246l-241-241c-36-37-88-57-148-57-34 0-69 7-100 21l-21 13-41 41c-3 3-3 7-3 9 0 4 2 8 5 11z" horiz-adv-x="1000" />
<glyph glyph-name="oi-camera" unicode="&#xe80e;" d="m808 590l-88 1-85 126c-5 8-14 13-23 13h-228c-9 0-18-5-23-12l-87-127-82-1c-62 0-113-51-113-113v-365c0-62 51-114 113-114h616c62 0 113 52 113 114v365c0 62-51 113-113 113z m58-478c0-31-26-58-58-58h-616c-32 0-58 27-58 58v365c0 32 26 58 58 58l96 0c10 0 18 5 23 12l88 127h198l85-126c5-7 13-12 22-12l104-1c31 0 57-26 57-58v-365z m-364 412c-108 0-196-89-196-197s88-197 196-197 197 89 197 197-88 197-197 197z m0-338c-77 0-141 63-141 141s64 141 141 141 142-63 142-141-64-141-142-141z m264 295c-22 0-39-18-39-39s17-38 39-38 38 17 38 38-17 39-38 39z m0-56c-10 0-17 8-17 17s8 17 17 17 17-8 17-17-7-17-17-17z" horiz-adv-x="1000" />
<glyph glyph-name="oi-cancel" unicode="&#xe80f;" d="m310 160c6-5 13-8 20-8 7 0 14 3 19 8l151 151 151-151c6-5 12-8 19-8s15 3 20 8c11 11 11 28 0 40l-151 150 151 151c11 11 11 28 0 39s-28 11-39 0l-151-151-151 151c-11 11-28 11-39 0-11-11-11-28 0-39l151-151-151-151c-11-11-11-28 0-39z m190-218c225 0 408 183 408 408s-183 408-408 408-408-183-408-408 183-408 408-408z m0 760c194 0 352-158 352-352s-158-352-352-352-352 158-352 352 158 352 352 352z" horiz-adv-x="1000" />
<glyph glyph-name="oi-cart" unicode="&#xe810;" d="m125 619h80l113-411c3-12 14-20 27-20h349c11 0 20 6 25 17l127 291c4 9 3 19-2 27s-14 12-24 12h-385c-15 0-28-12-28-28s13-27 28-27h343l-103-236h-309l-114 410c-3 12-14 20-26 20h-101c-15 0-28-12-28-28s13-27 28-27z m194-626c34 0 63 28 63 63s-29 63-63 63-63-29-63-63 28-63 63-63z m393 0c1 0 3 0 5 0 16 1 32 8 43 21 11 13 16 29 15 46-2 34-32 61-67 59-35-3-61-33-58-68 2-32 29-58 62-58z" horiz-adv-x="1000" />
<glyph glyph-name="oi-chat" unicode="&#xe811;" d="m500 710c-214 0-388-137-388-304 0-87 46-168 127-226l-28-158c-2-10 2-21 11-27 5-4 11-5 16-5 5 0 10 1 13 3l206 110c14-1 29-2 43-2 214 0 388 137 388 305s-174 304-388 304z m0-553c-15 0-31 1-46 3-6 0-11-1-16-3l-162-88 20 119c2 12-2 23-12 29-75 47-117 116-117 189 0 137 149 248 333 248s332-111 332-248-149-249-332-249z" horiz-adv-x="1000" />
<glyph glyph-name="oi-check" unicode="&#xe812;" d="m680 511l-237-264-125 120c-11 11-29 10-39-1-11-11-10-28 1-39l145-140c5-5 12-8 19-8 1 0 1 0 1 0 8 1 15 4 20 9l256 286c11 11 10 29-2 39-11 11-29 10-39-2z m-180 247c-225 0-408-183-408-408s183-408 408-408 408 183 408 408-183 408-408 408z m0-760c-194 0-352 158-352 352s158 352 352 352 352-158 352-352-158-352-352-352z" horiz-adv-x="1000" />
<glyph glyph-name="oi-chevron-down" unicode="&#xe813;" d="m478 146c5-7 13-11 22-11s17 4 22 11l279 374c10 13 7 30-5 39-13 10-30 7-39-5l-257-345-257 345c-9 12-26 15-39 5-12-9-15-26-5-39l279-374z" horiz-adv-x="1000" />
<glyph glyph-name="oi-font" unicode="&#xe814;" d="m633 657c-4 10-14 17-26 17 0 0 0 0 0 0-11 0-21-7-25-17l-138-309-118 286c-4 10-14 17-25 17 0 0 0 0 0 0-12 0-21-6-26-16l-154-345c-7-14 0-30 14-36 14-7 30 0 36 14l33 73h182l26-63-94-212c-7-14 0-30 14-36 13-6 30 0 36 14l57 125h348l51-125c5-11 15-17 26-17 4 0 7 1 11 2 14 6 21 22 15 37l-243 591z m-403-261l70 157 64-157h-134z m220-171l156 350 143-350h-299z" horiz-adv-x="1000" />
<glyph glyph-name="oi-flag" unicode="&#xe815;" d="m341 702h-128c-15 0-28-10-28-26v-662c0-15 13-30 28-30h128c15 0 29 15 29 30v234c37 7 151 24 212-43 30-34 67-46 104-46 63 0 126 36 162 65 6 5 10 13 10 21l-6 310c0 10-6 19-14 24-10 4-20 4-29-2-22-15-92-53-141-41-20 5-35 17-45 38-31 58-91 89-175 92-30 1-59-2-78-5v15c0 16-14 26-29 26z m-26-662h-74v606h74v-606z m259 508c19-35 45-57 80-66 51-12 106 7 144 25l4-248c-31-22-123-79-179-17-74 83-202 72-253 62v300c47 9 163 21 204-56z" horiz-adv-x="1000" />
<glyph glyph-name="oi-file" unicode="&#xe816;" d="m227-25h546c15 0 28 12 28 28v472c0 7-3 15-9 20l-215 199c-5 5-12 8-19 8h-331c-15 0-28-13-28-28v-671c0-16 13-28 28-28z m518 488v-2h-189v178l189-176z m-490 183h245v-213c0-15 13-27 28-27h217v-375h-490v615z" horiz-adv-x="1000" />
<glyph glyph-name="oi-facebook" unicode="&#xe817;" d="m738 685c0 44-31 75-75 75l-1 0c-5 0-11 0-16 0-7 0-14 0-21 0-8 0-15 0-22 0-16 0-29 0-41-1-53-2-100-20-137-52-38-32-62-77-70-129-4-25-4-49-4-72-10 0-20 0-30 0-10 0-37 0-57-21-20-21-20-47-20-58 0-33 0-66 0-99 0-12 0-38 21-59 20-20 47-20 58-20 9 0 19 0 28 0v-34c0-64 0-130 0-195 0-12 0-38 20-58 20-21 46-21 58-21 13 0 27 0 40 0l29 0 26 0c20 0 45 0 66 20 21 20 21 46 21 66v186 35c0 0 2 0 4 0 14 0 28 0 42 0 46 0 76 30 76 77 0 33 0 68 0 102 0 11 0 37-21 57-20 20-46 21-56 21-9 0-18 1-26 1-6 0-12 1-18 1 0 0-1 0-1 0 0 0 0 3 0 5 8 0 16-1 24-1 9 0 17 0 26 0 46 1 76 30 76 75 0 24 0 48 0 72 1 9 1 18 1 27z m-56-98c0-16-5-20-21-20-22-1-43 0-65-1-27-1-39-13-39-40-1-25 0-51 0-79 8 0 16 0 25 0 4 0 8 0 12 0 0 0 0 0 0 0 13 0 25 1 37 1 8 0 17 1 25 1 18 0 22-4 22-22 0-34 0-68 0-102 0-17-4-21-21-21-14 0-27 0-41 0-20 0-41 0-60 0 0-7 0-12 0-18 0-86 0-173 0-260 0-30-1-30-31-30-18 0-37 0-56 0-12 0-26 0-39 0-20 0-23 3-23 23 0 89 1 178 1 266 0 6 0 11 0 19-19 0-35 0-51 0-11 0-22 0-33 0-20 0-24 3-24 23 0 33 0 66 0 99 0 19 4 23 23 23 11 0 21 0 33 0 16 0 33 0 50 0 1 7 1 12 1 18 1 34-1 68 4 102 12 80 72 131 153 134 13 0 27 0 40 0 14 0 28-1 43-1 5 0 11-1 17-1 0 0 0 0 0 0 13 0 19-5 19-18-1-32-1-64-1-96z" horiz-adv-x="1000" />
<glyph glyph-name="oi-filter" unicode="&#xe818;" d="m869 683c-5 9-14 14-24 14h-690c-10 0-19-5-24-14-5-8-5-19 0-27l235-406v-247c0-16 12-28 28-28h185c15 0 28 12 28 28v246l261 406c6 8 6 19 1 28z m-313-411c-3-5-5-10-5-15v-226h-130v226c0 6-1 10-3 14l-215 371h591l-238-370z" horiz-adv-x="1000" />
<glyph glyph-name="oi-eye" unicode="&#xe819;" d="m200 215c57-56 155-122 302-122s246 66 303 122c62 60 88 121 89 123 4 7 4 15 0 22 0 3-25 59-87 116-56 52-155 113-307 113-153 0-250-62-306-113-60-57-83-114-84-117-3-7-3-15 0-21 1-2 28-63 90-123z m298 317c75 0 135-61 135-135 0-75-60-135-135-135s-135 60-135 135c0 74 61 135 135 135z m-157-27c-21-30-34-68-34-108 0-105 86-191 191-191s191 86 191 191c0 41-13 78-35 109 113-43 167-127 183-157-10-19-34-58-73-97-72-70-160-105-262-105s-190 36-262 106c-40 39-64 78-74 97 16 29 66 111 175 155z" horiz-adv-x="1000" />
<glyph glyph-name="oi-download" unicode="&#xe81a;" d="m199-11h597c16 0 28 12 28 28v250c0 15-12 27-28 27s-27-12-27-27v-223h-542v223c0 15-13 27-28 27s-28-12-28-27v-250c0-16 13-28 28-28z m301 718c-15 0-28-13-28-28v-423l-176 163c-11 11-29 10-39-1-11-11-10-29 1-39l222-206c3-3 7-5 10-6 4-1 7-2 10-2 10 0 18 5 23 12l219 202c11 10 12 28 2 39-10 11-28 12-39 2l-177-163v422c0 15-13 28-28 28z" horiz-adv-x="1000" />
<glyph glyph-name="oi-edit" unicode="&#xe81b;" d="m683 708l-278-278c-5-5-8-12-9-19l-2-142c0-8 3-16 9-21 5-5 12-9 19-9 0 0 1 0 1 0l137 3c8 0 15 4 20 9l280 281c11 10 11 28 0 39l-137 137c-12 11-29 11-40 0z m-135-410l-97-1 1 102 142 141 97-99-143-143z m183 183l-98 99 69 70 99-99-70-70z m-240 147c15 0 28 12 28 28s-13 27-28 27h-278c-15 0-28-12-28-27v-635c0-15 13-28 28-28h519c15 0 27 13 27 28v260c0 15-12 27-27 27s-28-12-28-27v-232h-463v579h250z" horiz-adv-x="1000" />
<glyph glyph-name="oi-export" unicode="&#xe81c;" d="m815-11v491c0 8-3 15-9 21l-224 207c-5 5-12 8-19 8h-345c-16 0-28-13-28-28v-310c0-15 12-28 28-28s27 13 27 28v282h283v-213c0-15 12-28 28-28h199c1 0 3 0 4 1v-403h-514v111c0 15-12 28-27 28s-28-13-28-28v-139c0-15 12-28 28-28h569c15 0 28 13 28 28z m-232 643l168-157h-168v157z m-458-375c0-15 13-27 28-27h289l-89-80c-12-10-13-28-2-39 5-6 12-10 20-10 7 0 13 3 19 7l144 129c6 5 10 13 10 21s-4 15-10 21l-144 128c-12 11-29 10-39-2-11-11-10-29 2-39l91-81h-291c-15 0-28-12-28-28z" horiz-adv-x="1000" />
<glyph glyph-name="oi-expand" unicode="&#xe81d;" d="m167 43c0-16 10-26 26-26h194c15 0 27 12 27 27s-12 28-27 28h-127l158 158c11 10 11 27 0 39-11 10-27 10-38 0l-158-159v136c0 15-12 28-28 28s-27-13-27-28v-203z m412 1c0-15 13-27 28-27h200c15 0 26 10 26 26v196c0 16-13 28-28 28s-28-12-28-28v-123l-151 152c-10 11-27 11-38 0-11-11-11-27 0-38l158-158h-140c-14 0-27-12-27-28z m-153 612c0 15-13 27-28 27h-205c-16 0-26-10-26-26v-198c0-15 12-28 27-28s28 13 28 28v138l158-159c5-5 12-8 19-8s14 3 19 8c11 11 11 28 0 39l-152 151h132c16 0 28 12 28 28z m162-218c6-5 13-8 20-8s13 3 18 8l152 152v-131c0-15 12-28 28-28s27 13 27 28v198c0 16-10 26-26 26h-188c-15 0-28-12-28-27s13-28 28-28h122l-152-151c-11-11-11-27-1-39z" horiz-adv-x="1000" />
<glyph glyph-name="oi-dialogue" unicode="&#xe81e;" d="m187 339l-19-106c-2-11 2-21 11-27 5-4 11-5 16-5 5 0 10 0 13 3l111 59c25-104 140-183 279-183 9 0 19 1 29 2l143-77c4-3 9-4 13-4 5 0 11 2 16 6 9 6 13 16 11 27l-19 106c57 42 90 101 90 163 0 104-92 194-219 218-12 114-134 205-282 205-156 0-283-100-283-223 1-63 33-122 90-164z m639-36c0-48-29-95-80-127-9-6-14-17-12-28l12-67-100 53c-5 3-11 4-16 4-11-1-22-2-32-2-115 0-210 62-225 143 2 0 5 0 7 0 140 0 256 81 279 186 98-21 167-87 167-162z m-445 367c125 0 227-75 227-168s-102-167-227-167c-11 0-22 0-32 2-6 0-11-1-17-4l-100-53 12 67c2 11-2 22-12 29-50 31-79 78-79 126 0 92 102 168 228 168z" horiz-adv-x="1000" />
<glyph glyph-name="oi-dislike" unicode="&#xe81f;" d="m139 276h162c11 0 19 6 25 14 34-12 76-32 91-57 32-52 97-211 98-212 4-9 12-16 23-17 0 0 6-1 13-1 18 0 44 3 68 16 22 13 48 39 48 91 0 51-10 99-19 132 10-1 21-2 32-2 61 0 107 19 133 56 52 75 38 152 26 219-1 4-1 9-2 13-11 64-26 151-100 164-29 5-93 14-153 14-47 0-82-5-104-16-24-12-42-24-57-33-17-12-27-19-37-19-4-1-8-1-12-1-16 0-35 1-51 3 1 2 1 4 1 6 1 15-11 28-26 29l-158 8c-8 1-14-2-20-7-6-5-9-13-9-20v-352c0-16 13-28 28-28z m252 306c24 2 43 15 63 28 13 9 29 20 49 29 9 4 30 11 80 11 57 0 117-8 144-13 23-4 38-24 55-118 1-5 1-9 2-14 11-62 22-121-17-178-19-26-58-32-87-32-36 0-66 8-67 8-10 3-21 0-28-9-7-7-9-19-4-29 0-1 30-74 30-156 0-27-11-37-21-42-10-6-22-8-32-9-18 44-67 157-95 203-30 49-106 77-144 89v235c17-2 37-3 54-3 8 0 13 0 18 0z m-224 44l97-5c0-2 0-3 0-5v-284h-97v294z" horiz-adv-x="1000" />
<glyph glyph-name="oi-cut" unicode="&#xe820;" d="m673-3c65 0 118 54 118 119s-53 118-118 118c-22 0-42-6-60-15l-75 72 11 9c5 4 8 8 9 14l104 349c4 15-4 31-18 35-15 4-31-4-35-18l-101-342-9-7-6 6-96 345c-4 15-19 24-34 20-15-4-24-20-19-34l97-355c1-4 3-9 7-12l7-7-84-66c0-1-1-1-2-2-12 5-27 8-42 8-65 0-118-53-118-119s53-118 118-118 119 53 119 118c0 30-11 57-29 78l78 62 78-76c-12-18-19-41-19-64 0-64 53-118 119-118z m-346 56c-34 0-63 28-63 63 0 35 29 63 63 63 35 0 63-28 63-63 0-35-28-63-63-63z m409 63c0-35-29-63-63-63-35 0-63 28-63 63 0 35 28 63 63 63 34 0 63-28 63-63z" horiz-adv-x="1000" />
<glyph glyph-name="oi-cursor" unicode="&#xe821;" d="m792 355c2 10-3 21-12 27l-519 336c-9 5-20 6-29 1-8-6-14-15-14-25v-593c0-11 6-20 15-25 10-5 21-4 30 2l147 110 134-211c6-8 15-13 24-13 5 0 10 2 14 4l137 80c7 3 12 10 13 17 2 8 1 16-3 22l-126 197 170 48c10 3 18 12 19 23z m-240-27c-8-2-15-9-19-17-3-8-2-17 3-25l129-204-89-52-136 214c-4 6-10 11-18 12-2 1-3 1-5 1-6 0-12-2-17-6l-127-95v487l425-274-146-41z" horiz-adv-x="1000" />
<glyph glyph-name="oi-copy" unicode="&#xe822;" d="m651 725h-318c-15 0-27-12-27-28v-120h-121c-15 0-28-13-28-28v-565c0-15 13-28 28-28h468c15 0 28 13 28 28v125h115c16 0 28 13 28 28v414c0 8-3 15-8 20l-145 146c-5 5-12 8-20 8z m-26-713h-412v509h93v-384c0-15 12-28 27-28h292v-97z m-264 153v504h241v-157c0-15 12-28 28-28h139v-319h-408z m408 375h-112v112l112-112 0 0z" horiz-adv-x="1000" />
<glyph glyph-name="oi-cloud" unicode="&#xe823;" d="m820 388c3 24 4 63-7 107-17 64-65 149-196 188-29 9-56 13-82 13-135 0-204-116-229-195-7 0-14 1-23 1-99 0-168-57-189-156-17-81 9-133 33-164 42-50 109-73 157-73h485c1 0 4 0 7 0 0 0 0 0 0 0 54 0 120 25 141 95 28 95-41 157-97 184z m43-169c-5-16-23-54-87-54-3 0-4 0-4 0-1 0-2 0-2 0h-486c-34 0-84 17-114 53-24 29-31 69-21 117 16 74 61 112 134 112 22 0 37-4 37-4 8-2 16 0 22 4 6 4 10 10 12 18 1 2 38 176 181 176 21 0 43-3 67-10 201-61 163-246 161-254-3-14 5-27 18-32 4-2 108-40 82-126z" horiz-adv-x="1000" />
<glyph glyph-name="oi-chevron-up" unicode="&#xe824;" d="m500 565c-9 0-17-4-22-11l-279-374c-10-13-7-30 5-39 5-4 11-6 17-6 8 0 17 4 22 11l257 345 257-344c9-13 26-15 39-6s15 27 5 39l-279 374c-5 7-13 11-22 11z" horiz-adv-x="1000" />
<glyph glyph-name="oi-cloud-upload" unicode="&#xe825;" d="m509-25c16 0 28 13 28 28v368l114-102c5-4 12-6 18-6 8 0 16 3 21 9 11 11 10 29-2 39l-160 142c-11 10-27 10-38-1l-148-142c-11-10-12-28-1-39 10-11 28-12 39-1l101 97v-364c1-15 13-28 28-28z m311 417c3 24 4 64-7 107-17 64-65 150-196 189-72 22-136 16-191-16-73-44-107-125-120-166-31 2-84 1-130-29-42-27-69-70-82-128-17-82 9-135 33-165 42-51 109-74 157-74h77c15 0 28 13 28 28s-13 28-28 28h-77c-33 0-83 16-113 53-25 31-32 70-22 119 8 43 28 74 57 92 50 31 114 17 114 17 8-2 15 0 22 4 6 4 10 11 12 18 0 0 23 108 101 155 40 24 89 27 146 10 202-60 163-246 162-253-4-14 4-28 17-33 5-1 109-40 83-126-18-59-89-57-92-57-1 0-1 0-2 0h-102c-16 0-28-13-28-28s12-28 28-28h102c2 0 4 0 6 0 42 0 119 20 142 97 28 96-42 158-97 186z" horiz-adv-x="1000" />
<glyph glyph-name="oi-chevron-right" unicode="&#xe826;" d="m291 55c5-8 14-11 22-11 6 0 12 1 17 5l374 279c7 5 11 14 11 23s-4 17-11 22l-374 278c-13 10-30 7-39-5-9-13-7-30 5-39l345-257-345-257c-12-9-14-26-5-38z" horiz-adv-x="1000" />
<glyph glyph-name="oi-chevron-left" unicode="&#xe827;" d="m709 645c-9 13-26 15-39 6l-374-279c-7-5-11-13-11-22s4-17 11-22l374-279c6-4 11-6 17-6 8 0 17 4 22 11 10 13 7 30-5 39l-345 257 345 257c12 9 15 26 5 38z" horiz-adv-x="1000" />
<glyph glyph-name="oi-forbidden" unicode="&#xe828;" d="m791 636c-1 1-1 1-2 1-74 75-176 121-289 121-225 0-408-183-408-408s183-408 408-408 408 183 408 408c0 111-45 211-116 285 0 0-1 1-1 1z m-643-286c0 194 158 352 352 352 88 0 169-33 231-86l-497-497c-53 62-86 143-86 231z m352-352c-86 0-165 31-226 82l496 496c51-61 82-140 82-226 0-194-158-352-352-352z" horiz-adv-x="1000" />
<glyph glyph-name="oi-form" unicode="&#xe829;" d="m782 656c0 15-12 27-27 27h-510c-15 0-27-12-27-27v-639c0-16 12-28 27-28h510c15 0 27 12 27 28v639z m-509-28h454v-584h-454v584z m352-107h-250c-15 0-28-12-28-27s13-28 28-28h250c15 0 28 12 28 28s-13 27-28 27z m0-148h-250c-15 0-28-12-28-28s13-27 28-27h250c15 0 28 12 28 27s-13 28-28 28z m0-157h-250c-15 0-28-13-28-28s13-28 28-28h250c15 0 28 13 28 28s-13 28-28 28z" horiz-adv-x="1000" />
<glyph glyph-name="oi-forward" unicode="&#xe82a;" d="m526 756c-10-5-17-15-17-26v-181c-28-2-75-6-125-17-95-23-160-63-196-121-40-65-6-164 103-294 76-91 160-164 164-168 5-4 11-6 18-6 0 0 0 0 0 0 15 0 28 12 28 27 0 6-2 11-5 16-6 9-33 60-58 117-48 110-49 151-46 163 4 26 51 30 79 30 17 0 33-1 45-2l9-168c1-10 7-19 17-24 9-4 21-2 29 5l311 269c6 5 9 12 10 19s-3 16-8 21l-327 334c-8 7-20 10-31 6z m39-94l259-264-247-213-7 134c-1 12-10 23-22 25-2 0-37 7-77 7-100 0-128-41-134-76-6-36 7-93 42-175-15 16-31 34-46 52-89 106-124 187-98 229 68 109 275 113 299 113 1 0 2 0 3 0 7 0 14 2 20 7 5 6 8 13 8 20v141z" horiz-adv-x="1000" />
<glyph glyph-name="oi-minus" unicode="&#xe82b;" d="m727 378h-454c-15 0-28-13-28-28s13-28 28-28h454c15 0 28 13 28 28s-13 28-28 28z m-227 380c-225 0-408-183-408-408s183-408 408-408 408 183 408 408-183 408-408 408z m0-760c-194 0-352 158-352 352s158 352 352 352 352-158 352-352-158-352-352-352z" horiz-adv-x="1000" />
<glyph glyph-name="oi-minimize" unicode="&#xe82c;" d="m193 433h202c16 0 26 15 26 30v194c0 16-12 28-27 28s-28-12-28-28v-131l-142 143c-11 11-28 11-39 0-10-11-10-30 0-40l139-140h-131c-16 0-28-13-28-28s12-28 28-28z m0-217h128l-140-140c-11-11-11-29 0-40 6-5 13-8 20-8s13 3 19 8l141 141v-134c0-16 13-28 28-28s28 12 28 28v200c0 15-12 28-28 28h-196c-16 0-28-13-28-28s12-27 28-27z m642 14c0 15-12 27-28 27h-198c-15 0-30-10-30-25v-189c0-15 12-28 28-28s27 13 27 28v126l140-138c6-5 13-8 20-8s15 3 20 8c11 11 12 28 0 38l-133 133h126c16 0 28 12 28 28z m-28 250h-134l141 140c11 11 11 29 0 40-11 10-30 10-40 0l-140-139v136c0 16-12 28-27 28s-28-12-28-28v-205c0-15 15-28 30-28h198c16 0 28 13 28 28s-12 28-28 28z" horiz-adv-x="1000" />
<glyph glyph-name="oi-share-98" unicode="&#xe82d;" d="m755 452h-117c-16 0-28-13-28-28s12-28 28-28h89v-328h-454v328h99c15 0 28 13 28 28s-13 28-28 28h-127c-15 0-27-14-27-29v-385c0-16 12-26 27-26h510c15 0 27 10 27 26v385c0 15-12 29-27 29z m-260-208c16 0 28 12 28 27v377l119-106c5-4 12-7 18-7 8 0 16 3 21 9 10 12 9 30-2 40l-160 142c-10 9-25 9-36 1-5-2-9-7-12-11l-138-133c-11-11-12-28-1-39 11-12 28-12 39-1l97 92v-364c0-15 12-27 27-27z" horiz-adv-x="1000" />
<glyph glyph-name="oi-smile" unicode="&#xe82e;" d="m500-34c212 0 384 172 384 384s-172 384-384 384-384-172-384-384 172-384 384-384z m0 713c181 0 329-148 329-329s-148-329-329-329-329 148-329 329 148 329 329 329z m-116-266c12 0 23 5 31 13 17 17 17 45 0 62-8 8-19 13-31 13s-22-5-31-13c-17-17-17-45 0-62 9-8 20-13 31-13z m221 0c11 0 22 5 31 13 17 17 17 45 0 62-9 8-20 13-31 13-12 0-23-5-31-13-17-17-17-45 0-62 8-8 19-13 31-13z m-112-255c143 0 185 96 187 100 6 14-1 30-15 36-14 7-31 0-36-14-2-3-31-67-135-67-102 0-120 60-121 63l0 0-54-14c1-4 28-104 174-104z" horiz-adv-x="1000" />
<glyph glyph-name="oi-sort" unicode="&#xe82f;" d="m400 146c15 0 28 13 28 28v489c0 11-6 20-15 25-10 5-21 4-30-3l-181-136c-13-9-15-26-6-39 10-12 27-15 39-5l137 102v-433c0-15 13-28 28-28z m181 403c-16 0-28-12-28-28v-484c0-11 6-20 15-25 4-2 8-3 13-3 6 0 11 2 16 6l182 134c12 9 15 26 6 39-9 12-27 14-39 6l-138-102v429c0 16-12 28-27 28z" horiz-adv-x="1000" />
<glyph glyph-name="oi-mobile" unicode="&#xe830;" d="m708 605c0 53-43 97-97 97h-222c-54 0-97-44-97-97v-519c0-54 43-97 97-97h222c54 0 97 43 97 97v519z m-55-519c0-23-19-42-42-42h-222c-23 0-42 19-42 42v519c0 23 19 41 42 41h222c23 0 42-18 42-41v-519z m-158 93c-7 0-14-3-19-9-5-5-8-12-8-19s2-14 8-19c5-6 12-9 19-9s15 3 20 9c5 5 8 12 8 19s-3 14-8 19c-5 6-12 9-20 9z" horiz-adv-x="1000" />
<glyph glyph-name="oi-frown" unicode="&#xe831;" d="m500-34c212 0 384 172 384 384s-172 384-384 384-384-172-384-384 172-384 384-384z m0 713c181 0 329-148 329-329s-148-329-329-329-329 148-329 329 148 329 329 329z m-116-266c12 0 23 5 31 13 17 17 17 45 0 62-8 8-19 13-31 13s-22-5-31-13c-17-17-17-45 0-62 9-8 20-13 31-13z m221 0c11 0 22 5 31 13 17 17 17 45 0 62-9 8-20 13-31 13-12 0-23-5-31-13-17-17-17-45 0-62 8-8 19-13 31-13z m-232-216c1 3 19 63 120 63 105 0 134-64 135-66 5-11 15-17 26-17 3 0 7 0 10 2 15 6 21 22 15 36-2 4-43 100-186 100-147 0-174-100-174-104l26-7 28-7z" horiz-adv-x="1000" />
<glyph glyph-name="oi-monitor" unicode="&#xe832;" d="m236 156h236v-112h-176c-15 0-27-12-27-27s12-28 27-28h403c15 0 28 12 28 28s-13 27-28 27h-171v112h236c53 0 97 44 97 97v337c0 53-44 98-97 98h-528c-53 0-97-45-97-98v-337c0-53 44-97 97-97z m570 96c0-23-19-41-41-41h-530c-22 0-41 19-41 41v340c0 22 19 40 41 40h529c23 0 41-18 41-40v-340z" horiz-adv-x="1000" />
<glyph glyph-name="oi-star-filled" unicode="&#xe833;" d="m900 443c-3 10-13 18-24 19l-252 21-98 233c-5 10-15 17-26 17s-21-6-25-17l-99-233-252-21c-11-1-21-9-24-19-3-11 0-23 8-30l192-165-58-247c-2-11 2-22 11-28s21-7 30-2l217 131 217-131c4-3 9-4 14-4 6 0 12 2 16 5 10 7 14 18 11 29l-57 246 191 166c9 7 12 19 8 30z" horiz-adv-x="1000" />
<glyph glyph-name="oi-star" unicode="&#xe834;" d="m876 462l-252 21-98 233c-5 10-15 17-26 17s-21-6-25-17l-99-233-252-21c-11-1-21-9-24-19-3-11 0-23 8-30l192-165-58-247c-2-11 2-22 11-28 9-7 21-7 30-2l217 131 217-131c4-3 9-4 14-4 6 0 12 2 16 5 10 7 14 18 11 29l-57 246 191 166c8 7 11 19 8 29-3 11-13 19-24 20z m-225-184c-7-7-11-17-8-27l46-199-175 106c-4 3-9 4-14 4s-10-1-14-4l-175-106 46 199c3 10 0 20-8 27l-155 134 204 17c10 1 19 7 23 16l79 189 79-188c4-10 13-16 23-17l204-17-155-134z" horiz-adv-x="1000" />
<glyph glyph-name="oi-move" unicode="&#xe835;" d="m232 215c5-5 12-8 19-8s14 3 19 8c11 11 11 29 0 40l-67 67h269v-269l-71 72c-11 10-28 10-39 0-11-11-11-29 0-40l118-118c5-5 13-9 20-9s14 3 19 9l117 116c10 11 10 29 0 40-11 10-29 10-40 0l-68-70v269h269l-70-70c-11-11-11-28 0-39 5-6 12-9 19-9s15 3 20 9l117 117c5 5 9 13 9 20 0 7-3 14-9 19l-111 112c-11 10-28 10-40 0-10-11-10-29 0-40l65-64h-269v270l74-75c6-5 13-8 20-8 7 0 14 3 19 8 11 11 11 29 0 40l-122 121c-5 5-12 9-19 9-7 0-14-3-19-9l-118-117c-11-11-11-28 0-40 11-10 28-10 39 0l70 71v-269h-269l73 73c11 10 11 28 0 39-11 11-28 11-39 0l-120-120c-5-5-9-13-9-19s3-15 9-20l115-116z" horiz-adv-x="1000" />
<glyph glyph-name="oi-gear" unicode="&#xe836;" d="m187 273l33-15c14-7 21-22 16-37l-13-34c-10-26-7-55 9-77 16-23 42-37 70-37 10 0 20 2 30 6l34 13c3 1 7 2 10 2 12 0 22-7 27-18l15-33c14-30 44-50 77-50s63 20 77 50l15 33c5 11 15 18 26 18 4 0 7-1 11-2l34-14c10-3 20-6 30-6 0 0 0 0 0 0 27 0 53 15 69 37 16 23 20 52 10 78l-13 34c-5 15 2 30 15 37l34 15c30 14 49 44 49 77s-19 63-49 77l-34 15c-13 7-20 22-15 37l13 34c10 26 7 55-10 77-15 23-41 37-69 37-10 0-20-2-30-6l-34-13c-4-1-7-1-11-1-11 0-21 6-26 17l-15 33c-14 31-44 50-77 50s-64-20-78-50l-16-34c-4-10-14-17-26-17-3 0-7 1-10 2l-34 13c-10 4-20 5-30 5-28 0-54-13-70-36-16-23-19-52-10-77l13-35c5-14-1-30-15-36l-33-16c-31-13-50-43-50-76s21-63 51-77z m23 103l33 16c40 18 60 65 44 106l-13 34c-5 13 0 22 3 27 8 11 22 16 35 10l34-12c10-4 19-6 30-6 0 0 0 0 0 0 32 0 62 19 76 50l16 33c7 16 21 17 26 17s19-1 26-17l16-33c14-31 44-50 77-50 10 0 19 2 29 6l34 12c13 5 27 0 35-10 3-5 8-14 3-27l-13-34c-15-41 4-88 44-106l33-16c16-7 17-21 17-26s-1-19-17-26l-33-16c-40-18-60-65-44-106l13-34c5-13 0-22-3-27-8-11-22-15-35-10l-34 13c-10 3-19 5-29 5-33 0-63-19-77-49l-16-34c-7-15-21-17-26-17s-19 2-26 17l-16 34c-14 30-44 49-76 49-11 0-20-2-30-5l-34-13c-13-5-27 0-35 10-3 5-8 14-3 27l13 34c15 41-4 88-44 106l-33 16c-16 7-17 21-17 26s1 19 17 26z m284-146c66 0 120 54 120 120s-54 120-120 120-121-54-121-120 54-120 121-120z m0 185c35 0 64-29 64-65s-29-65-64-65-65 29-65 65 29 65 65 65z" horiz-adv-x="1000" />
<glyph glyph-name="oi-gplus" unicode="&#xe837;" d="m477 204c-17 11-38 17-60 17-36 0-73-15-95-43-20-26-20-61 2-84 21-24 51-29 78-30 26 0 48 4 67 14 53 27 57 94 8 126z m-33-76c-11-6-23-9-41-9-25 2-33 7-39 13-4 5 1 11 2 13 10 12 30 21 51 21 12 0 22-3 29-7 7-4 10-10 10-16 0-7-5-12-12-15z m19 322c25 40 16 110-18 143-12 11-29 17-46 17-17 0-33-6-42-18-15-17-20-37-20-55 1-43 17-80 43-101 12-10 25-15 38-15 17 0 34 10 45 29z m-47 28c-1 0-1 1-1 1-11 9-22 28-22 58 0 4 1 11 5 17 0 0 1 0 2 0 3 0 7-2 7-3 15-14 21-55 10-73-1 1-1 1-1 0z m385-31h-23v18c0 47-38 84-84 84-29 0-55-16-70-39 2 31-1 59-5 82-1 8-3 15-5 21 31 14 50 42 48 77-2 29-27 52-56 52-11 0-21 0-32 0-11 0-21 0-32 0-16 0-29 0-42-1-7 0-14 0-21 0-27 0-54 0-82-3-53-6-99-25-137-58-60-51-84-123-71-212 7-43 26-80 55-108 16-16 36-28 58-37-9-3-18-6-26-9-53-20-94-57-114-105-20-47-19-101 3-152 24-56 71-93 143-111 11-3 23-5 33-7 4-1 9-1 13-2 4 0 7 0 11 0h58c4 0 9 0 13 1 7 1 14 2 21 4 18 4 36 7 54 14 74 23 127 79 146 152 6 25 8 50 6 75 9-4 20-7 32-7 46 0 83 38 83 84v21h23c47 0 84 37 84 83s-38 83-84 83z m-307-438c-24-7-48-11-71-16-20 0-39 0-59 0-14 0-29 4-43 8-46 12-85 32-105 78-34 78 0 153 80 184 19 7 41 12 61 16 20 4 41 5 60 7-8 24-15 49-23 76-9 1-22 2-34 3-63 8-105 49-115 111-10 62 1 119 51 162 31 27 68 41 107 45 33 4 66 3 98 4 14 0 28 0 42 0 21 0 42 0 64 0 1-16-9-21-20-24-17-4-34-6-51-9-6-1-11-2-18-3 3-3 4-5 6-6 22-14 36-34 41-61 7-42 8-84-8-125-10-23-26-41-44-58-35-32-35-45 0-77 19-17 38-34 55-53 70-75 49-221-74-262z m307 327h-79v-75c0-16-12-29-28-29s-27 13-27 29v75h-71c-16 0-28 12-28 28s13 28 28 28h71v73c0 16 12 29 27 29s28-13 28-29v-73h79c16 0 28-12 28-28s-12-28-28-28z" horiz-adv-x="1000" />
<glyph glyph-name="oi-news" unicode="&#xe838;" d="m234-34h554c5 0 9 1 13 3 3 2 88 44 88 129v433c0 15-13 28-28 28h-97v55 79c0 15-13 28-28 28h-611c-15 0-28-13-28-28v-589c0-2 0-4 1-6 1-6 30-132 136-132z m-81 699h555v-51-83-389c0-15 13-28 28-28s28 13 28 28v361h69v-405c0-41-38-68-52-76h-547c-55 0-77 71-81 85v558z m268-120c0 15-12 28-27 28h-130c-15 0-28-13-28-28v-148c0-15 13-28 28-28h130c15 0 27 13 27 28v148z m-129-28h74v-92h-74v92z m-37-407h361c15 0 28 12 28 28s-13 27-28 27h-361c-16 0-28-12-28-27s12-28 28-28z m4 134h352c15 0 28 13 28 28 0 15-13 28-28 28h-352c-15 0-27-13-27-28 0-15 12-28 27-28z m250 269h107c15 0 28 12 28 27 0 16-13 28-28 28h-107c-15 0-27-12-27-28 0-15 12-27 27-27z m0-135h107c15 0 28 13 28 28s-13 28-28 28h-107c-15 0-27-13-27-28s12-28 27-28z" horiz-adv-x="1000" />
<glyph glyph-name="oi-support" unicode="&#xe839;" d="m500 768c-231 0-418-188-418-418 0-230 188-418 418-418s418 188 418 418c0 231-187 418-418 418z m286-196l-122-121c-14 24-34 44-57 60l120 121c22-18 42-38 59-60z m-286-359c-76 0-137 61-137 137s61 138 137 138 138-62 138-138-62-137-138-137z m181 450l-128-127c-17 4-34 7-53 7-19 0-38-3-56-8l-128 127c54 32 117 50 184 50 66 0 127-18 181-49z m-411-33l121-121c-23-16-43-37-57-61l-121 121c16 23 36 43 57 61z m-88-108l130-130c-3-14-5-28-5-42 0-18 3-36 7-53l-127-128c-31 54-49 115-49 181 0 62 16 121 44 172z m37-399l120 121c16-24 36-43 60-58l-121-122c-22 18-42 37-59 59z m106-90l129 129c0 0 0 1 1 1 14-4 30-6 46-6 14 0 28 2 41 5 0 0 0 0 0 0l130-130c-51-28-109-44-171-44-64 0-124 16-176 45z m394 30l-121 121c24 15 45 34 61 57l121-121c-18-21-38-41-61-57z m93 103l-127 128c5 18 8 36 8 56 0 16-2 31-5 45l129 130c29-52 46-112 46-175-1-67-19-130-51-184z" horiz-adv-x="1000" />
<glyph glyph-name="oi-tablet" unicode="&#xe83a;" d="m810 587c0 64-51 115-115 115h-390c-64 0-115-51-115-115v-483c0-64 51-115 115-115h390c64 0 115 51 115 115v483z m-55-483c0-33-27-60-60-60h-390c-33 0-60 27-60 60v483c0 33 27 59 60 59h390c33 0 60-26 60-59v-483z m-260 19c8 0 15 3 20 9 5 5 8 12 8 19s-3 14-8 19c-5 6-13 9-20 9s-14-3-19-9c-5-5-8-12-8-19s2-14 8-19c5-6 12-9 19-9z" horiz-adv-x="1000" />
<glyph glyph-name="oi-paste" unicode="&#xe83b;" d="m190 617v-603c0-15 12-30 28-30h564c16 0 28 15 28 30v603c0 15-12 29-28 29h-83v40c0 15-12 30-28 30h-93c-12 18-37 55-78 55-37 0-62-32-76-55h-91c-15 0-27-15-27-30v-42c-2 0-4 2-5 2h-83c-16 0-28-14-28-29z m171 43h81c12 0 23 7 27 18 4 12 17 36 31 36 15 0 30-25 34-37 4-10 15-17 26-17h84v-129h-283v129z m-116-69h56c1 0 3-2 5-2v-88c0-15 12-26 27-26h338c16 0 28 11 28 26v90h56v-551h-510v551z" horiz-adv-x="1000" />
<glyph glyph-name="oi-grid" unicode="&#xe83c;" d="m444 651c0 15-12 28-27 28h-223c-15 0-27-13-27-28v-222c0-16 12-28 27-28h223c15 0 27 12 27 28v222z m-222-28h167v-166h-167v166z m611 28c0 15-12 28-27 28h-223c-15 0-27-13-27-28v-222c0-16 12-28 27-28h223c15 0 27 12 27 28v222z m-222-28h167v-166h-167v166z m-167-352c0 16-12 28-27 28h-223c-15 0-27-12-27-28v-222c0-15 12-28 27-28h223c15 0 27 13 27 28v222z m-222-27h167v-167h-167v167z m611 27c0 16-12 28-27 28h-223c-15 0-27-12-27-28v-222c0-15 12-28 27-28h223c15 0 27 13 27 28v222z m-222-27h167v-167h-167v167z" horiz-adv-x="1000" />
<glyph glyph-name="oi-headphone" unicode="&#xe83d;" d="m772 415h-52c-31 0-58-25-58-56v-304c0-31 27-56 58-56h53c1 0 3 0 4 0 15 3 90 26 90 216 0 48-5 88-15 120 1 2 1 4 1 6 0 195-158 353-353 353s-353-158-353-353c0-4 1-9 3-12-10-31-17-73-17-130 0-77 12-132 36-166 24-32 50-35 58-35 0 0 1 0 1 0h53c31 0 57 26 57 57v303c0 32-27 57-58 57h-53c-1 0-3 0-4-1-3 0-7-1-12-3 31 130 149 227 289 227 140 0 257-96 289-226-7 2-13 3-16 3 0 0 0 0-1 0z m-540-56h48c1 0 2 0 2 0v-304c0 0-1-1-2-1h-52c-11 5-40 33-40 145 0 127 36 156 44 160z m580-145c0-128-36-156-44-160h-48c-1 0-2 1-2 1v303c0 1 1 1 2 1h53c10 0 39-32 39-145z" horiz-adv-x="1000" />
<glyph glyph-name="oi-pause" unicode="&#xe83e;" d="m500 758c-225 0-408-183-408-408s183-408 408-408 408 183 408 408-183 408-408 408z m0-760c-194 0-352 158-352 352s158 352 352 352 352-158 352-352-158-352-352-352z m-93 533c-15 0-28-13-28-28v-292c0-15 13-28 28-28s28 13 28 28v292c0 15-13 28-28 28z m190 0c-15 0-28-13-28-28v-292c0-15 13-28 28-28s28 13 28 28v292c0 15-13 28-28 28z" horiz-adv-x="1000" />
<glyph glyph-name="oi-tags" unicode="&#xe83f;" d="m422-4c5-5 12-7 19-7 0 0 1 0 1 0 7 0 14 3 19 8l300 309c11 11 11 28 0 38l-323 322c-5 5-12 8-19 8 0 0 0 0 0 0l-311 0c-15 0-27-12-27-28l-2-305c0-7 3-15 8-20l335-325z m-286 623l271 0 295-294-262-269-306 297 2 266z m467 11c-11-11-11-28 0-39l266-271-281-289c-11-12-11-29 0-40 6-5 13-8 19-8 8 0 15 3 20 9l300 309c11 11 11 28 0 39l-284 290c-11 10-29 11-40 0z m-331-102c-21 0-38-17-38-38 0-21 17-38 38-38s38 17 38 38c-1 21-17 38-38 38z m0-55c-10 0-18 8-18 17 0 10 8 18 18 18s17-8 17-18c0-9-7-17-17-17z" horiz-adv-x="1000" />
<glyph glyph-name="oi-time" unicode="&#xe840;" d="m500-3c195 0 353 158 353 353s-158 353-353 353-353-158-353-353 158-353 353-353z m0 651c164 0 298-134 298-298s-134-298-298-298-298 134-298 298 134 298 298 298z m-45-357l119-92c5-4 11-6 17-6 9 0 17 3 22 10 9 12 7 30-5 39l-108 84v191c0 15-12 27-28 27s-28-12-28-27v-204c0-9 5-17 11-22z" horiz-adv-x="1000" />
<glyph glyph-name="oi-pencil" unicode="&#xe841;" d="m611 721l-430-430c-5-5-8-12-8-19l-4-219c0-7 3-14 9-19 5-5 12-8 19-8 0 0 1 0 1 0l212 2c8 0 15 3 20 8l433 433c11 11 11 29 0 40l-212 213c-12 10-29 10-40-1z m-213-638l-172-2 2 179 287 287 174-173-291-291z m330 330l-173 173 76 77 173-174-76-76z" horiz-adv-x="1000" />
<glyph glyph-name="oi-heart" unicode="&#xe842;" d="m485 5c4-3 9-4 15-4 5 0 11 1 15 4 13 8 306 202 340 399 17 102-15 165-44 199-34 41-85 65-135 65-17 0-33-3-48-8-70-27-118-73-144-105-25 31-69 77-121 95-17 5-34 8-53 8-47 0-92-20-123-54-27-30-58-87-49-187 20-197 333-403 347-412z m-257 562c29 31 64 36 82 36 12 0 24-2 34-6 65-21 116-103 117-104 5-8 15-13 24-13 10 0 19 6 24 14 0 1 47 80 139 114 8 3 18 5 28 5 34 0 68-17 93-45 31-37 42-91 31-155-12-70-70-155-167-244-54-50-108-89-133-107-26 18-83 60-141 113-101 92-158 178-165 247-6 64 6 114 34 145z" horiz-adv-x="1000" />
<glyph glyph-name="oi-help" unicode="&#xe843;" d="m491 188c-15 0-28-12-28-28v-18c0-16 13-28 28-28s28 12 28 28v18c0 16-13 28-28 28z m9-225c213 0 387 174 387 387s-174 387-387 387-387-174-387-387 174-387 387-387z m0 719c183 0 332-149 332-332s-149-331-332-331-331 148-331 331 148 332 331 332z m-120-263c0 0 0 0 0 0 15 0 27 12 27 27 0 0 1 23 12 44 14 28 38 42 75 42 33 0 58-9 72-27 12-15 15-36 10-58-7-27-31-51-54-74-28-29-57-58-57-97 0-15 13-28 28-28s28 13 28 28c0 17 20 37 41 58 26 27 57 58 67 99 10 39 3 77-19 105-17 23-51 50-116 50-73 0-107-39-124-73-17-33-18-65-18-69 0-14 12-27 28-27z" horiz-adv-x="1000" />
<glyph glyph-name="oi-photo" unicode="&#xe844;" d="m880 642c0 15-13 27-28 27h-704c-15 0-28-12-28-27v-584c0-15 13-27 28-27h704c15 0 28 12 28 27v584z m-56-28v-356l-163 115c-11 7-25 6-35-3l-84-82-176 170c-6 6-14 9-22 8-7 0-15-4-19-10l-149-191v349h648z m-648-528v89l173 222 173-167c11-11 28-11 39 0l87 84 176-124v-104h-648z m392 317c30 0 54 24 54 54s-24 53-54 53-54-24-54-53 24-54 54-54z" horiz-adv-x="1000" />
<glyph glyph-name="oi-trash" unicode="&#xe845;" d="m153 521h55v-541c0-16 13-28 28-28h509c16 0 28 12 28 28v541h70c15 0 27 13 27 28s-12 28-27 28h-133c-1 24-7 82-50 128-39 40-95 61-167 61-73 0-128-21-162-62-39-45-41-102-39-127h-139c-15 0-28-13-28-28s13-28 28-28z m219 148c24 28 64 42 120 42 57 0 99-15 127-44 30-31 34-73 35-90h-307c-1 14-2 59 25 92z m346-148v-514h-454v514h454z m-315-435c15 0 28 13 28 28v319c0 16-13 28-28 28s-28-12-28-28v-319c0-15 13-28 28-28z m176 0c15 0 28 13 28 28v319c0 16-13 28-28 28s-28-12-28-28v-319c0-15 12-28 28-28z" horiz-adv-x="1000" />
<glyph glyph-name="oi-truck" unicode="&#xe846;" d="m120 132h69c0-1 0-2 0-3 0-69 56-126 126-126 69 0 125 56 125 125 0 6 0 14-1 18h131c0-4-1-9-1-14-1-34 11-66 34-90s54-38 88-39c1 0 2 0 3 0 0 0 0 0 0 0 69 0 124 54 125 122 0 7 0 17-1 21h27c16 0 30 13 30 29v475c0 15-14 29-30 29h-493c-15 0-28-13-28-29v-44l-130 3c-12 1-22-6-26-17l-73-174c-1-4-2-7-2-11v-247c0-15 12-28 27-28z m28 56v157h171c2 0 4 0 5 1v-92c-3 0-6 0-10 0-47 0-89-27-110-66h-56z m166-129c-38 0-70 31-70 70s32 70 70 70 70-32 70-70-31-70-70-70z m378 0c-18 0-36 8-48 22s-20 31-19 50c1 38 31 68 69 68 1 0 2 0 2 0 19-1 36-9 49-22 13-14 19-32 19-50-1-39-33-70-72-68z m127 564v-421h-18c-2 0-3 0-5-1-3 5-7 10-11 14-23 24-54 38-87 39-1 0-3 0-4 0-42 0-79-20-101-52h-177c-10 14-22 25-36 34v387h439z m-607-70l112-2v-150c-1 0-3 0-5 0h-171v0l64 152z" horiz-adv-x="1000" />
<glyph glyph-name="oi-plane" unicode="&#xe847;" d="m759 686l-327-107-63 65c0 0 0 0 0 0-46 47-114 101-174 101-25 0-46-8-63-26-25-24-45-68-2-142 22-39 54-73 77-95 0 0 0 0 0 0l65-63-108-328c-3-11 1-24 11-31l105-73c12-8 29-5 38 7l158 228 40-39 17-193c1-11 8-20 18-24 3-1 6-2 10-2 7 0 14 3 19 9l297 297c8 8 11 19 7 30-4 10-14 17-24 18l-188 12-43 45 227 157c12 9 15 26 7 38l-73 105c-6 10-19 15-31 11z m-189-284c-6-5-11-12-12-20s2-16 8-22l74-77c4-5 11-7 18-8l137-9-212-211-12 144c-1 6-4 13-8 17l-72 69c-6 6-14 9-22 8s-15-5-20-12l-161-232-64 45 106 324c3 10 1 21-7 29l-77 74c-20 21-49 51-68 84-30 52-13 69-7 75 6 6 14 9 24 9 31 0 82-31 135-84l75-78c7-8 18-11 28-7l324 106 44-65-231-159z" horiz-adv-x="1000" />
<glyph glyph-name="oi-home" unicode="&#xe848;" d="m130 281h64v-260c0-15 13-28 28-28h190c15 0 28 13 28 28v190h116v-190c0-15 12-28 27-28h181c15 0 28 13 28 28v260h78c12 0 22 7 26 17s2 22-6 30l-362 367c-11 11-28 11-39 0l-378-367c-9-8-11-20-7-30s15-17 26-17z m377 355l297-300h-40c-15 0-28-12-28-28v-259h-125v190c0 15-12 28-28 28h-171c-15 0-28-13-28-28v-190h-134v259c0 16-12 28-28 28h-24l309 300z" horiz-adv-x="1000" />
<glyph glyph-name="oi-info" unicode="&#xe849;" d="m500 457c15 0 28 12 28 27v28c0 15-13 28-28 28s-28-13-28-28v-28c0-15 13-27 28-27z m-56-112h28v-157c0-15 13-28 28-28s28 13 28 28v185c0 15-13 28-28 28h-56c-15 0-27-13-27-28s12-28 27-28z m417 338c0 16-12 28-28 28h-666c-16 0-28-12-28-28v-666c0-16 12-28 28-28h666c16 0 28 12 28 28v666z m-55-639h-612v612h612v-612z" horiz-adv-x="1000" />
<glyph glyph-name="oi-play" unicode="&#xe84a;" d="m718 374l-332 192c-9 5-19 5-28 0-8-5-14-15-14-24v-383c0-10 6-19 14-24 5-3 10-4 14-4s10 1 14 4l332 191c8 6 14 15 14 25s-6 18-14 23z m-318-167v287l248-144-248-143z m100 551c-225 0-408-183-408-408s183-408 408-408 408 183 408 408-183 408-408 408z m0-760c-194 0-352 158-352 352s158 352 352 352 352-158 352-352-158-352-352-352z" horiz-adv-x="1000" />
<glyph glyph-name="oi-twitter" unicode="&#xe84b;" d="m910 600c2 6 3 12 3 18 0 30-24 55-54 55-1 0-1 0-2 0 0 0-2 0-3 0-8 0-16-3-23-6-2-1-4-3-6-4-1 0-2 0-3-1-14-5-29-11-44-17-26 19-56 33-91 41-5 1-9 2-13 2h-39c-5 0-10-2-15-3-31-8-63-20-93-44-40-34-64-77-72-127-81 18-148 57-204 123-10 13-25 19-42 19 0 0 0 0 0 0-16 0-32-7-43-19-30-37-42-85-32-137 3-15 7-29 12-43-7-9-12-19-13-30-7-53 12-102 53-144-2-7-2-15 0-23 7-36 25-67 53-91-17-4-35-6-55-6-5 0-11 0-16 0-2 0-3 0-5 0-24 0-45-16-52-39-8-24 2-51 24-64 2-1 4-3 6-3 4-3 10-6 16-10 71-38 147-57 225-57 28 0 57 3 87 8 94 16 179 60 245 124 66 65 112 150 132 246 5 22 6 44 8 64 0 8 1 16 2 23 24 21 45 44 63 70 6 9 10 20 10 32 0 18-7 33-19 43z m-99-110c-5-4-9-12-10-19-3-30-3-62-10-91-37-174-162-297-333-328-26-4-51-7-77-7-69 0-135 18-199 51-6 4-12 8-19 11 7 0 14 0 21 0 83 0 159 35 187 63-73 12-121 49-131 99 19 1 38 3 58 4-78 37-116 89-110 147 19-5 38-9 56-14-61 65-76 147-35 195 78-93 179-142 301-150 0 3-1 6-1 8-6 55 10 103 54 140 21 17 46 24 72 33 13 0 27 0 40 0 33-9 63-22 88-45 2-1 4-3 6-3 2 0 4 0 5 1 23 8 46 16 69 25 4 2 8 4 15 8-13-35-34-59-61-78 0-1 1-2 2-3 24 7 49 14 75 21-18-26-39-48-63-68z" horiz-adv-x="1000" />
<glyph glyph-name="oi-unlock" unicode="&#xe84c;" d="m305-39h390c64 0 115 50 115 114v253c0 52-32 96-83 110v122c0 113-90 207-204 207h-46c-114 0-206-93-206-207 0-15 12-28 28-28s27 13 27 29c0 83 68 150 151 150h46c83 0 148-68 148-151v-117h-366c-64 0-115-52-115-115v-254c0-63 51-113 115-113z m450 115c0-33-27-59-60-59h-390c-33 0-60 26-60 59v252c0 33 27 59 60 59h390c33 0 60-26 60-59v-252z m-264 10c15 0 28 13 28 28v88c0 15-13 28-28 28s-28-13-28-28v-88c0-15 13-28 28-28z" horiz-adv-x="1000" />
<glyph glyph-name="oi-plus" unicode="&#xe84d;" d="m264 322h208v-208c0-15 13-28 28-28s28 13 28 28v208h208c15 0 28 13 28 28s-13 28-28 28h-208v208c0 15-13 28-28 28s-28-13-28-28v-208h-208c-15 0-28-13-28-28s13-28 28-28z m236-380c225 0 408 183 408 408s-183 408-408 408-408-183-408-408 183-408 408-408z m0 760c194 0 352-158 352-352s-158-352-352-352-352 158-352 352 158 352 352 352z" horiz-adv-x="1000" />
<glyph glyph-name="oi-laptop" unicode="&#xe84e;" d="m880 37c10 15 13 34 6 51l-60 158c-3 8-9 15-15 21 6 10 8 23 8 36v307c0 43-33 78-75 78h-487c-43 0-76-35-76-78v-307c0-13 2-26 8-36-6-6-12-13-14-21l-61-158c-6-17-4-36 6-51 11-16 28-25 46-25h668c18 0 35 9 46 25z m-644 573c0 12 8 22 21 22h487c12 0 20-10 20-22v-307c0-10-6-18-15-22h-498c-9 4-15 11-15 22v307z m-70-541l60 157 21 0c3 0 6-1 10-1h487c2 0 6 1 8 1l22 0 60-158c0 0 0 0 0 0l-668 1z" horiz-adv-x="1000" />
<glyph glyph-name="oi-like" unicode="&#xe84f;" d="m172 409c-53-75-39-152-27-219 1-4 2-9 2-14 11-63 27-150 101-163 28-6 93-14 153-14 47 0 81 5 104 16 27 12 44 26 58 36 13 11 19 15 27 16 4 1 7 1 12 1 18 0 40-3 55-5-3-4-5-9-5-14 0-16 13-28 28-28 0 0 0 0 0 0l148 1c16 0 28 12 28 27v333c0 16-12 28-28 28h-143c-6 0-11-2-16-4-32 10-91 34-110 65-32 52-93 211-94 212-3 10-12 16-22 18-1 0-6 0-14 0-84 0-114-55-114-107 0-51 10-99 20-131-10 0-21 1-32 1-60 0-106-19-131-55z m629-332l-100-1c2 4 3 8 3 12v267h97v-278z m-583 300c18 26 57 32 86 32 35 0 66-8 66-8 11-3 22 0 29 9 7 8 8 19 4 29 0 1-31 74-31 156 0 27 11 37 20 42 9 6 21 8 29 8 18-44 63-157 92-202 29-49 100-77 136-89v-234c-21 3-47 4-64 3-24-3-40-15-56-28-12-9-26-19-47-30-8-3-30-10-80-10-57 0-117 8-144 12-30 5-42 46-55 119-1 4-2 9-2 14-12 62-23 121 17 177z" horiz-adv-x="1000" />
<glyph glyph-name="oi-power" unicode="&#xe850;" d="m367 526c13 8 16 25 8 38-8 13-25 17-38 8-89-56-141-152-141-256 0-168 136-304 304-304s304 136 304 304c0 100-49 194-133 251-12 9-30 6-38-7-9-13-6-30 7-39 68-46 109-123 109-205 0-137-111-249-248-249s-249 112-249 249c-1 85 42 164 115 210z m161-236v379c0 16-13 28-28 28s-28-12-28-28v-379c0-15 13-28 28-28s28 13 28 28z" horiz-adv-x="1000" />
<glyph glyph-name="oi-upload" unicode="&#xe851;" d="m257 454c5-6 12-9 20-9 7 0 13 2 19 7l176 162v-421c0-16 13-28 28-28s28 12 28 28v423l176-164c11-11 29-10 40 1 10 11 9 29-2 40l-222 206c-3 2-7 4-10 6-3 1-7 2-10 2-10 0-18-6-23-13l-219-201c-11-11-12-28-1-39z m-58-160c-15 0-28-12-28-27v-250c0-16 13-28 28-28h597c16 0 28 12 28 28v250c0 15-12 27-28 27s-27-12-27-27v-223h-542v223c0 15-13 27-28 27z" horiz-adv-x="1000" />
<glyph glyph-name="oi-print" unicode="&#xe852;" d="m116 82h141l-32-98c-3-9-2-18 3-25 5-8 14-12 23-12h497c9 0 18 5 23 12s6 17 3 26l-36 97h142c15 0 27 12 27 27v227c0 3 0 6-1 8l-63 208c-4 12-14 20-26 20h-132v139c0 15-12 28-28 28h-324c-15 0-27-13-27-28v-139h-122c-12 0-23-7-27-19l-68-201c-1-3-1-6-1-9v-234c0-15 13-27 28-27z m173-79l67 199h276l76-199h-419z m72 680h269v-213h-269v213z m-217-345l60 179h102v-74c0-16 12-28 27-28h324c16 0 28 12 28 28v74h111l56-185v-195h-135l-39 102c-4 11-15 18-26 18h-316c-12 0-23-7-26-19l-34-101h-132v201z" horiz-adv-x="1000" />
<glyph glyph-name="oi-user" unicode="&#xe853;" d="m237 35c0-15 12-28 27-28h472c15 0 27 13 27 28 0 154-69 286-167 339 48 31 79 84 79 145 0 96-79 174-174 174s-175-78-175-174c0-61 31-114 78-145-98-53-167-185-167-339z m263 603c65 0 119-54 119-119s-54-118-119-118-118 53-118 118 53 119 118 119z m0-294c108 0 197-124 207-281h-414c10 157 99 281 207 281z" horiz-adv-x="1000" />
<glyph glyph-name="oi-list" unicode="&#xe854;" d="m361 549c0-15 13-28 28-28h393c16 0 28 13 28 28s-12 28-28 28h-393c-15 0-28-13-28-28z m28-236h393c16 0 28 13 28 28s-12 28-28 28h-393c-15 0-28-13-28-28s13-28 28-28z m0-208h393c16 0 28 12 28 27s-12 28-28 28h-393c-15 0-28-12-28-28s13-27 28-27z m-171 416h46c15 0 28 13 28 28s-13 28-28 28h-46c-16 0-28-13-28-28s12-28 28-28z m0-208h46c15 0 28 13 28 28s-13 28-28 28h-46c-16 0-28-13-28-28s12-28 28-28z m0-208h46c15 0 28 12 28 27s-13 28-28 28h-46c-16 0-28-12-28-28s12-27 28-27z" horiz-adv-x="1000" />
<glyph glyph-name="oi-location" unicode="&#xe855;" d="m500 559c-68 0-124-56-124-124s56-124 124-124 124 55 124 124-55 124-124 124z m0-193c-37 0-68 31-68 69s30 68 68 68 69-30 69-68-31-69-69-69z m206 287c-37 42-105 93-214 93-179 0-273-145-273-289 0-188 257-478 269-491 5-6 12-10 20-10 0 0 0 0 0 0 8 0 15 4 21 10 3 2 63 68 125 160 84 126 127 238 127 331 0 72-28 143-75 196z m-197-625c-60 72-233 291-233 429 0 112 68 233 216 233 152 0 233-120 233-233 0-163-159-362-216-429z" horiz-adv-x="1000" />
<glyph glyph-name="oi-refresh" unicode="&#xe856;" d="m503 113c-103 0-196 69-226 168-4 14-20 23-34 18-15-5-24-20-19-35 38-124 150-207 279-207 161 0 292 131 292 292 0 161-131 292-292 292-91 0-177-44-231-114l-12 92c-2 15-16 25-31 24-15-2-26-16-24-31l22-170c2-14 14-24 27-24 1 0 3 0 3 0l168 19c15 2 26 15 25 31s-16 26-31 24l-112-12c43 65 117 105 196 105 130 0 236-106 236-236s-106-236-236-236z" horiz-adv-x="1000" />
<glyph glyph-name="oi-voice" unicode="&#xe857;" d="m625 634c0 68-55 123-123 123h-8c-68 0-124-55-124-123v-281c0-68 56-123 124-123h8c68 0 123 55 123 123v281z m-56-281c0-38-30-68-67-68h-8c-38 0-68 30-68 68v281c0 38 30 68 68 68h8c37 0 67-30 67-68v-281z m-319 77c-15 0-28-13-28-28 0-152 105-278 241-298v-111h-125c-15 0-28-12-28-27s13-28 28-28h324c15 0 28 12 28 28s-13 27-28 27h-143v109c144 10 259 141 259 299 0 16-13 28-28 28s-28-12-28-28c0-135-99-244-222-244s-222 110-222 245c0 15-13 28-28 28z" horiz-adv-x="1000" />
<glyph glyph-name="oi-warning" unicode="&#xe858;" d="m524 726c-5 9-14 14-24 14s-19-5-24-14l-405-700c-5-9-5-19 0-28s15-14 24-14h810c0 0 0 0 0 0 15 0 27 13 27 28 0 6-1 11-4 16l-404 698z m-380-686l356 617 357-617h-713z m328 426v-213c0-15 12-28 28-28s27 13 27 28v213c0 15-12 28-27 28s-28-13-28-28z m28-278c-16 0-28-12-28-28v-18c0-16 12-28 28-28s27 12 27 28v18c0 16-12 28-27 28z" horiz-adv-x="1000" />
<glyph glyph-name="oi-sale" unicode="&#xe859;" d="m148 716v-596c0-9 5-19 14-23l321-193c5-3 9-4 14-4 5 0 10 1 15 4l327 205c8 5 13 14 13 23v584c0 16-13 28-28 28h-648c-15 0-28-12-28-28z m56-28h592v-540l-299-188-293 176v552z m270-162c0 57-47 104-104 104s-104-47-104-104 47-104 104-104 104 47 104 104z m-152 0c0 27 22 49 48 49s49-23 49-49-22-49-49-49-48 22-48 49z m190-298c0-58 46-104 104-104s104 46 104 104-47 104-104 104-104-47-104-104z m152 0c0-27-22-49-49-49s-48 22-48 49 22 48 49 48 48-22 48-48z m-3 374c-12 9-29 7-39-5l-290-382c-9-12-6-29 6-39 5-3 11-5 16-5 9 0 17 4 22 11l291 381c9 12 7 30-6 39z" horiz-adv-x="1000" />
<glyph glyph-name="oi-lock" unicode="&#xe85a;" d="m305-39h390c64 0 115 50 115 114v253c0 52-32 96-83 110v80c0 114-90 207-204 207h-46c-114 0-208-93-208-207v-80c-47-14-79-58-79-110v-253c0-64 51-114 115-114z m172 708h46c83 0 148-68 148-151v-75h-347v75c0 83 70 151 153 151z m278-593c0-33-27-59-60-59h-390c-33 0-60 26-60 59v252c0 33 27 59 60 59h390c33 0 60-26 60-59v-252z m-264 10c15 0 28 13 28 28v88c0 15-13 28-28 28s-28-13-28-28v-88c0-15 13-28 28-28z" horiz-adv-x="1000" />
<glyph glyph-name="oi-mail" unicode="&#xe85b;" d="m858 614c0 15-12 28-27 28h-658c-15 0-28-13-28-28v-528c0-15 13-28 28-28h658c15 0 27 13 27 28v528z m-657-500v329l279-240c5-5 11-7 18-7 6 0 13 3 19 7l286 239v-328h-602z m602 472v-72c-5 0-2-1-3-1l-302-253-296 255c-1 0-1 1-1 1v70h602z" horiz-adv-x="1000" />
<glyph glyph-name="oi-save" unicode="&#xe85c;" d="m689 707h-522c-16 0-28-13-28-28v-672c0-15 12-27 28-27h648c15 0 28 12 28 27v510c0 6-2 12-6 17l-126 162c-5 6-14 11-22 11z m-337-56h292v-273h-292v273z m435-616h-593v616h102v-301c0-16 11-28 26-28h351c15 0 26 12 26 28v269l88-112v-472z m-208 537c0 16-13 28-28 28h-32c-16 0-28-12-28-28v-111c0-15 12-28 28-28h32c15 0 28 13 28 28v111z" horiz-adv-x="1000" />
<glyph glyph-name="oi-wifi" unicode="&#xe85d;" d="m447 107c0-29 23-52 52-52 29 0 52 23 52 52 0 29-23 52-52 52-28 0-52-23-52-52z m56 0c0-2-2-4-4-4-2 0-4 2-4 4 0 2 2 4 4 4 2-1 4-2 4-4z m223 230c8 0 15 3 21 9 10 11 10 29-2 39-67 62-154 96-246 96-90 0-177-33-243-94-12-10-12-28-2-39 10-12 28-12 39-2 57 51 130 80 207 80 77 0 151-29 207-82 6-5 12-7 19-7z m-103-124c7 0 15 3 20 8 10 11 10 29-2 40-39 35-89 55-141 55-53 0-103-19-141-54-12-10-12-28-2-39 10-12 28-12 39-2 29 26 66 40 104 40 38 0 76-15 104-41 5-5 12-7 19-7z m234 237c7 0 14 3 20 9 10 11 10 29-2 39-103 95-237 147-376 147-139 0-272-51-374-144-12-10-12-28-2-39 10-12 28-12 40-2 92 84 211 129 336 129 126 0 246-46 339-132 5-4 12-7 19-7z" horiz-adv-x="1000" />
<glyph glyph-name="oi-zoom-in" unicode="&#xe85e;" d="m423 130c69 0 133 23 184 61l228-228c6-6 13-8 20-8 7 0 14 2 19 8 11 11 11 28 0 39l-226 227c51 54 82 128 82 208 0 169-137 307-307 307s-307-138-307-307 138-307 307-307z m0 558c139 0 252-112 252-251s-113-251-252-251c-138 0-251 112-251 251s112 251 251 251z m-113-278h88v-88c0-15 13-28 28-28s28 13 28 28v88h88c15 0 27 13 27 28s-12 28-27 28h-88v88c0 15-13 28-28 28s-28-13-28-28v-88h-88c-15 0-28-13-28-28s13-28 28-28z" horiz-adv-x="1000" />
<glyph glyph-name="oi-search" unicode="&#xe85f;" d="m648 229c51 54 82 128 82 208 0 169-137 307-307 307s-307-138-307-307 138-307 307-307c69 0 133 23 184 61l228-228c6-6 13-8 20-8 7 0 14 2 19 8 11 11 11 28 0 39l-226 227z m-476 208c0 139 112 251 251 251 139 0 252-112 252-251s-113-251-252-251c-139 0-251 113-251 251z" horiz-adv-x="1000" />
<glyph glyph-name="oi-map" unicode="&#xe860;" d="m795 694l-199-127-199 168c-9 8-23 9-34 2l-207-142c-8-5-12-14-12-23v-516c0-11 5-20 14-25 10-5 20-4 29 2l176 120 212-186c5-5 12-7 18-7 5 0 10 2 14 4l218 130c8 6 13 14 13 24v553c0 11-6 20-14 25-10 5-20 4-29-2z m-13-561l-186-111-202 177v105c0 15-13 28-28 28s-28-13-28-28v-101l-139-95v449l178 122 188-158v-352c0-15 12-27 28-27s27 12 27 27v347l162 104v-487z m-319 426c-11 11-29 11-40 0l-47-47-47 47c-11 11-28 11-40 0-10-10-10-28 0-39l48-47-48-48c-10-11-10-28 0-39 6-6 13-9 20-9s14 3 19 9l48 47 47-47c6-5 13-8 20-8s14 3 19 8c11 11 11 28 0 40l-47 47 48 47c11 11 11 29 0 39z" horiz-adv-x="1000" />
<glyph glyph-name="oi-menu" unicode="&#xe861;" d="m208 517h593c15 0 28 12 28 27s-13 28-28 28h-593c-15 0-27-12-27-28s12-27 27-27z m0-209h593c15 0 28 13 28 28s-13 28-28 28h-593c-15 0-27-13-27-28s12-28 27-28z m0-208h593c15 0 28 13 28 28s-13 28-28 28h-593c-15 0-27-13-27-28s12-28 27-28z" horiz-adv-x="1000" />
<glyph glyph-name="oi-share-90" unicode="&#xe862;" d="m720 518c2 0 5-1 7-1 0 0 0 0 0 0 64 0 117 51 121 115 3 66-47 124-114 128-67 3-124-48-128-114-1-16 1-32 6-46l-288-172c-21 18-48 29-79 29-66 0-120-54-120-120 0-67 54-121 120-121 29 0 55 10 75 26l281-153c-7-28-3-58 11-85 20-40 62-66 107-66 0 0 0 0 0 0 19 0 38 5 56 15 59 30 82 104 51 163-20 41-62 66-107 66-19 0-38-5-56-14-13-8-26-17-36-29l-271 148c7 15 11 32 11 50 0 17-4 32-10 47l285 169c20-21 47-34 78-35z m-58 124c1 35 30 62 65 62 1 0 3 0 4 0 36-3 63-33 61-69-2-36-33-64-69-62-36 3-64 34-61 69z m-482-305c0 36 29 65 65 65 37 0 66-29 66-65 0-36-29-66-66-66-36 0-65 30-65 66z m509-219c9 5 19 8 30 8 25 0 47-14 58-36 17-32 5-71-27-88-10-5-20-7-31-7h0c-24 0-46 13-58 35-8 15-10 33-4 50 5 16 16 30 32 38z" horiz-adv-x="1000" />
<glyph glyph-name="oi-zoom-out" unicode="&#xe863;" d="m423 130c69 0 133 23 184 61l228-228c6-6 13-8 20-8 7 0 14 2 19 8 11 11 11 28 0 39l-226 227c51 54 82 128 82 208 0 169-137 307-307 307s-307-138-307-307 138-307 307-307z m0 558c139 0 252-112 252-251s-113-251-252-251c-138 0-251 112-251 251s112 251 251 251z m-117-282h231c15 0 28 12 28 27s-13 28-28 28h-231c-16 0-28-12-28-28s12-27 28-27z" horiz-adv-x="1000" />
</font>
</defs>
</svg>
