<?xml version="1.0" encoding="utf-8"?>
<!-- Generator: Adobe Illustrator 17.0.0, SVG Export Plug-In . SVG Version: 6.00 Build 0)  -->
<!DOCTYPE svg PUBLIC "-//W3C//DTD SVG 1.1//EN" "http://www.w3.org/Graphics/SVG/1.1/DTD/svg11.dtd">
<svg version="1.1" id="Layer_1" xmlns="http://www.w3.org/2000/svg" xmlns:xlink="http://www.w3.org/1999/xlink" x="0px" y="0px"
	 width="216px" height="216px" viewBox="0 0 216 216" style="enable-background:new 0 0 216 216;" xml:space="preserve">
<path d="M30.838,145.926c0.486,12.71,5.778,25.014,14.519,33.755c9.375,9.374,21.939,14.082,34.396,14.081
	c12.061,0,24.02-4.413,32.883-13.275l70.368-70.368c2.929-2.93,2.929-7.678,0-10.607c-2.93-2.928-7.678-2.928-10.607,0
	l-70.368,70.368c-12.266,12.269-33.361,11.897-46.063-0.805c-12.913-12.914-13.666-34.816-1.611-46.87l71.442-71.442
	c22.63-22.631,34.203-11.057,38.006-7.252c7.412,7.411,8.986,15.024-4.711,30.366c-0.474,0.296-0.921,0.649-1.332,1.06
	L86.453,146.24c-2.26,2.262-5.941,2.261-8.201,0.001c-2.262-2.262-2.262-5.941,0-8.202l62.883-62.883
	c2.929-2.93,2.929-7.678,0-10.607c-2.93-2.928-7.678-2.928-10.607,0l-62.883,62.883c-8.108,8.109-8.108,21.305,0.001,29.416
	c8.109,8.109,21.306,8.107,29.415,0l65.739-65.74c0.7-0.352,1.356-0.818,1.939-1.401c9.09-9.091,33.235-33.236,9.669-56.804
	c-16.515-16.512-38.098-13.87-59.221,7.252l-71.442,71.442C34.913,120.43,30.329,132.621,30.838,145.926z"/>
</svg>
