<?xml version="1.0" encoding="utf-8"?>
<!-- Generator: Adobe Illustrator 18.0.0, SVG Export Plug-In . SVG Version: 6.00 Build 0)  -->
<!DOCTYPE svg PUBLIC "-//W3C//DTD SVG 1.1//EN" "http://www.w3.org/Graphics/SVG/1.1/DTD/svg11.dtd">
<svg version="1.1" id="Layer_1" xmlns="http://www.w3.org/2000/svg" xmlns:xlink="http://www.w3.org/1999/xlink" x="0px" y="0px"
	 viewBox="0 0 216 216" enable-background="new 0 0 216 216" xml:space="preserve">
<g>
	<path d="M108,183c3.3,0,6-2.7,6-6V54.7l39.2,43.9c1.2,1.3,2.8,2,4.5,2c1.4,0,2.8-0.5,4-1.5c2.5-2.2,2.7-6,0.5-8.5L112.5,35
		c-1.1-1.3-2.8-2-4.5-2c-0.5,0-0.9,0.1-1.3,0.2c-1.5,0.3-2.7,1.2-3.6,2.4L54,90.6c-2.2,2.5-2,6.3,0.5,8.5c2.5,2.2,6.3,2,8.5-0.5
		l39-43.8V177C102,180.3,104.7,183,108,183z"/>
</g>
</svg>
