<?xml version="1.0" encoding="utf-8"?>
<!-- Generator: Adobe Illustrator 17.0.0, SVG Export Plug-In . SVG Version: 6.00 Build 0)  -->
<!DOCTYPE svg PUBLIC "-//W3C//DTD SVG 1.1//EN" "http://www.w3.org/Graphics/SVG/1.1/DTD/svg11.dtd">
<svg version="1.1" id="Layer_1" xmlns="http://www.w3.org/2000/svg" xmlns:xlink="http://www.w3.org/1999/xlink" x="0px" y="0px"
	 width="216px" height="216px" viewBox="0 0 216 216" style="enable-background:new 0 0 216 216;" xml:space="preserve">
<path d="M29.329,75.873l-0.229,50.02c-0.01,2.086,0.851,4.082,2.373,5.508c1.522,1.425,3.563,2.155,5.652,2.008
	c0.063-0.004,4.595-0.315,11.64-0.498c1.045,13.419,9.419,35.64,35.58,36.229c0.352,0.008,0.701,0.012,1.048,0.012
	c9.497,0,17.397-2.959,23.493-8.8c6.42-6.152,9.254-14.207,10.508-20.009c27.912,10.11,45.033,24.529,45.229,24.697
	c1.386,1.186,3.122,1.801,4.877,1.801c1.062,0,2.13-0.225,3.131-0.686c2.662-1.224,4.368-3.885,4.368-6.814V44.659
	c0-2.939-1.719-5.607-4.395-6.825c-2.674-1.218-5.816-0.759-8.033,1.171c-0.245,0.214-24.757,21.449-42.713,26.997
	c-10.367,3.204-24.927,4.828-43.274,4.828c-21.595,0-40.638-2.342-40.827-2.365c-2.126-0.265-4.269,0.394-5.88,1.81
	C30.268,71.69,29.339,73.729,29.329,75.873z M84.685,154.123c-16.598-0.374-20.101-15.134-20.84-21.305
	c12.706,0.17,27.865,1.032,41.063,3.604c-0.695,3.684-2.373,9.233-6.398,13.091C95.125,152.754,90.604,154.25,84.685,154.123z
	 M126.287,80.334C138.44,76.578,152.281,67.437,162,60.215v84.499c-8.766-5.641-21.91-12.948-38.583-18.869
	c-12.559-4.46-28.683-6.555-43.714-7.459l0.183-32.564C99.133,85.742,114.745,83.9,126.287,80.334z M44.291,84.223
	c5.163,0.469,12.361,1.012,20.595,1.332l-0.181,32.275c-2.041-0.031-4.04-0.05-5.945-0.05c-5.763,0-10.781,0.124-14.623,0.266
	L44.291,84.223z"/>
</svg>
