<?xml version="1.0" encoding="utf-8"?>
<!-- Generator: Adobe Illustrator 17.0.0, SVG Export Plug-In . SVG Version: 6.00 Build 0)  -->
<!DOCTYPE svg PUBLIC "-//W3C//DTD SVG 1.1//EN" "http://www.w3.org/Graphics/SVG/1.1/DTD/svg11.dtd">
<svg version="1.1" id="Layer_1" xmlns="http://www.w3.org/2000/svg" xmlns:xlink="http://www.w3.org/1999/xlink" x="0px" y="0px"
	 width="216px" height="216px" viewBox="0 0 216 216" style="enable-background:new 0 0 216 216;" xml:space="preserve">
<path d="M31.5,109.5c0,4.143,3.357,7.5,7.5,7.5h116.704l-39.226,34.979c-3.092,2.757-3.363,7.498-0.606,10.589
	c1.481,1.662,3.536,2.509,5.601,2.509c1.775,0,3.559-0.627,4.988-1.902l51.931-46.308c3.477-0.653,6.109-3.699,6.109-7.366
	c0-0.144-0.013-0.284-0.021-0.426c0.051-0.354,0.087-0.711,0.087-1.074c0-2.138-0.913-4.175-2.509-5.598L126.46,52.826
	c-3.09-2.757-7.831-2.485-10.589,0.606c-2.757,3.091-2.485,7.832,0.606,10.589L159.068,102H39C34.857,102,31.5,105.357,31.5,109.5z"
	/>
</svg>
