<?xml version="1.0" encoding="utf-8"?>
<!-- Generator: Adobe Illustrator 17.0.0, SVG Export Plug-In . SVG Version: 6.00 Build 0)  -->
<!DOCTYPE svg PUBLIC "-//W3C//DTD SVG 1.1//EN" "http://www.w3.org/Graphics/SVG/1.1/DTD/svg11.dtd">
<svg version="1.1" id="Layer_1" xmlns="http://www.w3.org/2000/svg" xmlns:xlink="http://www.w3.org/1999/xlink" x="0px" y="0px"
	 width="216px" height="216px" viewBox="0 0 216 216" style="enable-background:new 0 0 216 216;" xml:space="preserve">
<path d="M108.5,184.5c4.143,0,7.5-3.357,7.5-7.5V59.151l36.044,40.421c1.481,1.662,3.536,2.509,5.601,2.509
	c1.775,0,3.559-0.627,4.988-1.902c3.092-2.757,3.363-7.498,0.606-10.589l-47.963-53.789c-1.201-2.54-3.78-4.301-6.776-4.301
	c-0.021,0-0.042,0.003-0.063,0.003c-0.124-0.006-0.247-0.02-0.372-0.02c-2.139,0-4.175,0.913-5.598,2.509L52.892,89.59
	c-2.757,3.091-2.485,7.832,0.606,10.589c3.092,2.758,7.833,2.486,10.589-0.606L101,58.176V177
	C101,181.143,104.357,184.5,108.5,184.5z"/>
</svg>
