<?xml version="1.0" encoding="utf-8"?>
<!-- Generator: Adobe Illustrator 17.0.0, SVG Export Plug-In . SVG Version: 6.00 Build 0)  -->
<!DOCTYPE svg PUBLIC "-//W3C//DTD SVG 1.1//EN" "http://www.w3.org/Graphics/SVG/1.1/DTD/svg11.dtd">
<svg version="1.1" id="Layer_1" xmlns="http://www.w3.org/2000/svg" xmlns:xlink="http://www.w3.org/1999/xlink" x="0px" y="0px"
	 width="216px" height="216px" viewBox="0 0 216 216" style="enable-background:new 0 0 216 216;" xml:space="preserve">
<path d="M37.688,116.878l51.918,46.296c1.43,1.275,3.212,1.902,4.988,1.902c2.064,0,4.119-0.847,5.601-2.509
	c2.757-3.091,2.485-7.832-0.606-10.589L60.362,117H177c4.143,0,7.5-3.357,7.5-7.5s-3.357-7.5-7.5-7.5H56.998l42.59-37.979
	c3.092-2.757,3.363-7.498,0.606-10.589c-2.755-3.091-7.496-3.364-10.589-0.606l-55.597,49.576c-1.596,1.423-2.509,3.46-2.509,5.598
	c0,0.246,0.015,0.489,0.039,0.732c-0.026,0.253-0.039,0.509-0.039,0.768C31.5,113.194,34.172,116.257,37.688,116.878z"/>
</svg>
