<?xml version="1.0" encoding="utf-8"?>
<!-- Generator: Adobe Illustrator 17.0.0, SVG Export Plug-In . SVG Version: 6.00 Build 0)  -->
<!DOCTYPE svg PUBLIC "-//W3C//DTD SVG 1.1//EN" "http://www.w3.org/Graphics/SVG/1.1/DTD/svg11.dtd">
<svg version="1.1" id="Layer_1" xmlns="http://www.w3.org/2000/svg" xmlns:xlink="http://www.w3.org/1999/xlink" x="0px" y="0px"
	 width="216px" height="216px" viewBox="0 0 216 216" style="enable-background:new 0 0 216 216;" xml:space="preserve">
<path d="M106.5,31.5c-4.143,0-7.5,3.357-7.5,7.5v116.564l-34.913-39.152c-2.755-3.091-7.496-3.364-10.589-0.606
	c-3.092,2.757-3.363,7.498-0.606,10.589l46.217,51.829c0.585,3.559,3.667,6.276,7.392,6.276c0.265,0,0.527-0.015,0.785-0.042
	c0.258,0.027,0.518,0.042,0.78,0.042c2.138,0,4.175-0.913,5.598-2.509l49.576-55.597c2.757-3.091,2.485-7.832-0.606-10.589
	c-3.091-2.758-7.832-2.486-10.589,0.606L114,159.075V39C114,34.857,110.643,31.5,106.5,31.5z"/>
</svg>
