<?xml version="1.0" encoding="utf-8"?>
<!-- Generator: Adobe Illustrator 18.0.0, SVG Export Plug-In . SVG Version: 6.00 Build 0)  -->
<!DOCTYPE svg PUBLIC "-//W3C//DTD SVG 1.1//EN" "http://www.w3.org/Graphics/SVG/1.1/DTD/svg11.dtd">
<svg version="1.1" id="Layer_1" xmlns="http://www.w3.org/2000/svg" xmlns:xlink="http://www.w3.org/1999/xlink" x="0px" y="0px"
	 viewBox="0 0 216 216" enable-background="new 0 0 216 216" xml:space="preserve">
<g>
	<path d="M110.2,187.1c-1.4,2.6-0.7,5.8,1.5,7.6c1.1,0.9,2.4,1.3,3.7,1.3c1.4,0,2.9-0.5,4-1.5c0.8-0.7,18.6-16.6,34.5-36.2
		c22.8-28.1,30-49.4,21.2-63.5c-7.7-12.4-22.2-21.1-43.1-26c-11.2-2.6-21.7-3.5-28.1-3.7V26c0-2.5-1.5-4.7-3.8-5.6
		c-2.3-0.9-4.9-0.4-6.6,1.4l-68.9,72c-1.1,1.2-1.7,2.8-1.7,4.5s0.8,3.2,2.1,4.3l68.1,58c1.7,1.5,4.1,1.8,6.2,1
		c2.1-0.9,3.5-2.9,3.7-5.1l2.4-36.2c2.6-0.3,6.2-0.6,9.9-0.6c4.8,0,16.2,0.6,17.2,6.5c0.5,2.7,0.4,11.4-10,35.4
		C116.7,175.1,110.3,187,110.2,187.1z M115.5,107.6c-8.7,0-16.4,1.5-16.7,1.5c-2.7,0.5-4.6,2.8-4.8,5.5l-2,29.1L37.8,97.6L92,41v30
		c0,1.6,0.6,3.2,1.8,4.3s2.7,1.8,4.3,1.7c0,0,0.2,0,0.6,0c5.3,0,51.7,0.7,66.3,24.2c5.5,8.9-1.7,26.5-20.3,49.5
		c-2.9,3.6-5.8,7-8.8,10.2c7.1-17.2,9.9-29.3,8.6-36.9C143.2,116.5,137.1,107.6,115.5,107.6z"/>
</g>
</svg>
