<?xml version="1.0" encoding="utf-8"?>
<!-- Generator: Adobe Illustrator 17.0.0, SVG Export Plug-In . SVG Version: 6.00 Build 0)  -->
<!DOCTYPE svg PUBLIC "-//W3C//DTD SVG 1.1//EN" "http://www.w3.org/Graphics/SVG/1.1/DTD/svg11.dtd">
<svg version="1.1" id="Layer_1" xmlns="http://www.w3.org/2000/svg" xmlns:xlink="http://www.w3.org/1999/xlink" x="0px" y="0px"
	 width="216px" height="216px" viewBox="0 0 216 216" style="enable-background:new 0 0 216 216;" xml:space="preserve">
<path d="M131.604,196.44c1.194,0.713,2.522,1.06,3.841,1.06c1.981,0,3.942-0.784,5.396-2.289
	c0.648-0.672,16.056-16.688,29.542-36.489c19.449-28.556,24.785-50.317,15.859-64.681C170.89,69.333,132.988,64.561,116,63.684V26
	c0-3.056-1.854-5.807-4.688-6.953c-2.834-1.146-6.079-0.457-8.203,1.738l-69.651,72c-1.438,1.486-2.198,3.501-2.102,5.567
	c0.098,2.065,1.044,4,2.614,5.345l67.748,58c2.16,1.85,5.181,2.318,7.8,1.21c2.619-1.107,4.386-3.602,4.563-6.439l2.182-34.916
	c2.388-0.259,5.321-0.479,8.377-0.479c3.465,0,14.834,0.377,15.69,5.231c1.949,11.048-6.345,43.539-12.031,61.423
	C127.245,191.046,128.613,194.655,131.604,196.44z M124.641,106.072c-8.859,0-16.605,1.505-16.931,1.569
	c-3.345,0.658-5.824,3.489-6.037,6.891l-1.624,25.989L49.781,97.486L101,44.54V71c0,2.011,0.811,3.938,2.245,5.348
	c1.433,1.41,3.364,2.178,5.388,2.151l0.56-0.004c18.471,0,52.801,4.942,64.311,23.464c6.962,11.203-5.618,35.499-22.057,57.559
	c2.953-13.283,5.142-27.402,3.656-35.821C153.941,117.114,148.439,106.072,124.641,106.072z"/>
</svg>
