<?xml version="1.0" encoding="utf-8"?>
<!-- Generator: Adobe Illustrator 18.0.0, SVG Export Plug-In . SVG Version: 6.00 Build 0)  -->
<!DOCTYPE svg PUBLIC "-//W3C//DTD SVG 1.1//EN" "http://www.w3.org/Graphics/SVG/1.1/DTD/svg11.dtd">
<svg version="1.1" id="Layer_1" xmlns="http://www.w3.org/2000/svg" xmlns:xlink="http://www.w3.org/1999/xlink" x="0px" y="0px"
	 viewBox="0 0 216 216" enable-background="new 0 0 216 216" xml:space="preserve">
<g>
	<path d="M32.4,165.3c0.9,2.2,3.1,3.7,5.5,3.7h43.6c1.9,12.9,13.1,22.8,26.4,22.8s24.5-9.9,26.4-22.8H178c0,0,0,0,0,0
		c0.3,0,0.6,0,0.9-0.1c2.2-0.3,4-1.8,4.8-3.8c0.8-2.3,0.2-4.7-1.5-6.3c-0.1-0.1-0.2-0.2-0.3-0.3c-0.6-0.6-3-3.3-5.3-9
		c-2.5-6.1-5.6-17-5.6-33.9c0-33.4-12.6-51-23.1-59.9c-7-5.9-14-8.8-18.6-10.2c-0.2-4.1-1.2-9.7-5-14.2c-2.6-3.1-7.5-6.7-16.2-6.7
		c-8.6,0-13.5,3.7-16.1,6.7c-3.9,4.6-5,10.3-5.1,14.5c-4.7,1.4-11.7,4.3-18.6,10C49,71.6,45,97,45,115.4c0,16.4-3.1,27.3-5.7,33.6
		c-2.8,6.7-5.5,9.7-5.5,9.7c0,0,0,0,0,0C32,160.4,31.5,163,32.4,165.3z M108,179.8c-6.7,0-12.4-4.6-14.2-10.8h28.4
		C120.4,175.2,114.7,179.8,108,179.8z M57,115.4c0-53.8,35.2-58.9,36.6-59.1c1.6-0.2,3.1-1,4.1-2.3c1-1.3,1.4-2.9,1.2-4.6
		c-0.3-1.9-0.5-7.5,2.2-10.6c0.5-0.6,2.1-2.5,7-2.5c4.9,0,6.5,1.9,7.1,2.5c2.5,2.9,2.4,8.4,2.1,10.2c-0.3,1.6,0.1,3.3,1.1,4.6
		c1,1.3,2.4,2.2,4.1,2.4c0.1,0,9,1.3,17.9,8.8c12.5,10.5,18.8,27.6,18.8,50.8c0,20.4,3.9,33.5,7.8,41.5h-118
		C52.8,148.8,57,135.4,57,115.4z"/>
</g>
</svg>
