<?xml version="1.0" encoding="utf-8"?>
<!-- Generator: Adobe Illustrator 17.0.0, SVG Export Plug-In . SVG Version: 6.00 Build 0)  -->
<!DOCTYPE svg PUBLIC "-//W3C//DTD SVG 1.1//EN" "http://www.w3.org/Graphics/SVG/1.1/DTD/svg11.dtd">
<svg version="1.1" id="Layer_1" xmlns="http://www.w3.org/2000/svg" xmlns:xlink="http://www.w3.org/1999/xlink" x="0px" y="0px"
	 width="216px" height="216px" viewBox="0 0 216 216" style="enable-background:new 0 0 216 216;" xml:space="preserve">
<path d="M81.5,139.991h11c4.143,0,7.5-3.357,7.5-7.5v-11c0-4.143-3.357-7.5-7.5-7.5h-11c-4.143,0-7.5,3.357-7.5,7.5v11
	C74,136.633,77.357,139.991,81.5,139.991z"/>
<path d="M117.5,139.991h11c4.143,0,7.5-3.357,7.5-7.5v-11c0-4.143-3.357-7.5-7.5-7.5h-11c-4.143,0-7.5,3.357-7.5,7.5v11
	C110,136.633,113.357,139.991,117.5,139.991z"/>
<path d="M81.5,105.991h11c4.143,0,7.5-3.357,7.5-7.5v-11c0-4.143-3.357-7.5-7.5-7.5h-11c-4.143,0-7.5,3.357-7.5,7.5v11
	C74,102.633,77.357,105.991,81.5,105.991z"/>
<path d="M117.5,105.991h11c4.143,0,7.5-3.357,7.5-7.5v-11c0-4.143-3.357-7.5-7.5-7.5h-11c-4.143,0-7.5,3.357-7.5,7.5v11
	C110,102.633,113.357,105.991,117.5,105.991z"/>
<path d="M81.5,72.991h11c4.143,0,7.5-3.357,7.5-7.5v-11c0-4.143-3.357-7.5-7.5-7.5h-11c-4.143,0-7.5,3.357-7.5,7.5v11
	C74,69.633,77.357,72.991,81.5,72.991z"/>
<path d="M117.5,72.991h11c4.143,0,7.5-3.357,7.5-7.5v-11c0-4.143-3.357-7.5-7.5-7.5h-11c-4.143,0-7.5,3.357-7.5,7.5v11
	C110,69.633,113.357,72.991,117.5,72.991z"/>
<path d="M55.5,197.991H80c0.981,0,1.916-0.194,2.775-0.537c0.239,0.023,0.48,0.037,0.725,0.037c4.143,0,7.5-3.357,7.5-7.5v-23h28v23
	c0,3.595,2.53,6.595,5.906,7.326c0.944,0.429,1.99,0.674,3.094,0.674h26.5h29c4.143,0,7.5-3.357,7.5-7.5v-104
	c0-1.945-0.756-3.814-2.107-5.213L162,53.458V26.491c0-4.143-3.357-7.5-7.5-7.5h-99c-4.143,0-7.5,3.357-7.5,7.5v26.967
	l-26.893,27.82C19.756,82.676,19,84.545,19,86.491v104c0,4.143,3.357,7.5,7.5,7.5H55.5z M176,89.523v93.468h-14V75.041L176,89.523z
	 M63,33.991h84v22.5v126.5h-13v-23.5c0-4.143-3.357-7.5-7.5-7.5h-43c-4.143,0-7.5,3.357-7.5,7.5v23.5H63v-126.5V33.991z M34,89.523
	l14-14.482v107.95H34V89.523z"/>
</svg>
