<?xml version="1.0" encoding="utf-8"?>
<!-- Generator: Adobe Illustrator 18.0.0, SVG Export Plug-In . SVG Version: 6.00 Build 0)  -->
<!DOCTYPE svg PUBLIC "-//W3C//DTD SVG 1.1//EN" "http://www.w3.org/Graphics/SVG/1.1/DTD/svg11.dtd">
<svg version="1.1" id="Layer_1" xmlns="http://www.w3.org/2000/svg" xmlns:xlink="http://www.w3.org/1999/xlink" x="0px" y="0px"
	 viewBox="0 0 216 216" enable-background="new 0 0 216 216" xml:space="preserve">
<g>
	<path d="M175.2,45c-12-10.1-25.3-14.4-38-12.3c-16.4,2.7-26,10.6-31.2,17c-5.3-6.4-14.9-14.3-31.2-17c-2.1-0.4-4.3-0.5-6.4-0.5
		c-14.6,0-28.6,8-41.8,23.8c0,0-0.1,0.1-0.1,0.1c-1,0.7-1.7,1.7-2.1,2.9c-0.4,1.1-0.4,2-0.3,2.8v116.2c0,2.4,1.4,4.6,3.6,5.5
		c2.2,0.9,4.8,0.5,6.5-1.2C34.4,182,57.7,160,76.9,160c17.1,0,23.1,18.9,23.3,19.7c0,0.1,0.1,0.1,0.1,0.2c0,0.1,0.1,0.3,0.2,0.4
		c0.1,0.2,0.2,0.4,0.3,0.6c0.1,0.1,0.1,0.2,0.2,0.3c0.1,0.2,0.3,0.4,0.4,0.6c0.1,0.1,0.1,0.2,0.2,0.2c0.2,0.2,0.4,0.4,0.5,0.5
		c0.1,0.1,0.1,0.1,0.2,0.2c0.2,0.2,0.5,0.4,0.7,0.5c0,0,0.1,0,0.1,0.1c0.9,0.5,1.9,0.8,2.9,0.8c0.1,0,0.1,0,0.2,0c0,0,0,0,0,0
		c0.2,0,0.4,0,0.6,0c0.1,0,0.2,0,0.3-0.1c0.1,0,0.2,0,0.3-0.1c0.2-0.1,0.5-0.1,0.7-0.2c0.1,0,0.2-0.1,0.2-0.1
		c0.2-0.1,0.5-0.2,0.7-0.4c0.1,0,0.1-0.1,0.2-0.1c0.2-0.1,0.4-0.3,0.6-0.5c0.1-0.1,0.1-0.1,0.2-0.2c0.2-0.2,0.4-0.4,0.5-0.5
		c0.1-0.1,0.1-0.2,0.2-0.3c0.1-0.2,0.3-0.4,0.4-0.6c0.1-0.1,0.1-0.3,0.2-0.4c0.1-0.2,0.2-0.4,0.2-0.6c0-0.1,0.1-0.1,0.1-0.2
		c0.2-0.8,6.2-19.7,23.3-19.7c19.2,0,42.6,22,42.8,22.3c1.1,1.1,2.6,1.7,4.1,1.7c0.8,0,1.6-0.2,2.4-0.5c2.2-0.9,3.6-3.1,3.6-5.5
		V62.4c0.1-0.4,0.1-0.9,0.1-1.3c0-2-0.5-3.1-4.3-7.5C182,51.4,179,48.2,175.2,45z M76.9,148c-15.1,0-31,9.7-40.9,17.2V63.4
		c12.2-14.5,24.6-20.9,36.8-18.9C91.6,47.6,98.4,59,100,62.2v95.1C93.6,151.2,85.7,148,76.9,148z M176,165.1
		c-10-7.5-25.8-17.2-40.9-17.2c-8.8,0-16.6,3.2-23.1,9.3V62.2c1.6-3.3,8.5-14.5,27.2-17.7c1.5-0.2,3-0.4,4.5-0.4
		c15.8,0,28.6,14.2,32.3,18.8V165.1z"/>
</g>
</svg>
