<?xml version="1.0" encoding="utf-8"?>
<!-- Generator: Adobe Illustrator 17.0.0, SVG Export Plug-In . SVG Version: 6.00 Build 0)  -->
<!DOCTYPE svg PUBLIC "-//W3C//DTD SVG 1.1//EN" "http://www.w3.org/Graphics/SVG/1.1/DTD/svg11.dtd">
<svg version="1.1" id="Layer_1" xmlns="http://www.w3.org/2000/svg" xmlns:xlink="http://www.w3.org/1999/xlink" x="0px" y="0px"
	 width="216px" height="216px" viewBox="0 0 216 216" style="enable-background:new 0 0 216 216;" xml:space="preserve">
<path d="M32.816,156.061c-2.329,2.049-3.052,5.233-1.969,8.148c1.092,2.938,4.002,4.791,7.137,4.791h42.055
	c1.946,13.692,13.741,24.257,27.962,24.257s26.016-10.565,27.962-24.257h42.055c0.007,0,0.013,0,0.02,0c4.142,0,7.5-3.357,7.5-7.5
	c0-2.385-1.112-4.509-2.847-5.883c-1.029-1.055-10.165-11.357-10.165-40.931c0-34.044-12.89-51.843-23.703-60.779
	c-6.631-5.48-13.341-8.387-18.132-9.903c-0.328-4.251-1.586-9.645-5.337-14.06c-2.813-3.311-8.105-7.257-17.354-7.257
	c-9.228,0-14.516,3.943-17.329,7.251c-3.774,4.439-5.036,9.873-5.363,14.15c-4.792,1.506-11.495,4.395-18.121,9.852
	C56.37,62.852,43.475,80.62,43.475,114.67C43.475,143.955,33.584,155.23,32.816,156.061z M108,178.257
	c-5.915,0-10.934-3.897-12.632-9.257h25.263C118.934,174.36,113.915,178.257,108,178.257z M58.475,114.67
	c0-52.322,33.867-57.063,35.25-57.232c2.051-0.217,3.926-1.243,5.178-2.882c1.251-1.64,1.776-3.696,1.444-5.732
	c-0.234-1.58-0.411-6.661,1.775-9.195c0.414-0.479,1.674-1.94,5.878-1.94c4.225,0,5.484,1.461,5.898,1.941
	c2.164,2.51,1.988,7.529,1.764,9.038c-0.333,2.032,0.155,4.109,1.402,5.749c1.247,1.64,3.084,2.691,5.132,2.913
	c1.442,0.181,35.329,5.017,35.329,57.357c0,18.545,3.267,31.114,6.837,39.313H51.431C55.059,145.717,58.475,133.039,58.475,114.67z"
	/>
</svg>
