<?xml version="1.0" encoding="utf-8"?>
<!-- Generator: Adobe Illustrator 17.0.0, SVG Export Plug-In . SVG Version: 6.00 Build 0)  -->
<!DOCTYPE svg PUBLIC "-//W3C//DTD SVG 1.1//EN" "http://www.w3.org/Graphics/SVG/1.1/DTD/svg11.dtd">
<svg version="1.1" id="Layer_1" xmlns="http://www.w3.org/2000/svg" xmlns:xlink="http://www.w3.org/1999/xlink" x="0px" y="0px"
	 width="216px" height="216px" viewBox="0 0 216 216" style="enable-background:new 0 0 216 216;" xml:space="preserve">
<path d="M177.662,43.819c-12.357-10.406-26.098-14.853-39.175-12.657c-15.669,2.625-25.327,9.865-30.987,16.21
	c-5.661-6.345-15.318-13.584-30.987-16.21c-2.212-0.371-4.466-0.56-6.697-0.56c-21.639,0-37.551,17.191-43.715,25.089
	c-0.394,0.408-0.745,0.866-1.045,1.369c-1.194,2.006-1.304,3.849-1.056,5.28v115.557c0,3.001,1.791,5.711,4.55,6.892
	c2.756,1.181,5.958,0.604,8.13-1.468c6.376-6.078,26.309-21.853,41.762-21.853c15.927,0,21.624,17.772,21.88,18.6
	c0.009,0.029,0.024,0.055,0.033,0.084c0.111,0.35,0.241,0.691,0.401,1.017c0.027,0.055,0.059,0.107,0.087,0.162
	c0.137,0.263,0.289,0.518,0.455,0.762c0.07,0.104,0.142,0.204,0.217,0.304c0.149,0.197,0.308,0.385,0.476,0.567
	c0.094,0.102,0.187,0.205,0.286,0.301c0.181,0.175,0.374,0.339,0.572,0.496c0.13,0.103,0.261,0.201,0.397,0.295
	c0.194,0.134,0.394,0.259,0.601,0.375c0.168,0.094,0.34,0.177,0.515,0.258c0.088,0.04,0.178,0.076,0.267,0.113
	c0.32,0.134,0.648,0.244,0.986,0.332c0.062,0.016,0.124,0.031,0.187,0.046c0.368,0.086,0.742,0.143,1.125,0.172
	c0.066,0.005,0.132,0.013,0.198,0.016c0.124,0.006,0.245,0.03,0.37,0.03c0.359,0,0.724-0.026,1.088-0.079
	c2.681-0.392,4.852-2.173,5.839-4.548c0.01-0.025,0.022-0.05,0.032-0.075c0.063-0.158,0.12-0.318,0.173-0.481
	c0.016-0.048,0.036-0.094,0.052-0.144c0.234-0.759,5.922-18.604,21.881-18.604c15.453,0,35.386,15.774,41.762,21.853
	c1.423,1.359,3.288,2.076,5.182,2.076c0.993,0,1.995-0.197,2.944-0.604c2.762-1.18,4.554-3.894,4.554-6.896V62.552
	c0.094-0.476,0.144-0.967,0.143-1.47c-0.002-2.697-0.995-4.238-4.659-8.512C184.622,50.399,181.581,47.119,177.662,43.819z
	 M78.441,146.469c-14.338,0-29.251,8.436-39.441,15.706V63.586c4.812-5.811,16.597-17.983,30.815-17.983
	c1.403,0,2.822,0.119,4.219,0.353c17.584,2.946,24.265,13.29,25.966,16.56v91.399C94.651,149.648,87.595,146.469,78.441,146.469z
	 M176,162.175c-10.19-7.271-25.104-15.706-39.441-15.706c-9.153,0-16.21,3.18-21.559,7.445V62.53
	c1.713-3.24,8.491-13.646,25.966-16.575c1.396-0.233,2.816-0.353,4.223-0.353c14.937,0,26.887,12.988,30.812,17.816V162.175z"/>
</svg>
