<?xml version="1.0" encoding="utf-8"?>
<!-- Generator: Adobe Illustrator 17.0.0, SVG Export Plug-In . SVG Version: 6.00 Build 0)  -->
<!DOCTYPE svg PUBLIC "-//W3C//DTD SVG 1.1//EN" "http://www.w3.org/Graphics/SVG/1.1/DTD/svg11.dtd">
<svg version="1.1" id="Layer_1" xmlns="http://www.w3.org/2000/svg" xmlns:xlink="http://www.w3.org/1999/xlink" x="0px" y="0px"
	 width="216px" height="216px" viewBox="0 0 216 216" style="enable-background:new 0 0 216 216;" xml:space="preserve">
<path d="M155.5,24H60c-2.198,0-4.176,0.945-5.548,2.452C52.945,27.824,52,29.802,52,32v154.747c0,3.097,1.903,5.875,4.791,6.993
	c2.888,1.122,6.165,0.349,8.252-1.94l43.626-47.86l41.152,47.706c1.453,1.685,3.54,2.602,5.681,2.602
	c0.875,0,1.759-0.153,2.611-0.47c2.938-1.092,4.887-3.896,4.887-7.03V31.5C163,27.357,159.643,24,155.5,24z M148,166.57
	l-33.497-38.901c-1.401-1.625-3.431-2.669-5.576-2.669c-0.034,0-0.068,0-0.103,0c-2.108,0-4.121,0.956-5.543,2.516L67,167.386V39h81
	V166.57z"/>
</svg>
