<?xml version="1.0" encoding="utf-8"?>
<!-- Generator: Adobe Illustrator 18.0.0, SVG Export Plug-In . SVG Version: 6.00 Build 0)  -->
<!DOCTYPE svg PUBLIC "-//W3C//DTD SVG 1.1//EN" "http://www.w3.org/Graphics/SVG/1.1/DTD/svg11.dtd">
<svg version="1.1" id="Layer_1" xmlns="http://www.w3.org/2000/svg" xmlns:xlink="http://www.w3.org/1999/xlink" x="0px" y="0px"
	 viewBox="0 0 216 216" enable-background="new 0 0 216 216" xml:space="preserve">
<g>
	<path d="M96,117H85c-3.3,0-6,2.7-6,6v10c0,3.3,2.7,6,6,6h11c3.3,0,6-2.7,6-6v-10C102,119.7,99.3,117,96,117z"/>
	<path d="M136,133v-10c0-3.3-2.7-6-6-6h-10c-3.3,0-6,2.7-6,6v10c0,3.3,2.7,6,6,6h10C133.3,139,136,136.3,136,133z"/>
	<path d="M96,84H85c-3.3,0-6,2.7-6,6v10c0,3.3,2.7,6,6,6h11c3.3,0,6-2.7,6-6V90C102,86.7,99.3,84,96,84z"/>
	<path d="M120,106h10c3.3,0,6-2.7,6-6V90c0-3.3-2.7-6-6-6h-10c-3.3,0-6,2.7-6,6v10C114,103.3,116.7,106,120,106z"/>
	<path d="M96,52H85c-3.3,0-6,2.7-6,6v10c0,3.3,2.7,6,6,6h11c3.3,0,6-2.7,6-6V58C102,54.7,99.3,52,96,52z"/>
	<path d="M120,74h10c3.3,0,6-2.7,6-6V58c0-3.3-2.7-6-6-6h-10c-3.3,0-6,2.7-6,6v10C114,71.3,116.7,74,120,74z"/>
	<path d="M163,54.1V28c0-3.3-2.7-6-6-6H58c-3.3,0-6,2.7-6,6v26.1L24.7,82.3c-1.1,1.1-1.7,2.6-1.7,4.2V192c0,3.3,2.7,6,6,6h29h26
		c2.2,0,4.1-1.2,5.1-2.9c1.7-1.1,2.9-2.9,2.9-5.1v-23h31v23c0,2.7,1.8,5,4.3,5.8c1.1,1.4,2.8,2.2,4.7,2.2h25h29c3.3,0,6-2.7,6-6
		V86.5c0-1.6-0.6-3.1-1.7-4.2L163,54.1z M35,88.9l17-17.6V186H35V88.9z M86,155c-3.3,0-6,2.7-6,6v25H64V56.5V34h87v22.5V186h-16v-25
		c0-3.3-2.7-6-6-6H86z M180,186h-17V71.3l17,17.6V186z"/>
</g>
</svg>
