<?xml version="1.0" encoding="utf-8"?>
<!-- Generator: Adobe Illustrator 17.0.0, SVG Export Plug-In . SVG Version: 6.00 Build 0)  -->
<!DOCTYPE svg PUBLIC "-//W3C//DTD SVG 1.1//EN" "http://www.w3.org/Graphics/SVG/1.1/DTD/svg11.dtd">
<svg version="1.1" id="Layer_1" xmlns="http://www.w3.org/2000/svg" xmlns:xlink="http://www.w3.org/1999/xlink" x="0px" y="0px"
	 width="216px" height="216px" viewBox="0 0 216 216" style="enable-background:new 0 0 216 216;" xml:space="preserve">
<path d="M187.5,31H168c-4.143,0-7.5,3.357-7.5,7.5s3.357,7.5,7.5,7.5h12v131H35V46h13c4.143,0,7.5-3.357,7.5-7.5S52.143,31,48,31
	H27.5c-4.143,0-7.5,3.357-7.5,7.5v146c0,4.143,3.357,7.5,7.5,7.5h160c4.143,0,7.5-3.357,7.5-7.5v-146
	C195,34.357,191.643,31,187.5,31z"/>
<path d="M115,31H98c-4.143,0-7.5,3.357-7.5,7.5S93.857,46,98,46h17c4.143,0,7.5-3.357,7.5-7.5S119.143,31,115,31z"/>
<path d="M71.5,139h-14c-4.143,0-7.5,3.357-7.5,7.5v10c0,4.143,3.357,7.5,7.5,7.5h14c4.143,0,7.5-3.357,7.5-7.5v-10
	C79,142.357,75.643,139,71.5,139z"/>
<path d="M113.5,139h-15c-4.143,0-7.5,3.357-7.5,7.5v10c0,4.143,3.357,7.5,7.5,7.5h15c4.143,0,7.5-3.357,7.5-7.5v-10
	C121,142.357,117.643,139,113.5,139z"/>
<path d="M79,113.5c0-4.143-3.357-7.5-7.5-7.5h-14c-4.143,0-7.5,3.357-7.5,7.5v10c0,4.143,3.357,7.5,7.5,7.5h14
	c4.143,0,7.5-3.357,7.5-7.5V113.5z"/>
<path d="M121,113.5c0-4.143-3.357-7.5-7.5-7.5h-15c-4.143,0-7.5,3.357-7.5,7.5v10c0,4.143,3.357,7.5,7.5,7.5h15
	c4.143,0,7.5-3.357,7.5-7.5V113.5z"/>
<path d="M155.5,106h-14c-4.143,0-7.5,3.357-7.5,7.5v10c0,4.143,3.357,7.5,7.5,7.5h14c4.143,0,7.5-3.357,7.5-7.5v-10
	C163,109.357,159.643,106,155.5,106z"/>
<path d="M50,79.5v10c0,4.143,3.357,7.5,7.5,7.5h14c4.143,0,7.5-3.357,7.5-7.5v-10c0-4.143-3.357-7.5-7.5-7.5h-14
	C53.357,72,50,75.357,50,79.5z"/>
<path d="M121,79.5c0-4.143-3.357-7.5-7.5-7.5h-15c-4.143,0-7.5,3.357-7.5,7.5v10c0,4.143,3.357,7.5,7.5,7.5h15
	c4.143,0,7.5-3.357,7.5-7.5V79.5z"/>
<path d="M163,79.5c0-4.143-3.357-7.5-7.5-7.5h-14c-4.143,0-7.5,3.357-7.5,7.5v10c0,4.143,3.357,7.5,7.5,7.5h14
	c4.143,0,7.5-3.357,7.5-7.5V79.5z"/>
<path d="M75.5,58c4.143,0,7.5-3.357,7.5-7.5v-28c0-4.143-3.357-7.5-7.5-7.5h-6c-4.143,0-7.5,3.357-7.5,7.5v28
	c0,4.143,3.357,7.5,7.5,7.5H75.5z"/>
<path d="M144.5,15h-6c-4.143,0-7.5,3.357-7.5,7.5v28c0,4.143,3.357,7.5,7.5,7.5h6c4.143,0,7.5-3.357,7.5-7.5v-28
	C152,18.357,148.643,15,144.5,15z"/>
</svg>
