<?xml version="1.0" encoding="utf-8"?>
<!-- Generator: Adobe Illustrator 17.0.0, SVG Export Plug-In . SVG Version: 6.00 Build 0)  -->
<!DOCTYPE svg PUBLIC "-//W3C//DTD SVG 1.1//EN" "http://www.w3.org/Graphics/SVG/1.1/DTD/svg11.dtd">
<svg version="1.1" id="Layer_1" xmlns="http://www.w3.org/2000/svg" xmlns:xlink="http://www.w3.org/1999/xlink" x="0px" y="0px"
	 width="216px" height="216px" viewBox="0 0 216 216" style="enable-background:new 0 0 216 216;" xml:space="preserve">
<path d="M41.405,181h133.19C188.854,181,200,169.618,200,155.36V76.501c0-14.258-11.373-25.857-25.593-25.857l-18.266-0.095
	l-17.749-26.345c-1.394-2.071-3.669-3.204-6.165-3.204H82.949c-2.457,0-4.759,1.094-6.16,3.113L58.316,50.658l-16.685,0.013
	C27.373,50.671,16,62.243,16,76.501v78.859C16,169.618,27.146,181,41.405,181z M31,76.501c0-5.986,4.644-10.857,10.649-10.857
	l20.728-0.05c2.451-0.006,4.688-1.1,6.086-3.113L86.872,36h41.363l17.791,26.325c1.386,2.06,3.701,3.245,6.183,3.258l22.159,0.088
	c5.987,0,10.632,4.844,10.632,10.83v78.859c0,5.986-4.418,10.64-10.405,10.64H41.405C35.417,166,31,161.347,31,155.36V76.501z"/>
<path d="M108.489,153.017c24.271,0,44.017-19.746,44.017-44.017s-19.746-44.017-44.017-44.017S64.473,84.729,64.473,109
	S84.219,153.017,108.489,153.017z M108.489,79.983c16,0,29.017,13.017,29.017,29.017s-13.017,29.017-29.017,29.017
	S79.473,125,79.473,109S92.489,79.983,108.489,79.983z"/>
<path d="M165.423,93.865c5.381,0,9.759-4.378,9.759-9.759s-4.378-9.759-9.759-9.759s-9.759,4.378-9.759,9.759
	S160.042,93.865,165.423,93.865z"/>
</svg>
