<?xml version="1.0" encoding="utf-8"?>
<!-- Generator: Adobe Illustrator 17.0.0, SVG Export Plug-In . SVG Version: 6.00 Build 0)  -->
<!DOCTYPE svg PUBLIC "-//W3C//DTD SVG 1.1//EN" "http://www.w3.org/Graphics/SVG/1.1/DTD/svg11.dtd">
<svg version="1.1" id="Layer_1" xmlns="http://www.w3.org/2000/svg" xmlns:xlink="http://www.w3.org/1999/xlink" x="0px" y="0px"
	 width="216px" height="216px" viewBox="0 0 216 216" style="enable-background:new 0 0 216 216;" xml:space="preserve">
<path d="M145.304,185.722c14.936,0,27.086-12.15,27.086-27.086s-12.15-27.087-27.086-27.087c-4.518,0-8.778,1.118-12.528,3.083
	l-14.141-13.705l0.991-0.794c1.195-0.957,2.068-2.257,2.504-3.725l22.364-75.5c1.176-3.972-1.09-8.145-5.062-9.321
	c-3.976-1.175-8.146,1.09-9.321,5.062l-21.696,73.245l-0.637,0.51l-0.088-0.085L87.232,35.793c-1.097-3.993-5.22-6.345-9.218-5.247
	c-3.994,1.097-6.344,5.224-5.247,9.218l21,76.5c0.354,1.293,1.05,2.467,2.013,3.4l0.195,0.189l-16.459,13.178
	c-2.767-0.956-5.732-1.482-8.82-1.482c-14.936,0-27.086,12.151-27.086,27.087s12.15,27.086,27.086,27.086
	s27.087-12.15,27.087-27.086c0-6.209-2.105-11.932-5.632-16.506l14.681-11.754l15.084,14.62c-2.347,4.009-3.7,8.668-3.7,13.64
	C118.217,173.571,130.368,185.722,145.304,185.722z M70.696,170.722c-6.664,0-12.086-5.422-12.086-12.086
	c0-6.665,5.422-12.087,12.086-12.087c6.665,0,12.087,5.422,12.087,12.087C82.783,165.3,77.361,170.722,70.696,170.722z
	 M157.39,158.636c0,6.664-5.422,12.086-12.086,12.086c-6.665,0-12.087-5.422-12.087-12.086c0-6.665,5.422-12.087,12.087-12.087
	C151.968,146.549,157.39,151.971,157.39,158.636z"/>
</svg>
