<?xml version="1.0" encoding="utf-8"?>
<!-- Generator: Adobe Illustrator 18.0.0, SVG Export Plug-In . SVG Version: 6.00 Build 0)  -->
<!DOCTYPE svg PUBLIC "-//W3C//DTD SVG 1.1//EN" "http://www.w3.org/Graphics/SVG/1.1/DTD/svg11.dtd">
<svg version="1.1" id="Layer_1" xmlns="http://www.w3.org/2000/svg" xmlns:xlink="http://www.w3.org/1999/xlink" x="0px" y="0px"
	 viewBox="0 0 216 216" enable-background="new 0 0 216 216" xml:space="preserve">
<g>
	<path d="M188,34h-18c-3.3,0-6,2.7-6,6s2.7,6,6,6h12v134H34V46h16c3.3,0,6-2.7,6-6s-2.7-6-6-6H28c-3.3,0-6,2.7-6,6v146
		c0,3.3,2.7,6,6,6h160c3.3,0,6-2.7,6-6V40C194,36.7,191.3,34,188,34z"/>
	<path d="M116,34H99c-3.3,0-6,2.7-6,6s2.7,6,6,6h17c3.3,0,6-2.7,6-6S119.3,34,116,34z"/>
	<path d="M72,142H58c-3.3,0-6,2.7-6,6v10c0,3.3,2.7,6,6,6h14c3.3,0,6-2.7,6-6v-10C78,144.7,75.3,142,72,142z"/>
	<path d="M115,142h-15c-3.3,0-6,2.7-6,6v10c0,3.3,2.7,6,6,6h15c3.3,0,6-2.7,6-6v-10C121,144.7,118.3,142,115,142z"/>
	<path d="M78,115c0-3.3-2.7-6-6-6H58c-3.3,0-6,2.7-6,6v10c0,3.3,2.7,6,6,6h14c3.3,0,6-2.7,6-6V115z"/>
	<path d="M121,115c0-3.3-2.7-6-6-6h-15c-3.3,0-6,2.7-6,6v10c0,3.3,2.7,6,6,6h15c3.3,0,6-2.7,6-6V115z"/>
	<path d="M157,109h-14c-3.3,0-6,2.7-6,6v10c0,3.3,2.7,6,6,6h14c3.3,0,6-2.7,6-6v-10C163,111.7,160.3,109,157,109z"/>
	<path d="M52,81v10c0,3.3,2.7,6,6,6h14c3.3,0,6-2.7,6-6V81c0-3.3-2.7-6-6-6H58C54.7,75,52,77.7,52,81z"/>
	<path d="M121,81c0-3.3-2.7-6-6-6h-15c-3.3,0-6,2.7-6,6v10c0,3.3,2.7,6,6,6h15c3.3,0,6-2.7,6-6V81z"/>
	<path d="M163,81c0-3.3-2.7-6-6-6h-14c-3.3,0-6,2.7-6,6v10c0,3.3,2.7,6,6,6h14c3.3,0,6-2.7,6-6V81z"/>
	<path d="M76,58c3.3,0,6-2.7,6-6V24c0-3.3-2.7-6-6-6h-6c-3.3,0-6,2.7-6,6v28c0,3.3,2.7,6,6,6H76z"/>
	<path d="M145,18h-6c-3.3,0-6,2.7-6,6v28c0,3.3,2.7,6,6,6h6c3.3,0,6-2.7,6-6V24C151,20.7,148.3,18,145,18z"/>
</g>
</svg>
