<?xml version="1.0" encoding="utf-8"?>
<!-- Generator: Adobe Illustrator 18.0.0, SVG Export Plug-In . SVG Version: 6.00 Build 0)  -->
<!DOCTYPE svg PUBLIC "-//W3C//DTD SVG 1.1//EN" "http://www.w3.org/Graphics/SVG/1.1/DTD/svg11.dtd">
<svg version="1.1" id="Layer_1" xmlns="http://www.w3.org/2000/svg" xmlns:xlink="http://www.w3.org/1999/xlink" x="0px" y="0px"
	 viewBox="0 0 216 216" enable-background="new 0 0 216 216" xml:space="preserve">
<g>
	<path d="M177.2,99.8c0.5-5.2,0.8-13.7-1.7-23.1c-3.6-13.9-13.9-32.2-42.2-40.7c-6.2-1.9-12.2-2.8-17.8-2.8
		c-29.1,0-44.1,25.1-49.4,42.2c-1.5-0.1-3.1-0.2-5-0.2c-21.4,0-36.3,12.3-40.7,33.7c-3.7,17.5,1.8,28.8,7.1,35.3
		c8.9,10.9,23.4,15.8,33.9,15.8h104.7c0.3,0,0.8,0,1.4,0c0,0,0,0,0,0c11.8,0,26-5.4,30.5-20.4C204.2,119,189.1,105.6,177.2,99.8z
		 M186.5,136.2c-1.1,3.6-5,11.8-19,11.8c-0.5,0-0.7,0-0.8,0c-0.1,0-0.3,0-0.4,0H61.4c-7.4,0-18.2-3.6-24.6-11.4
		c-5.2-6.4-6.8-14.9-4.6-25.3c3.4-16.1,13.1-24.2,29-24.2c4.6,0,8,0.8,8,0.8c1.6,0.4,3.3,0.1,4.6-0.8c1.4-0.9,2.3-2.3,2.7-3.9
		c0.1-0.4,8.2-38.1,39.1-38.1c4.5,0,9.3,0.8,14.4,2.3c43.5,13,35.2,53,34.8,54.7c-0.7,3,1,6,3.8,7
		C169.6,109.5,192,117.8,186.5,136.2z"/>
</g>
</svg>
