<?xml version="1.0" encoding="utf-8"?>
<!-- Generator: Adobe Illustrator 18.0.0, SVG Export Plug-In . SVG Version: 6.00 Build 0)  -->
<!DOCTYPE svg PUBLIC "-//W3C//DTD SVG 1.1//EN" "http://www.w3.org/Graphics/SVG/1.1/DTD/svg11.dtd">
<svg version="1.1" id="Layer_1" xmlns="http://www.w3.org/2000/svg" xmlns:xlink="http://www.w3.org/1999/xlink" x="0px" y="0px"
	 viewBox="0 0 216 216" enable-background="new 0 0 216 216" xml:space="preserve">
<g>
	<path d="M27,50h17.2l24.5,88.6c0.7,2.6,3.1,4.4,5.8,4.4h75.3c2.4,0,4.5-1.4,5.5-3.6l27.4-63c0.8-1.9,0.6-4-0.5-5.7s-3-2.7-5-2.7H94
		c-3.3,0-6,2.7-6,6s2.7,6,6,6h74l-22.2,51H79L54.5,42.4c-0.7-2.6-3.1-4.4-5.8-4.4H27c-3.3,0-6,2.7-6,6S23.7,50,27,50z"/>
	<path d="M68.8,185.2c7.5,0,13.6-6.1,13.6-13.6S76.3,158,68.8,158s-13.6,6.1-13.6,13.6S61.3,185.2,68.8,185.2z"/>
	<path d="M153.8,185.2c0.3,0,0.7,0,1,0c3.6-0.3,6.9-1.9,9.3-4.7c2.4-2.7,3.5-6.2,3.3-9.9c-0.5-7.4-7-13.1-14.5-12.6
		c-7.5,0.5-13.1,7.1-12.6,14.5C140.8,179.6,146.7,185.2,153.8,185.2z"/>
</g>
</svg>
