<?xml version="1.0" encoding="utf-8"?>
<!-- Generator: Adobe Illustrator 17.0.0, SVG Export Plug-In . SVG Version: 6.00 Build 0)  -->
<!DOCTYPE svg PUBLIC "-//W3C//DTD SVG 1.1//EN" "http://www.w3.org/Graphics/SVG/1.1/DTD/svg11.dtd">
<svg version="1.1" id="Layer_1" xmlns="http://www.w3.org/2000/svg" xmlns:xlink="http://www.w3.org/1999/xlink" x="0px" y="0px"
	 width="216px" height="216px" viewBox="0 0 216 216" style="enable-background:new 0 0 216 216;" xml:space="preserve">
<path d="M146.044,26.212c-1.408-1.416-3.322-2.212-5.318-2.212H73.5c-4.143,0-7.5,3.357-7.5,7.5V56H41.5c-4.143,0-7.5,3.357-7.5,7.5
	v122c0,4.143,3.357,7.5,7.5,7.5h101c4.143,0,7.5-3.357,7.5-7.5V160h23.5c4.143,0,7.5-3.357,7.5-7.5V64.461
	c0-1.981-0.784-3.883-2.182-5.288L146.044,26.212z M135,178H49V71h17v81.5c0,4.143,3.357,7.5,7.5,7.5H135V178z M166,145H81V39h49
	v37.5c0,4.143,3.357,7.5,7.5,7.5H166V145z M166,69h-21V46.436l21,21.119V69z"/>
</svg>
