<?xml version="1.0" encoding="utf-8"?>
<!-- Generator: Adobe Illustrator 18.0.0, SVG Export Plug-In . SVG Version: 6.00 Build 0)  -->
<!DOCTYPE svg PUBLIC "-//W3C//DTD SVG 1.1//EN" "http://www.w3.org/Graphics/SVG/1.1/DTD/svg11.dtd">
<svg version="1.1" id="Layer_1" xmlns="http://www.w3.org/2000/svg" xmlns:xlink="http://www.w3.org/1999/xlink" x="0px" y="0px"
	 viewBox="0 0 216 216" enable-background="new 0 0 216 216" xml:space="preserve">
<g>
	<path d="M174.6,56.1L155.5,56l-18.3-27.3c-1.1-1.7-3-2.8-5-2.8H82.9c-2,0-3.8,1.1-4.9,2.7L59.1,56l-17.7,0.1
		C28,56.1,17,67.1,17,80.5v78.9c0,13.4,11,24.6,24.4,24.6h133.2c13.4,0,24.4-11.2,24.4-24.6V80.5C199,67.1,188,56.1,174.6,56.1z
		 M187,159.4c0,6.8-5.6,12.6-12.4,12.6H41.4c-6.8,0-12.4-5.8-12.4-12.6V80.5c0-6.8,5.6-12.4,12.4-12.4l20.9,0c2,0,3.8-1.1,4.9-2.7
		L86.1,38H129l18.2,27.2c1.1,1.6,3,2.7,4.9,2.7l22.4,0.2c6.8,0,12.4,5.6,12.4,12.4V159.4z"/>
	<path d="M108.5,70.5C85,70.5,66,89.6,66,113s19.1,42.5,42.5,42.5S151,136.4,151,113S131.9,70.5,108.5,70.5z M108.5,143.5
		C91.7,143.5,78,129.8,78,113s13.7-30.5,30.5-30.5S139,96.2,139,113S125.3,143.5,108.5,143.5z"/>
	<circle cx="165.4" cy="88.1" r="2.3"/>
	<path d="M165.4,79.8c-4.6,0-8.3,3.7-8.3,8.3s3.7,8.3,8.3,8.3s8.3-3.7,8.3-8.3S170,79.8,165.4,79.8z M165.4,91.8
		c-2.1,0-3.7-1.7-3.7-3.7s1.7-3.7,3.7-3.7s3.7,1.7,3.7,3.7S167.5,91.8,165.4,91.8z"/>
</g>
</svg>
