<?xml version="1.0" encoding="utf-8"?>
<!-- Generator: Adobe Illustrator 17.0.0, SVG Export Plug-In . SVG Version: 6.00 Build 0)  -->
<!DOCTYPE svg PUBLIC "-//W3C//DTD SVG 1.1//EN" "http://www.w3.org/Graphics/SVG/1.1/DTD/svg11.dtd">
<svg version="1.1" id="Layer_1" xmlns="http://www.w3.org/2000/svg" xmlns:xlink="http://www.w3.org/1999/xlink" x="0px" y="0px"
	 width="216px" height="216px" viewBox="0 0 216 216" style="enable-background:new 0 0 216 216;" xml:space="preserve">
<path d="M27,49.992h16.048l24.166,87.497c0.898,3.251,3.856,5.503,7.229,5.503h75.314c2.984,0,5.685-1.77,6.876-4.506l27.428-63
	c1.009-2.318,0.783-4.989-0.604-7.104c-1.386-2.115-3.744-3.389-6.273-3.389H94c-4.142,0-7.5,3.358-7.5,7.5s3.358,7.5,7.5,7.5h71.74
	l-20.897,48h-64.69L55.987,40.496c-0.898-3.251-3.856-5.503-7.229-5.503H27c-4.142,0-7.5,3.358-7.5,7.5S22.858,49.992,27,49.992z"/>
<path d="M83.917,171.565c0-8.321-6.769-15.09-15.09-15.09s-15.09,6.77-15.09,15.09s6.77,15.09,15.09,15.09
	S83.917,179.886,83.917,171.565z"/>
<path d="M153.818,186.655c0.361,0,0.725-0.013,1.091-0.04c4.021-0.289,7.688-2.126,10.326-5.173
	c2.638-3.047,3.932-6.939,3.643-10.96c-0.591-8.215-7.792-14.57-16.133-13.969c-8.299,0.597-14.565,7.834-13.969,16.134
	C139.34,180.502,145.948,186.655,153.818,186.655z"/>
</svg>
