<?xml version="1.0" encoding="utf-8"?>
<!-- Generator: Adobe Illustrator 17.0.0, SVG Export Plug-In . SVG Version: 6.00 Build 0)  -->
<!DOCTYPE svg PUBLIC "-//W3C//DTD SVG 1.1//EN" "http://www.w3.org/Graphics/SVG/1.1/DTD/svg11.dtd">
<svg version="1.1" id="Layer_1" xmlns="http://www.w3.org/2000/svg" xmlns:xlink="http://www.w3.org/1999/xlink" x="0px" y="0px"
	 width="216px" height="216px" viewBox="0 0 216 216" style="enable-background:new 0 0 216 216;" xml:space="preserve">
<path d="M39.78,175.916c0.409,0.409,0.864,0.77,1.356,1.074l5.548,3.434c0.292,0.18,0.595,0.34,0.908,0.479
	c8.457,3.748,17.954,5.729,27.464,5.729c16.361,0,31.103-5.73,41.509-16.136l51.93-51.93c16.513-16.514,20.634-44.772,10.021-68.72
	c-0.173-0.391-0.379-0.767-0.616-1.122l-3.54-5.309c-0.274-0.411-0.588-0.793-0.937-1.143l-9.258-9.259
	c-3.171-3.169-7.487-4.988-11.844-4.988c-4.143,0-8.032,1.607-10.952,4.526l-26.993,26.994c-6.252,6.25-6.121,16.553,0.291,22.966
	l9.585,9.584l-33.941,33.941l-9.717-9.717c-3.123-3.124-7.238-4.844-11.586-4.844c-4.231,0-8.214,1.652-11.215,4.652L30.8,143.124
	c-2.955,2.955-4.757,7.101-4.943,11.373c-0.199,4.564,1.453,8.948,4.533,12.028L39.78,175.916z M41.407,153.73L68.4,126.736
	c0.12-0.121,0.299-0.259,0.608-0.259c0.159,0,0.572,0.044,0.979,0.45l15.021,15.021c2.93,2.929,7.678,2.93,10.607,0L140.163,97.4
	c1.406-1.406,2.196-3.314,2.196-5.303s-0.79-3.897-2.196-5.303l-14.888-14.887c-0.525-0.526-0.668-1.377-0.292-1.753l26.993-26.994
	c0.08-0.081,0.148-0.134,0.346-0.134c0.311,0,0.799,0.157,1.237,0.595l8.732,8.733l2.759,4.137
	c6.439,15.057,6.929,37.376-7.163,51.468l-51.93,51.93c-7.572,7.572-18.547,11.742-30.901,11.742
	c-7.262,0-14.487-1.466-20.932-4.244l-4.354-2.694l-8.775-8.776c-0.059-0.059-0.174-0.323-0.154-0.766
	C40.866,154.607,41.088,154.049,41.407,153.73z"/>
</svg>
