<?xml version="1.0" encoding="utf-8"?>
<!-- Generator: Adobe Illustrator 18.0.0, SVG Export Plug-In . SVG Version: 6.00 Build 0)  -->
<!DOCTYPE svg PUBLIC "-//W3C//DTD SVG 1.1//EN" "http://www.w3.org/Graphics/SVG/1.1/DTD/svg11.dtd">
<svg version="1.1" id="Layer_1" xmlns="http://www.w3.org/2000/svg" xmlns:xlink="http://www.w3.org/1999/xlink" x="0px" y="0px"
	 viewBox="0 0 216 216" enable-background="new 0 0 216 216" xml:space="preserve">
<g>
	<path d="M40.8,174.9c0.3,0.3,0.7,0.6,1.1,0.9l5.5,3.4c0.2,0.1,0.5,0.3,0.7,0.4c8.3,3.7,17.6,5.6,26.9,5.6c16,0,30.3-5.6,40.4-15.7
		l51.9-51.9c16.1-16.1,20.1-43.7,9.7-67.1c-0.1-0.3-0.3-0.6-0.5-0.9l-3.5-5.3c-0.2-0.3-0.5-0.6-0.7-0.9l-9.3-9.3
		c-2.9-2.9-6.8-4.5-10.8-4.5c-3.7,0-7.3,1.5-9.9,4.1l-27,27c-5.7,5.7-5.5,15,0.3,20.8l10.6,10.6l-36.1,36.1l-10.8-10.8
		C76.7,114.5,73,113,69,113c-3.8,0-7.4,1.5-10.2,4.2l-27,27c-2.7,2.7-4.3,6.5-4.5,10.4c-0.2,4.1,1.3,8.1,4.1,10.9L40.8,174.9z
		 M40.3,152.7l27-27c1-1,2.6-0.9,3.7,0.2l15,15c2.3,2.3,6.1,2.3,8.5,0l44.5-44.5c1.1-1.1,1.8-2.7,1.8-4.2s-0.6-3.1-1.8-4.2L124.2,73
		c-1.1-1.1-1.3-2.9-0.3-3.9l27-27c0.4-0.4,0.8-0.6,1.4-0.6c0.8,0,1.7,0.4,2.3,1l8.8,8.8l2.9,4.4c9.5,22,2.9,43-7.4,53.2L107,161
		c-7.9,7.9-19.2,12.2-32,12.2c-7.5,0-15-1.5-21.6-4.4l-4.6-2.8l-8.9-8.9c-0.6-0.6-0.6-1.5-0.6-1.9C39.4,154.2,39.8,153.3,40.3,152.7
		z"/>
</g>
</svg>
