<?xml version="1.0" encoding="utf-8"?>
<!-- Generator: Adobe Illustrator 17.0.0, SVG Export Plug-In . SVG Version: 6.00 Build 0)  -->
<!DOCTYPE svg PUBLIC "-//W3C//DTD SVG 1.1//EN" "http://www.w3.org/Graphics/SVG/1.1/DTD/svg11.dtd">
<svg version="1.1" id="Layer_1" xmlns="http://www.w3.org/2000/svg" xmlns:xlink="http://www.w3.org/1999/xlink" x="0px" y="0px"
	 width="216px" height="216px" viewBox="0 0 216 216" style="enable-background:new 0 0 216 216;" xml:space="preserve">
<path d="M156.411,71.6c-3.082-2.769-7.823-2.514-10.591,0.569l-50.17,55.871l-25.855-24.821c-2.988-2.87-7.736-2.771-10.604,0.216
	c-2.869,2.988-2.772,7.736,0.216,10.604l31.449,30.191c1.399,1.344,3.261,2.09,5.193,2.09c0.093,0,0.186-0.002,0.278-0.005
	c2.031-0.075,3.945-0.972,5.303-2.484L156.98,82.19C159.748,79.108,159.493,74.367,156.411,71.6z"/>
<path d="M108,18.402c-49.404,0-89.598,40.193-89.598,89.598S58.596,197.598,108,197.598s89.598-40.193,89.598-89.598
	S157.404,18.402,108,18.402z M108,182.598c-41.133,0-74.598-33.465-74.598-74.598S66.867,33.402,108,33.402
	S182.598,66.867,182.598,108S149.133,182.598,108,182.598z"/>
</svg>
