<?xml version="1.0" encoding="utf-8"?>
<!-- Generator: Adobe Illustrator 18.0.0, SVG Export Plug-In . SVG Version: 6.00 Build 0)  -->
<!DOCTYPE svg PUBLIC "-//W3C//DTD SVG 1.1//EN" "http://www.w3.org/Graphics/SVG/1.1/DTD/svg11.dtd">
<svg version="1.1" id="Layer_1" xmlns="http://www.w3.org/2000/svg" xmlns:xlink="http://www.w3.org/1999/xlink" x="0px" y="0px"
	 viewBox="0 0 216 216" enable-background="new 0 0 216 216" xml:space="preserve">
<g>
	<path d="M146.9,73.2l-51.2,57l-27-25.9c-2.4-2.3-6.2-2.2-8.5,0.2c-2.3,2.4-2.2,6.2,0.2,8.5l31.4,30.2c1.1,1.1,2.6,1.7,4.2,1.7
		c0.1,0,0.1,0,0.2,0c1.6-0.1,3.2-0.8,4.2-2l55.4-61.6c2.2-2.5,2-6.3-0.5-8.5C152.9,70.5,149.1,70.7,146.9,73.2z"/>
	<path d="M108,19.9c-48.6,0-88.1,39.5-88.1,88.1s39.5,88.1,88.1,88.1s88.1-39.5,88.1-88.1S156.6,19.9,108,19.9z M108,184.1
		c-42,0-76.1-34.1-76.1-76.1S66,31.9,108,31.9S184.1,66,184.1,108S150,184.1,108,184.1z"/>
</g>
</svg>
