<?xml version="1.0" encoding="utf-8"?>
<!-- Generator: Adobe Illustrator 18.0.0, SVG Export Plug-In . SVG Version: 6.00 Build 0)  -->
<!DOCTYPE svg PUBLIC "-//W3C//DTD SVG 1.1//EN" "http://www.w3.org/Graphics/SVG/1.1/DTD/svg11.dtd">
<svg version="1.1" id="Layer_1" xmlns="http://www.w3.org/2000/svg" xmlns:xlink="http://www.w3.org/1999/xlink" x="0px" y="0px"
	 viewBox="0 0 216 216" enable-background="new 0 0 216 216" xml:space="preserve">
<g>
	<path d="M110,188.9c3.3,0,6-2.7,6-6v-79.4l24.6,21.9c1.1,1,2.6,1.5,4,1.5c1.7,0,3.3-0.7,4.5-2c2.2-2.5,2-6.3-0.5-8.5l-34.6-30.7
		c-2.3-2.1-5.9-2-8.1,0.2l-32.1,30.7c-2.4,2.3-2.5,6.1-0.2,8.5c2.3,2.4,6.1,2.5,8.5,0.2l21.8-20.9v78.6
		C104,186.2,106.7,188.9,110,188.9z"/>
	<path d="M177.2,99c0.5-5.2,0.8-13.8-1.7-23.2c-3.6-13.9-13.9-32.3-42.2-40.8c-15.6-4.7-29.5-3.5-41.2,3.5
		c-15.8,9.5-23.2,27-26,35.9c-6.7-0.5-18.1-0.2-28.1,6.2c-9.1,5.8-15,15.1-17.7,27.7c-3.7,17.6,1.9,29.1,7.2,35.6
		c8.9,11,23.4,15.9,33.8,15.9H78c3.3,0,6-2.7,6-6s-2.7-6-6-6H61.4c-7.3,0-18-3.6-24.5-11.5c-5.3-6.6-6.9-15.2-4.8-25.6
		c1.9-9.3,6.1-16,12.3-20C55.2,84,69.1,87,69.2,87c1.6,0.4,3.2,0.1,4.6-0.8c1.4-0.9,2.3-2.3,2.6-3.8c0-0.2,5-23.4,21.9-33.5
		c8.7-5.2,19.3-6,31.6-2.3c43.5,13,35.2,53.1,34.8,54.8c-0.7,3,1,6,3.8,7c1,0.3,23.5,8.7,17.9,27.3c-3.8,12.8-19.3,12.3-19.9,12.3
		c-0.1,0-0.2,0-0.3,0H144c-3.3,0-6,2.7-6,6s2.7,6,6,6h22.1c0.4,0,0.8,0,1.2,0c9.2,0,25.7-4.2,30.7-20.9
		C204.2,118.4,189,104.9,177.2,99z"/>
</g>
</svg>
