<?xml version="1.0" encoding="utf-8"?>
<!-- Generator: Adobe Illustrator 17.0.0, SVG Export Plug-In . SVG Version: 6.00 Build 0)  -->
<!DOCTYPE svg PUBLIC "-//W3C//DTD SVG 1.1//EN" "http://www.w3.org/Graphics/SVG/1.1/DTD/svg11.dtd">
<svg version="1.1" id="Layer_1" xmlns="http://www.w3.org/2000/svg" xmlns:xlink="http://www.w3.org/1999/xlink" x="0px" y="0px"
	 width="216px" height="216px" viewBox="0 0 216 216" style="enable-background:new 0 0 216 216;" xml:space="preserve">
<path d="M108,28.789c-47.085,0-85.392,30.128-85.392,67.161c0,18.91,9.903,36.653,27.355,49.331l-5.86,33.124
	c-0.501,2.831,0.66,5.698,2.989,7.384c1.305,0.943,2.847,1.423,4.397,1.423c1.216,0,2.438-0.296,3.551-0.895l43.874-23.595
	c3.072,0.258,6.119,0.389,9.085,0.389c47.085,0,85.392-30.128,85.392-67.161S155.085,28.789,108,28.789z M108,148.111
	c-3.197,0-6.514-0.178-9.859-0.527c-1.498-0.154-3.008,0.142-4.333,0.854l-32.237,17.337l4.007-22.652
	c0.528-2.987-0.794-5.999-3.352-7.63C46.581,125.513,37.608,111.1,37.608,95.95c0-28.762,31.578-52.161,70.392-52.161
	s70.392,23.399,70.392,52.161S146.814,148.111,108,148.111z"/>
</svg>
