<?xml version="1.0" encoding="utf-8"?>
<!-- Generator: Adobe Illustrator 17.0.0, SVG Export Plug-In . SVG Version: 6.00 Build 0)  -->
<!DOCTYPE svg PUBLIC "-//W3C//DTD SVG 1.1//EN" "http://www.w3.org/Graphics/SVG/1.1/DTD/svg11.dtd">
<svg version="1.1" id="Layer_1" xmlns="http://www.w3.org/2000/svg" xmlns:xlink="http://www.w3.org/1999/xlink" x="0px" y="0px"
	 width="216px" height="216px" viewBox="0 0 216 216" style="enable-background:new 0 0 216 216;" xml:space="preserve">
<path d="M175.834,99.513c0.459-5.352,0.506-13.543-1.821-22.445c-3.713-14.207-14.225-32.967-43.212-41.656
	c-6.325-1.896-12.463-2.857-18.241-2.857c-29.255,0-44.713,24.584-50.442,42.073c-1.445-0.124-3.055-0.206-4.785-0.206
	c-21.696,0-36.766,12.539-41.347,34.401c-3.744,17.876,1.834,29.463,7.172,36.035C32.835,156.772,48.199,161,58.416,161h104.538
	c0.53,0.042,1.44,0.095,2.625,0.095c0.001,0,0.001,0,0.001,0c15.418,0,26.949-7.759,30.846-20.754
	C202.756,119.22,187.979,105.615,175.834,99.513z M182.057,136.034c-2.624,8.754-11.448,10.061-16.477,10.061c0,0,0,0-0.001,0
	c-0.907,0-1.477-0.051-1.482-0.051c0,0,0,0,0.001,0c-0.271-0.029-0.542-0.044-0.814-0.044H58.416c-7.228,0-17.7-3.317-23.615-10.6
	c-4.777-5.882-6.169-13.789-4.134-23.502c3.125-14.915,12.096-22.478,26.665-22.478c4.81,0,8.35,0.888,8.354,0.889
	c1.989,0.528,4.104,0.203,5.854-0.875c1.749-1.079,2.981-2.837,3.405-4.848c0.318-1.512,8.142-37.033,37.615-37.033
	c4.319,0,9.007,0.749,13.935,2.227c42.132,12.629,34.173,51.114,33.819,52.718c-0.854,3.731,1.269,7.518,4.887,8.77
	c0.062,0.021,6.22,2.184,11.317,6.715C182.416,123.226,184.177,128.962,182.057,136.034z"/>
</svg>
