<?xml version="1.0" encoding="utf-8"?>
<!-- Generator: Adobe Illustrator 17.0.0, SVG Export Plug-In . SVG Version: 6.00 Build 0)  -->
<!DOCTYPE svg PUBLIC "-//W3C//DTD SVG 1.1//EN" "http://www.w3.org/Graphics/SVG/1.1/DTD/svg11.dtd">
<svg version="1.1" id="Layer_1" xmlns="http://www.w3.org/2000/svg" xmlns:xlink="http://www.w3.org/1999/xlink" x="0px" y="0px"
	 width="216px" height="216px" viewBox="0 0 216 216" style="enable-background:new 0 0 216 216;" xml:space="preserve">
<path d="M109.5,189.433c4.143,0,7.5-3.357,7.5-7.5v-75.522l22.645,20.14c1.429,1.271,3.209,1.896,4.981,1.896
	c2.067,0,4.125-0.85,5.607-2.516c2.752-3.095,2.475-7.836-0.62-10.589l-34.551-30.729c-0.591-0.525-1.246-0.936-1.934-1.242
	c-1.076-0.596-2.312-0.937-3.628-0.937c-3.102,0-5.763,1.883-6.904,4.568l-29.762,28.532c-2.99,2.866-3.09,7.614-0.224,10.604
	c2.865,2.989,7.614,3.09,10.604,0.224L102,108.351v73.582C102,186.075,105.357,189.433,109.5,189.433z"/>
<path d="M178.829,97.736c0.463-5.36,0.519-13.596-1.814-22.544c-3.714-14.237-14.225-33.033-43.214-41.724
	c-16.018-4.8-30.266-3.581-42.345,3.63c-15.565,9.292-23.118,26.173-26.278,35.615c-7.048-0.529-18.063-0.031-27.877,6.105
	c-9.432,5.899-15.594,15.478-18.315,28.467c-3.769,17.989,1.891,29.705,7.301,36.366c9.76,12.017,25.024,16.28,35.13,16.28H78
	c4.143,0,7.5-3.357,7.5-7.5s-3.357-7.5-7.5-7.5H61.416c-7.111,0-17.495-3.36-23.486-10.736c-4.883-6.012-6.316-14.03-4.263-23.834
	c1.843-8.799,5.714-15.114,11.504-18.772c10.156-6.414,23.5-3.285,23.602-3.263c1.976,0.495,4.072,0.159,5.804-0.921
	c1.729-1.08,2.946-2.826,3.367-4.821c0.049-0.229,5.02-23,21.267-32.646c8.303-4.93,18.491-5.639,30.284-2.102
	c42.138,12.631,34.172,51.238,33.818,52.847c-0.851,3.73,1.243,7.504,4.859,8.755c0.901,0.313,22.035,7.847,16.885,25.027
	c-3.368,11.233-16.668,10.603-18.136,10.493c-0.212-0.019-0.425-0.027-0.638-0.027H144c-4.143,0-7.5,3.357-7.5,7.5
	s3.357,7.5,7.5,7.5h21.99c0.689,0.05,1.428,0.077,2.208,0.077c9.827-0.001,26.146-4.287,31.228-21.236
	C205.754,117.66,190.96,103.925,178.829,97.736z"/>
</svg>
