<?xml version="1.0" encoding="utf-8"?>
<!-- Generator: Adobe Illustrator 18.0.0, SVG Export Plug-In . SVG Version: 6.00 Build 0)  -->
<!DOCTYPE svg PUBLIC "-//W3C//DTD SVG 1.1//EN" "http://www.w3.org/Graphics/SVG/1.1/DTD/svg11.dtd">
<svg version="1.1" id="Layer_1" xmlns="http://www.w3.org/2000/svg" xmlns:xlink="http://www.w3.org/1999/xlink" x="0px" y="0px"
	 viewBox="0 0 216 216" enable-background="new 0 0 216 216" xml:space="preserve">
<g>
	<path d="M108,30.3c-46.3,0-83.9,29.5-83.9,65.7c0,18.7,10,36.2,27.5,48.7l-6,34.1c-0.4,2.3,0.5,4.6,2.4,5.9c1,0.8,2.3,1.1,3.5,1.1
		c1,0,2-0.2,2.8-0.7l44.3-23.8c3.2,0.3,6.3,0.4,9.4,0.4c46.3,0,83.9-29.5,83.9-65.7S154.3,30.3,108,30.3z M108,149.6
		c-3.2,0-6.6-0.2-10-0.5c-1.2-0.1-2.4,0.1-3.5,0.7l-35,18.8l4.5-25.7c0.4-2.4-0.6-4.8-2.7-6.1c-16.1-10.3-25.3-25.1-25.3-40.8
		c0-29.6,32.3-53.7,71.9-53.7s71.9,24.1,71.9,53.7S147.6,149.6,108,149.6z"/>
</g>
</svg>
