<?xml version="1.0" encoding="utf-8"?>
<!-- Generator: Adobe Illustrator 18.0.0, SVG Export Plug-In . SVG Version: 6.00 Build 0)  -->
<!DOCTYPE svg PUBLIC "-//W3C//DTD SVG 1.1//EN" "http://www.w3.org/Graphics/SVG/1.1/DTD/svg11.dtd">
<svg version="1.1" id="Layer_1" xmlns="http://www.w3.org/2000/svg" xmlns:xlink="http://www.w3.org/1999/xlink" x="0px" y="0px"
	 viewBox="0 0 216 216" enable-background="new 0 0 216 216" xml:space="preserve">
<g>
	<path d="M67,149c1.2,1.2,2.7,1.8,4.2,1.8c1.5,0,3.1-0.6,4.2-1.8l32.6-32.6l32.6,32.6c1.2,1.2,2.7,1.8,4.2,1.8s3.1-0.6,4.2-1.8
		c2.3-2.3,2.3-6.1,0-8.5L116.5,108L149,75.4c2.3-2.3,2.3-6.1,0-8.5s-6.1-2.3-8.5,0L108,99.5L75.4,67c-2.3-2.3-6.1-2.3-8.5,0
		c-2.3,2.3-2.3,6.1,0,8.5L99.5,108L67,140.6C64.6,142.9,64.6,146.7,67,149z"/>
	<path d="M108,196.1c48.6,0,88.1-39.5,88.1-88.1S156.6,19.9,108,19.9S19.9,59.4,19.9,108S59.4,196.1,108,196.1z M108,31.9
		c42,0,76.1,34.1,76.1,76.1S150,184.1,108,184.1S31.9,150,31.9,108S66,31.9,108,31.9z"/>
</g>
</svg>
