<?xml version="1.0" encoding="utf-8"?>
<!-- Generator: Adobe Illustrator 18.0.0, SVG Export Plug-In . SVG Version: 6.00 Build 0)  -->
<!DOCTYPE svg PUBLIC "-//W3C//DTD SVG 1.1//EN" "http://www.w3.org/Graphics/SVG/1.1/DTD/svg11.dtd">
<svg version="1.1" id="Layer_1" xmlns="http://www.w3.org/2000/svg" xmlns:xlink="http://www.w3.org/1999/xlink" x="0px" y="0px"
	 viewBox="0 0 216 216" enable-background="new 0 0 216 216" xml:space="preserve">
<g>
	<path d="M43,186h129c3.3,0,6-2.7,6-6v-54c0-3.3-2.7-6-6-6s-6,2.7-6,6v48H49v-48c0-3.3-2.7-6-6-6s-6,2.7-6,6v54
		C37,183.3,39.7,186,43,186z"/>
	<path d="M108,31c-3.3,0-6,2.7-6,6v91.4L63.9,93c-2.4-2.3-6.2-2.1-8.5,0.3c-2.3,2.4-2.1,6.2,0.3,8.5l48,44.5c0.6,0.6,1.4,1,2.2,1.3
		c0.7,0.2,1.4,0.4,2.1,0.4c2.1,0,3.9-1.1,5-2.7l47.3-43.5c2.4-2.2,2.6-6,0.4-8.5c-2.2-2.4-6-2.6-8.5-0.4L114,128.1V37
		C114,33.7,111.3,31,108,31z"/>
</g>
</svg>
