<?xml version="1.0" encoding="utf-8"?>
<!-- Generator: Adobe Illustrator 18.0.0, SVG Export Plug-In . SVG Version: 6.00 Build 0)  -->
<!DOCTYPE svg PUBLIC "-//W3C//DTD SVG 1.1//EN" "http://www.w3.org/Graphics/SVG/1.1/DTD/svg11.dtd">
<svg version="1.1" id="Layer_1" xmlns="http://www.w3.org/2000/svg" xmlns:xlink="http://www.w3.org/1999/xlink" x="0px" y="0px"
	 viewBox="0 0 216 216" enable-background="new 0 0 216 216" xml:space="preserve">
<g>
	<path d="M30,124h35c2.3,0,4.2-1.3,5.3-3.1c7.4,2.7,16.5,7,19.7,12.4c6.9,11.3,21.1,45.5,21.2,45.8c0.8,2,2.7,3.4,4.9,3.7
		c0.2,0,1.3,0.1,2.9,0.1c3.8,0,9.5-0.6,14.6-3.5c4.8-2.7,10.5-8.3,10.5-19.5c0-11.1-2.2-21.4-4.2-28.6c2.2,0.2,4.5,0.4,7,0.4
		c13.2,0,23.1-4.1,28.6-12c11.4-16.2,8.4-32.8,5.8-47.4c-0.2-0.9-0.3-1.9-0.5-2.8c-2.4-13.8-5.7-32.6-21.6-35.4
		c-6.2-1.1-20.1-2.9-33.1-2.9c-10.2,0-17.6,1.1-22.4,3.4c-5.3,2.5-9.2,5.1-12.3,7.2c-3.7,2.5-5.9,3.9-8,4.1C82.6,46,81.7,46,80.7,46
		c-3.3,0-7.5-0.3-10.9-0.7c0.1-0.4,0.2-0.8,0.2-1.2c0.2-3.3-2.4-6.1-5.7-6.3l-34-1.8c-1.7-0.1-3.2,0.5-4.4,1.6
		c-1.2,1.1-1.9,2.7-1.9,4.4V118C24,121.3,26.7,124,30,124z M84.5,57.9c5.2-0.5,9.2-3.2,13.5-6.1c2.9-2,6.3-4.2,10.7-6.3
		c1.8-0.8,6.4-2.3,17.3-2.3c12.2,0,25.2,1.7,31,2.8c5,0.9,8.3,5.2,11.9,25.6c0.2,1,0.3,1.9,0.5,2.9c2.4,13.5,4.7,26.2-3.8,38.4
		c-4,5.7-12.4,6.9-18.7,6.9c-7.7,0-14.3-1.7-14.4-1.7c-2.2-0.6-4.6,0.1-6.1,1.9c-1.5,1.7-1.9,4.2-1,6.3c0.1,0.2,6.6,16,6.6,33.8
		c0,5.8-2.5,8-4.5,9c-2.2,1.3-4.9,1.7-6.9,1.9c-3.9-9.4-14.5-33.9-20.5-43.8c-6.5-10.6-23-16.7-31.2-19.2V57.3
		c3.6,0.4,8,0.7,11.7,0.7C82.2,58,83.4,58,84.5,57.9z M36,48.4l21.1,1.1c-0.1,0.3-0.1,0.7-0.1,1V112H36V48.4z"/>
</g>
</svg>
