<?xml version="1.0" encoding="utf-8"?>
<!-- Generator: Adobe Illustrator 17.0.0, SVG Export Plug-In . SVG Version: 6.00 Build 0)  -->
<!DOCTYPE svg PUBLIC "-//W3C//DTD SVG 1.1//EN" "http://www.w3.org/Graphics/SVG/1.1/DTD/svg11.dtd">
<svg version="1.1" id="Layer_1" xmlns="http://www.w3.org/2000/svg" xmlns:xlink="http://www.w3.org/1999/xlink" x="0px" y="0px"
	 width="216px" height="216px" viewBox="0 0 216 216" style="enable-background:new 0 0 216 216;" xml:space="preserve">
<path d="M26.277,36.747C24.821,38.159,24,40.102,24,42.13v74.37c0,4.143,3.357,7.5,7.5,7.5H65c1.979,0,3.774-0.772,5.114-2.025
	c7.341,2.689,16.284,7.064,19.341,12.066c6.824,11.166,20.569,45.222,20.707,45.563c1.028,2.552,3.37,4.336,6.103,4.649
	c0.214,0.024,1.367,0.146,3.075,0.146c3.995,0,9.879-0.64,15.218-3.687c7.23-4.127,11.212-11.505,11.212-20.775
	c0-10.247-1.848-19.784-3.742-26.871c1.569,0.111,3.223,0.179,4.923,0.179c13.679,0,23.968-4.362,29.757-12.615
	c11.713-16.697,8.711-33.553,6.063-48.424c-0.173-0.968-0.345-1.934-0.513-2.897c-2.468-14.19-5.849-33.626-22.854-36.626
	c-6.217-1.098-20.235-2.955-33.345-2.955c-10.45,0-18.001,1.163-23.082,3.555c-5.62,2.645-9.509,5.4-12.633,7.615
	c-3.13,2.218-4.837,3.383-6.413,3.54c-0.644,0.064-1.466,0.098-2.443,0.098c-2.849,0-6.315-0.273-9.287-0.575
	c0.022-0.198,0.042-0.396,0.048-0.599c0.125-4.14-3.13-7.598-7.271-7.723l-33.25-1.006C29.708,34.558,27.733,35.336,26.277,36.747z
	 M85.423,59.364c5.594-0.56,9.479-3.313,13.593-6.228c2.779-1.97,5.929-4.202,10.347-6.281c1.358-0.64,5.705-2.127,16.695-2.127
	c10.507,0,23.299,1.414,30.738,2.727c5.58,0.985,8.06,9.344,10.684,24.425c0.171,0.984,0.347,1.97,0.522,2.957
	c2.445,13.73,4.557,25.588-3.574,37.181c-3.611,5.147-11.497,6.229-17.478,6.229c-7.428,0-13.89-1.657-13.941-1.671
	c-2.769-0.73-5.714,0.18-7.587,2.348c-1.873,2.167-2.349,5.212-1.225,7.847c0.065,0.154,6.572,15.613,6.572,33.169
	c0,5.021-1.949,6.778-3.647,7.748c-1.309,0.747-3.053,1.275-4.999,1.534c-4.169-10.109-13.978-33.362-19.869-43.002
	C95.841,115.725,80.519,109.51,72,106.748V59.014c3.064,0.286,6.495,0.522,9.486,0.522C82.982,59.536,84.271,59.479,85.423,59.364z
	 M39,49.86l18.01,0.544C57.008,50.466,57,50.526,57,50.587V109H39V49.86z"/>
</svg>
