<?xml version="1.0" encoding="utf-8"?>
<!-- Generator: Adobe Illustrator 17.0.0, SVG Export Plug-In . SVG Version: 6.00 Build 0)  -->
<!DOCTYPE svg PUBLIC "-//W3C//DTD SVG 1.1//EN" "http://www.w3.org/Graphics/SVG/1.1/DTD/svg11.dtd">
<svg version="1.1" id="Layer_1" xmlns="http://www.w3.org/2000/svg" xmlns:xlink="http://www.w3.org/1999/xlink" x="0px" y="0px"
	 width="216px" height="216px" viewBox="0 0 216 216" style="enable-background:new 0 0 216 216;" xml:space="preserve">
<path d="M51.115,94.048l47.771,42.488c1.264,2.359,3.75,3.964,6.614,3.964c0.332,0,0.656-0.029,0.976-0.071
	c1.757-0.08,3.489-0.767,4.849-2.07l46.419-44.501c2.99-2.867,3.09-7.614,0.224-10.604c-2.866-2.989-7.613-3.09-10.604-0.224
	L113,115.974V28c0-4.142-3.357-7.5-7.5-7.5S98,23.858,98,28v87.673L61.084,82.84c-3.095-2.753-7.835-2.477-10.588,0.62
	C47.743,86.555,48.02,91.296,51.115,94.048z"/>
<path d="M42.5,186h129c4.143,0,7.5-3.357,7.5-7.5V126c0-4.143-3.357-7.5-7.5-7.5s-7.5,3.357-7.5,7.5v45H50v-45
	c0-4.143-3.358-7.5-7.5-7.5S35,121.857,35,126v52.5C35,182.643,38.358,186,42.5,186z"/>
</svg>
