<?xml version="1.0" encoding="utf-8"?>
<!-- Generator: Adobe Illustrator 18.0.0, SVG Export Plug-In . SVG Version: 6.00 Build 0)  -->
<!DOCTYPE svg PUBLIC "-//W3C//DTD SVG 1.1//EN" "http://www.w3.org/Graphics/SVG/1.1/DTD/svg11.dtd">
<svg version="1.1" id="Layer_1" xmlns="http://www.w3.org/2000/svg" xmlns:xlink="http://www.w3.org/1999/xlink" x="0px" y="0px"
	 viewBox="0 0 216 216" enable-background="new 0 0 216 216" xml:space="preserve">
<g>
	<path d="M40.4,110.3l-4.1,23c-0.4,2.3,0.5,4.6,2.4,5.9c1,0.8,2.3,1.1,3.5,1.1c1,0,2-0.2,2.8-0.7l24-12.9
		c5.2,22.5,30.2,39.6,60.1,39.6c2.1,0,4.2-0.1,6.3-0.3l30.9,16.6c0.9,0.5,1.9,0.7,2.8,0.7c1.2,0,2.5-0.4,3.5-1.1
		c1.9-1.3,2.8-3.6,2.4-5.9l-4.1-23c12.3-9.1,19.3-21.7,19.3-35.2c0-22.4-19.7-41.9-47.2-47c-2.6-24.7-28.9-44.3-60.9-44.3
		c-33.7,0-61.1,21.6-61.1,48.2C21.1,88.6,28.1,101.3,40.4,110.3z M178.3,118.1c0,10.5-6.2,20.5-17.1,27.4c-2,1.3-3.1,3.7-2.7,6.1
		l2.6,14.6l-21.6-11.6c-1.1-0.6-2.3-0.8-3.5-0.7c-2.3,0.2-4.7,0.4-6.9,0.4c-24.7,0-45.2-13.5-48.6-31c0.5,0,1.1,0,1.6,0
		c30.2,0,55.3-17.4,60.2-40.1C163.4,87.6,178.3,101.9,178.3,118.1z M82.2,38.9c27.1,0,49.1,16.2,49.1,36.2s-22,36.2-49.1,36.2
		c-2.2,0-4.6-0.1-6.9-0.4c-1.2-0.1-2.4,0.1-3.5,0.7l-21.6,11.6l2.6-14.6c0.4-2.4-0.6-4.8-2.7-6.1c-10.9-6.9-17.1-16.9-17.1-27.4
		C33.1,55.2,55.1,38.9,82.2,38.9z"/>
</g>
</svg>
