<?xml version="1.0" encoding="utf-8"?>
<!-- Generator: Adobe Illustrator 17.0.0, SVG Export Plug-In . SVG Version: 6.00 Build 0)  -->
<!DOCTYPE svg PUBLIC "-//W3C//DTD SVG 1.1//EN" "http://www.w3.org/Graphics/SVG/1.1/DTD/svg11.dtd">
<svg version="1.1" id="Layer_1" xmlns="http://www.w3.org/2000/svg" xmlns:xlink="http://www.w3.org/1999/xlink" x="0px" y="0px"
	 width="216px" height="216px" viewBox="0 0 216 216" style="enable-background:new 0 0 216 216;" xml:space="preserve">
<path d="M38.762,110.989l-3.911,22.105c-0.501,2.831,0.66,5.698,2.989,7.384c1.305,0.943,2.847,1.423,4.396,1.423
	c1.217,0,2.438-0.296,3.552-0.895l22.342-12.014c6.259,22.205,31.266,38.855,61.093,38.855c1.952,0,3.948-0.077,5.959-0.229
	l30.477,16.389c1.114,0.599,2.334,0.895,3.551,0.895c1.55,0,3.092-0.479,4.397-1.423c2.329-1.686,3.49-4.553,2.989-7.384
	l-3.911-22.105c12.237-9.327,19.154-22.166,19.154-35.857c0-22.865-19.736-42.767-47.349-48.231
	c-3.303-24.964-29.966-44.485-62.268-44.485c-34.527,0-62.617,22.303-62.617,49.717C19.608,88.823,26.525,101.662,38.762,110.989z
	 M143.588,85.045c19.514,4.539,33.253,17.955,33.253,33.086c0,9.956-5.98,19.48-16.406,26.131c-2.558,1.631-3.88,4.643-3.352,7.63
	l2.047,11.571l-18.824-10.123c-1.326-0.713-2.836-1.014-4.333-0.854c-2.286,0.239-4.556,0.36-6.748,0.36
	c-23.107,0-42.415-12.064-46.716-28.006C112.634,124.734,137.803,107.653,143.588,85.045z M82.225,40.415
	c26.256,0,47.617,15.574,47.617,34.717s-21.361,34.716-47.617,34.716c-2.192,0-4.462-0.121-6.748-0.36
	c-1.499-0.156-3.007,0.141-4.333,0.854l-18.825,10.123l2.047-11.571c0.528-2.987-0.794-5.999-3.352-7.63
	c-10.426-6.65-16.406-16.175-16.406-26.131C34.608,55.989,55.969,40.415,82.225,40.415z"/>
</svg>
