<?xml version="1.0" encoding="utf-8"?>
<!-- Generator: Adobe Illustrator 17.0.0, SVG Export Plug-In . SVG Version: 6.00 Build 0)  -->
<!DOCTYPE svg PUBLIC "-//W3C//DTD SVG 1.1//EN" "http://www.w3.org/Graphics/SVG/1.1/DTD/svg11.dtd">
<svg version="1.1" id="Layer_1" xmlns="http://www.w3.org/2000/svg" xmlns:xlink="http://www.w3.org/1999/xlink" x="0px" y="0px"
	 width="216px" height="216px" viewBox="0 0 216 216" style="enable-background:new 0 0 216 216;" xml:space="preserve">
<path d="M34,174.391c0,4.143,3.467,7.609,7.609,7.609h41.932c4.143,0,7.5-3.357,7.5-7.5s-3.357-7.5-7.5-7.5H59.717l31.634-31.688
	c2.929-2.93,2.929-7.705,0-10.635c-2.93-2.928-7.732-2.941-10.662-0.014L49,156.283v-25.65c0-4.143-3.357-7.5-7.5-7.5
	s-7.5,3.357-7.5,7.5V174.391z"/>
<path d="M123.643,174.5c0,4.143,3.357,7.5,7.5,7.5h43.248c4.143,0,7.609-3.467,7.609-7.609v-42.504c0-4.143-3.357-7.5-7.5-7.5
	s-7.5,3.357-7.5,7.5v22.989l-30.281-30.227c-2.93-2.928-7.705-2.928-10.635,0c-2.929,2.93-2.942,7.732-0.014,10.662L157.69,167
	h-26.548C127,167,123.643,170.357,123.643,174.5z"/>
<path d="M93.547,41.5c0-4.143-3.357-7.5-7.5-7.5H41.609C37.467,34,34,37.467,34,41.609v42.914c0,4.143,3.357,7.5,7.5,7.5
	s7.5-3.357,7.5-7.5V58.31l31.688,31.634c1.465,1.464,3.412,2.196,5.331,2.196s3.853-0.732,5.317-2.196
	c2.929-2.93,2.936-7.732,0.007-10.662L61.124,49h24.923C90.189,49,93.547,45.643,93.547,41.5z"/>
<path d="M126.057,89.943c1.465,1.464,3.385,2.196,5.304,2.196s3.894-0.732,5.358-2.196L167,59.717v24.807c0,4.143,3.357,7.5,7.5,7.5
	s7.5-3.357,7.5-7.5V41.609c0-4.143-3.467-7.609-7.609-7.609h-40.742c-4.143,0-7.5,3.357-7.5,7.5s3.357,7.5,7.5,7.5h22.635
	l-30.227,30.281C123.128,82.211,123.128,87.014,126.057,89.943z"/>
</svg>
