<?xml version="1.0" encoding="utf-8"?>
<!-- Generator: Adobe Illustrator 17.0.0, SVG Export Plug-In . SVG Version: 6.00 Build 0)  -->
<!DOCTYPE svg PUBLIC "-//W3C//DTD SVG 1.1//EN" "http://www.w3.org/Graphics/SVG/1.1/DTD/svg11.dtd">
<svg version="1.1" id="Layer_1" xmlns="http://www.w3.org/2000/svg" xmlns:xlink="http://www.w3.org/1999/xlink" x="0px" y="0px"
	 width="216px" height="216px" viewBox="0 0 216 216" style="enable-background:new 0 0 216 216;" xml:space="preserve">
<path d="M179,184.5V79.93c0-2.081-0.865-4.068-2.387-5.487l-49.827-46.43C125.398,26.72,123.571,26,121.673,26H48.5
	c-4.142,0-7.5,3.357-7.5,7.5V102c0,4.143,3.358,7.5,7.5,7.5s7.5-3.357,7.5-7.5V41h55v50.5c0,4.143,3.358,7.5,7.5,7.5H163
	c0.34,0,0.672-0.031,1-0.074V177H56v-21c0-4.143-3.358-7.5-7.5-7.5S41,151.857,41,156v28.5c0,4.143,3.358,7.5,7.5,7.5h123
	C175.642,192,179,188.643,179,184.5z M163,84h-37V47.783l38,35.409v0.882C163.672,84.031,163.34,84,163,84z"/>
<path d="M26.5,128.5c0,4.143,3.358,7.5,7.5,7.5h57.051l-15.822,14.108c-3.091,2.757-3.363,7.498-0.606,10.589
	c1.481,1.662,3.536,2.509,5.6,2.509c1.776,0,3.559-0.627,4.989-1.902l28.648-25.546c3.24-0.829,5.639-3.759,5.639-7.258
	c0-2.089-0.855-3.976-2.232-5.336c-0.255-0.316-0.529-0.619-0.837-0.894L85.212,94.433c-3.091-2.756-7.832-2.486-10.589,0.606
	c-2.757,3.091-2.485,7.832,0.606,10.589L92.468,121H34C29.858,121,26.5,124.357,26.5,128.5z"/>
</svg>
