<?xml version="1.0" encoding="utf-8"?>
<!-- Generator: Adobe Illustrator 17.0.0, SVG Export Plug-In . SVG Version: 6.00 Build 0)  -->
<!DOCTYPE svg PUBLIC "-//W3C//DTD SVG 1.1//EN" "http://www.w3.org/Graphics/SVG/1.1/DTD/svg11.dtd">
<svg version="1.1" id="Layer_1" xmlns="http://www.w3.org/2000/svg" xmlns:xlink="http://www.w3.org/1999/xlink" x="0px" y="0px"
	 width="216px" height="216px" viewBox="0 0 216 216" style="enable-background:new 0 0 216 216;" xml:space="preserve">
<path d="M186.725,59.247l-29.722-29.722c-2.93-2.929-7.678-2.929-10.607-0.001l-21.927,21.927c-0.633,0.339-1.228,0.773-1.762,1.307
	c-0.534,0.534-0.968,1.13-1.307,1.763L86.312,89.606c-1.379,1.38-2.167,3.24-2.195,5.191l-0.446,30.623
	c-0.029,2.025,0.761,3.967,2.192,5.399c1.408,1.41,3.317,2.18,5.307,2.18c0.033,0,0.066,0,0.1,0l29.656-0.375
	c1.954-0.025,3.821-0.794,5.204-2.176l35.596-35.596c0.634-0.34,1.231-0.774,1.766-1.309c0.535-0.535,0.97-1.132,1.31-1.767
	l21.923-21.923C189.653,66.925,189.653,62.176,186.725,59.247z M117.679,117.687l-18.897,0.252l0.29-19.875l29.167-29.167
	l19.115,19.115L117.679,117.687z M157.96,77.405L138.845,58.29l12.854-12.854l19.115,19.115L157.96,77.405z"/>
<path d="M106,48c4.143,0,7.5-3.358,7.5-7.5S110.143,33,106,33H47.5c-4.143,0-7.5,3.358-7.5,7.5v137c0,4.143,3.357,7.5,7.5,7.5h112
	c4.143,0,7.5-3.357,7.5-7.5V123c0-4.143-3.357-7.5-7.5-7.5s-7.5,3.357-7.5,7.5v47H55V48H106z"/>
</svg>
