<?xml version="1.0" encoding="utf-8"?>
<!-- Generator: Adobe Illustrator 18.0.0, SVG Export Plug-In . SVG Version: 6.00 Build 0)  -->
<!DOCTYPE svg PUBLIC "-//W3C//DTD SVG 1.1//EN" "http://www.w3.org/Graphics/SVG/1.1/DTD/svg11.dtd">
<svg version="1.1" id="Layer_1" xmlns="http://www.w3.org/2000/svg" xmlns:xlink="http://www.w3.org/1999/xlink" x="0px" y="0px"
	 viewBox="0 0 216 216" enable-background="new 0 0 216 216" xml:space="preserve">
<g>
	<path d="M176,186V79.9c0-1.7-0.7-3.3-1.9-4.4l-48.3-44.9c-1.1-1-2.6-1.6-4.1-1.6H47c-3.3,0-6,2.7-6,6v67c0,3.3,2.7,6,6,6s6-2.7,6-6
		V41h61v46c0,3.3,2.7,6,6,6h43c0.3,0,0.7,0,1-0.1V180H53v-24c0-3.3-2.7-6-6-6s-6,2.7-6,6v30c0,3.3,2.7,6,6,6h123
		C173.3,192,176,189.3,176,186z M126,47.2L162.3,81H126V47.2z"/>
	<path d="M27,128c0,3.3,2.7,6,6,6h62.5l-19.3,17.2c-2.5,2.2-2.7,6-0.5,8.5c1.2,1.3,2.8,2,4.5,2c1.4,0,2.8-0.5,4-1.5l31.2-27.8
		c1.3-1.1,2-2.8,2-4.5s-0.7-3.3-2-4.5L84.2,95.6c-2.5-2.2-6.3-2-8.5,0.5c-2.2,2.5-2,6.3,0.5,8.5L95.8,122H33
		C29.7,122,27,124.7,27,128z"/>
</g>
</svg>
