<?xml version="1.0" encoding="utf-8"?>
<!-- Generator: Adobe Illustrator 18.0.0, SVG Export Plug-In . SVG Version: 6.00 Build 0)  -->
<!DOCTYPE svg PUBLIC "-//W3C//DTD SVG 1.1//EN" "http://www.w3.org/Graphics/SVG/1.1/DTD/svg11.dtd">
<svg version="1.1" id="Layer_1" xmlns="http://www.w3.org/2000/svg" xmlns:xlink="http://www.w3.org/1999/xlink" x="0px" y="0px"
	 viewBox="0 0 216 216" enable-background="new 0 0 216 216" xml:space="preserve">
<g>
	<path d="M36,174.4c0,3.3,2.3,5.6,5.6,5.6h41.9c3.3,0,6-2.7,6-6s-2.7-6-6-6H56.1l34.2-34c2.3-2.3,2.3-6,0-8.4
		c-2.3-2.3-5.9-2.3-8.3,0l-34,34.2v-29.3c0-3.3-2.7-6-6-6s-6,2.7-6,6V174.4z"/>
	<path d="M125.1,174c0,3.3,2.7,6,6,6h43.2c3.3,0,5.6-2.3,5.6-5.6v-42.5c0-3.3-2.7-6-6-6s-6,2.7-6,6v26.6l-32.6-32.8
		c-2.3-2.3-6-2.3-8.4,0c-2.3,2.3-2.3,5.9,0,8.3l34.2,34h-30.2C127.8,168,125.1,170.7,125.1,174z"/>
	<path d="M92,42c0-3.3-2.7-6-6-6H41.6c-3.3,0-5.6,2.3-5.6,5.6v42.9c0,3.3,2.7,6,6,6s6-2.7,6-6V54.7l34,34.2c1.2,1.2,2.6,1.8,4.1,1.8
		s3-0.6,4.2-1.8c2.3-2.3,2.3-5.9,0-8.3L57.5,48H86C89.4,48,92,45.3,92,42z"/>
	<path d="M127.1,88.9c1.2,1.2,2.7,1.8,4.2,1.8s2.9-0.6,4-1.8L168,56.1v28.4c0,3.3,2.7,6,6,6s6-2.7,6-6V41.6c0-3.3-2.3-5.6-5.6-5.6
		h-40.7c-3.3,0-6,2.7-6,6s2.7,6,6,6h26.3l-32.8,32.6C124.8,82.9,124.8,86.5,127.1,88.9z"/>
</g>
</svg>
