<?xml version="1.0" encoding="utf-8"?>
<!-- Generator: Adobe Illustrator 17.0.0, SVG Export Plug-In . SVG Version: 6.00 Build 0)  -->
<!DOCTYPE svg PUBLIC "-//W3C//DTD SVG 1.1//EN" "http://www.w3.org/Graphics/SVG/1.1/DTD/svg11.dtd">
<svg version="1.1" id="Layer_1" xmlns="http://www.w3.org/2000/svg" xmlns:xlink="http://www.w3.org/1999/xlink" x="0px" y="0px"
	 width="216px" height="216px" viewBox="0 0 216 216" style="enable-background:new 0 0 216 216;" xml:space="preserve">
<path d="M107.743,54.838c-64.359,0-84.588,48.502-85.417,50.567c-0.749,1.865-0.719,3.954,0.085,5.796
	c0.244,0.56,6.132,13.85,19.604,27.082c12.485,12.262,34.141,26.879,66.406,26.879s53.921-14.617,66.406-26.879
	c13.472-13.232,19.36-26.522,19.604-27.082c0.83-1.902,0.835-4.064,0.013-5.97C193.556,103.173,171.967,54.838,107.743,54.838z
	 M107.598,71.419c12.372,0,22.437,10.065,22.437,22.436c0,12.372-10.065,22.437-22.437,22.437
	c-12.371,0-22.436-10.065-22.436-22.437C85.162,81.484,95.227,71.419,107.598,71.419z M108.421,150.162
	c-44.546,0-65.355-31.98-70.794-42.033c3.585-6.779,14.407-23.559,37.281-32.487c-3.018,5.395-4.746,11.605-4.746,18.213
	c0,20.643,16.794,37.437,37.436,37.437c20.643,0,37.437-16.794,37.437-37.437c0-6.702-1.779-12.993-4.877-18.441
	c23.576,8.864,35.121,25.877,38.991,32.785C173.591,118.259,152.48,150.162,108.421,150.162z"/>
</svg>
