<?xml version="1.0" encoding="utf-8"?>
<!-- Generator: Adobe Illustrator 17.0.0, SVG Export Plug-In . SVG Version: 6.00 Build 0)  -->
<!DOCTYPE svg PUBLIC "-//W3C//DTD SVG 1.1//EN" "http://www.w3.org/Graphics/SVG/1.1/DTD/svg11.dtd">
<svg version="1.1" id="Layer_1" xmlns="http://www.w3.org/2000/svg" xmlns:xlink="http://www.w3.org/1999/xlink" x="0px" y="0px"
	 width="216px" height="216px" viewBox="0 0 216 216" style="enable-background:new 0 0 216 216;" xml:space="preserve">
<path d="M189.05,33.847C187.726,31.472,185.22,30,182.5,30h-149c-2.688,0-5.17,1.438-6.507,3.771c-1.336,2.331-1.323,5.2,0.035,7.52
	L79,130.034V181.5c0,4.143,3.357,7.5,7.5,7.5h40c4.143,0,7.5-3.357,7.5-7.5v-51.196l54.881-88.862
	C190.31,39.127,190.375,36.222,189.05,33.847z M120.119,124.233c-0.731,1.185-1.119,2.55-1.119,3.941V174H94v-46
	c0-1.332-0.354-2.641-1.028-3.79L46.584,45h122.469L120.119,124.233z"/>
</svg>
