<?xml version="1.0" encoding="utf-8"?>
<!-- Generator: Adobe Illustrator 18.0.0, SVG Export Plug-In . SVG Version: 6.00 Build 0)  -->
<!DOCTYPE svg PUBLIC "-//W3C//DTD SVG 1.1//EN" "http://www.w3.org/Graphics/SVG/1.1/DTD/svg11.dtd">
<svg version="1.1" id="Layer_1" xmlns="http://www.w3.org/2000/svg" xmlns:xlink="http://www.w3.org/1999/xlink" x="0px" y="0px"
	 viewBox="0 0 216 216" enable-background="new 0 0 216 216" xml:space="preserve">
<g>
	<path d="M169,42c0-3.3-2.7-6-6-6H53c-3.3,0-6,2.7-6,6v138c0,3.3,2.7,6,6,6h110c3.3,0,6-2.7,6-6V42z M59,48h98v126H59V48z"/>
	<path d="M135,71H81c-3.3,0-6,2.7-6,6s2.7,6,6,6h54c3.3,0,6-2.7,6-6S138.3,71,135,71z"/>
	<path d="M135,103H81c-3.3,0-6,2.7-6,6s2.7,6,6,6h54c3.3,0,6-2.7,6-6S138.3,103,135,103z"/>
	<path d="M135,137H81c-3.3,0-6,2.7-6,6s2.7,6,6,6h54c3.3,0,6-2.7,6-6S138.3,137,135,137z"/>
</g>
</svg>
