<?xml version="1.0" encoding="utf-8"?>
<!-- Generator: Adobe Illustrator 17.0.0, SVG Export Plug-In . SVG Version: 6.00 Build 0)  -->
<!DOCTYPE svg PUBLIC "-//W3C//DTD SVG 1.1//EN" "http://www.w3.org/Graphics/SVG/1.1/DTD/svg11.dtd">
<svg version="1.1" id="Layer_1" xmlns="http://www.w3.org/2000/svg" xmlns:xlink="http://www.w3.org/1999/xlink" x="0px" y="0px"
	 width="216px" height="216px" viewBox="0 0 216 216" style="enable-background:new 0 0 216 216;" xml:space="preserve">
<path d="M162.35,35.726c-0.007-11.101-8.024-19.158-19.065-19.158l-0.253,0.001c-1.174,0.013-2.345,0.017-3.518,0.017
	c-1.518,0-3.037-0.008-4.555-0.015c-1.567-0.008-3.134-0.015-4.7-0.015c-3.584,0-6.36,0.04-9.002,0.131
	c-12.106,0.415-22.991,4.542-31.479,11.935c-8.619,7.507-14.14,17.829-15.965,29.849c-0.685,4.509-0.868,8.831-0.924,13.027
	c-1.14,0.003-2.278,0.008-3.415,0.015c-12.354,0.077-19.763,7.521-19.818,19.913c-0.032,7.154-0.032,14.407,0,21.557
	c0.012,2.594,0.043,9.483,5.554,14.806c5.301,5.119,12.158,5.133,14.696,5.138c0.993,0.002,2.095,0.003,3.095,0.004v4.336
	c0,14.028-0.118,28.056-0.108,42.084c0.002,2.829-0.051,9.456,5.122,14.716c5.265,5.353,11.911,5.365,14.761,5.37
	c2.836,0.005,5.658,0.006,8.494,0.006l6.294-0.001l5.704-0.002c4.642,0,11.026,0,16.299-5.162
	c5.408-5.294,5.433-11.966,5.433-16.381v-39.961v-5c2-0.001,4.604-0.006,6.911-0.016c11.805-0.05,19.444-7.742,19.484-19.595
	c0.024-7.227,0.02-14.673,0.002-22.13c-0.006-2.259-0.026-9.135-5.418-14.438c-1.136-1.117-2.334-1.996-3.536-2.686
	c6.139-3.034,9.82-9.111,9.893-17.087c0.048-5.204,0.036-10.452,0.025-15.527C162.356,39.546,162.351,37.636,162.35,35.726z
	 M147.335,56.846c-0.031,3.397-1.049,4.311-4.587,4.368c-4.656,0.076-9.317-0.029-13.967,0.154c-5.93,0.232-8.285,2.447-8.534,8.326
	c-0.231,5.451-0.429,14.751,0.951,16.056S123.801,87,125.576,87c0.888,0,1.772,0,2.658,0c0.016,0,0.033,0,0.049,0
	c2.644,0,5.287-0.26,7.931-0.26c1.79,0,3.58-0.12,5.37-0.104c3.929,0.036,4.797,0.833,4.806,4.658
	c0.018,7.348,0.016,14.664-0.008,22.012c-0.012,3.647-0.965,4.614-4.561,4.629c-2.97,0.013-5.94,0.009-8.944,0.009
	c-4.212,0-11.546,0.716-11.93,0.989c-0.384,0.273-1,1.574-1,2.771c0,18.731,0.001,37.462,0,56.193c0,6.374-0.175,6.543-6.683,6.543
	c-4.003,0-8.006,0.003-12.008,0.003c-2.828,0-5.655-0.002-8.483-0.006c-4.333-0.008-4.992-0.662-4.995-5.096
	c-0.013-19.146-0.006-38.291-0.006-57.437c0-1.216,0.104-1.711-1-2.975c-1.104-1.264-6.361-0.997-9.93-0.997
	c-2.354,0-4.687-0.001-7.02-0.006c-4.307-0.009-5.147-0.796-5.166-5.012c-0.032-7.141-0.032-14.282,0-21.422
	c0.018-4.094,0.869-4.956,4.912-4.981c2.36-0.015,4.72-0.019,7.104-0.019c3.562,0,8.918,0.021,9.929-0.99s1.128-1.615,1.168-2.804
	c0.248-7.332-0.219-14.772,0.875-21.976c2.629-17.313,15.627-28.445,33.128-29.044c2.827-0.097,5.657-0.122,8.488-0.122
	c3.085,0,6.17,0.246,9.255,0.246c1.226,0,2.451,0.198,3.677,0.198c0.031,0,0.063,0,0.094,0c2.847,0,4.063,1.215,4.065,3.951
	C147.354,42.988,147.399,49.81,147.335,56.846z"/>
</svg>
