<?xml version="1.0" encoding="utf-8"?>
<!-- Generator: Adobe Illustrator 17.0.0, SVG Export Plug-In . SVG Version: 6.00 Build 0)  -->
<!DOCTYPE svg PUBLIC "-//W3C//DTD SVG 1.1//EN" "http://www.w3.org/Graphics/SVG/1.1/DTD/svg11.dtd">
<svg version="1.1" id="Layer_1" xmlns="http://www.w3.org/2000/svg" xmlns:xlink="http://www.w3.org/1999/xlink" x="0px" y="0px"
	 width="216px" height="216px" viewBox="0 0 216 216" style="enable-background:new 0 0 216 216;" xml:space="preserve">
<path d="M171.826,45.126c-0.165-0.165-0.337-0.317-0.513-0.463C155.09,28.446,132.696,18.402,108,18.402
	c-49.404,0-89.598,40.193-89.598,89.598S58.596,197.598,108,197.598s89.598-40.193,89.598-89.598
	c0-24.152-9.609-46.099-25.201-62.228C172.22,45.549,172.032,45.332,171.826,45.126z M33.402,108
	c0-41.133,33.465-74.598,74.598-74.598c18.113,0,34.735,6.495,47.672,17.271L50.673,155.671
	C39.897,142.735,33.402,126.113,33.402,108z M108,182.598c-17.628,0-33.836-6.16-46.617-16.421L166.176,61.383
	c10.262,12.781,16.422,28.989,16.422,46.617C182.598,149.133,149.133,182.598,108,182.598z"/>
</svg>
