<?xml version="1.0" encoding="utf-8"?>
<!-- Generator: Adobe Illustrator 17.0.0, SVG Export Plug-In . SVG Version: 6.00 Build 0)  -->
<!DOCTYPE svg PUBLIC "-//W3C//DTD SVG 1.1//EN" "http://www.w3.org/Graphics/SVG/1.1/DTD/svg11.dtd">
<svg version="1.1" id="Layer_1" xmlns="http://www.w3.org/2000/svg" xmlns:xlink="http://www.w3.org/1999/xlink" x="0px" y="0px"
	 width="216px" height="216px" viewBox="0 0 216 216" style="enable-background:new 0 0 216 216;" xml:space="preserve">
<path d="M110.684,19.049C107.853,20.196,106,22.945,106,26v37.685c-16.956,0.879-54.749,5.721-70.097,30.419
	c-8.928,14.367-3.565,36.194,15.938,64.751c13.523,19.801,28.966,35.94,29.617,36.612c1.453,1.501,3.41,2.533,5.39,2.533
	c0.006,0,0.012,0,0.018,0c4.143,0,7.5-3.607,7.5-7.75c0-0.989-0.19-2.183-0.539-3.048c-5.687-17.987-13.813-49.958-11.883-60.898
	c0.856-4.854,12.218-5.231,15.68-5.231c3.052,0,5.98,0.221,8.364,0.479l2.15,34.91c0.175,2.84,1.941,5.337,4.563,6.446
	c2.618,1.107,5.642,0.64,7.804-1.213l67.674-58c1.57-1.346,2.516-3.281,2.611-5.348c0.096-2.067-0.667-4.081-2.107-5.567l-69.798-72
	C116.76,18.586,113.515,17.898,110.684,19.049z M121,44.512l51.362,52.983L122.184,140.5l-1.599-25.961
	c-0.209-3.404-2.689-6.238-6.036-6.897c-0.325-0.064-8.068-1.569-16.925-1.569c-23.789,0-29.29,11.042-30.451,17.624
	c-1.489,8.437,0.716,22.598,3.683,35.907c-16.514-22.082-29.181-46.43-22.212-57.645c11.51-18.521,45.749-23.464,64.165-23.464
	l0.552,0.004c2.035,0.014,3.957-0.736,5.394-2.146S121,73.014,121,71V44.512z"/>
</svg>
