<?xml version="1.0" encoding="utf-8"?>
<!-- Generator: Adobe Illustrator 18.0.0, SVG Export Plug-In . SVG Version: 6.00 Build 0)  -->
<!DOCTYPE svg PUBLIC "-//W3C//DTD SVG 1.1//EN" "http://www.w3.org/Graphics/SVG/1.1/DTD/svg11.dtd">
<svg version="1.1" id="Layer_1" xmlns="http://www.w3.org/2000/svg" xmlns:xlink="http://www.w3.org/1999/xlink" x="0px" y="0px"
	 viewBox="0 0 216 216" enable-background="new 0 0 216 216" xml:space="preserve">
<g>
	<path d="M108,191c45.8,0,83-37.2,83-83s-37.2-83-83-83s-83,37.2-83,83S62.2,191,108,191z M108,37c39.1,0,71,31.9,71,71
		s-31.9,71-71,71s-71-31.9-71-71S68.9,37,108,37z"/>
	<path d="M83,94.4c2.5,0,4.9-1,6.7-2.8c3.7-3.7,3.7-9.7,0-13.4c-1.8-1.8-4.2-2.8-6.7-2.8s-4.9,1-6.7,2.8c-3.7,3.7-3.7,9.7,0,13.4
		C78.1,93.4,80.5,94.4,83,94.4z"/>
	<path d="M130.6,94.4c2.5,0,4.9-1,6.7-2.8c3.7-3.7,3.7-9.7,0-13.4c-1.8-1.8-4.2-2.8-6.7-2.8c-2.5,0-4.9,1-6.7,2.8
		c-3.7,3.7-3.7,9.7,0,13.4C125.7,93.4,128,94.4,130.6,94.4z"/>
	<path d="M80.5,141c0.2-0.6,4.1-13.5,26-13.5c22.6,0,29,13.7,29.2,14.2c1,2.3,3.2,3.7,5.5,3.7c0.8,0,1.5-0.1,2.3-0.5
		c3.1-1.3,4.5-4.8,3.2-7.8c-0.4-0.9-9.3-21.6-40.3-21.6c-31.6,0-37.4,21.6-37.6,22.5l5.8,1.5L80.5,141z"/>
</g>
</svg>
