<?xml version="1.0" encoding="utf-8"?>
<!-- Generator: Adobe Illustrator 17.0.0, SVG Export Plug-In . SVG Version: 6.00 Build 0)  -->
<!DOCTYPE svg PUBLIC "-//W3C//DTD SVG 1.1//EN" "http://www.w3.org/Graphics/SVG/1.1/DTD/svg11.dtd">
<svg version="1.1" id="Layer_1" xmlns="http://www.w3.org/2000/svg" xmlns:xlink="http://www.w3.org/1999/xlink" x="0px" y="0px"
	 width="216px" height="216px" viewBox="0 0 216 216" style="enable-background:new 0 0 216 216;" xml:space="preserve">
<path d="M170,41.491c0-4.142-3.358-7.5-7.5-7.5h-110c-4.142,0-7.5,3.358-7.5,7.5v138c0,4.142,3.358,7.5,7.5,7.5h110
	c4.142,0,7.5-3.358,7.5-7.5V41.491z M60,48.991h96v123H60V48.991z"/>
<path d="M135,67.991H81c-4.143,0-7.5,3.357-7.5,7.5s3.357,7.5,7.5,7.5h54c4.143,0,7.5-3.357,7.5-7.5S139.143,67.991,135,67.991z"/>
<path d="M135,99.991H81c-4.143,0-7.5,3.357-7.5,7.5s3.357,7.5,7.5,7.5h54c4.143,0,7.5-3.357,7.5-7.5S139.143,99.991,135,99.991z"/>
<path d="M135,133.991H81c-4.143,0-7.5,3.357-7.5,7.5s3.357,7.5,7.5,7.5h54c4.143,0,7.5-3.357,7.5-7.5S139.143,133.991,135,133.991z"
	/>
</svg>
