<?xml version="1.0" encoding="utf-8"?>
<!-- Generator: Adobe Illustrator 17.0.0, SVG Export Plug-In . SVG Version: 6.00 Build 0)  -->
<!DOCTYPE svg PUBLIC "-//W3C//DTD SVG 1.1//EN" "http://www.w3.org/Graphics/SVG/1.1/DTD/svg11.dtd">
<svg version="1.1" id="Layer_1" xmlns="http://www.w3.org/2000/svg" xmlns:xlink="http://www.w3.org/1999/xlink" x="0px" y="0px"
	 width="216px" height="216px" viewBox="0 0 216 216" style="enable-background:new 0 0 216 216;" xml:space="preserve">
<path d="M50.5,188.992h118c4.143,0,7.5-3.358,7.5-7.5V81.052c0-2.084-0.867-4.074-2.394-5.493L125.681,31
	c-1.387-1.29-3.212-2.007-5.106-2.007H50.5c-4.143,0-7.5,3.358-7.5,7.5v145C43,185.634,46.357,188.992,50.5,188.992z
	 M160.648,83.992H121V47.129L160.648,83.992z M58,43.992h48v47.5c0,4.142,3.357,7.5,7.5,7.5H161v75H58V43.992z"/>
</svg>
