<?xml version="1.0" encoding="utf-8"?>
<!-- Generator: Adobe Illustrator 18.0.0, SVG Export Plug-In . SVG Version: 6.00 Build 0)  -->
<!DOCTYPE svg PUBLIC "-//W3C//DTD SVG 1.1//EN" "http://www.w3.org/Graphics/SVG/1.1/DTD/svg11.dtd">
<svg version="1.1" id="Layer_1" xmlns="http://www.w3.org/2000/svg" xmlns:xlink="http://www.w3.org/1999/xlink" x="0px" y="0px"
	 viewBox="0 0 216 216" enable-background="new 0 0 216 216" xml:space="preserve">
<g>
	<path d="M49,189h118c3.3,0,6-2.7,6-6V81.1c0-1.7-0.7-3.3-1.9-4.4l-46.4-43.1c-1.1-1-2.6-1.6-4.1-1.6H49c-3.3,0-6,2.7-6,6v145
		C43,186.3,45.7,189,49,189z M161,83.7V84h-41V45.6L161,83.7z M55,44h53v46c0,3.3,2.7,6,6,6h47v81H55V44z"/>
</g>
</svg>
