<?xml version="1.0" encoding="utf-8"?>
<!-- Generator: Adobe Illustrator 17.0.0, SVG Export Plug-In . SVG Version: 6.00 Build 0)  -->
<!DOCTYPE svg PUBLIC "-//W3C//DTD SVG 1.1//EN" "http://www.w3.org/Graphics/SVG/1.1/DTD/svg11.dtd">
<svg version="1.1" id="Layer_1" xmlns="http://www.w3.org/2000/svg" xmlns:xlink="http://www.w3.org/1999/xlink" x="0px" y="0px"
	 width="216px" height="216px" viewBox="0 0 216 216" style="enable-background:new 0 0 216 216;" xml:space="preserve">
<path d="M138.042,41.364c-1.14-2.775-3.824-4.604-6.824-4.649c-2.993-0.093-5.738,1.701-6.961,4.44l-28.312,63.393L71.868,45.847
	c-1.14-2.775-3.824-4.856-6.824-4.856c-0.038,0-0.076,0-0.114,0c-2.954,0-5.639,1.943-6.847,4.647l-33.264,74.684
	c-1.689,3.782,0.007,8.218,3.789,9.906c3.783,1.69,8.218-0.007,9.906-3.789l8.24-18.448h34.337l6.379,15.531l-20.19,45.207
	c-1.689,3.782,0.007,8.218,3.789,9.906c3.782,1.69,8.217-0.007,9.906-3.789l12.44-27.854h71.794l11.355,27.646
	c1.19,2.899,3.989,4.652,6.94,4.652c0.949,0,1.914-0.182,2.847-0.564c3.831-1.573,5.662-5.955,4.088-9.787L138.042,41.364z
	 M53.454,92.991l11.188-25.05l10.289,25.05H53.454z M100.115,131.991l30.7-68.739l28.234,68.739H100.115z"/>
</svg>
