<?xml version="1.0" encoding="utf-8"?>
<!-- Generator: Adobe Illustrator 18.0.0, SVG Export Plug-In . SVG Version: 6.00 Build 0)  -->
<!DOCTYPE svg PUBLIC "-//W3C//DTD SVG 1.1//EN" "http://www.w3.org/Graphics/SVG/1.1/DTD/svg11.dtd">
<svg version="1.1" id="Layer_1" xmlns="http://www.w3.org/2000/svg" xmlns:xlink="http://www.w3.org/1999/xlink" x="0px" y="0px"
	 viewBox="0 0 216 216" enable-background="new 0 0 216 216" xml:space="preserve">
<g>
	<path d="M73.6,32H46c-3.3,0-6,2.2-6,5.5v143c0,3.3,2.7,6.5,6,6.5h27.6c3.3,0,6.4-3.2,6.4-6.5v-50.4c8-1.6,32.6-5.2,45.6,9.2
		c6.6,7.3,14.5,10,22.5,10c13.6,0,27.3-7.8,35-14c1.4-1.2,2.2-2.9,2.2-4.7l-1.2-66.8c0-2.2-1.3-4.2-3.2-5.2c-2-1-4.3-0.9-6.1,0.4
		c-4.9,3.3-20,11.4-30.6,8.8c-4.2-1-7.4-3.7-9.7-8.1c-6.6-12.5-19.6-19.4-37.8-19.9C90.2,39.6,84,40.2,80,40.9v-3.4
		C80,34.2,76.9,32,73.6,32z M68,175H52V44h16V175z M124,65.3c4,7.5,9.7,12.2,17.3,14.1c10.9,2.7,22.9-1.5,31-5.3l0.9,53.6
		c-6.7,4.7-26.6,17-38.7,3.6C118.5,113.5,91,115.8,80,117.9V53.1C90,51.2,115.2,48.6,124,65.3z"/>
</g>
</svg>
