<?xml version="1.0" encoding="utf-8"?>
<!-- Generator: Adobe Illustrator 18.0.0, SVG Export Plug-In . SVG Version: 6.00 Build 0)  -->
<!DOCTYPE svg PUBLIC "-//W3C//DTD SVG 1.1//EN" "http://www.w3.org/Graphics/SVG/1.1/DTD/svg11.dtd">
<svg version="1.1" id="Layer_1" xmlns="http://www.w3.org/2000/svg" xmlns:xlink="http://www.w3.org/1999/xlink" x="0px" y="0px"
	 viewBox="0 0 216 216" enable-background="new 0 0 216 216" xml:space="preserve">
<g>
	<path d="M96,43c0-3.3-2.7-6-6-6H42c-3.3,0-6,2.7-6,6v48c0,3.3,2.7,6,6,6h48c3.3,0,6-2.7,6-6V43z M48,49h36v36H48V49z"/>
	<path d="M180,43c0-3.3-2.7-6-6-6h-48c-3.3,0-6,2.7-6,6v48c0,3.3,2.7,6,6,6h48c3.3,0,6-2.7,6-6V43z M132,49h36v36h-36V49z"/>
	<path d="M96,125c0-3.3-2.7-6-6-6H42c-3.3,0-6,2.7-6,6v48c0,3.3,2.7,6,6,6h48c3.3,0,6-2.7,6-6V125z M48,131h36v36H48V131z"/>
	<path d="M180,125c0-3.3-2.7-6-6-6h-48c-3.3,0-6,2.7-6,6v48c0,3.3,2.7,6,6,6h48c3.3,0,6-2.7,6-6V125z M132,131h36v36h-36V131z"/>
</g>
</svg>
