<?xml version="1.0" encoding="utf-8"?>
<!-- Generator: Adobe Illustrator 17.0.0, SVG Export Plug-In . SVG Version: 6.00 Build 0)  -->
<!DOCTYPE svg PUBLIC "-//W3C//DTD SVG 1.1//EN" "http://www.w3.org/Graphics/SVG/1.1/DTD/svg11.dtd">
<svg version="1.1" id="Layer_1" xmlns="http://www.w3.org/2000/svg" xmlns:xlink="http://www.w3.org/1999/xlink" x="0px" y="0px"
	 width="216px" height="216px" viewBox="0 0 216 216" style="enable-background:new 0 0 216 216;" xml:space="preserve">
<path d="M39.734,125.965l7.152,3.26c2.257,1.028,3.344,3.654,2.476,5.976l-2.753,7.363c-2.301,6.155-1.486,12.76,2.233,18.123
	c3.719,5.361,9.773,8.561,16.195,8.561c2.362,0,4.71-0.43,6.977-1.277l7.364-2.753c0.537-0.201,1.095-0.303,1.657-0.303
	c1.854,0,3.55,1.091,4.319,2.778l3.259,7.152c3.248,7.128,10.132,11.556,17.965,11.556s14.717-4.428,17.964-11.555l3.262-7.154
	c0.769-1.688,2.463-2.778,4.317-2.778c0.563,0,1.12,0.102,1.658,0.303l7.362,2.625c2.268,0.848,4.614,1.15,6.976,1.15
	c0.001,0,0.002,0,0.003,0c6.422,0,12.477-3.075,16.195-8.436c3.719-5.362,4.532-11.903,2.232-18.056l-2.753-7.33
	c-0.868-2.323,0.219-4.932,2.476-5.961l7.152-3.252c7.128-3.248,11.556-10.128,11.556-17.961s-4.428-14.715-11.556-17.963
	l-7.152-3.259c-2.257-1.028-3.344-3.653-2.476-5.976l2.753-7.363c2.301-6.155,1.486-12.76-2.233-18.122
	c-3.719-5.361-9.773-8.561-16.195-8.561c-2.362,0-4.71,0.43-6.977,1.277l-7.364,2.753c-0.537,0.201-1.095,0.303-1.657,0.303
	c-1.854,0-3.549-1.09-4.318-2.779l-3.26-7.152c-3.248-7.128-10.132-11.556-17.965-11.556s-14.717,4.428-17.964,11.555l-3.26,7.152
	c-0.77,1.688-2.465,2.779-4.318,2.779c-0.563,0-1.121-0.102-1.659-0.303l-7.362-2.752c-2.268-0.848-4.615-1.278-6.978-1.278
	c-6.422,0-12.476,3.201-16.195,8.562c-3.72,5.363-4.534,11.968-2.233,18.122l2.753,7.362c0.868,2.323-0.219,4.948-2.476,5.977
	l-7.152,3.26C32.606,93.283,28.179,100.167,28.179,108S32.606,122.717,39.734,125.965z M45.955,103.685l7.152-3.26
	c9.393-4.281,13.92-15.208,10.306-24.878l-2.753-7.363c-0.721-1.926-0.122-3.412,0.508-4.319c1.259-1.816,3.453-2.585,5.595-1.784
	l7.362,2.752c2.224,0.832,4.549,1.253,6.911,1.253c0.001,0,0,0,0.001,0c7.714,0,14.767-4.537,17.967-11.558l3.261-7.153
	c1.141-2.505,3.397-2.775,4.314-2.775s3.174,0.271,4.315,2.776l3.26,7.152c3.2,7.021,10.252,11.558,17.968,11.558
	c2.362,0,4.688-0.421,6.91-1.252l7.364-2.753c2.139-0.799,4.334-0.032,5.595,1.784c0.629,0.907,1.228,2.393,0.507,4.319
	l-2.753,7.363c-3.614,9.669,0.913,20.597,10.306,24.878l7.152,3.26c2.506,1.142,2.776,3.398,2.776,4.315s-0.271,3.174-2.776,4.315
	l-7.152,3.26c-9.393,4.281-13.92,15.208-10.306,24.878l2.753,7.363c0.721,1.926,0.122,3.411-0.507,4.318
	c-1.261,1.815-3.452,2.586-5.596,1.785l-7.362-2.752c-2.224-0.832-4.549-1.253-6.911-1.253c-7.716,0-14.768,4.537-17.967,11.557
	l-3.262,7.154c-1.141,2.505-3.397,2.775-4.314,2.775s-3.174-0.271-4.315-2.776l-3.26-7.153c-3.2-7.021-10.253-11.557-17.968-11.557
	c-2.362,0-4.688,0.421-6.91,1.252l-7.364,2.753c-2.138,0.8-4.334,0.033-5.595-1.784c-0.629-0.907-1.228-2.393-0.507-4.319
	l2.753-7.363c3.614-9.669-0.913-20.597-10.306-24.878l-7.152-3.26c-2.506-1.142-2.776-3.398-2.776-4.315
	S43.449,104.826,45.955,103.685z"/>
<path d="M106.579,135.51c15.169,0,27.51-12.341,27.51-27.51s-12.341-27.51-27.51-27.51S79.069,92.831,79.069,108
	S91.41,135.51,106.579,135.51z M106.579,95.49c6.897,0,12.51,5.612,12.51,12.51s-5.612,12.51-12.51,12.51s-12.51-5.612-12.51-12.51
	S99.682,95.49,106.579,95.49z"/>
</svg>
