<?xml version="1.0" encoding="utf-8"?>
<!-- Generator: Adobe Illustrator 18.0.0, SVG Export Plug-In . SVG Version: 6.00 Build 0)  -->
<!DOCTYPE svg PUBLIC "-//W3C//DTD SVG 1.1//EN" "http://www.w3.org/Graphics/SVG/1.1/DTD/svg11.dtd">
<svg version="1.1" id="Layer_1" xmlns="http://www.w3.org/2000/svg" xmlns:xlink="http://www.w3.org/1999/xlink" x="0px" y="0px"
	 viewBox="0 0 216 216" enable-background="new 0 0 216 216" xml:space="preserve">
<g>
	<path d="M103,139.5c-3.7-2.4-8.2-3.6-12.9-3.6c-7.8,0-15.9,3.3-20.5,9.2c-4.4,5.7-4.4,13.2,0.3,18.2c4.7,5.2,11,6.3,17,6.5
		c5.5-0.1,10.2-0.9,14.5-3.1C112.7,161,113.6,146.5,103,139.5z M96,156c-2.4,1.2-5.1,1.8-9,1.8c-5.4-0.3-7.1-1.4-8.3-2.7
		c-0.9-1,0.1-2.4,0.4-2.8c2.1-2.7,6.5-4.6,11-4.6c2.5,0,4.7,0.6,6.3,1.6c1.4,0.9,2.1,2.1,2,3.4C98.4,154.2,97.5,155.3,96,156z"/>
	<path d="M100.1,86.4c5.4-8.7,3.4-23.7-4-30.8c-2.6-2.5-6.3-3.8-9.9-3.8c-3.6,0-7.1,1.3-9.2,3.9c-3.1,3.7-4.2,8.1-4.2,11.9
		c0.1,9.2,3.7,17.2,9.2,21.8c2.6,2.2,5.5,3.2,8.2,3.2C94,92.7,97.6,90.5,100.1,86.4z M89.8,80.3c-0.1,0-0.1-0.1-0.2-0.1
		c-2.3-1.9-4.7-6.1-4.8-12.5c0-0.9,0.2-2.4,1.1-3.7c0.1,0,0.2,0,0.4,0c0.8,0,1.5,0.3,1.6,0.5c3.3,3.2,4.5,11.9,2.1,15.8
		C89.9,80.2,89.9,80.2,89.8,80.3z"/>
	<path d="M173,87h-5v-3.9c0-10-8.1-18.1-18-18.1c-6.4,0-12,3.4-15.2,8.4c0.5-6.6-0.2-12.6-1.1-17.7c-0.3-1.6-0.6-3.1-1.1-4.6
		c6.8-2.9,10.8-9,10.3-16.5c-0.4-6.3-5.7-11.2-12-11.2c-2.3,0-4.6,0-6.9,0c-2.3,0-4.6,0-6.9,0c-3.5,0-6.4,0-9.1,0.1
		c-1.5,0-3.1,0-4.6,0c-5.7,0-11.6,0-17.7,0.7c-11.4,1.3-21.3,5.5-29.6,12.5c-13,11.1-18.1,26.6-15.2,45.9
		c1.4,9.2,5.5,17.3,11.7,23.3c3.6,3.4,7.8,6.1,12.6,8c-2,0.6-3.8,1.2-5.6,1.9C48.1,120,39.4,128.1,35,138.4
		c-4.3,10.2-4.1,21.8,0.6,32.9c5.2,12.2,15.3,20,30.9,24c2.5,0.6,4.9,1.1,7.2,1.5c0.9,0.2,1.9,0.1,2.8,0.3c0.8,0.1,1.5,0,2.3,0h12.6
		c0.9,0,1.8,0.1,2.7-0.1c1.5-0.3,3-0.5,4.6-0.9c3.8-0.8,7.7-1.5,11.7-2.9c15.9-5.1,27.3-17.1,31.4-32.9c1.4-5.4,1.8-10.9,1.3-16.2
		c2.1,0.9,4.5,1.4,7,1.4c9.9,0,18-8.1,18-18.1V123h5c10,0,18.1-8.1,18.1-18S183,87,173,87z M106.6,181.6c-5,1.6-10.2,2.4-15.3,3.4
		c-4.2,0-8.4,0-12.6,0c-3.1,0-6.3-0.8-9.3-1.6c-10-2.5-18.5-6.9-22.8-16.9c-7.2-16.8,0-33.1,17.3-39.7c4.2-1.6,8.8-2.6,13.2-3.5
		c4.4-0.8,8.9-1,12.9-1.4c-1.6-5.2-3.2-10.6-5-16.5c-1.8-0.2-4.6-0.4-7.3-0.7C64.2,103,55,94.2,52.9,80.7
		c-2.1-13.4,0.2-25.7,11.1-35c6.6-5.7,14.6-8.7,23.1-9.7c7-0.8,14.1-0.6,21.2-0.7c3,0,5.9,0,8.9,0c4.6,0,9.2,0,13.9,0
		c0.2,3.3-1.9,4.5-4.3,5c-3.7,0.9-7.4,1.4-11.1,2.1c-1.2,0.2-2.3,0.4-3.8,0.7c0.6,0.5,0.9,0.9,1.2,1.1c4.9,3.1,7.9,7.5,8.9,13.2
		c1.5,9.1,1.8,18.2-1.8,27.1c-2.1,5-5.6,8.9-9.5,12.5c-7.4,7-7.4,9.7,0.1,16.7c4,3.7,8.1,7.3,11.9,11.3
		C137.8,141.3,133.3,172.9,106.6,181.6z M173,111h-17v16.3c0,3.4-2.6,6.1-6,6.1s-6-2.8-6-6.1V111h-15.3c-3.4,0-6.1-2.6-6.1-6
		s2.8-6,6.1-6H144V83.1c0-3.4,2.6-6.1,6-6.1s6,2.8,6,6.1V99h17c3.4,0,6.1,2.6,6.1,6S176.4,111,173,111z"/>
</g>
</svg>
