<?xml version="1.0" encoding="utf-8"?>
<!-- Generator: Adobe Illustrator 18.0.0, SVG Export Plug-In . SVG Version: 6.00 Build 0)  -->
<!DOCTYPE svg PUBLIC "-//W3C//DTD SVG 1.1//EN" "http://www.w3.org/Graphics/SVG/1.1/DTD/svg11.dtd">
<svg version="1.1" id="Layer_1" xmlns="http://www.w3.org/2000/svg" xmlns:xlink="http://www.w3.org/1999/xlink" x="0px" y="0px"
	 viewBox="0 0 216 216" enable-background="new 0 0 216 216" xml:space="preserve">
<g>
	<path d="M104.7,182.5c1,0.6,2.1,1,3.3,1c1.1,0,2.3-0.3,3.3-1c2.7-1.8,66.1-43.6,73.3-86.1c3.7-22-3.1-35.6-9.4-43.1
		c-7.4-8.8-18.4-14-29.3-14c-3.6,0-7.1,0.6-10.2,1.8c-15.2,5.7-25.5,15.8-31.1,22.7c-5.5-6.8-14.9-16.6-26.3-20.5
		c-3.5-1.2-7.3-1.8-11.3-1.8c-10.2,0-19.9,4.2-26.6,11.6c-5.9,6.5-12.6,18.9-10.5,40.5C34.1,136.1,101.8,180.6,104.7,182.5z
		 M49.3,61.1c6.1-6.7,13.7-7.7,17.7-7.7c2.6,0,5.1,0.4,7.4,1.2c13.9,4.7,25,22.4,25.2,22.5c1.1,1.8,3.1,2.9,5.2,2.8
		c2.1,0,4-1.2,5.1-3c0.1-0.2,10.1-17.2,30.1-24.7c1.7-0.6,3.8-1,5.9-1c7.4,0,14.9,3.7,20.1,9.8c6.8,8,9.1,19.6,6.7,33.4
		c-2.6,15.2-15,33.4-35.9,52.7c-11.8,10.9-23.4,19.3-28.8,23.1c-5.7-3.9-18-12.9-30.5-24.3c-21.8-20-34.1-38.5-35.6-53.5
		C40.6,78.7,43.1,67.9,49.3,61.1z"/>
</g>
</svg>
