<?xml version="1.0" encoding="utf-8"?>
<!-- Generator: Adobe Illustrator 18.0.0, SVG Export Plug-In . SVG Version: 6.00 Build 0)  -->
<!DOCTYPE svg PUBLIC "-//W3C//DTD SVG 1.1//EN" "http://www.w3.org/Graphics/SVG/1.1/DTD/svg11.dtd">
<svg version="1.1" id="Layer_1" xmlns="http://www.w3.org/2000/svg" xmlns:xlink="http://www.w3.org/1999/xlink" x="0px" y="0px"
	 viewBox="0 0 216 216" enable-background="new 0 0 216 216" xml:space="preserve">
<g>
	<path d="M28,123h14v56c0,3.3,2.7,6,6,6h41c3.3,0,6-2.7,6-6v-41h25v41c0,3.3,2.7,6,6,6h39c3.3,0,6-2.7,6-6v-56h17
		c2.4,0,4.6-1.5,5.5-3.7s0.4-4.8-1.3-6.5L114,33.5c-2.3-2.3-6.1-2.4-8.4-0.1l-81.7,79.3c-1.8,1.7-2.3,4.3-1.4,6.6S25.6,123,28,123z
		 M109.6,46.2l64,64.8H165c-3.3,0-6,2.7-6,6v56h-27v-41c0-3.3-2.7-6-6-6H89c-3.3,0-6,2.7-6,6v41H54v-56c0-3.3-2.7-6-6-6h-5.2
		L109.6,46.2z"/>
</g>
</svg>
