<?xml version="1.0" encoding="utf-8"?>
<!-- Generator: Adobe Illustrator 17.0.0, SVG Export Plug-In . SVG Version: 6.00 Build 0)  -->
<!DOCTYPE svg PUBLIC "-//W3C//DTD SVG 1.1//EN" "http://www.w3.org/Graphics/SVG/1.1/DTD/svg11.dtd">
<svg version="1.1" id="Layer_1" xmlns="http://www.w3.org/2000/svg" xmlns:xlink="http://www.w3.org/1999/xlink" x="0px" y="0px"
	 width="216px" height="216px" viewBox="0 0 216 216" style="enable-background:new 0 0 216 216;" xml:space="preserve">
<path d="M25.421,122.992H39v54.5c0,4.142,3.357,7.5,7.5,7.5H88c4.143,0,7.5-3.358,7.5-7.5c0-0.944-0.182-1.843-0.5-2.675v-36.825h22
	v39c0,2.198,0.952,4.17,2.458,5.541c1.372,1.507,3.343,2.459,5.542,2.459h38.5c4.143,0,7.5-3.358,7.5-7.5v-54.5h14.421
	c3.025,0,5.754-1.817,6.92-4.608c1.167-2.792,0.542-6.01-1.584-8.162l-78.305-79.274c-2.894-2.93-7.605-2.978-10.559-0.112
	L20.198,110.11c-2.192,2.126-2.875,5.37-1.728,8.2S22.367,122.992,25.421,122.992z M107.004,46.777l60.467,61.215H163.5
	c-4.143,0-7.5,3.358-7.5,7.5v54.5h-24v-39.5c0-4.142-3.357-7.5-7.5-7.5h-37c-4.143,0-7.5,3.358-7.5,7.5v39.5H54v-54.5
	c0-4.142-3.357-7.5-7.5-7.5h-2.58L107.004,46.777z"/>
</svg>
