<?xml version="1.0" encoding="utf-8"?>
<!-- Generator: Adobe Illustrator 17.0.0, SVG Export Plug-In . SVG Version: 6.00 Build 0)  -->
<!DOCTYPE svg PUBLIC "-//W3C//DTD SVG 1.1//EN" "http://www.w3.org/Graphics/SVG/1.1/DTD/svg11.dtd">
<svg version="1.1" id="Layer_1" xmlns="http://www.w3.org/2000/svg" xmlns:xlink="http://www.w3.org/1999/xlink" x="0px" y="0px"
	 width="216px" height="216px" viewBox="0 0 216 216" style="enable-background:new 0 0 216 216;" xml:space="preserve">
<path d="M105.5,141.5c-4.143,0-7.5,3.357-7.5,7.5v4c0,4.143,3.357,7.5,7.5,7.5s7.5-3.357,7.5-7.5v-4
	C113,144.857,109.643,141.5,105.5,141.5z"/>
<path d="M108,193.075c46.91,0,85.075-38.165,85.075-85.075S154.91,22.925,108,22.925S22.925,61.09,22.925,108
	S61.09,193.075,108,193.075z M108,37.925c38.64,0,70.075,31.436,70.075,70.075S146.64,178.075,108,178.075S37.925,146.64,37.925,108
	S69.36,37.925,108,37.925z"/>
<path d="M82.028,95c0.02,0,0.039,0,0.058,0c4.116,0,7.468-3.454,7.499-7.576c0.013-1.753,0.604-17.257,17.067-17.257
	c6.771,0,11.774,1.84,14.466,5.321c2.201,2.846,2.8,6.772,1.687,11.058c-1.43,5.501-6.342,10.509-11.093,15.352
	c-6.253,6.374-12.719,12.965-12.719,22.051c0,4.143,3.357,7.5,7.5,7.5s7.5-3.353,7.5-7.496c0-2.957,4.284-7.319,8.427-11.543
	c5.843-5.956,12.467-12.699,14.902-22.075c2.274-8.751,0.692-17.485-4.338-23.99c-3.933-5.084-11.692-11.111-26.332-11.111
	c-23.351,0-31.971,19.21-32.067,32.077C74.554,91.453,77.887,95,82.028,95z"/>
</svg>
