<?xml version="1.0" encoding="utf-8"?>
<!-- Generator: Adobe Illustrator 17.0.0, SVG Export Plug-In . SVG Version: 6.00 Build 0)  -->
<!DOCTYPE svg PUBLIC "-//W3C//DTD SVG 1.1//EN" "http://www.w3.org/Graphics/SVG/1.1/DTD/svg11.dtd">
<svg version="1.1" id="Layer_1" xmlns="http://www.w3.org/2000/svg" xmlns:xlink="http://www.w3.org/1999/xlink" x="0px" y="0px"
	 width="216px" height="216px" viewBox="0 0 216 216" style="enable-background:new 0 0 216 216;" xml:space="preserve">
<path d="M167.448,93h-11.333C148.601,93,142,98.615,142,106.13v65.643c0,7.514,6.601,13.228,14.115,13.228h11.414
	c0.438,0,0.874,0.162,1.306,0.085c3.45-0.61,20.665-5.694,20.665-47.972c0-10.067-0.989-18.459-2.937-25.23
	c0.165-0.618,0.261-1.238,0.261-1.908c0-42.912-34.912-77.812-77.824-77.812s-77.824,34.918-77.824,77.83
	c0,1.295,0.328,2.516,0.906,3.579c-1.957,6.69-3.261,15.495-3.261,27.112c0,16.838,2.746,29.169,8.163,36.648
	c5.42,7.483,11.871,7.867,13.719,7.867c0.05,0,0.108-0.2,0.17-0.2h11.333C69.72,185,76,179.284,76,171.771v-65.643
	C76,98.613,69.72,93,62.205,93H50.791c-0.438,0-0.874-0.212-1.306-0.136c-0.237,0.042-0.544-0.016-0.902,0.079
	C56.078,66.631,80.316,47.238,109,47.238c28.621,0,52.815,19.213,60.366,45.437c-0.75-0.112-1.357,0.09-1.748,0.09
	C167.568,92.765,167.51,93,167.448,93z M52.237,108H61v62h-9.917c-2.023,0-7.263-7.087-7.263-29.262
	C43.82,117.781,49.479,109,52.237,108z M174.5,137.262c0,22.957-5.659,31.738-8.417,32.738H157v-62h10.237
	C169.261,108,174.5,115.087,174.5,137.262z"/>
</svg>
