<?xml version="1.0" encoding="utf-8"?>
<!-- Generator: Adobe Illustrator 17.0.0, SVG Export Plug-In . SVG Version: 6.00 Build 0)  -->
<!DOCTYPE svg PUBLIC "-//W3C//DTD SVG 1.1//EN" "http://www.w3.org/Graphics/SVG/1.1/DTD/svg11.dtd">
<svg version="1.1" id="Layer_1" xmlns="http://www.w3.org/2000/svg" xmlns:xlink="http://www.w3.org/1999/xlink" x="0px" y="0px"
	 width="216px" height="216px" viewBox="0 0 216 216" style="enable-background:new 0 0 216 216;" xml:space="preserve">
<path d="M66.795,155.947c18.355,16.333,36.492,27.425,37.255,27.889c1.199,0.729,2.549,1.092,3.898,1.092
	c1.428,0,2.855-0.407,4.099-1.219c2.717-1.773,66.625-43.925,73.962-87.085c3.838-22.579-3.18-36.584-9.744-44.358
	c-7.7-9.12-19.064-14.564-30.398-14.564c-3.818,0-7.415,0.623-10.688,1.852c-14.511,5.447-24.611,14.816-30.563,21.773
	c-5.712-6.824-14.854-15.791-25.851-19.545c-3.717-1.269-7.583-1.913-11.488-1.913c-17.682,0-38.468,13.88-38.859,52.998
	C28.227,111.895,41.139,133.118,66.795,155.947z M67.277,54.869c2.253,0,4.487,0.373,6.641,1.108
	c13.361,4.562,24.259,21.75,24.361,21.914c1.397,2.244,3.872,3.567,6.514,3.534c2.643-0.052,5.063-1.49,6.37-3.787
	c0.095-0.166,9.678-16.679,29.287-24.041c1.56-0.585,3.433-0.895,5.417-0.895c5.383,0,13.185,2.428,18.938,9.241
	c6.472,7.666,8.691,18.789,6.417,32.167c-5.305,31.206-49.85,64.748-63.45,74.341c-21.27-13.813-64.631-47.738-64.354-75.435
	C43.698,64.891,55.926,54.869,67.277,54.869z"/>
</svg>
