<?xml version="1.0" encoding="utf-8"?>
<!-- Generator: Adobe Illustrator 17.0.0, SVG Export Plug-In . SVG Version: 6.00 Build 0)  -->
<!DOCTYPE svg PUBLIC "-//W3C//DTD SVG 1.1//EN" "http://www.w3.org/Graphics/SVG/1.1/DTD/svg11.dtd">
<svg version="1.1" id="Layer_1" xmlns="http://www.w3.org/2000/svg" xmlns:xlink="http://www.w3.org/1999/xlink" x="0px" y="0px"
	 width="216px" height="216px" viewBox="0 0 216 216" style="enable-background:new 0 0 216 216;" xml:space="preserve">
<path d="M106.5,84.5c4.142,0,7.5-3.357,7.5-7.5v-6c0-4.143-3.358-7.5-7.5-7.5S99,66.857,99,71v6C99,81.143,102.358,84.5,106.5,84.5z
	"/>
<path d="M94,114h6v34c0,4.143,3.358,7.5,7.5,7.5s7.5-3.357,7.5-7.5v-41.5c0-4.143-3.358-7.5-7.5-7.5H94c-4.142,0-7.5,3.357-7.5,7.5
	S89.858,114,94,114z"/>
<path d="M187,35.5c0-4.142-3.358-7.5-7.5-7.5h-144c-4.142,0-7.5,3.358-7.5,7.5v144c0,4.142,3.358,7.5,7.5,7.5h144
	c4.142,0,7.5-3.358,7.5-7.5V35.5z M173,173H43V43h130V173z"/>
</svg>
