<?xml version="1.0" encoding="utf-8"?>
<!-- Generator: Adobe Illustrator 18.0.0, SVG Export Plug-In . SVG Version: 6.00 Build 0)  -->
<!DOCTYPE svg PUBLIC "-//W3C//DTD SVG 1.1//EN" "http://www.w3.org/Graphics/SVG/1.1/DTD/svg11.dtd">
<svg version="1.1" id="Layer_1" xmlns="http://www.w3.org/2000/svg" xmlns:xlink="http://www.w3.org/1999/xlink" x="0px" y="0px"
	 viewBox="0 0 216 216" enable-background="new 0 0 216 216" xml:space="preserve">
<g>
	<path d="M108,85c3.3,0,6-2.7,6-6v-6c0-3.3-2.7-6-6-6s-6,2.7-6,6v6C102,82.3,104.7,85,108,85z"/>
	<path d="M96,109h6v34c0,3.3,2.7,6,6,6s6-2.7,6-6v-40c0-3.3-2.7-6-6-6H96c-3.3,0-6,2.7-6,6S92.7,109,96,109z"/>
	<path d="M186,36c0-3.3-2.7-6-6-6H36c-3.3,0-6,2.7-6,6v144c0,3.3,2.7,6,6,6h144c3.3,0,6-2.7,6-6V36z M174,174H42V42h132V174z"/>
</g>
</svg>
