<?xml version="1.0" encoding="utf-8"?>
<!-- Generator: Adobe Illustrator 18.0.0, SVG Export Plug-In . SVG Version: 6.00 Build 0)  -->
<!DOCTYPE svg PUBLIC "-//W3C//DTD SVG 1.1//EN" "http://www.w3.org/Graphics/SVG/1.1/DTD/svg11.dtd">
<svg version="1.1" id="Layer_1" xmlns="http://www.w3.org/2000/svg" xmlns:xlink="http://www.w3.org/1999/xlink" x="0px" y="0px"
	 viewBox="0 0 216 216" enable-background="new 0 0 216 216" xml:space="preserve">
<g>
	<path d="M65.8,192h84.4c13.7,0,24.8-10.8,24.8-24.5v-54.8c0-11.1-7-20.6-18-23.7V71.7c0-24.5-19.5-44.7-44-44.7h-10
		c-24.5,0-45,20.1-45,44.7V89c-10,3.1-17,12.6-17,23.7v54.8C41,181.2,52.1,192,65.8,192z M103,39h10c17.9,0,32,14.8,32,32.7V88H70
		V71.7C70,53.8,85.1,39,103,39z M163,167.2c0,7.1-5.7,12.8-12.8,12.8H65.8c-7.1,0-12.8-5.7-12.8-12.8v-54.4
		c0-7.1,5.7-12.8,12.8-12.8h84.4c7.1,0,12.8,5.7,12.8,12.8V167.2z"/>
	<path d="M106,165c3.3,0,6-2.7,6-6v-19c0-3.3-2.7-6-6-6s-6,2.7-6,6v19C100,162.3,102.7,165,106,165z"/>
</g>
</svg>
