<?xml version="1.0" encoding="utf-8"?>
<!-- Generator: Adobe Illustrator 18.0.0, SVG Export Plug-In . SVG Version: 6.00 Build 0)  -->
<!DOCTYPE svg PUBLIC "-//W3C//DTD SVG 1.1//EN" "http://www.w3.org/Graphics/SVG/1.1/DTD/svg11.dtd">
<svg version="1.1" id="Layer_1" xmlns="http://www.w3.org/2000/svg" xmlns:xlink="http://www.w3.org/1999/xlink" x="0px" y="0px"
	 viewBox="0 0 216 216" enable-background="new 0 0 216 216" xml:space="preserve">
<g>
	<path d="M190.1,175.7c2.2-3.3,2.7-7.5,1.3-11.2l-13-34c-0.7-1.7-1.9-3.3-3.2-4.5c1.2-2.3,1.8-5,1.8-7.8V51.8
		c0-9.2-7.2-16.8-16.4-16.8H55.4C46.2,35,39,42.6,39,51.8v66.4c0,2.8,0.6,5.5,1.8,7.8c-1.3,1.2-2.5,2.8-3.1,4.5l-13,34
		c-1.4,3.7-0.9,7.9,1.3,11.2c2.2,3.3,5.9,5.3,9.9,5.3h144.3C184.1,181,187.8,179,190.1,175.7z M51,51.8c0-2.6,1.8-4.8,4.4-4.8h105.2
		c2.6,0,4.4,2.2,4.4,4.8v66.4c0,2.2-1.2,3.8-3.3,4.8H54.3c-2.1-1-3.3-2.5-3.3-4.8V51.8z M35.8,168.8l13-34l4.5,0
		c0.7,0.1,1.4,0.2,2.1,0.2h105.2c0.6,0,1.3-0.1,1.9-0.1l4.7,0l13,34c0,0,0,0,0,0L35.8,168.8z"/>
</g>
</svg>
