<?xml version="1.0" encoding="utf-8"?>
<!-- Generator: Adobe Illustrator 17.0.0, SVG Export Plug-In . SVG Version: 6.00 Build 0)  -->
<!DOCTYPE svg PUBLIC "-//W3C//DTD SVG 1.1//EN" "http://www.w3.org/Graphics/SVG/1.1/DTD/svg11.dtd">
<svg version="1.1" id="Layer_1" xmlns="http://www.w3.org/2000/svg" xmlns:xlink="http://www.w3.org/1999/xlink" x="0px" y="0px"
	 width="216px" height="216px" viewBox="0 0 216 216" style="enable-background:new 0 0 216 216;" xml:space="preserve">
<path d="M102.859,61.444c-15.585,0-28.264,12.68-28.264,28.265s12.679,28.265,28.264,28.265s28.265-12.68,28.265-28.265
	S118.444,61.444,102.859,61.444z M102.859,102.974c-7.313,0-13.264-5.95-13.264-13.265s5.95-13.265,13.264-13.265
	c7.314,0,13.265,5.95,13.265,13.265S110.174,102.974,102.859,102.974z"/>
<path d="M148.802,41.507c-8.352-9.379-23.356-20.574-47.415-20.574c-41.604,0-60.317,37.3-60.317,63.808
	c0,41.117,55.882,104.203,58.261,106.871c1.4,1.57,3.396,2.388,5.499,2.388c0.033,0,0.065,0,0.099,0
	c2.068,0,4.046-0.738,5.465-2.246c2.238-2.382,54.832-58.767,54.832-106.959C165.225,69.011,159.238,53.229,148.802,41.507z
	 M104.998,175.313c-17.478-20.996-48.929-64.219-48.929-90.511c0-20.279,14.06-48.838,45.317-48.838
	c31.722,0,48.838,25.162,48.838,48.838C150.225,118.54,118.164,159.795,104.998,175.313z"/>
</svg>
