<?xml version="1.0" encoding="utf-8"?>
<!-- Generator: Adobe Illustrator 18.0.0, SVG Export Plug-In . SVG Version: 6.00 Build 0)  -->
<!DOCTYPE svg PUBLIC "-//W3C//DTD SVG 1.1//EN" "http://www.w3.org/Graphics/SVG/1.1/DTD/svg11.dtd">
<svg version="1.1" id="Layer_1" xmlns="http://www.w3.org/2000/svg" xmlns:xlink="http://www.w3.org/1999/xlink" x="0px" y="0px"
	 viewBox="0 0 216 216" enable-background="new 0 0 216 216" xml:space="preserve">
<g>
	<path d="M108,62.9c-14.8,0-26.8,12-26.8,26.8s12,26.8,26.8,26.8s26.8-12,26.8-26.8S122.8,62.9,108,62.9z M108,104.5
		c-8.1,0-14.8-6.6-14.8-14.8s6.6-14.8,14.8-14.8s14.8,6.6,14.8,14.8S116.1,104.5,108,104.5z"/>
	<path d="M152.5,42.5c-8.1-9.1-22.8-20-46.3-20c-38.6,0-58.8,31.4-58.8,62.4c0,40.6,55.5,103.3,57.9,106c1.1,1.3,2.7,2.1,4.4,2.1
		c0,0,0.1,0,0.1,0c1.7,0,3.2-0.8,4.4-2c0.6-0.6,13.7-14.8,27-34.7c18.2-27.2,27.4-51.3,27.4-71.5C168.6,69.4,162.7,54,152.5,42.5z
		 M109.9,177.6c-13-15.6-50.4-62.9-50.4-92.8c0-24.2,14.7-50.3,46.8-50.3c32.7,0,50.3,25.9,50.3,50.3
		C156.6,120,122.3,163.1,109.9,177.6z"/>
</g>
</svg>
