<?xml version="1.0" encoding="utf-8"?>
<!-- Generator: Adobe Illustrator 17.0.0, SVG Export Plug-In . SVG Version: 6.00 Build 0)  -->
<!DOCTYPE svg PUBLIC "-//W3C//DTD SVG 1.1//EN" "http://www.w3.org/Graphics/SVG/1.1/DTD/svg11.dtd">
<svg version="1.1" id="Layer_1" xmlns="http://www.w3.org/2000/svg" xmlns:xlink="http://www.w3.org/1999/xlink" x="0px" y="0px"
	 width="216px" height="216px" viewBox="0 0 216 216" style="enable-background:new 0 0 216 216;" xml:space="preserve">
<path d="M192.815,164.007l-13.005-33.974c-0.613-1.6-1.429-3.037-2.55-4.262c1.05-2.301,1.74-4.848,1.74-7.537V51.848
	C179,41.791,170.639,34,160.582,34H55.418C45.361,34,37,41.791,37,51.848v66.387c0,2.69,0.69,5.236,1.74,7.537
	c-1.121,1.225-1.983,2.662-2.595,4.262l-12.982,33.974c-1.595,4.164-1.026,8.647,1.5,12.321c2.527,3.674,6.71,5.672,11.169,5.672
	h144.336c4.459,0,8.631-1.998,11.158-5.672C193.853,172.654,194.41,168.171,192.815,164.007z M52,51.848
	C52,50.062,53.633,49,55.418,49h105.164c1.785,0,3.418,1.062,3.418,2.848v66.387c0,1.474-1.176,2.766-2.526,2.766H54.526
	c-1.35,0-2.526-1.292-2.526-2.766V51.848z M37.95,167l11.89-31h3.414c0.711,0,1.431,0,2.164,0h105.164c0.734,0,1.453,0,2.164,0
	h3.414l11.89,31H37.95z"/>
</svg>
