<?xml version="1.0" encoding="utf-8"?>
<!-- Generator: Adobe Illustrator 17.0.0, SVG Export Plug-In . SVG Version: 6.00 Build 0)  -->
<!DOCTYPE svg PUBLIC "-//W3C//DTD SVG 1.1//EN" "http://www.w3.org/Graphics/SVG/1.1/DTD/svg11.dtd">
<svg version="1.1" id="Layer_1" xmlns="http://www.w3.org/2000/svg" xmlns:xlink="http://www.w3.org/1999/xlink" x="0px" y="0px"
	 width="216px" height="216px" viewBox="0 0 216 216" style="enable-background:new 0 0 216 216;" xml:space="preserve">
<path d="M35.967,94.434c-11.707,16.688-8.705,33.533-6.057,48.396c0.174,0.977,0.348,1.952,0.518,2.926
	c2.468,14.19,5.849,33.626,22.86,36.627c6.216,1.098,20.233,2.954,33.345,2.954c10.451,0,18.002-1.162,23.084-3.554
	c5.729-2.695,9.58-5.499,12.675-7.751c3.015-2.194,4.53-3.256,6.023-3.405c0.643-0.064,1.458-0.097,2.421-0.097
	c2.946,0,6.529,0.299,9.519,0.617c-0.057,0.349-0.097,0.704-0.104,1.07c-0.068,4.142,3.234,7.394,7.376,7.462l32.75,0.321
	c0.041,0,0.082,0,0.123,0c1.966,0,3.855-0.555,5.26-1.936c1.433-1.41,2.24-3.119,2.24-5.129V99.5c0-4.143-3.357-7.5-7.5-7.5H148
	c-1.748,0-3.352,0.603-4.627,1.605c-7.823-2.731-17.287-7.356-20.481-12.58c-6.815-11.152-20.385-45.192-20.521-45.535
	c-1.021-2.565-3.368-4.362-6.111-4.679c-0.213-0.024-1.364-0.146-3.067-0.146c-16.009,0-26.354,9.603-26.354,24.463
	c0,10.245,1.857,19.78,3.763,26.869c-1.56-0.11-3.201-0.177-4.891-0.177C52.041,81.819,41.756,86.182,35.967,94.434z M173,165.311
	l-18.033-0.223c0.016-0.202,0.033-0.405,0.033-0.609V107h18V165.311z M48.246,103.048c3.611-5.147,11.491-6.229,17.465-6.229
	c7.424,0,13.879,1.657,13.93,1.67c2.77,0.731,5.72-0.18,7.594-2.352c1.873-2.172,2.345-5.221,1.214-7.856
	c-0.066-0.154-6.609-15.607-6.609-33.154c0-2.574-0.001-8.288,8.527-9.307c4.124,10.116,13.83,33.377,19.728,43.026
	c6.395,10.464,21.486,16.675,29.906,19.446v47.741c-2.961-0.278-6.261-0.505-9.164-0.505c-1.48,0-2.76,0.056-3.913,0.171
	c-5.606,0.561-9.547,3.429-13.358,6.203c-2.716,1.977-5.794,4.217-10.234,6.307c-1.358,0.64-5.705,2.126-16.697,2.126
	c-10.51,0-23.301-1.413-30.738-2.726c-5.586-0.985-8.066-9.345-10.689-24.426c-0.173-0.994-0.35-1.99-0.527-2.987
	C42.232,126.479,40.121,114.63,48.246,103.048z"/>
</svg>
