<?xml version="1.0" encoding="utf-8"?>
<!-- Generator: Adobe Illustrator 17.0.0, SVG Export Plug-In . SVG Version: 6.00 Build 0)  -->
<!DOCTYPE svg PUBLIC "-//W3C//DTD SVG 1.1//EN" "http://www.w3.org/Graphics/SVG/1.1/DTD/svg11.dtd">
<svg version="1.1" id="Layer_1" xmlns="http://www.w3.org/2000/svg" xmlns:xlink="http://www.w3.org/1999/xlink" x="0px" y="0px"
	 width="216px" height="216px" viewBox="0 0 216 216" style="enable-background:new 0 0 216 216;" xml:space="preserve">
<path d="M77.5,63.5c0,4.143,3.357,7.5,7.5,7.5h85c4.143,0,7.5-3.357,7.5-7.5S174.143,56,170,56H85C80.857,56,77.5,59.357,77.5,63.5z
	"/>
<path d="M85,116h85c4.143,0,7.5-3.357,7.5-7.5s-3.357-7.5-7.5-7.5H85c-4.143,0-7.5,3.357-7.5,7.5S80.857,116,85,116z"/>
<path d="M85,161h85c4.143,0,7.5-3.357,7.5-7.5s-3.357-7.5-7.5-7.5H85c-4.143,0-7.5,3.357-7.5,7.5S80.857,161,85,161z"/>
<path d="M45.719,72h3.563c4.92,0,8.908-3.58,8.908-8.5S54.202,55,49.281,55h-3.563c-4.92,0-8.908,3.58-8.908,8.5
	S40.798,72,45.719,72z"/>
<path d="M45.719,117h3.563c4.92,0,8.908-3.58,8.908-8.5s-3.988-8.5-8.908-8.5h-3.563c-4.92,0-8.908,3.58-8.908,8.5
	S40.798,117,45.719,117z"/>
<path d="M45.719,162h3.563c4.92,0,8.908-3.58,8.908-8.5s-3.988-8.5-8.908-8.5h-3.563c-4.92,0-8.908,3.58-8.908,8.5
	S40.798,162,45.719,162z"/>
</svg>
