<?xml version="1.0" encoding="utf-8"?>
<!-- Generator: Adobe Illustrator 18.0.0, SVG Export Plug-In . SVG Version: 6.00 Build 0)  -->
<!DOCTYPE svg PUBLIC "-//W3C//DTD SVG 1.1//EN" "http://www.w3.org/Graphics/SVG/1.1/DTD/svg11.dtd">
<svg version="1.1" id="Layer_1" xmlns="http://www.w3.org/2000/svg" xmlns:xlink="http://www.w3.org/1999/xlink" x="0px" y="0px"
	 viewBox="0 0 216 216" enable-background="new 0 0 216 216" xml:space="preserve">
<g>
	<path d="M153,53c0-11.6-9.4-21-21-21H84c-11.6,0-21,9.4-21,21V165c0,11.6,9.4,21,21,21H132c11.6,0,21-9.4,21-21V53z M141,165
		c0,5-4,9-9,9H84c-5,0-9-4-9-9V53c0-5,4-9,9-9H132c5,0,9,4,9,9V165z"/>
	<path d="M107,145c-1.6,0-3.1,0.6-4.2,1.8c-1.1,1.1-1.8,2.7-1.8,4.2s0.6,3.1,1.8,4.2c1.1,1.1,2.7,1.8,4.2,1.8s3.1-0.6,4.2-1.8
		c1.1-1.1,1.8-2.7,1.8-4.2s-0.6-3.1-1.8-4.2C110.1,145.6,108.6,145,107,145z"/>
</g>
</svg>
