<?xml version="1.0" encoding="utf-8"?>
<!-- Generator: Adobe Illustrator 18.0.0, SVG Export Plug-In . SVG Version: 6.00 Build 0)  -->
<!DOCTYPE svg PUBLIC "-//W3C//DTD SVG 1.1//EN" "http://www.w3.org/Graphics/SVG/1.1/DTD/svg11.dtd">
<svg version="1.1" id="Layer_1" xmlns="http://www.w3.org/2000/svg" xmlns:xlink="http://www.w3.org/1999/xlink" x="0px" y="0px"
	 viewBox="0 0 216 216" enable-background="new 0 0 216 216" xml:space="preserve">
<g>
	<path d="M185.4,51c0-3.3-2.7-6-6-6h-142c-3.3,0-6,2.7-6,6v114c0,3.3,2.7,6,6,6h142c3.3,0,6-2.7,6-6V51z M43.4,159V87.9l60.3,51.9
		c1.1,1,2.4,1.4,3.8,1.4c1.4,0,2.9-0.5,4.1-1.4l61.8-51.7V159H43.4z M173.4,57v15.5c-1,0.1-0.5,0.2-0.6,0.2l-65.2,54.7l-64-55
		c-0.1-0.1-0.2-0.2-0.2-0.3V57H173.4z"/>
</g>
</svg>
