<?xml version="1.0" encoding="utf-8"?>
<!-- Generator: Adobe Illustrator 17.0.0, SVG Export Plug-In . SVG Version: 6.00 Build 0)  -->
<!DOCTYPE svg PUBLIC "-//W3C//DTD SVG 1.1//EN" "http://www.w3.org/Graphics/SVG/1.1/DTD/svg11.dtd">
<svg version="1.1" id="Layer_1" xmlns="http://www.w3.org/2000/svg" xmlns:xlink="http://www.w3.org/1999/xlink" x="0px" y="0px"
	 width="216px" height="216px" viewBox="0 0 216 216" style="enable-background:new 0 0 216 216;" xml:space="preserve">
<path d="M45,72h128c4.143,0,7.5-3.357,7.5-7.5S177.143,57,173,57H45c-4.143,0-7.5,3.357-7.5,7.5S40.857,72,45,72z"/>
<path d="M45,117h128c4.143,0,7.5-3.357,7.5-7.5s-3.357-7.5-7.5-7.5H45c-4.143,0-7.5,3.357-7.5,7.5S40.857,117,45,117z"/>
<path d="M45,162h128c4.143,0,7.5-3.357,7.5-7.5s-3.357-7.5-7.5-7.5H45c-4.143,0-7.5,3.357-7.5,7.5S40.857,162,45,162z"/>
</svg>
