<?xml version="1.0" encoding="utf-8"?>
<!-- Generator: Adobe Illustrator 18.0.0, SVG Export Plug-In . SVG Version: 6.00 Build 0)  -->
<!DOCTYPE svg PUBLIC "-//W3C//DTD SVG 1.1//EN" "http://www.w3.org/Graphics/SVG/1.1/DTD/svg11.dtd">
<svg version="1.1" id="Layer_1" xmlns="http://www.w3.org/2000/svg" xmlns:xlink="http://www.w3.org/1999/xlink" x="0px" y="0px"
	 viewBox="0 0 216 216" enable-background="new 0 0 216 216" xml:space="preserve">
<g>
	<path d="M41.6,90h43.8c3.3,0,5.6-3.1,5.6-6.5V41.6c0-3.3-2.7-6-6-6s-6,2.7-6,6v28.3L48.4,39.1c-2.3-2.3-6.1-2.3-8.4,0
		c-2.3,2.3-2.3,6.4,0,8.7l30,30.2H41.6c-3.3,0-6,2.7-6,6S38.3,90,41.6,90z"/>
	<path d="M41.6,137h27.8l-30.3,30.3c-2.3,2.3-2.3,6.2,0,8.5c1.2,1.2,2.7,1.8,4.2,1.8s3-0.6,4.2-1.7L78,145.4v29c0,3.3,2.7,6,6,6
		s6-2.7,6-6v-43.2c0-3.3-2.6-6.1-5.9-6.1H41.6c-3.3,0-6,2.7-6,6S38.3,137,41.6,137z"/>
	<path d="M180.4,134c0-3.3-2.7-6-6-6h-42.9c-3.3,0-6.5,2.3-6.5,5.6v40.7c0,3.3,2.7,6,6,6s6-2.7,6-6V147l30.2,29.9
		c1.2,1.2,2.8,1.8,4.4,1.8s3.1-0.6,4.3-1.8c2.3-2.3,2.4-6,0-8.3L147.1,140h27.3C177.7,140,180.4,137.3,180.4,134z"/>
	<path d="M174.4,80h-29l30.4-30.4c2.3-2.3,2.3-6.1,0-8.5c-2.3-2.3-6.4-2.3-8.7,0L137,71V41.6c0-3.3-2.7-6-6-6s-6,2.7-6,6V86
		c0,3.3,3.2,6,6.5,6h42.9c3.3,0,6-2.7,6-6S177.7,80,174.4,80z"/>
</g>
</svg>
