<?xml version="1.0" encoding="utf-8"?>
<!-- Generator: Adobe Illustrator 18.0.0, SVG Export Plug-In . SVG Version: 6.00 Build 0)  -->
<!DOCTYPE svg PUBLIC "-//W3C//DTD SVG 1.1//EN" "http://www.w3.org/Graphics/SVG/1.1/DTD/svg11.dtd">
<svg version="1.1" id="Layer_1" xmlns="http://www.w3.org/2000/svg" xmlns:xlink="http://www.w3.org/1999/xlink" x="0px" y="0px"
	 viewBox="0 0 216 216" enable-background="new 0 0 216 216" xml:space="preserve">
<g>
	<path d="M171.7,33.6l-42.9,27.6L85.8,24.8c-2.1-1.7-5-1.9-7.3-0.4L33.6,55.1c-1.6,1.1-2.6,3-2.6,5v111.5c0,2.2,1.2,4.3,3.2,5.3
		c2,1,4.3,0.9,6.2-0.4l37.9-25.9l45.9,40.1c1.1,1,2.5,1.5,3.9,1.5c1.1,0,2.1-0.3,3.1-0.9l46.9-28.1c1.8-1.1,2.9-3,2.9-5.1V38.6
		c0-2.2-1.2-4.2-3.1-5.3C175.9,32.3,173.6,32.4,171.7,33.6z M169,154.8l-40.2,24.1L85,140.6V118c0-3.3-2.7-6-6-6s-6,2.7-6,6v21.8
		l-30,20.5v-97l38.5-26.3L122,71.1V147c0,3.3,2.7,6,6,6s6-2.7,6-6V72.2l35-22.6V154.8z"/>
	<path d="M99.9,62.8c-2.3-2.3-6.1-2.3-8.5,0L81.2,73L71,62.8c-2.3-2.3-6.1-2.3-8.5,0c-2.3,2.3-2.3,6.1,0,8.5l10.2,10.2L62.5,91.8
		c-2.3,2.3-2.3,6.1,0,8.5c1.2,1.2,2.7,1.8,4.2,1.8s3.1-0.6,4.2-1.8L81.2,90l10.2,10.2c1.2,1.2,2.7,1.8,4.2,1.8s3.1-0.6,4.2-1.8
		c2.3-2.3,2.3-6.1,0-8.5L89.7,81.5l10.2-10.2C102.3,68.9,102.3,65.1,99.9,62.8z"/>
</g>
</svg>
