<?xml version="1.0" encoding="utf-8"?>
<!-- Generator: Adobe Illustrator 17.0.0, SVG Export Plug-In . SVG Version: 6.00 Build 0)  -->
<!DOCTYPE svg PUBLIC "-//W3C//DTD SVG 1.1//EN" "http://www.w3.org/Graphics/SVG/1.1/DTD/svg11.dtd">
<svg version="1.1" id="Layer_1" xmlns="http://www.w3.org/2000/svg" xmlns:xlink="http://www.w3.org/1999/xlink" x="0px" y="0px"
	 width="216px" height="216px" viewBox="0 0 216 216" style="enable-background:new 0 0 216 216;" xml:space="preserve">
<path d="M48.917,138.126c1.464,1.464,3.384,2.196,5.303,2.196s3.839-0.732,5.304-2.197c2.929-2.929,2.929-7.678-0.001-10.606
	L49.003,117H99v49.997l-11.298-11.298c-2.93-2.929-7.679-2.93-10.606-0.001c-2.93,2.929-2.93,7.678-0.001,10.606l25.602,25.603
	c1.407,1.407,3.314,2.197,5.304,2.197s3.896-0.79,5.304-2.197l25.161-25.162c2.929-2.929,2.929-7.678-0.001-10.606
	c-2.928-2.928-7.677-2.929-10.606,0.001L114,169.997V117h52.997l-11.101,11.101c-2.929,2.93-2.929,7.678,0,10.607
	c1.465,1.464,3.385,2.196,5.304,2.196s3.839-0.732,5.304-2.196l25.404-25.404c1.406-1.407,2.196-3.314,2.196-5.304
	s-0.79-3.896-2.197-5.304l-24.119-24.118c-2.928-2.928-7.677-2.929-10.606,0.001c-2.929,2.929-2.929,7.678,0.001,10.606L169.997,102
	H114V46.003l15.002,15.003c1.465,1.465,3.384,2.197,5.304,2.197c1.919,0,3.839-0.732,5.303-2.196
	c2.93-2.929,2.93-7.678,0.001-10.606l-26.306-26.307c-1.407-1.407-3.314-2.197-5.304-2.197s-3.896,0.79-5.304,2.196L77.292,49.497
	c-2.929,2.93-2.929,7.678,0,10.607c2.93,2.928,7.678,2.928,10.607,0L99,49.003V102H46.003l14.6-14.6
	c2.93-2.929,2.93-7.678,0.001-10.606c-2.929-2.93-7.678-2.929-10.606-0.001l-25.904,25.903c-1.407,1.407-2.197,3.314-2.197,5.304
	s0.79,3.896,2.197,5.304L48.917,138.126z"/>
</svg>
