<?xml version="1.0" encoding="utf-8"?>
<!-- Generator: Adobe Illustrator 17.0.0, SVG Export Plug-In . SVG Version: 6.00 Build 0)  -->
<!DOCTYPE svg PUBLIC "-//W3C//DTD SVG 1.1//EN" "http://www.w3.org/Graphics/SVG/1.1/DTD/svg11.dtd">
<svg version="1.1" id="Layer_1" xmlns="http://www.w3.org/2000/svg" xmlns:xlink="http://www.w3.org/1999/xlink" x="0px" y="0px"
	 width="216px" height="216px" viewBox="0 0 216 216" style="enable-background:new 0 0 216 216;" xml:space="preserve">
<path d="M154,51.542C154,39.092,143.907,29,131.457,29H83.543C71.093,29,61,39.092,61,51.542v111.916
	C61,175.908,71.093,186,83.543,186h47.914c12.45,0,22.543-10.092,22.543-22.542V51.542z M139,163.458
	c0,4.165-3.377,7.542-7.543,7.542H83.543c-4.166,0-7.543-3.377-7.543-7.542V51.542C76,47.377,79.377,44,83.543,44h47.914
	c4.166,0,7.543,3.377,7.543,7.542V163.458z"/>
<path d="M109,141h-2c-4.143,0-7.5,3.357-7.5,7.5s3.357,7.5,7.5,7.5h2c4.143,0,7.5-3.357,7.5-7.5S113.143,141,109,141z"/>
</svg>
