<?xml version="1.0" encoding="utf-8"?>
<!-- Generator: Adobe Illustrator 17.0.0, SVG Export Plug-In . SVG Version: 6.00 Build 0)  -->
<!DOCTYPE svg PUBLIC "-//W3C//DTD SVG 1.1//EN" "http://www.w3.org/Graphics/SVG/1.1/DTD/svg11.dtd">
<svg version="1.1" id="Layer_1" xmlns="http://www.w3.org/2000/svg" xmlns:xlink="http://www.w3.org/1999/xlink" x="0px" y="0px"
	 width="216px" height="216px" viewBox="0 0 216 216" style="enable-background:new 0 0 216 216;" xml:space="preserve">
<path d="M51.015,151H99v20H64c-4.143,0-7.5,3.357-7.5,7.5s3.357,7.5,7.5,7.5h87c4.143,0,7.5-3.357,7.5-7.5s-3.357-7.5-7.5-7.5h-37
	v-20h50.985c12.32,0,22.015-9.643,22.015-21.963V56.173C187,43.853,177.306,34,164.985,34H51.015C38.694,34,29,43.853,29,56.173
	v72.864C29,141.357,38.694,151,51.015,151z M173,129.656c0,4.056-3.288,7.344-7.344,7.344H51.344c-4.056,0-7.344-3.288-7.344-7.344
	V56.344C44,52.288,47.288,49,51.344,49h114.313c4.056,0,7.344,3.288,7.344,7.344V129.656z"/>
</svg>
