<?xml version="1.0" encoding="utf-8"?>
<!-- Generator: Adobe Illustrator 17.0.0, SVG Export Plug-In . SVG Version: 6.00 Build 0)  -->
<!DOCTYPE svg PUBLIC "-//W3C//DTD SVG 1.1//EN" "http://www.w3.org/Graphics/SVG/1.1/DTD/svg11.dtd">
<svg version="1.1" id="Layer_1" xmlns="http://www.w3.org/2000/svg" xmlns:xlink="http://www.w3.org/1999/xlink" x="0px" y="0px"
	 width="216px" height="216px" viewBox="0 0 216 216" style="enable-background:new 0 0 216 216;" xml:space="preserve">
<path d="M41.609,91h39.242c1.128,1,2.38,0.965,3.634,0.965c1.919,0,3.839-0.722,5.304-2.186c0.221-0.221,0.486-0.45,0.673-0.69
	C91.977,87.717,93,85.746,93,83.541V41.609c0-4.143-3.357-7.5-7.5-7.5s-7.5,3.357-7.5,7.5v25.65L49.73,39.057
	c-2.93-2.928-7.711-2.928-10.641,0c-2.929,2.93-2.945,7.657-0.017,10.587L65.434,76H41.609c-4.143,0-7.5,3.357-7.5,7.5
	S37.467,91,41.609,91z"/>
<path d="M41.609,139H66.75l-27.693,27.515c-2.929,2.93-2.929,7.588,0,10.518c1.465,1.464,3.385,2.152,5.304,2.152
	s4.032-0.755,5.497-2.219L77,149.994v24.396c0,4.143,3.357,7.5,7.5,7.5s7.5-3.357,7.5-7.5v-40.559c0-2.596,0.044-5.558-2.018-7.62
	c-0.062-0.062-0.225,0.064-0.289,0.005c-1.369-1.47-3.413-2.216-5.581-2.216H41.609c-4.143,0-7.5,3.357-7.5,7.5
	S37.467,139,41.609,139z"/>
<path d="M181.891,133.5c0-4.143-3.357-7.5-7.5-7.5h-42.914c-4.143,0-7.477,3.506-7.477,7.648v40.742c0,4.143,3.357,7.5,7.5,7.5
	s7.5-3.357,7.5-7.5v-24.807l27.348,27.359c1.465,1.464,3.379,2.196,5.298,2.196s3.836-0.732,5.301-2.196
	c2.929-2.93,2.927-7.752-0.001-10.682L151.756,141h22.635C178.533,141,181.891,137.643,181.891,133.5z"/>
<path d="M174.391,79h-26.33l28.883-29.109c2.929-2.93,2.929-7.791,0-10.721c-2.93-2.928-7.666-2.984-10.596-0.057L139,66.416V41.609
	c0-4.143-3.357-7.5-7.5-7.5s-7.5,3.357-7.5,7.5v44.438c0,4.143,3.334,7.953,7.477,7.953h42.914c4.143,0,7.5-3.357,7.5-7.5
	S178.533,79,174.391,79z"/>
</svg>
