<?xml version="1.0" encoding="utf-8"?>
<!-- Generator: Adobe Illustrator 17.0.0, SVG Export Plug-In . SVG Version: 6.00 Build 0)  -->
<!DOCTYPE svg PUBLIC "-//W3C//DTD SVG 1.1//EN" "http://www.w3.org/Graphics/SVG/1.1/DTD/svg11.dtd">
<svg version="1.1" id="Layer_1" xmlns="http://www.w3.org/2000/svg" xmlns:xlink="http://www.w3.org/1999/xlink" x="0px" y="0px"
	 width="216px" height="216px" viewBox="0 0 216 216" style="enable-background:new 0 0 216 216;" xml:space="preserve">
<path d="M31,60.069v111.522c0,2.792,1.551,5.354,4.025,6.646c2.474,1.294,5.463,1.107,7.755-0.488l36.172-25.143l45.399,39.37
	c1.398,1.213,3.151,1.834,4.916,1.834c1.319,0,2.646-0.348,3.835-1.056l47.233-28.121c2.271-1.353,3.663-3.801,3.663-6.444V38.622
	c0-2.735-1.489-5.254-3.887-6.572c-2.396-1.318-5.321-1.228-7.632,0.239L129.819,59.36L87.876,23.701
	c-2.584-2.197-6.318-2.385-9.112-0.463L34.247,53.893C32.214,55.292,31,57.602,31,60.069z M46,64.011l36.538-25.159L122,72.401V147
	c0,4.143,3.357,7.5,7.5,7.5s7.5-3.357,7.5-7.5V72.57l32-20.306v101.663l-38.914,23.168L88,140.598V118c0-4.143-3.357-7.5-7.5-7.5
	S73,113.857,73,118v20.478l-27,18.768V64.011z"/>
<path d="M81.191,92.123l9.173,9.173c1.465,1.464,3.385,2.196,5.304,2.196s3.839-0.732,5.304-2.196c2.929-2.93,2.929-7.678,0-10.607
	l-9.173-9.173l9.173-9.173c2.929-2.93,2.929-7.678,0-10.607c-2.93-2.928-7.678-2.928-10.607,0l-9.173,9.173l-9.173-9.173
	c-2.93-2.928-7.679-2.928-10.607,0c-2.929,2.93-2.929,7.678,0,10.607l9.173,9.173l-9.173,9.173c-2.929,2.93-2.929,7.678,0,10.607
	c1.464,1.464,3.384,2.196,5.303,2.196s3.839-0.732,5.304-2.196L81.191,92.123z"/>
</svg>
