<?xml version="1.0" encoding="utf-8"?>
<!-- Generator: Adobe Illustrator 17.0.0, SVG Export Plug-In . SVG Version: 6.00 Build 0)  -->
<!DOCTYPE svg PUBLIC "-//W3C//DTD SVG 1.1//EN" "http://www.w3.org/Graphics/SVG/1.1/DTD/svg11.dtd">
<svg version="1.1" id="Layer_1" xmlns="http://www.w3.org/2000/svg" xmlns:xlink="http://www.w3.org/1999/xlink" x="0px" y="0px"
	 width="216px" height="216px" viewBox="0 0 216 216" style="enable-background:new 0 0 216 216;" xml:space="preserve">
<path d="M157,101H59c-4.143,0-7.5,3.357-7.5,7.5s3.357,7.5,7.5,7.5h98c4.143,0,7.5-3.357,7.5-7.5S161.143,101,157,101z"/>
<path d="M108,18.402c-49.404,0-89.598,40.193-89.598,89.598S58.596,197.598,108,197.598s89.598-40.193,89.598-89.598
	S157.404,18.402,108,18.402z M108,182.598c-41.133,0-74.598-33.465-74.598-74.598S66.867,33.402,108,33.402
	S182.598,66.867,182.598,108S149.133,182.598,108,182.598z"/>
</svg>
