<?xml version="1.0" encoding="utf-8"?>
<!-- Generator: Adobe Illustrator 18.0.0, SVG Export Plug-In . SVG Version: 6.00 Build 0)  -->
<!DOCTYPE svg PUBLIC "-//W3C//DTD SVG 1.1//EN" "http://www.w3.org/Graphics/SVG/1.1/DTD/svg11.dtd">
<svg version="1.1" id="Layer_1" xmlns="http://www.w3.org/2000/svg" xmlns:xlink="http://www.w3.org/1999/xlink" x="0px" y="0px"
	 viewBox="0 0 216 216" enable-background="new 0 0 216 216" xml:space="preserve">
<g>
	<path d="M51,150h51v24H64c-3.3,0-6,2.7-6,6s2.7,6,6,6h87c3.3,0,6-2.7,6-6s-2.7-6-6-6h-37v-24h51c11.5,0,21-9.5,21-21V56.2
		c0-11.5-9.5-21.2-21-21.2H51c-11.5,0-21,9.7-21,21.2V129C30,140.5,39.5,150,51,150z M174,129.2c0,4.9-4,8.8-8.8,8.8H50.8
		c-4.9,0-8.8-4-8.8-8.8V55.8c0-4.9,4-8.8,8.8-8.8h114.3c4.9,0,8.8,4,8.8,8.8V129.2z"/>
</g>
</svg>
