<?xml version="1.0" encoding="utf-8"?>
<!-- Generator: Adobe Illustrator 17.0.0, SVG Export Plug-In . SVG Version: 6.00 Build 0)  -->
<!DOCTYPE svg PUBLIC "-//W3C//DTD SVG 1.1//EN" "http://www.w3.org/Graphics/SVG/1.1/DTD/svg11.dtd">
<svg version="1.1" id="Layer_1" xmlns="http://www.w3.org/2000/svg" xmlns:xlink="http://www.w3.org/1999/xlink" x="0px" y="0px"
	 width="216px" height="216px" viewBox="0 0 216 216" style="enable-background:new 0 0 216 216;" xml:space="preserve">
<path d="M50.486,190.933h119.81c0.862,0,1.717-0.148,2.529-0.439c0.905-0.324,22.175-8.169,22.175-27.949V67.433
	c0-4.143-3.358-7.5-7.5-7.5H168v-9v-18.5c0-4.143-3.358-7.5-7.5-7.5h-132c-4.142,0-7.5,3.357-7.5,7.5v128.789
	c0,0.421,0.036,0.841,0.106,1.256C22.777,172.319,31.069,190.933,50.486,190.933z M36,39.933h117v11v16.5v85.5
	c0,4.143,3.358,7.5,7.5,7.5s7.5-3.357,7.5-7.5v-78h12v87.611c0,7.563-8.229,12.022-11.209,13.389H50.486
	c-10.522,0-13.875-12.654-14.486-15.446V39.933z"/>
<path d="M93,64.433c0-4.142-3.358-7.5-7.5-7.5h-28c-4.142,0-7.5,3.358-7.5,7.5v33c0,4.142,3.358,7.5,7.5,7.5h28
	c4.142,0,7.5-3.358,7.5-7.5V64.433z M65,71.933h12v18H65V71.933z"/>
<path d="M55,159.933h78c4.142,0,7.5-3.357,7.5-7.5s-3.358-7.5-7.5-7.5H55c-4.142,0-7.5,3.357-7.5,7.5S50.858,159.933,55,159.933z"/>
<path d="M56,131.933h76c4.142,0,7.5-3.357,7.5-7.5c0-4.143-3.358-7.5-7.5-7.5H56c-4.142,0-7.5,3.357-7.5,7.5
	C48.5,128.575,51.858,131.933,56,131.933z"/>
<path d="M108,73.933h25c4.142,0,7.5-3.357,7.5-7.5s-3.358-7.5-7.5-7.5h-25c-4.142,0-7.5,3.357-7.5,7.5S103.858,73.933,108,73.933z"
	/>
<path d="M108,101.933h25c4.142,0,7.5-3.357,7.5-7.5s-3.358-7.5-7.5-7.5h-25c-4.142,0-7.5,3.357-7.5,7.5S103.858,101.933,108,101.933
	z"/>
</svg>
