<?xml version="1.0" encoding="utf-8"?>
<!-- Generator: Adobe Illustrator 17.0.0, SVG Export Plug-In . SVG Version: 6.00 Build 0)  -->
<!DOCTYPE svg PUBLIC "-//W3C//DTD SVG 1.1//EN" "http://www.w3.org/Graphics/SVG/1.1/DTD/svg11.dtd">
<svg version="1.1" id="Layer_1" xmlns="http://www.w3.org/2000/svg" xmlns:xlink="http://www.w3.org/1999/xlink" x="0px" y="0px"
	 width="216px" height="216px" viewBox="0 0 216 216" style="enable-background:new 0 0 216 216;" xml:space="preserve">
<path d="M39,50.389v130.223c0,4.143,3.857,7.389,8,7.389h122c4.143,0,7-3.246,7-7.389V50.389c0-4.143-2.857-7.389-7-7.389h-17
	v-7.611c0-4.143-2.857-7.389-7-7.389h-19.337c-2.929-5-8.625-12-17.663-12c-9.064,0-14.53,7-17.323,12H72c-4.143,0-8,3.246-8,7.389
	V43H47C42.857,43,39,46.246,39,50.389z M79,43h16.5c3.229,0,6.094-2.121,7.115-5.184c0.786-2.359,3.496-6.9,5.385-6.9
	c1.963,0,4.859,4.288,5.978,7.176C115.075,41.019,117.874,43,121,43h16v25H79V43z M54,58h10v17.389C64,79.531,67.857,83,72,83h73
	c4.143,0,7-3.469,7-7.611V58h9v115H54V58z"/>
</svg>
