<?xml version="1.0" encoding="utf-8"?>
<!-- Generator: Adobe Illustrator 18.0.0, SVG Export Plug-In . SVG Version: 6.00 Build 0)  -->
<!DOCTYPE svg PUBLIC "-//W3C//DTD SVG 1.1//EN" "http://www.w3.org/Graphics/SVG/1.1/DTD/svg11.dtd">
<svg version="1.1" id="Layer_1" xmlns="http://www.w3.org/2000/svg" xmlns:xlink="http://www.w3.org/1999/xlink" x="0px" y="0px"
	 viewBox="0 0 216 216" enable-background="new 0 0 216 216" xml:space="preserve">
<g>
	<path d="M190,45c0-3.3-2.7-6-6-6H32c-3.3,0-6,2.7-6,6v126c0,3.3,2.7,6,6,6h152c3.3,0,6-2.7,6-6V45z M178,51v76.8l-35.2-24.7
		c-2.4-1.6-5.5-1.4-7.5,0.6L117,121.3l-38-36.7c-1.2-1.2-2.9-1.8-4.6-1.7c-1.7,0.1-3.3,1-4.3,2.3l-32,41.1V51H178z M38,165v-19.2
		l37.4-47.9l37.4,36.1c2.3,2.2,6,2.2,8.3,0l18.8-18.2l38.1,26.7V165H38z"/>
	<path d="M122.7,96.6c6.4,0,11.6-5.2,11.6-11.6s-5.2-11.6-11.6-11.6s-11.6,5.2-11.6,11.6S116.3,96.6,122.7,96.6z"/>
</g>
</svg>
