<?xml version="1.0" encoding="utf-8"?>
<!-- Generator: Adobe Illustrator 17.0.0, SVG Export Plug-In . SVG Version: 6.00 Build 0)  -->
<!DOCTYPE svg PUBLIC "-//W3C//DTD SVG 1.1//EN" "http://www.w3.org/Graphics/SVG/1.1/DTD/svg11.dtd">
<svg version="1.1" id="Layer_1" xmlns="http://www.w3.org/2000/svg" xmlns:xlink="http://www.w3.org/1999/xlink" x="0px" y="0px"
	 width="216px" height="216px" viewBox="0 0 216 216" style="enable-background:new 0 0 216 216;" xml:space="preserve">
<path d="M108,197.597c49.404,0,89.598-40.193,89.598-89.598c0-49.403-40.193-89.597-89.598-89.597s-89.598,40.193-89.598,89.597
	C18.402,157.404,58.596,197.597,108,197.597z M108,33.403c41.133,0,74.598,33.464,74.598,74.597S149.133,182.597,108,182.597
	s-74.598-33.465-74.598-74.598S66.867,33.403,108,33.403z"/>
<path d="M85.406,145.491c4.143,0,7.5-3.357,7.5-7.5v-63c0-4.143-3.357-7.5-7.5-7.5s-7.5,3.357-7.5,7.5v63
	C77.906,142.133,81.264,145.491,85.406,145.491z"/>
<path d="M126.406,145.491c4.143,0,7.5-3.357,7.5-7.5v-63c0-4.143-3.357-7.5-7.5-7.5s-7.5,3.357-7.5,7.5v63
	C118.906,142.133,122.264,145.491,126.406,145.491z"/>
</svg>
