<?xml version="1.0" encoding="utf-8"?>
<!-- Generator: Adobe Illustrator 18.0.0, SVG Export Plug-In . SVG Version: 6.00 Build 0)  -->
<!DOCTYPE svg PUBLIC "-//W3C//DTD SVG 1.1//EN" "http://www.w3.org/Graphics/SVG/1.1/DTD/svg11.dtd">
<svg version="1.1" id="Layer_1" xmlns="http://www.w3.org/2000/svg" xmlns:xlink="http://www.w3.org/1999/xlink" x="0px" y="0px"
	 viewBox="0 0 216 216" enable-background="new 0 0 216 216" xml:space="preserve">
<g>
	<path d="M41,50.4v130.2c0,3.3,2.7,6.4,6,6.4h122c3.3,0,6-3.1,6-6.4V50.4c0-3.3-2.7-6.4-6-6.4h-18v-8.6c0-3.3-2.7-6.4-6-6.4h-20.2
		c-2.6-4-8-12-16.8-12c-8,0-13.5,7-16.4,12H72c-3.3,0-6,3.1-6,6.4v9.1c-0.3-0.1-0.7-0.5-1-0.5H47C43.7,44,41,47.1,41,50.4z M78,41
		h17.5c2.6,0,4.9-1.5,5.7-3.9c0.9-2.5,3.8-7.8,6.8-7.8c3.2,0,6.4,5.4,7.4,8c0.9,2.3,3.1,3.7,5.6,3.7h18v28H78V41z M53,56h12
		c0.3,0,0.7,0.4,1,0.3v19.1c0,3.3,2.7,5.6,6,5.6h73c3.3,0,6-2.3,6-5.6V56h12v119H53V56z"/>
</g>
</svg>
