<?xml version="1.0" encoding="utf-8"?>
<!-- Generator: Adobe Illustrator 17.0.0, SVG Export Plug-In . SVG Version: 6.00 Build 0)  -->
<!DOCTYPE svg PUBLIC "-//W3C//DTD SVG 1.1//EN" "http://www.w3.org/Graphics/SVG/1.1/DTD/svg11.dtd">
<svg version="1.1" id="Layer_1" xmlns="http://www.w3.org/2000/svg" xmlns:xlink="http://www.w3.org/1999/xlink" x="0px" y="0px"
	 width="216px" height="216px" viewBox="0 0 216 216" style="enable-background:new 0 0 216 216;" xml:space="preserve">
<path d="M182.082,62.467c-0.911-3.233-3.86-5.467-7.219-5.467H153V28.5c0-4.143-3.358-7.5-7.5-7.5h-70c-4.142,0-7.5,3.357-7.5,7.5
	V57H41.158c-3.36,0-6.31,2.234-7.22,5.469l-12.658,45C21.094,108.13,21,108.813,21,109.5v49c0,4.143,3.358,7.5,7.5,7.5h26.486
	l-6.402,19.118c-0.766,2.288-0.385,4.805,1.024,6.763S53.283,195,55.695,195h107.406c2.464,0,4.771-1.21,6.171-3.237
	c1.4-2.028,1.715-4.613,0.843-6.918L162.981,166H187.5c4.142,0,7.5-3.357,7.5-7.5v-48.24c0.094-0.927,0.017-1.874-0.242-2.793
	L182.082,62.467z M83,36h55v25.825c-0.318,0.832-0.5,1.731-0.5,2.675s0.182,1.843,0.5,2.675V79H83V36z M66.116,180l13.396-40h57.587
	l15.144,40H66.116z M180,151h-22.698l-8.009-21.155c-1.104-2.916-3.896-4.845-7.014-4.845H74.114c-3.224,0-6.088,2.061-7.112,5.118
	L60.009,151H36v-40.465L46.839,72H68v14.5c0,4.143,3.358,7.5,7.5,7.5h70c4.142,0,7.5-3.357,7.5-7.5V72h16.183L180,110.399V151z"/>
</svg>
