<?xml version="1.0" encoding="utf-8"?>
<!-- Generator: Adobe Illustrator 18.0.0, SVG Export Plug-In . SVG Version: 6.00 Build 0)  -->
<!DOCTYPE svg PUBLIC "-//W3C//DTD SVG 1.1//EN" "http://www.w3.org/Graphics/SVG/1.1/DTD/svg11.dtd">
<svg version="1.1" id="Layer_1" xmlns="http://www.w3.org/2000/svg" xmlns:xlink="http://www.w3.org/1999/xlink" x="0px" y="0px"
	 viewBox="0 0 216 216" enable-background="new 0 0 216 216" xml:space="preserve">
<g>
	<path d="M79.2,70.1c2.8-1.8,3.6-5.5,1.8-8.3c-1.8-2.8-5.5-3.6-8.3-1.8c-19.1,12.1-30.4,32.9-30.4,55.4c0,36.2,29.5,65.7,65.7,65.7
		s65.7-29.5,65.7-65.7c0-21.7-10.7-42-28.7-54.3c-2.7-1.9-6.5-1.2-8.3,1.6c-1.9,2.7-1.2,6.5,1.6,8.3c14.7,10,23.5,26.6,23.5,44.4
		c0,29.6-24.1,53.7-53.7,53.7s-53.7-24.1-53.7-53.7C54.3,96.9,63.6,80,79.2,70.1z"/>
	<path d="M114,121V39c0-3.3-2.7-6-6-6s-6,2.7-6,6v82c0,3.3,2.7,6,6,6S114,124.3,114,121z"/>
</g>
</svg>
