<?xml version="1.0" encoding="utf-8"?>
<!-- Generator: Adobe Illustrator 18.0.0, SVG Export Plug-In . SVG Version: 6.00 Build 0)  -->
<!DOCTYPE svg PUBLIC "-//W3C//DTD SVG 1.1//EN" "http://www.w3.org/Graphics/SVG/1.1/DTD/svg11.dtd">
<svg version="1.1" id="Layer_1" xmlns="http://www.w3.org/2000/svg" xmlns:xlink="http://www.w3.org/1999/xlink" x="0px" y="0px"
	 viewBox="0 0 216 216" enable-background="new 0 0 216 216" xml:space="preserve">
<g>
	<path d="M155.1,102.8L83.4,61.4c-1.9-1.1-4.1-1.1-6,0c-1.9,1.1-3,3.1-3,5.2v82.7c0,2.1,1.1,4.1,3,5.2c0.9,0.5,2,0.8,3,0.8
		s2.1-0.3,3-0.8l71.6-41.4c1.9-1.1,3-3.1,3-5.2S156.9,103.9,155.1,102.8z M86.4,139V77l53.6,31L86.4,139z"/>
	<path d="M108,19.9c-48.6,0-88.1,39.5-88.1,88.1s39.5,88.1,88.1,88.1s88.1-39.5,88.1-88.1S156.6,19.9,108,19.9z M108,184.1
		c-42,0-76.1-34.1-76.1-76.1S66,31.9,108,31.9S184.1,66,184.1,108S150,184.1,108,184.1z"/>
</g>
</svg>
