<?xml version="1.0" encoding="utf-8"?>
<!-- Generator: Adobe Illustrator 17.0.0, SVG Export Plug-In . SVG Version: 6.00 Build 0)  -->
<!DOCTYPE svg PUBLIC "-//W3C//DTD SVG 1.1//EN" "http://www.w3.org/Graphics/SVG/1.1/DTD/svg11.dtd">
<svg version="1.1" id="Layer_1" xmlns="http://www.w3.org/2000/svg" xmlns:xlink="http://www.w3.org/1999/xlink" x="0px" y="0px"
	 width="216px" height="216px" viewBox="0 0 216 216" style="enable-background:new 0 0 216 216;" xml:space="preserve">
<path d="M156.31,101.504l-71.639-41.36c-2.32-1.34-5.18-1.34-7.5,0s-3.75,3.815-3.75,6.495v82.722c0,2.68,1.43,5.155,3.75,6.495
	c1.16,0.67,2.455,1.005,3.75,1.005s2.59-0.335,3.75-1.005l71.639-41.361c2.32-1.34,3.75-3.815,3.75-6.495
	S158.63,102.844,156.31,101.504z M88.421,136.371V79.629l49.139,28.37L88.421,136.371z"/>
<path d="M108,18.403c-49.404,0-89.598,40.193-89.598,89.597c0,49.404,40.193,89.598,89.598,89.598s89.598-40.193,89.598-89.598
	C197.598,58.596,157.404,18.403,108,18.403z M108,182.597c-41.133,0-74.598-33.465-74.598-74.598S66.867,33.403,108,33.403
	s74.598,33.464,74.598,74.597S149.133,182.597,108,182.597z"/>
</svg>
