<?xml version="1.0" encoding="utf-8"?>
<!-- Generator: Adobe Illustrator 17.0.0, SVG Export Plug-In . SVG Version: 6.00 Build 0)  -->
<!DOCTYPE svg PUBLIC "-//W3C//DTD SVG 1.1//EN" "http://www.w3.org/Graphics/SVG/1.1/DTD/svg11.dtd">
<svg version="1.1" id="Layer_1" xmlns="http://www.w3.org/2000/svg" xmlns:xlink="http://www.w3.org/1999/xlink" x="0px" y="0px"
	 width="216px" height="216px" viewBox="0 0 216 216" style="enable-background:new 0 0 216 216;" xml:space="preserve">
<path d="M130.936,26.751l-23.553,23.554c-0.818,0.363-1.586,0.873-2.257,1.543c-0.671,0.671-1.18,1.44-1.544,2.258L38.021,119.67
	c-1.38,1.38-2.167,3.254-2.195,5.205l-0.689,47.385c-0.029,2.025,0.761,4.02,2.192,5.453c1.408,1.409,3.317,2.287,5.307,2.287
	c0.033,0,0.066,0,0.1,0l45.861-0.699c1.955-0.025,3.821-0.901,5.204-2.283l66.358-66.358c0.812-0.363,1.576-0.87,2.243-1.537
	c0.667-0.667,1.174-1.431,1.537-2.244l23.565-23.565c2.929-2.929,2.929-7.677,0-10.606l-45.962-45.961
	C138.613,23.82,133.865,23.822,130.936,26.751z M85.35,164.256l-35.103,0.468l0.533-36.609l60.003-60.003l35.355,35.355
	L85.35,164.256z M156.745,92.86L121.39,57.505l14.849-14.849l35.355,35.355L156.745,92.86z"/>
</svg>
