<?xml version="1.0" encoding="utf-8"?>
<!-- Generator: Adobe Illustrator 18.0.0, SVG Export Plug-In . SVG Version: 6.00 Build 0)  -->
<!DOCTYPE svg PUBLIC "-//W3C//DTD SVG 1.1//EN" "http://www.w3.org/Graphics/SVG/1.1/DTD/svg11.dtd">
<svg version="1.1" id="Layer_1" xmlns="http://www.w3.org/2000/svg" xmlns:xlink="http://www.w3.org/1999/xlink" x="0px" y="0px"
	 viewBox="0 0 216 216" enable-background="new 0 0 216 216" xml:space="preserve">
<g>
	<path d="M164,35.4L93.4,58.6L79.8,44.5c0,0-0.1-0.1-0.1-0.1c-10-10-24.6-21.8-37.6-21.8c-5.3,0-10,1.9-13.7,5.6
		c-5.3,5.3-9.7,14.9-0.4,30.8c4.8,8.3,11.8,15.7,16.6,20.5c0,0,0.1,0.1,0.1,0.1l14,13.5l-23.2,70.8c-0.8,2.5,0.1,5.3,2.3,6.8
		l22.6,15.6c2.7,1.9,6.4,1.2,8.3-1.5l34-49.1l8.7,8.4l3.7,41.7c0.2,2.3,1.7,4.3,3.9,5.1c0.7,0.2,1.4,0.4,2.1,0.4
		c1.6,0,3.1-0.6,4.2-1.8l64.2-64.2c1.7-1.7,2.2-4.2,1.4-6.4c-0.8-2.2-2.9-3.7-5.2-3.9l-40.5-2.6l-9.4-9.8l49-33.9
		c2.7-1.9,3.4-5.6,1.5-8.3l-15.6-22.6C169.3,35.6,166.5,34.6,164,35.4z M123.2,96.8c-1.4,1-2.4,2.6-2.6,4.3s0.4,3.5,1.7,4.8
		l15.9,16.5c1,1.1,2.4,1.7,3.9,1.8l29.6,1.9l-45.7,45.7l-2.7-31.1c-0.1-1.4-0.8-2.8-1.8-3.8l-15.4-14.9c-1.3-1.2-3-1.8-4.8-1.7
		S98,121.5,97,123l-34.7,50l-14-9.6l23-70.1c0.7-2.2,0.1-4.6-1.5-6.2L53.2,71C48.8,66.6,42.6,60,38.4,53c-6.5-11.2-2.7-15-1.5-16.2
		c1.4-1.4,3-2.1,5.2-2.1c6.8,0,17.7,6.8,29.1,18.3l16.2,16.8c1.6,1.7,4,2.3,6.2,1.5l69.9-22.9l9.6,14L123.2,96.8z"/>
</g>
</svg>
