<?xml version="1.0" encoding="utf-8"?>
<!-- Generator: Adobe Illustrator 17.0.0, SVG Export Plug-In . SVG Version: 6.00 Build 0)  -->
<!DOCTYPE svg PUBLIC "-//W3C//DTD SVG 1.1//EN" "http://www.w3.org/Graphics/SVG/1.1/DTD/svg11.dtd">
<svg version="1.1" id="Layer_1" xmlns="http://www.w3.org/2000/svg" xmlns:xlink="http://www.w3.org/1999/xlink" x="0px" y="0px"
	 width="216px" height="216px" viewBox="0 0 216 216" style="enable-background:new 0 0 216 216;" xml:space="preserve">
<path d="M192,171.085V44.915c0-4.143-3.625-7.915-7.768-7.915H32.004C27.861,37,25,40.772,25,44.915v96.023
	c-1,1.215-1,2.482,0,3.684v26.463c0,4.143,2.861,7.915,7.004,7.915h152.229C188.375,179,192,175.228,192,171.085z M177,52v76.619
	l-32.694-26.441c-2.942-2.39-7.272-2.207-10.001,0.425l-17.288,16.645l-37.022-35.7c-1.519-1.466-3.588-2.222-5.701-2.087
	c-2.106,0.137-3.814,1.154-5.131,2.804L40,121.082V52H177z M40,164v-18.882l35.738-45.057l36.161,35.005
	c2.906,2.803,7.446,2.803,10.352,0l17.652-17.057l32.099,25.97c1.434,1.164,2.998,1.708,4.998,1.672V164H40z"/>
<path d="M122.702,98.14c7.242,0,13.135-5.893,13.135-13.135s-5.893-13.135-13.135-13.135s-13.135,5.893-13.135,13.135
	S115.46,98.14,122.702,98.14z"/>
</svg>
