<?xml version="1.0" encoding="utf-8"?>
<!-- Generator: Adobe Illustrator 17.0.0, SVG Export Plug-In . SVG Version: 6.00 Build 0)  -->
<!DOCTYPE svg PUBLIC "-//W3C//DTD SVG 1.1//EN" "http://www.w3.org/Graphics/SVG/1.1/DTD/svg11.dtd">
<svg version="1.1" id="Layer_1" xmlns="http://www.w3.org/2000/svg" xmlns:xlink="http://www.w3.org/1999/xlink" x="0px" y="0px"
	 width="216px" height="216px" viewBox="0 0 216 216" style="enable-background:new 0 0 216 216;" xml:space="preserve">
<path d="M80.022,71.32c3.494-2.226,4.521-6.862,2.296-10.355c-2.225-3.494-6.86-4.52-10.354-2.296
	c-19.486,12.413-31.119,33.601-31.119,56.676c0,37.029,30.126,67.155,67.155,67.155s67.155-30.126,67.155-67.155
	c0-22.232-10.98-42.989-29.374-55.525c-3.42-2.333-8.088-1.449-10.421,1.973c-2.333,3.423-1.449,8.088,1.974,10.421
	c14.29,9.74,22.821,25.864,22.821,43.131c0,28.759-23.396,52.155-52.155,52.155s-52.155-23.396-52.155-52.155
	C55.845,97.422,64.883,80.964,80.022,71.32z"/>
<path d="M117,121V39c0-4.142-3.357-7.5-7.5-7.5S102,34.858,102,39v82c0,4.143,3.357,7.5,7.5,7.5S117,125.143,117,121z"/>
</svg>
