<?xml version="1.0" encoding="utf-8"?>
<!-- Generator: Adobe Illustrator 17.0.0, SVG Export Plug-In . SVG Version: 6.00 Build 0)  -->
<!DOCTYPE svg PUBLIC "-//W3C//DTD SVG 1.1//EN" "http://www.w3.org/Graphics/SVG/1.1/DTD/svg11.dtd">
<svg version="1.1" id="Layer_1" xmlns="http://www.w3.org/2000/svg" xmlns:xlink="http://www.w3.org/1999/xlink" x="0px" y="0px"
	 width="216px" height="216px" viewBox="0 0 216 216" style="enable-background:new 0 0 216 216;" xml:space="preserve">
<path d="M108.723,157.679c-21.639,0-41.122-14.448-47.382-35.136c-1.2-3.967-5.393-6.203-9.351-5.007
	c-3.965,1.199-6.206,5.386-5.007,9.351c3.926,12.974,12.077,24.633,22.953,32.83c11.251,8.479,24.663,12.962,38.786,12.962
	c35.562,0,64.493-28.932,64.493-64.493c0-35.563-28.932-64.494-64.493-64.494c-19.001,0-36.825,8.474-48.916,22.497l-2.083-16.317
	c-0.524-4.107-4.274-7.004-8.39-6.489c-4.108,0.524-7.014,4.28-6.489,8.39l4.657,36.482c0.482,3.781,3.705,6.551,7.431,6.551
	c0.279,0,0.563-0.016,0.847-0.048l36.182-4.068c4.116-0.463,7.078-4.175,6.615-8.291c-0.462-4.117-4.189-7.076-8.291-6.615
	L69.406,78.13c9.258-12.056,23.776-19.439,39.317-19.439c27.291,0,49.493,22.203,49.493,49.494S136.014,157.679,108.723,157.679z"/>
</svg>
