<?xml version="1.0" encoding="utf-8"?>
<!-- Generator: Adobe Illustrator 18.0.0, SVG Export Plug-In . SVG Version: 6.00 Build 0)  -->
<!DOCTYPE svg PUBLIC "-//W3C//DTD SVG 1.1//EN" "http://www.w3.org/Graphics/SVG/1.1/DTD/svg11.dtd">
<svg version="1.1" id="Layer_1" xmlns="http://www.w3.org/2000/svg" xmlns:xlink="http://www.w3.org/1999/xlink" x="0px" y="0px"
	 viewBox="0 0 216 216" enable-background="new 0 0 216 216" xml:space="preserve">
<g>
	<path d="M148.8,31H36c-3.3,0-6,2.7-6,6v145c0,3.3,2.7,6,6,6h140c3.3,0,6-2.7,6-6V71.9c0-1.3-0.4-2.6-1.3-3.7l-27.2-34.9
		C152.4,31.9,150.6,31,148.8,31z M76,43h63v59H76V43z M170,176H42V43h22v65.1c0,3.3,2.2,5.9,5.5,5.9h75.8c3.3,0,5.7-2.6,5.7-5.9V50
		l19,24V176z"/>
	<path d="M125,60c0-3.3-2.7-6-6-6h-7c-3.3,0-6,2.7-6,6v24c0,3.3,2.7,6,6,6h7c3.3,0,6-2.7,6-6V60z"/>
</g>
</svg>
