<?xml version="1.0" encoding="utf-8"?>
<!-- Generator: Adobe Illustrator 18.0.0, SVG Export Plug-In . SVG Version: 6.00 Build 0)  -->
<!DOCTYPE svg PUBLIC "-//W3C//DTD SVG 1.1//EN" "http://www.w3.org/Graphics/SVG/1.1/DTD/svg11.dtd">
<svg version="1.1" id="Layer_1" xmlns="http://www.w3.org/2000/svg" xmlns:xlink="http://www.w3.org/1999/xlink" x="0px" y="0px"
	 viewBox="0 0 216 216" enable-background="new 0 0 216 216" xml:space="preserve">
<g>
	<path d="M189.2,83.9l-54.5-4.6l-21.2-50.4c-0.9-2.2-3.1-3.7-5.5-3.7s-4.6,1.4-5.5,3.7L81.3,79.3l-54.5,4.6
		c-2.4,0.2-4.5,1.8-5.2,4.1c-0.7,2.3,0,4.8,1.8,6.4l41.3,35.7l-12.4,53.2c-0.5,2.4,0.4,4.8,2.3,6.2c2,1.4,4.6,1.5,6.6,0.3l46.8-28.3
		l46.8,28.3c1,0.6,2,0.9,3.1,0.9c1.2,0,2.5-0.4,3.5-1.1c2-1.4,2.9-3.9,2.3-6.2l-12.4-53.2l41.3-35.7c1.8-1.6,2.5-4.1,1.8-6.4
		C193.7,85.7,191.6,84.1,189.2,83.9z M140.7,123.5c-1.7,1.5-2.4,3.7-1.9,5.9l10,42.9l-37.7-22.8c-1-0.6-2-0.9-3.1-0.9
		s-2.2,0.3-3.1,0.9l-37.7,22.8l10-42.9c0.5-2.2-0.2-4.4-1.9-5.9L42,94.7l43.9-3.7c2.2-0.2,4.2-1.6,5-3.6L108,46.7l17.1,40.6
		c0.9,2.1,2.8,3.5,5,3.6l43.9,3.7L140.7,123.5z"/>
</g>
</svg>
