<?xml version="1.0" encoding="utf-8"?>
<!-- Generator: Adobe Illustrator 18.0.0, SVG Export Plug-In . SVG Version: 6.00 Build 0)  -->
<!DOCTYPE svg PUBLIC "-//W3C//DTD SVG 1.1//EN" "http://www.w3.org/Graphics/SVG/1.1/DTD/svg11.dtd">
<svg version="1.1" id="Layer_1" xmlns="http://www.w3.org/2000/svg" xmlns:xlink="http://www.w3.org/1999/xlink" x="0px" y="0px"
	 viewBox="0 0 216 216" enable-background="new 0 0 216 216" xml:space="preserve">
<g>
	<path d="M194.4,88c-0.7-2.3-2.8-3.9-5.2-4.1l-54.5-4.6l-21.2-50.4c-0.9-2.2-3.1-3.7-5.5-3.7s-4.6,1.4-5.5,3.7L81.3,79.3l-54.5,4.6
		c-2.4,0.2-4.5,1.8-5.2,4.1c-0.7,2.3,0,4.8,1.8,6.4l41.3,35.7l-12.4,53.2c-0.5,2.4,0.4,4.8,2.3,6.2s4.6,1.5,6.6,0.3l46.8-28.3
		l46.8,28.3c1,0.6,2,0.9,3.1,0.9c1.2,0,2.5-0.4,3.5-1.1c2-1.4,2.9-3.9,2.3-6.2l-12.4-53.2l41.3-35.7C194.5,92.8,195.2,90.3,194.4,88
		z"/>
</g>
</svg>
