<?xml version="1.0" encoding="utf-8"?>
<!-- Generator: Adobe Illustrator 17.0.0, SVG Export Plug-In . SVG Version: 6.00 Build 0)  -->
<!DOCTYPE svg PUBLIC "-//W3C//DTD SVG 1.1//EN" "http://www.w3.org/Graphics/SVG/1.1/DTD/svg11.dtd">
<svg version="1.1" id="Layer_1" xmlns="http://www.w3.org/2000/svg" xmlns:xlink="http://www.w3.org/1999/xlink" x="0px" y="0px"
	 width="216px" height="216px" viewBox="0 0 216 216" style="enable-background:new 0 0 216 216;" xml:space="preserve">
<path d="M189.333,82.408l-53.557-4.536l-20.864-49.533c-1.172-2.781-3.895-4.589-6.912-4.589s-5.74,1.808-6.912,4.589L80.224,77.872
	l-53.557,4.536c-3.007,0.255-5.567,2.286-6.5,5.156c-0.933,2.869-0.055,6.019,2.229,7.991l40.662,35.149l-12.235,52.338
	c-0.688,2.938,0.453,6.001,2.895,7.774c2.44,1.774,5.707,1.913,8.289,0.351L108,163.358l45.994,27.81
	c1.197,0.724,2.54,1.082,3.88,1.082c1.552,0,3.1-0.48,4.409-1.433c2.441-1.773,3.582-4.837,2.895-7.774l-12.235-52.338
	l40.662-35.149c2.283-1.973,3.161-5.122,2.229-7.991C194.9,84.694,192.34,82.663,189.333,82.408z M139.703,122.323
	c-2.109,1.823-3.033,4.666-2.398,7.381l9.214,39.415l-34.638-20.943c-1.193-0.722-2.537-1.082-3.881-1.082s-2.688,0.36-3.881,1.082
	l-34.638,20.943l9.214-39.415c0.635-2.715-0.289-5.558-2.398-7.381L45.675,95.853l40.333-3.416c2.778-0.235,5.196-1.993,6.279-4.563
	L108,50.57l15.713,37.304c1.083,2.569,3.501,4.327,6.279,4.563l40.333,3.416L139.703,122.323z"/>
</svg>
