<?xml version="1.0" encoding="utf-8"?>
<!-- Generator: Adobe Illustrator 17.0.0, SVG Export Plug-In . SVG Version: 6.00 Build 0)  -->
<!DOCTYPE svg PUBLIC "-//W3C//DTD SVG 1.1//EN" "http://www.w3.org/Graphics/SVG/1.1/DTD/svg11.dtd">
<svg version="1.1" id="Layer_1" xmlns="http://www.w3.org/2000/svg" xmlns:xlink="http://www.w3.org/1999/xlink" x="0px" y="0px"
	 width="216px" height="216px" viewBox="0 0 216 216" style="enable-background:new 0 0 216 216;" xml:space="preserve">
<path d="M163.101,85h-25.352c-4.143,0-7.5,3.357-7.5,7.5s3.357,7.5,7.5,7.5H156v68H60v-68h20.329c4.143,0,7.5-3.357,7.5-7.5
	s-3.357-7.5-7.5-7.5h-27.43C48.757,85,45,88.146,45,92.289v83.201c0,4.143,3.757,7.51,7.899,7.51h110.201
	c4.143,0,7.899-3.367,7.899-7.51V92.289C171,88.146,167.243,85,163.101,85z"/>
<path d="M108.5,132.5c4.143,0,7.5-3.357,7.5-7.5V48.388l21.626,19.234c1.429,1.271,3.209,1.896,4.981,1.896
	c2.067,0,4.125-0.85,5.607-2.516c2.752-3.095,2.475-7.836-0.62-10.589L113.063,25.7c-2.925-2.6-7.352-2.516-10.175,0.19
	L70.853,56.604c-2.99,2.867-3.09,7.614-0.224,10.604c2.867,2.989,7.616,3.091,10.604,0.224L101,48.48V125
	C101,129.143,104.357,132.5,108.5,132.5z"/>
</svg>
