<?xml version="1.0" encoding="utf-8"?>
<!-- Generator: Adobe Illustrator 18.0.0, SVG Export Plug-In . SVG Version: 6.00 Build 0)  -->
<!DOCTYPE svg PUBLIC "-//W3C//DTD SVG 1.1//EN" "http://www.w3.org/Graphics/SVG/1.1/DTD/svg11.dtd">
<svg version="1.1" id="Layer_1" xmlns="http://www.w3.org/2000/svg" xmlns:xlink="http://www.w3.org/1999/xlink" x="0px" y="0px"
	 viewBox="0 0 216 216" enable-background="new 0 0 216 216" xml:space="preserve">
<g>
	<path d="M108,191c45.8,0,83-37.2,83-83s-37.2-83-83-83s-83,37.2-83,83S62.2,191,108,191z M108,37c39.1,0,71,31.9,71,71
		s-31.9,71-71,71s-71-31.9-71-71S68.9,37,108,37z"/>
	<path d="M83,94.4c2.5,0,4.9-1,6.7-2.8c3.7-3.7,3.7-9.7,0-13.4c-1.8-1.8-4.2-2.8-6.7-2.8s-4.9,1-6.7,2.8c-3.7,3.7-3.7,9.7,0,13.4
		C78.1,93.4,80.5,94.4,83,94.4z"/>
	<path d="M130.6,94.4c2.5,0,4.9-1,6.7-2.8c3.7-3.7,3.7-9.7,0-13.4c-1.8-1.8-4.2-2.8-6.7-2.8c-2.5,0-4.9,1-6.7,2.8
		c-3.7,3.7-3.7,9.7,0,13.4C125.7,93.4,128,94.4,130.6,94.4z"/>
	<path d="M106.5,149.5c30.9,0,39.9-20.8,40.3-21.6c1.3-3.1-0.2-6.6-3.2-7.9c-3.1-1.3-6.6,0.1-7.8,3.2c-0.3,0.6-6.6,14.3-29.2,14.3
		c-21.9,0-25.8-12.9-26-13.5l0,0.1L68.9,127C69.2,127.9,74.9,149.5,106.5,149.5z"/>
</g>
</svg>
