<?xml version="1.0" encoding="utf-8"?>
<!-- Generator: Adobe Illustrator 17.0.0, SVG Export Plug-In . SVG Version: 6.00 Build 0)  -->
<!DOCTYPE svg PUBLIC "-//W3C//DTD SVG 1.1//EN" "http://www.w3.org/Graphics/SVG/1.1/DTD/svg11.dtd">
<svg version="1.1" id="Layer_1" xmlns="http://www.w3.org/2000/svg" xmlns:xlink="http://www.w3.org/1999/xlink" x="0px" y="0px"
	 width="216px" height="216px" viewBox="0 0 216 216" style="enable-background:new 0 0 216 216;" xml:space="preserve">
<path d="M155.39,73.096c0.54,0.031,1.08-0.105,1.615-0.105c0.001,0,0.002,0,0.002,0c14.608,0,26.714-11.3,27.561-25.896
	c0.881-15.207-10.774-28.163-25.981-29.045c-15.327-0.891-28.302,10.814-29.177,25.943c-0.189,3.264,0.203,6.426,1.08,9.389
	L70.156,89.23c-4.714-3.744-10.671-5.988-17.145-5.988c-15.233,0-27.626,12.393-27.626,27.626c0,15.232,12.393,27.625,27.626,27.625
	c6.116,0,11.771-2.001,16.353-5.378l58.823,31.991c-1.25,6.147-0.374,12.451,2.562,18.109c4.771,9.192,14.173,14.776,24.537,14.776
	h0.002c4.393,0,8.787-0.95,12.707-2.984c13.52-7.017,18.811-23.6,11.796-37.121c-4.771-9.193-14.175-14.912-24.539-14.912
	c-4.394,0-8.787,1.059-12.707,3.092c-2.856,1.482-5.386,3.406-7.516,5.686l-56.364-30.654c1.267-3.167,1.972-6.616,1.972-10.23
	c0-3.311-0.587-6.487-1.66-9.432l59.537-35.375C143.018,70.11,148.875,72.718,155.39,73.096z M144.384,44.937
	c0.387-6.671,5.915-11.896,12.587-11.896c0.247,0,0.498,0.007,0.747,0.021c6.95,0.403,12.277,6.386,11.875,13.335
	c-0.401,6.92-6.345,12.293-13.335,11.875C149.308,57.87,143.98,51.887,144.384,44.937z M40.386,110.868
	c0-6.962,5.664-12.626,12.626-12.626s12.625,5.664,12.625,12.626s-5.663,12.625-12.625,12.625S40.386,117.83,40.386,110.868z
	 M149.454,159.412c1.82-0.944,3.771-1.423,5.798-1.423c4.742,0,9.043,2.611,11.225,6.813c3.206,6.18,0.788,13.815-5.392,17.022
	c-1.819,0.944-3.77,1.424-5.797,1.424h-0.001c-4.742-0.001-9.043-2.612-11.224-6.815c-1.554-2.993-1.849-6.412-0.83-9.627
	S146.461,160.965,149.454,159.412z"/>
</svg>
