<?xml version="1.0" encoding="utf-8"?>
<!-- Generator: Adobe Illustrator 18.0.0, SVG Export Plug-In . SVG Version: 6.00 Build 0)  -->
<!DOCTYPE svg PUBLIC "-//W3C//DTD SVG 1.1//EN" "http://www.w3.org/Graphics/SVG/1.1/DTD/svg11.dtd">
<svg version="1.1" id="Layer_1" xmlns="http://www.w3.org/2000/svg" xmlns:xlink="http://www.w3.org/1999/xlink" x="0px" y="0px"
	 viewBox="0 0 216 216" enable-background="new 0 0 216 216" xml:space="preserve">
<g>
	<path d="M163.1,86h-25.4c-3.3,0-6,2.7-6,6s2.7,6,6,6H157v71H59V98h21.3c3.3,0,6-2.7,6-6s-2.7-6-6-6H52.9c-3.3,0-5.9,3-5.9,6.3v83.2
		c0,3.3,2.6,5.5,5.9,5.5h110.2c3.3,0,5.9-2.2,5.9-5.5V92.3C169,89,166.4,86,163.1,86z"/>
	<path d="M107,131c3.3,0,6-2.7,6-6V43.7l25.6,22.8c1.1,1,2.6,1.5,4,1.5c1.7,0,3.3-0.7,4.5-2c2.2-2.5,2-6.3-0.5-8.5l-34.5-30.7
		c-2.2-1.9-5.4-2-7.7-0.2c-1.1,0.5-2,1.4-2.6,2.4L71.9,57.7c-2.4,2.3-2.5,6.1-0.2,8.5c2.3,2.4,6.1,2.5,8.5,0.2L101,46.4V125
		C101,128.3,103.7,131,107,131z"/>
</g>
</svg>
