<?xml version="1.0" encoding="utf-8"?>
<!-- Generator: Adobe Illustrator 17.0.0, SVG Export Plug-In . SVG Version: 6.00 Build 0)  -->
<!DOCTYPE svg PUBLIC "-//W3C//DTD SVG 1.1//EN" "http://www.w3.org/Graphics/SVG/1.1/DTD/svg11.dtd">
<svg version="1.1" id="Layer_1" xmlns="http://www.w3.org/2000/svg" xmlns:xlink="http://www.w3.org/1999/xlink" x="0px" y="0px"
	 width="216px" height="216px" viewBox="0 0 216 216" style="enable-background:new 0 0 216 216;" xml:space="preserve">
<path d="M108,16.275c-50.578,0-91.726,41.147-91.726,91.726c0,50.577,41.147,91.725,91.726,91.725s91.726-41.147,91.726-91.725
	C199.726,57.422,158.578,16.275,108,16.275z M167.707,59.89l-23.929,23.929c-2.827-4.169-6.368-7.814-10.438-10.773l23.861-23.861
	C161.041,52.403,164.558,55.99,167.707,59.89z M108,136.199c-15.549,0-28.198-12.649-28.198-28.198S92.451,79.801,108,79.801
	s28.198,12.65,28.198,28.199S123.549,136.199,108,136.199z M49.185,157.201l23.861-23.861c2.959,4.07,6.603,7.612,10.772,10.439
	L59.89,167.707C55.99,164.558,52.402,161.041,49.185,157.201z M58.264,49.649L82.08,73.465c-4.021,3.025-7.491,6.74-10.251,10.96
	L47.853,60.449C50.967,56.52,54.453,52.902,58.264,49.649z M144.593,40.578l-25.635,25.635c-3.501-0.919-7.172-1.412-10.957-1.412
	c-4.068,0-8.001,0.577-11.736,1.634L70.773,40.943c11.033-6.15,23.724-9.668,37.227-9.668
	C121.242,31.275,133.71,34.648,144.593,40.578z M39.565,73.376l26.088,26.088c-0.556,2.761-0.851,5.615-0.851,8.537
	c0,3.785,0.493,7.456,1.412,10.957l-25.636,25.636c-5.93-10.883-9.303-23.351-9.303-36.592
	C31.274,95.546,34.276,83.786,39.565,73.376z M72.715,176.096l25.929-25.929c3.015,0.669,6.143,1.032,9.356,1.032
	c2.922,0,5.776-0.295,8.537-0.851l26.087,26.087c-10.41,5.289-22.17,8.29-34.624,8.29C95.282,184.725,83.287,181.596,72.715,176.096
	z M155.551,168.147l-23.976-23.976c4.22-2.76,7.934-6.23,10.96-10.251l23.817,23.816
	C163.098,161.547,159.48,165.033,155.551,168.147z M175.057,145.227l-25.492-25.492c1.056-3.734,1.633-7.667,1.633-11.735
	c0-3.213-0.364-6.341-1.032-9.356l25.93-25.93c5.501,10.572,8.63,22.567,8.63,35.285
	C184.726,121.503,181.207,134.194,175.057,145.227z"/>
</svg>
