<?xml version="1.0" encoding="utf-8"?>
<!-- Generator: Adobe Illustrator 17.0.0, SVG Export Plug-In . SVG Version: 6.00 Build 0)  -->
<!DOCTYPE svg PUBLIC "-//W3C//DTD SVG 1.1//EN" "http://www.w3.org/Graphics/SVG/1.1/DTD/svg11.dtd">
<svg version="1.1" id="Layer_1" xmlns="http://www.w3.org/2000/svg" xmlns:xlink="http://www.w3.org/1999/xlink" x="0px" y="0px"
	 width="216px" height="216px" viewBox="0 0 216 216" style="enable-background:new 0 0 216 216;" xml:space="preserve">
<path d="M108,192.5c46.594,0,84.5-37.906,84.5-84.5S154.594,23.5,108,23.5S23.5,61.406,23.5,108S61.406,192.5,108,192.5z M108,38.5
	c38.322,0,69.5,31.178,69.5,69.5s-31.178,69.5-69.5,69.5S38.5,146.322,38.5,108S69.678,38.5,108,38.5z"/>
<path d="M83.021,95.897c2.926,0,5.677-1.14,7.746-3.208c4.27-4.27,4.27-11.219,0-15.492c-2.069-2.068-4.82-3.208-7.746-3.208
	s-5.677,1.14-7.748,3.21c-4.268,4.271-4.268,11.221,0.002,15.49C77.345,94.758,80.096,95.897,83.021,95.897z"/>
<path d="M130.56,95.897c2.925,0,5.675-1.139,7.746-3.208c4.27-4.27,4.27-11.219-0.002-15.494c-2.069-2.067-4.819-3.206-7.744-3.206
	c-2.926,0-5.677,1.14-7.748,3.21c-4.268,4.271-4.268,11.221,0.002,15.49C124.883,94.758,127.634,95.897,130.56,95.897z"/>
<path d="M106.527,150.965c31.914,0,41.271-21.64,41.652-22.561c0,0,2.35-5.981-3.394-8.893c-6.512-3.302-10.458,3.139-10.458,3.139
	l0.043-0.103c-0.248,0.548-6.314,13.417-27.844,13.417c-20.29,0-24.169-11.136-24.545-12.405l0.038,0.141
	c0,0-2.083-7.766-9.513-5.932s-5.036,9.586-5.036,9.586C67.714,128.318,73.778,150.965,106.527,150.965z"/>
</svg>
