<?xml version="1.0" encoding="utf-8"?>
<!-- Generator: Adobe Illustrator 17.0.0, SVG Export Plug-In . SVG Version: 6.00 Build 0)  -->
<!DOCTYPE svg PUBLIC "-//W3C//DTD SVG 1.1//EN" "http://www.w3.org/Graphics/SVG/1.1/DTD/svg11.dtd">
<svg version="1.1" id="Layer_1" xmlns="http://www.w3.org/2000/svg" xmlns:xlink="http://www.w3.org/1999/xlink" x="0px" y="0px"
	 width="216px" height="216px" viewBox="0 0 216 216" style="enable-background:new 0 0 216 216;" xml:space="preserve">
<path d="M87.921,153.5c4.143,0,7.5-3.357,7.5-7.5V40.382c0-2.841-1.604-5.438-4.146-6.708c-2.541-1.272-5.582-0.996-7.854,0.708
	l-39.229,29.42c-3.313,2.485-3.985,7.187-1.5,10.5s7.186,3.986,10.5,1.5l27.229-20.42V146C80.421,150.143,83.778,153.5,87.921,153.5
	z"/>
<path d="M126.921,63.5c-4.143,0-7.5,3.357-7.5,7.5v104.618c0,2.83,1.593,5.419,4.118,6.694c1.068,0.54,2.228,0.806,3.381,0.806
	c1.573,0,3.138-0.494,4.451-1.463l39.229-28.92c3.334-2.458,4.045-7.153,1.587-10.487c-2.457-3.335-7.154-4.043-10.487-1.587
	l-27.278,20.11V71C134.421,66.857,131.063,63.5,126.921,63.5z"/>
</svg>
