<?xml version="1.0" encoding="utf-8"?>
<!-- Generator: Adobe Illustrator 17.0.0, SVG Export Plug-In . SVG Version: 6.00 Build 0)  -->
<!DOCTYPE svg PUBLIC "-//W3C//DTD SVG 1.1//EN" "http://www.w3.org/Graphics/SVG/1.1/DTD/svg11.dtd">
<svg version="1.1" id="Layer_1" xmlns="http://www.w3.org/2000/svg" xmlns:xlink="http://www.w3.org/1999/xlink" x="0px" y="0px"
	 width="216px" height="216px" viewBox="0 0 216 216" style="enable-background:new 0 0 216 216;" xml:space="preserve">
<path d="M31,27.433v130.24c0,2.636,1.384,5.078,3.645,6.434l69.41,41.594c1.188,0.712,2.521,1.066,3.855,1.066
	c1.382,0,2.764-0.382,3.98-1.144l70.59-44.203c2.189-1.371,3.52-3.772,3.52-6.356V27.433c0-4.143-3.357-7.5-7.5-7.5h-140
	C34.357,19.933,31,23.29,31,27.433z M46,34.933h125v115.979l-63.176,39.561L46,153.424V34.933z"/>
<path d="M103.92,70.038c0-13.212-10.748-23.96-23.96-23.96S56,56.826,56,70.038s10.748,23.96,23.96,23.96
	S103.92,83.25,103.92,70.038z M71,70.038c0-4.94,4.02-8.96,8.96-8.96s8.96,4.02,8.96,8.96s-4.02,8.96-8.96,8.96S71,74.979,71,70.038
	z"/>
<path d="M109.001,134.436c0,13.212,10.748,23.96,23.96,23.96s23.96-10.748,23.96-23.96s-10.748-23.96-23.96-23.96
	S109.001,121.224,109.001,134.436z M141.921,134.436c0,4.94-4.02,8.96-8.96,8.96s-8.96-4.02-8.96-8.96s4.02-8.96,8.96-8.96
	S141.921,129.495,141.921,134.436z"/>
<path d="M143.729,52.425c-3.299-2.507-8.003-1.862-10.509,1.437l-62.567,82.383c-2.505,3.299-1.862,8.004,1.437,10.509
	c1.356,1.03,2.949,1.527,4.53,1.527c2.265,0,4.503-1.021,5.979-2.964l62.567-82.383C147.67,59.635,147.027,54.93,143.729,52.425z"/>
</svg>
