<?xml version="1.0" encoding="utf-8"?>
<!-- Generator: Adobe Illustrator 17.0.0, SVG Export Plug-In . SVG Version: 6.00 Build 0)  -->
<!DOCTYPE svg PUBLIC "-//W3C//DTD SVG 1.1//EN" "http://www.w3.org/Graphics/SVG/1.1/DTD/svg11.dtd">
<svg version="1.1" id="Layer_1" xmlns="http://www.w3.org/2000/svg" xmlns:xlink="http://www.w3.org/1999/xlink" x="0px" y="0px"
	 width="216px" height="216px" viewBox="0 0 216 216" style="enable-background:new 0 0 216 216;" xml:space="preserve">
<path d="M148.788,28h-1.766c-0.552-0.13-1.125-0.205-1.717-0.205s-1.165,0.076-1.717,0.205H71.265
	c-0.552-0.13-1.125-0.205-1.717-0.205S68.383,27.87,67.831,28H37.5c-4.143,0-7.5,3.357-7.5,7.5v145c0,4.143,3.357,7.5,7.5,7.5h140
	c4.143,0,7.5-3.357,7.5-7.5V71.879c0-1.687-0.568-3.323-1.612-4.646l-28.712-36.379C153.253,29.052,151.084,28,148.788,28z M77,43
	h61v56H77V43z M170,173H45V43h17v63.059c0,4.143,3.405,7.941,7.548,7.941h75.758c4.143,0,7.694-3.799,7.694-7.941V52.696l17,21.786
	V173z"/>
<path d="M128,58.5c0-4.142-3.358-7.5-7.5-7.5h-7c-4.142,0-7.5,3.358-7.5,7.5v24c0,4.142,3.358,7.5,7.5,7.5h7
	c4.142,0,7.5-3.358,7.5-7.5V58.5z"/>
</svg>
