<?xml version="1.0" encoding="utf-8"?>
<!-- Generator: Adobe Illustrator 17.0.0, SVG Export Plug-In . SVG Version: 6.00 Build 0)  -->
<!DOCTYPE svg PUBLIC "-//W3C//DTD SVG 1.1//EN" "http://www.w3.org/Graphics/SVG/1.1/DTD/svg11.dtd">
<svg version="1.1" id="Layer_1" xmlns="http://www.w3.org/2000/svg" xmlns:xlink="http://www.w3.org/1999/xlink" x="0px" y="0px"
	 width="216px" height="216px" viewBox="0 0 216 216" style="enable-background:new 0 0 216 216;" xml:space="preserve">
<path d="M195.833,87.564c-0.933-2.87-3.493-4.901-6.5-5.156l-53.557-4.536l-20.864-49.533c-1.172-2.781-3.895-4.589-6.912-4.589
	s-5.74,1.808-6.912,4.589L80.224,77.872l-53.557,4.536c-3.007,0.255-5.567,2.286-6.5,5.156c-0.933,2.869-0.055,6.019,2.229,7.991
	l40.662,35.149l-12.235,52.338c-0.688,2.938,0.453,6.001,2.895,7.774c2.44,1.774,5.707,1.913,8.289,0.351L108,163.358l45.994,27.81
	c1.197,0.724,2.54,1.082,3.88,1.082c1.552,0,3.1-0.48,4.409-1.433c2.441-1.773,3.582-4.837,2.895-7.774l-12.235-52.338
	l40.662-35.149C195.888,93.583,196.766,90.434,195.833,87.564z"/>
</svg>
