<?xml version="1.0" encoding="utf-8"?>
<!-- Generator: Adobe Illustrator 17.0.0, SVG Export Plug-In . SVG Version: 6.00 Build 0)  -->
<!DOCTYPE svg PUBLIC "-//W3C//DTD SVG 1.1//EN" "http://www.w3.org/Graphics/SVG/1.1/DTD/svg11.dtd">
<svg version="1.1" id="Layer_1" xmlns="http://www.w3.org/2000/svg" xmlns:xlink="http://www.w3.org/1999/xlink" x="0px" y="0px"
	 width="216px" height="216px" viewBox="0 0 216 216" style="enable-background:new 0 0 216 216;" xml:space="preserve">
<path d="M107,156h2c4.143,0,7.5-3.357,7.5-7.5s-3.357-7.5-7.5-7.5h-2c-4.143,0-7.5,3.357-7.5,7.5S102.857,156,107,156z"/>
<path d="M176,55.31C176,40.779,164.221,29,149.69,29H65.31C50.779,29,39,40.779,39,55.31V159.69C39,174.221,50.779,186,65.31,186
	h84.381c14.53,0,26.31-11.779,26.31-26.31V55.31z M161,159.691c0,6.246-5.063,11.309-11.31,11.309H65.31
	C59.063,171,54,165.937,54,159.691V55.309C54,49.063,59.063,44,65.31,44h84.381c6.246,0,11.31,5.063,11.31,11.309V159.691z"/>
</svg>
