<?xml version="1.0" encoding="utf-8"?>
<!-- Generator: Adobe Illustrator 17.0.0, SVG Export Plug-In . SVG Version: 6.00 Build 0)  -->
<!DOCTYPE svg PUBLIC "-//W3C//DTD SVG 1.1//EN" "http://www.w3.org/Graphics/SVG/1.1/DTD/svg11.dtd">
<svg version="1.1" id="Layer_1" xmlns="http://www.w3.org/2000/svg" xmlns:xlink="http://www.w3.org/1999/xlink" x="0px" y="0px"
	 width="216px" height="216px" viewBox="0 0 216 216" style="enable-background:new 0 0 216 216;" xml:space="preserve">
<path d="M108,185.824c42.912,0,77.824-34.912,77.824-77.824S150.912,30.176,108,30.176S30.176,65.088,30.176,108
	S65.088,185.824,108,185.824z M108,45.176c34.642,0,62.824,28.183,62.824,62.824S142.642,170.824,108,170.824
	S45.176,142.642,45.176,108S73.358,45.176,108,45.176z"/>
<path d="M98.904,121.927l25.727,19.95c1.367,1.061,2.984,1.573,4.591,1.573c2.238,0,4.453-0.998,5.932-2.904
	c2.538-3.272,1.942-7.984-1.331-10.522L111,112.325V72c0-4.143-3.357-7.5-7.5-7.5S96,67.857,96,72v44
	C96,118.318,97.072,120.506,98.904,121.927z"/>
</svg>
