<?xml version="1.0" encoding="utf-8"?>
<!-- Generator: Adobe Illustrator 17.0.0, SVG Export Plug-In . SVG Version: 6.00 Build 0)  -->
<!DOCTYPE svg PUBLIC "-//W3C//DTD SVG 1.1//EN" "http://www.w3.org/Graphics/SVG/1.1/DTD/svg11.dtd">
<svg version="1.1" id="Layer_1" xmlns="http://www.w3.org/2000/svg" xmlns:xlink="http://www.w3.org/1999/xlink" x="0px" y="0px"
	 width="216px" height="216px" viewBox="0 0 216 216" style="enable-background:new 0 0 216 216;" xml:space="preserve">
<path d="M27.5,152h11.871c-0.008,0.277-0.021,0.553-0.021,0.832c0,15.76,12.822,28.582,28.583,28.582
	c15.76,0,28.582-13.037,28.582-28.796c0-0.81-0.042-1.618-0.109-2.618h24.048c-0.045,1-0.079,1.31-0.093,1.866
	c-0.201,7.632,2.582,14.993,7.836,20.531c5.254,5.539,12.379,8.753,20.012,8.954c0.255,0.007,0.792,0.038,0.792,0.038v0.013
	c16,0,28.121-12.433,28.532-28.039c0.028-1.061-0.036-2.363-0.122-3.363h5.199c4.143,0,7.391-2.929,7.391-7.071V40.157
	c0-4.143-3.248-7.157-7.391-7.157H76c-4.143,0-8,3.015-8,7.157v7.19L42.591,47c-0.031,0-0.062,0-0.092,0
	c-3.079,0-5.85,1.927-6.979,4.799l-15,38.191C20.177,90.864,20,91.795,20,92.734V144.5C20,148.643,23.357,152,27.5,152z M35,137v-27
	h33v14.264c0-0.004-0.127-0.014-0.317-0.014c-9.909,0-18.403,5.07-23.533,12.75H35z M67.933,166.414
	c-7.489,0-13.583-6.093-13.583-13.582s6.094-13.582,13.583-13.582s13.582,6.093,13.582,13.582S75.422,166.414,67.933,166.414z
	 M148.942,166.415l-0.368-0.005c-3.627-0.096-6.999-1.598-9.496-4.229c-2.496-2.632-3.818-6.079-3.724-9.706
	c0.039-1.489,0.32-2.909,0.79-4.234c1.006-1.003,1.726-2.29,2.035-3.73c2.475-3.209,6.348-5.261,10.743-5.261l0.368,0.005
	c3.626,0.096,6.999,1.598,9.496,4.23c2.496,2.632,3.818,6.078,3.724,9.705C162.314,160.605,156.354,166.415,148.942,166.415z
	 M175,48v87h-1.984c-0.451,0-0.89,0.261-1.319,0.337c-0.63-0.826-1.303-1.52-2.029-2.284c-5.254-5.538-12.352-8.86-19.983-9.061
	c-9.62-0.238-18.142,4.008-23.49,11.008H90.583C88.61,133,86,130.651,83,128.88V48H175z M47.336,62.143L68,62.391V95H35v-0.844
	L47.336,62.143z"/>
</svg>
