<?xml version="1.0" encoding="utf-8"?>
<!-- Generator: Adobe Illustrator 18.0.0, SVG Export Plug-In . SVG Version: 6.00 Build 0)  -->
<!DOCTYPE svg PUBLIC "-//W3C//DTD SVG 1.1//EN" "http://www.w3.org/Graphics/SVG/1.1/DTD/svg11.dtd">
<svg version="1.1" id="Layer_1" xmlns="http://www.w3.org/2000/svg" xmlns:xlink="http://www.w3.org/1999/xlink" x="0px" y="0px"
	 viewBox="0 0 216 216" enable-background="new 0 0 216 216" xml:space="preserve">
<g>
	<path d="M91.1,184.4c1.1,1.1,2.6,1.6,4.2,1.6c0,0,0.1,0,0.1,0c1.6,0,3.1-0.6,4.2-1.7l64.8-66.7c2.3-2.4,2.3-6.1-0.1-8.4L94.7,39.7
		c-1.1-1.1-2.7-1.7-4.2-1.7c0,0,0,0,0,0l-67.1,0.1c-3.3,0-6,2.6-6,5.9L17,109.9c0,1.6,0.6,3.2,1.8,4.3L91.1,184.4z M29.4,50L88,49.8
		l63.6,63.6l-56.5,58.2L29,107.4L29.4,50z"/>
	<path d="M130.3,47.5c-2.4,2.3-2.4,6.1-0.1,8.5l57.4,58.4L126.9,177c-2.3,2.4-2.2,6.2,0.1,8.5c1.2,1.1,2.7,1.7,4.2,1.7
		c1.6,0,3.1-0.6,4.3-1.8l64.8-66.8c2.3-2.3,2.3-6.1,0-8.4l-61.5-62.6C136.4,45.3,132.6,45.2,130.3,47.5z"/>
	<circle cx="58.7" cy="77.7" r="2.2"/>
	<path d="M58.7,69.5c-4.5,0-8.2,3.7-8.2,8.2c0,4.5,3.7,8.2,8.2,8.2s8.2-3.7,8.2-8.2C66.8,73.2,63.2,69.5,58.7,69.5z M58.7,81.5
		c-2.1,0-3.8-1.7-3.8-3.8c0-2.1,1.7-3.8,3.8-3.8s3.8,1.7,3.8,3.8C62.5,79.8,60.8,81.5,58.7,81.5z"/>
</g>
</svg>
