<?xml version="1.0" encoding="utf-8"?>
<!-- Generator: Adobe Illustrator 18.0.0, SVG Export Plug-In . SVG Version: 6.00 Build 0)  -->
<!DOCTYPE svg PUBLIC "-//W3C//DTD SVG 1.1//EN" "http://www.w3.org/Graphics/SVG/1.1/DTD/svg11.dtd">
<svg version="1.1" id="Layer_1" xmlns="http://www.w3.org/2000/svg" xmlns:xlink="http://www.w3.org/1999/xlink" x="0px" y="0px"
	 viewBox="0 0 216 216" enable-background="new 0 0 216 216" xml:space="preserve">
<g>
	<path d="M175,56.8c0-13.7-11.1-24.8-24.8-24.8H65.8C52.1,32,41,43.1,41,56.8v104.4c0,13.7,11.1,24.8,24.8,24.8h84.4
		c13.7,0,24.8-11.1,24.8-24.8V56.8z M163,161.2c0,7.1-5.7,12.8-12.8,12.8H65.8c-7.1,0-12.8-5.7-12.8-12.8V56.8
		C53,49.7,58.7,44,65.8,44h84.4c7.1,0,12.8,5.7,12.8,12.8V161.2z"/>
	<path d="M107,157c1.6,0,3.1-0.6,4.2-1.8c1.1-1.1,1.8-2.7,1.8-4.2s-0.6-3.1-1.8-4.2c-1.1-1.1-2.7-1.8-4.2-1.8s-3.1,0.6-4.2,1.8
		c-1.1,1.1-1.8,2.7-1.8,4.2s0.6,3.1,1.8,4.2C103.9,156.4,105.4,157,107,157z"/>
</g>
</svg>
