<?xml version="1.0" encoding="utf-8"?>
<!-- Generator: Adobe Illustrator 17.0.0, SVG Export Plug-In . SVG Version: 6.00 Build 0)  -->
<!DOCTYPE svg PUBLIC "-//W3C//DTD SVG 1.1//EN" "http://www.w3.org/Graphics/SVG/1.1/DTD/svg11.dtd">
<svg version="1.1" id="Layer_1" xmlns="http://www.w3.org/2000/svg" xmlns:xlink="http://www.w3.org/1999/xlink" x="0px" y="0px"
	 width="216px" height="216px" viewBox="0 0 216 216" style="enable-background:new 0 0 216 216;" xml:space="preserve">
<path d="M33,71h12v115.5c0,4.143,3.357,7.5,7.5,7.5h110c4.143,0,7.5-3.357,7.5-7.5V71h12c4.143,0,7.5-3.357,7.5-7.5
	S186.143,56,182,56h-27.343c-0.611-6.313-2.907-16.921-11.086-25.635c-8.572-9.132-21.103-13.763-37.241-13.763
	c-16.202,0-28.38,4.68-36.194,13.908C62.844,39.123,61.418,49.508,61.357,56H33c-4.143,0-7.5,3.357-7.5,7.5S28.857,71,33,71z
	 M81.583,40.204c4.833-5.708,13.159-8.602,24.747-8.602c11.76,0,20.575,3.002,26.203,8.921c4.765,5.013,6.444,11.302,7.03,15.477
	H76.341C76.387,51.932,77.231,45.344,81.583,40.204z M155,71v108H60V71H155z"/>
<path d="M88.5,166.5c4.143,0,7.5-3.357,7.5-7.5V90c0-4.143-3.357-7.5-7.5-7.5S81,85.857,81,90v69
	C81,163.143,84.357,166.5,88.5,166.5z"/>
<path d="M126.5,166.5c4.143,0,7.5-3.357,7.5-7.5V90c0-4.143-3.357-7.5-7.5-7.5S119,85.857,119,90v69
	C119,163.143,122.357,166.5,126.5,166.5z"/>
</svg>
