<?xml version="1.0" encoding="utf-8"?>
<!-- Generator: Adobe Illustrator 17.0.0, SVG Export Plug-In . SVG Version: 6.00 Build 0)  -->
<!DOCTYPE svg PUBLIC "-//W3C//DTD SVG 1.1//EN" "http://www.w3.org/Graphics/SVG/1.1/DTD/svg11.dtd">
<svg version="1.1" id="Layer_1" xmlns="http://www.w3.org/2000/svg" xmlns:xlink="http://www.w3.org/1999/xlink" x="0px" y="0px"
	 width="216px" height="216px" viewBox="0 0 216 216" style="enable-background:new 0 0 216 216;" xml:space="preserve">
<path d="M200.174,50.269c0-8.18-6.545-14.83-14.684-14.997c-0.107-0.002-0.214-0.003-0.322-0.003c-0.295,0-0.589,0.009-0.884,0.026
	c-2.258,0.132-4.381,0.763-6.262,1.784c-0.473,0.246-0.898,0.477-1.291,0.69c-0.134,0.073-0.259,0.143-0.379,0.207
	c-2.566,0.959-5.237,1.952-7.968,2.946c-5.572-3.722-12.006-6.615-19.466-8.323C147.82,32.348,146.697,32,145.57,32h-8.502
	c-1.312,0-2.619,0.393-3.886,0.733c-7.004,1.879-14.422,4.511-21.218,10.19C103.497,50,98.059,58.837,95.824,68.881
	c-15.512-3.87-28.443-11.89-39.244-24.762C53.732,40.727,49.531,39,45.102,39c-0.004,0-0.009,0-0.014,0
	c-4.424,0-8.622,1.743-11.473,5.127c-7.203,8.552-9.919,19.867-7.646,32.051c0.52,2.787,1.286,5.507,2.287,8.246
	c-1.308,1.939-2.159,4.154-2.452,6.527c-1.467,11.905,2.511,23.05,11.209,32.394c-0.198,1.557-0.153,3.146,0.15,4.72
	c1.22,6.345,4.077,12.146,8.382,17.112c-1.859,0.209-3.772,0.324-5.724,0.324c-1.148,0-2.298-0.042-3.417-0.124
	c-0.369-0.027-0.736-0.041-1.101-0.041c-6.503,0-12.324,4.215-14.301,10.498c-2.088,6.636,0.661,13.836,6.64,17.393
	c0.378,0.225,0.752,0.455,1.127,0.684c1.049,0.643,2.238,1.372,3.596,2.094c15.885,8.456,32.699,12.743,49.972,12.743
	c6.355,0,12.862-0.586,19.339-1.741c21.051-3.755,39.929-13.353,54.595-27.757c14.613-14.353,24.761-33.213,29.347-54.542
	c1.084-5.042,1.455-10.002,1.781-14.378c0.093-1.247,0.184-2.458,0.286-3.631c5.013-4.489,9.339-9.379,13.151-14.855
	c1.781-2.467,2.831-5.496,2.831-8.77c0-3.814-1.423-7.296-3.768-9.943C200.08,52.205,200.174,51.248,200.174,50.269z
	 M175.077,77.754c-1.049,0.859-1.776,2.561-1.951,3.961c-0.823,6.604-0.782,13.373-2.172,19.842
	c-8.09,37.631-35.12,64.123-71.91,70.685c-5.642,1.006-11.213,1.508-16.706,1.508c-14.881,0-29.203-3.68-42.925-10.984
	c-1.401-0.746-2.736-1.616-4.102-2.429c1.511,0.11,3.018,0.163,4.511,0.163c17.932,0,34.154-7.595,40.301-13.841
	c-15.654-2.437-26.13-10.518-28.229-21.432c4.083-0.235,8.224-0.473,12.365-0.711c-16.66-7.971-25.115-19.193-23.567-31.756
	c4.031,1.007,8.088,2.02,12.144,3.033c-13.165-14.118-16.576-31.731-7.748-42.213c16.935,20.18,37.601,30.91,64.078,32.675
	c0.729,0.188,0.817-1.282,0.764-1.756c-1.343-12.018,2.24-22.308,11.654-30.176c4.543-3.797,9.922-5.322,15.484-7.322
	c2.834,0,5.668,0,8.502,0c7.197,2,13.748,4.762,19.175,9.938C165,57.181,165.5,57.399,166,57.399c0.339,0,0.677,0.006,0.938-0.086
	c5.034-1.761,10.037-3.583,15.033-5.451c0.945-0.353,1.813-0.896,3.2-1.607c-2.834,7.394-7.325,12.588-13.159,16.729
	c-0.447,0.492-0.001,0.731,0.364,0.723c5.347-1.521,10.693-3.041,16.289-4.634C184.771,68.71,180.261,73.511,175.077,77.754z"/>
</svg>
