<?xml version="1.0" encoding="utf-8"?>
<!-- Generator: Adobe Illustrator 18.0.0, SVG Export Plug-In . SVG Version: 6.00 Build 0)  -->
<!DOCTYPE svg PUBLIC "-//W3C//DTD SVG 1.1//EN" "http://www.w3.org/Graphics/SVG/1.1/DTD/svg11.dtd">
<svg version="1.1" id="Layer_1" xmlns="http://www.w3.org/2000/svg" xmlns:xlink="http://www.w3.org/1999/xlink" x="0px" y="0px"
	 viewBox="0 0 216 216" enable-background="new 0 0 216 216" xml:space="preserve">
<g>
	<path d="M196.6,54c0.4-1.2,0.6-2.5,0.6-3.8c0-6.5-5.2-11.9-11.7-12c-0.1,0-0.2,0-0.3,0c-0.2,0-0.5,0-0.7,0c-1.8,0.1-3.5,0.6-5,1.4
		c-0.5,0.2-0.9,0.5-1.3,0.7c-0.2,0.1-0.4,0.2-0.6,0.3c-3.1,1.2-6.3,2.4-9.6,3.6c-5.5-4-12-7-19.7-8.7c-0.9-0.2-1.8-0.5-2.7-0.5h-8.5
		c-1,0-2.1,0.4-3.1,0.6c-6.7,1.8-13.7,4.3-20.1,9.6c-8.7,7.3-14,16.6-15.7,27.3c-17.5-3.7-32-12.2-43.9-26.5c-2.3-2.7-5.6-4-9.2-4
		c0,0,0,0,0,0c-3.5,0-6.9,1.4-9.2,4.1c-6.6,7.9-9.1,18.3-7,29.6c0.6,3.1,1.5,6.2,2.7,9.3c-1.6,1.8-2.6,4-2.9,6.4
		c-1.4,11.4,2.7,22.1,11.5,31c-0.4,1.7-0.5,3.4-0.1,5.1c1.5,7.8,5.5,14.5,11.6,19.7c-3.7,0.8-7.7,1.3-11.9,1.3c-1.2,0-2.4,0-3.6-0.1
		c-0.3,0-0.6,0-0.9,0c-5.2,0-9.9,3.4-11.4,8.4c-1.7,5.3,0.5,11.1,5.3,13.9c0.4,0.2,0.8,0.5,1.2,0.7c1,0.6,2.2,1.3,3.4,2
		c15.4,8.2,31.8,12.4,48.6,12.4c6.2,0,12.5-0.6,18.8-1.7c20.5-3.6,38.8-13,53-26.9c14.2-13.9,24.1-32.3,28.5-53
		c1-4.8,1.4-9.5,1.7-14c0.1-1.7,0.2-3.3,0.4-4.9c5.2-4.6,9.7-9.5,13.6-15.1c1.4-2,2.3-4.4,2.3-7C200.7,59.5,199.1,56.2,196.6,54z
		 M175.1,77.8c-1,0.9-1.8,2.6-2,4c-0.8,6.6-0.8,13.4-2.2,19.8c-8.1,37.6-35.1,64.1-71.9,70.7c-5.6,1-11.2,1.5-16.7,1.5
		c-14.9,0-29.2-3.7-42.9-11c-1.4-0.7-2.7-1.6-4.1-2.4c1.5,0.1,3,0.2,4.5,0.2c17.9,0,34.2-7.6,40.3-13.8
		c-15.7-2.4-26.1-10.5-28.2-21.4c4.1-0.2,8.2-0.5,12.4-0.7c-16.7-8-25.1-19.2-23.6-31.8c4,1,8.1,2,12.1,3
		c-13.2-14.1-16.6-31.7-7.7-42.2C62,73.8,83.7,84.5,110.2,86.3c-0.1-0.8-0.2-1.3-0.2-1.8c-1.3-12,2.2-22.3,11.7-30.2
		c4.5-3.8,9.9-5.3,15.5-7.3c2.8,0,5.7,0,8.5,0c7.2,2,13.7,4.8,19.2,9.9c0.3,0.2,0.8,0.5,1.3,0.5c0.3,0,0.7,0,0.9-0.1
		c5-1.8,10-3.6,15-5.5c0.9-0.4,1.8-0.9,3.2-1.6c-2.8,7.4-7.3,12.6-13.2,16.7c0.1,0.2,0.2,0.5,0.4,0.7c5.3-1.5,10.7-3,16.3-4.6
		C184.8,68.7,180.3,73.5,175.1,77.8z"/>
</g>
</svg>
