<?xml version="1.0" encoding="utf-8"?>
<!-- Generator: Adobe Illustrator 17.0.0, SVG Export Plug-In . SVG Version: 6.00 Build 0)  -->
<!DOCTYPE svg PUBLIC "-//W3C//DTD SVG 1.1//EN" "http://www.w3.org/Graphics/SVG/1.1/DTD/svg11.dtd">
<svg version="1.1" id="Layer_1" xmlns="http://www.w3.org/2000/svg" xmlns:xlink="http://www.w3.org/1999/xlink" x="0px" y="0px"
	 width="216px" height="216px" viewBox="0 0 216 216" style="enable-background:new 0 0 216 216;" xml:space="preserve">
<path d="M90.014,180.713c1.401,1.362,3.277,2.287,5.229,2.287c0.036,0,0.073,0,0.109,0c1.991,0,3.888-1.012,5.274-2.441
	l64.768-66.932c2.852-2.94,2.817-7.625-0.079-10.523L95.781,33.528c-1.41-1.412-3.329-2.188-5.321-2.196l-67.084,0.154
	c-4.118,0.009-7.458,3.347-7.483,7.464l-0.402,65.966c-0.013,2.042,0.808,4.041,2.271,5.464L90.014,180.713z M30.847,46.459
	l56.528-0.125l62.109,62.148l-54.397,56.079l-64.577-62.79L30.847,46.459z"/>
<path d="M129.218,41.479c-2.953,2.904-2.993,7.652-0.089,10.606l56.397,57.354l-59.668,61.512
	c-2.884,2.973-2.812,7.721,0.162,10.605c1.457,1.413,3.34,2.116,5.221,2.116c1.958,0,3.914-0.762,5.385-2.278l64.768-66.769
	c2.836-2.923,2.819-7.576-0.036-10.48l-61.533-62.577C136.921,38.614,132.173,38.577,129.218,41.479z"/>
<path d="M58.672,63.04c-5.326,0-9.659,4.334-9.659,9.66s4.333,9.659,9.659,9.659s9.659-4.333,9.659-9.659S63.998,63.04,58.672,63.04
	z"/>
</svg>
