<?xml version="1.0" encoding="utf-8"?>
<!-- Generator: Adobe Illustrator 17.0.0, SVG Export Plug-In . SVG Version: 6.00 Build 0)  -->
<!DOCTYPE svg PUBLIC "-//W3C//DTD SVG 1.1//EN" "http://www.w3.org/Graphics/SVG/1.1/DTD/svg11.dtd">
<svg version="1.1" id="Layer_1" xmlns="http://www.w3.org/2000/svg" xmlns:xlink="http://www.w3.org/1999/xlink" x="0px" y="0px"
	 width="216px" height="216px" viewBox="0 0 216 216" style="enable-background:new 0 0 216 216;" xml:space="preserve">
<path d="M50.686,86.746c2.867,2.989,7.615,3.09,10.604,0.224L95,54.652V142c0,4.143,3.358,7.5,7.5,7.5s7.5-3.357,7.5-7.5V53.746
	l37.569,33.414c1.429,1.271,3.208,1.896,4.981,1.896c2.067,0,4.125-0.85,5.607-2.516c2.753-3.095,2.476-7.836-0.62-10.588
	l-49.635-44.145c-1.365-1.419-3.279-2.307-5.403-2.307c-2.331,0-4.413,1.063-5.788,2.731L50.909,76.142
	C47.919,79.008,47.819,83.756,50.686,86.746z"/>
<path d="M42.5,118.5c-4.142,0-7.5,3.357-7.5,7.5v52.5c0,4.143,3.358,7.5,7.5,7.5h129c4.142,0,7.5-3.357,7.5-7.5V126
	c0-4.143-3.358-7.5-7.5-7.5s-7.5,3.357-7.5,7.5v45H50v-45C50,121.857,46.642,118.5,42.5,118.5z"/>
</svg>
