<?xml version="1.0" encoding="utf-8"?>
<!-- Generator: Adobe Illustrator 18.0.0, SVG Export Plug-In . SVG Version: 6.00 Build 0)  -->
<!DOCTYPE svg PUBLIC "-//W3C//DTD SVG 1.1//EN" "http://www.w3.org/Graphics/SVG/1.1/DTD/svg11.dtd">
<svg version="1.1" id="Layer_1" xmlns="http://www.w3.org/2000/svg" xmlns:xlink="http://www.w3.org/1999/xlink" x="0px" y="0px"
	 viewBox="0 0 216 216" enable-background="new 0 0 216 216" xml:space="preserve">
<g>
	<path d="M55.4,85.6c1.2,1.3,2.8,1.9,4.4,1.9c1.5,0,2.9-0.5,4.1-1.6L102,50.9V142c0,3.3,2.7,6,6,6s6-2.7,6-6V50.6L152.1,86
		c2.4,2.3,6.2,2.1,8.5-0.3c2.3-2.4,2.1-6.2-0.3-8.5l-48-44.5c-0.6-0.6-1.4-1-2.2-1.3c-0.7-0.2-1.4-0.4-2.1-0.4c-2.1,0-3.9,1.1-5,2.7
		L55.7,77.1C53.3,79.4,53.1,83.2,55.4,85.6z"/>
	<path d="M43,120c-3.3,0-6,2.7-6,6v54c0,3.3,2.7,6,6,6h129c3.3,0,6-2.7,6-6v-54c0-3.3-2.7-6-6-6s-6,2.7-6,6v48H49v-48
		C49,122.7,46.3,120,43,120z"/>
</g>
</svg>
