<?xml version="1.0" encoding="utf-8"?>
<!-- Generator: Adobe Illustrator 17.0.0, SVG Export Plug-In . SVG Version: 6.00 Build 0)  -->
<!DOCTYPE svg PUBLIC "-//W3C//DTD SVG 1.1//EN" "http://www.w3.org/Graphics/SVG/1.1/DTD/svg11.dtd">
<svg version="1.1" id="Layer_1" xmlns="http://www.w3.org/2000/svg" xmlns:xlink="http://www.w3.org/1999/xlink" x="0px" y="0px"
	 width="216px" height="216px" viewBox="0 0 216 216" style="enable-background:new 0 0 216 216;" xml:space="preserve">
<path d="M57.123,186.992h101.754c4.143,0,7.5-3.358,7.5-7.5c0-20.88-5.774-40.621-16.259-55.585
	c-6.801-9.706-15.079-16.718-24.187-20.689c11.711-6.769,19.613-19.421,19.613-33.892c0-21.574-17.552-39.126-39.126-39.126
	S67.293,47.751,67.293,69.326c0,15.058,8.555,28.147,21.055,34.686c-8.429,4.081-16.097,10.804-22.466,19.895
	c-10.484,14.965-16.259,34.706-16.259,55.585C49.623,183.634,52.981,186.992,57.123,186.992z M106.419,45.2
	c13.303,0,24.126,10.823,24.126,24.126s-10.823,24.126-24.126,24.126S82.293,82.629,82.293,69.326S93.116,45.2,106.419,45.2z
	 M78.167,132.514c8.171-11.663,18.766-18.085,29.833-18.085s21.662,6.423,29.833,18.085c7.497,10.7,12.103,24.507,13.257,39.479
	H64.91C66.065,157.021,70.67,143.214,78.167,132.514z"/>
</svg>
