<?xml version="1.0" encoding="utf-8"?>
<!-- Generator: Adobe Illustrator 17.0.0, SVG Export Plug-In . SVG Version: 6.00 Build 0)  -->
<!DOCTYPE svg PUBLIC "-//W3C//DTD SVG 1.1//EN" "http://www.w3.org/Graphics/SVG/1.1/DTD/svg11.dtd">
<svg version="1.1" id="Layer_1" xmlns="http://www.w3.org/2000/svg" xmlns:xlink="http://www.w3.org/1999/xlink" x="0px" y="0px"
	 width="216px" height="216px" viewBox="0 0 216 216" style="enable-background:new 0 0 216 216;" xml:space="preserve">
<path d="M137,45.094C137,29.578,124.422,17,108.905,17h-1.811C91.578,17,79,29.578,79,45.094v60.813
	C79,121.422,91.578,134,107.095,134h1.811C124.422,134,137,121.422,137,105.906V45.094z M122,105.905
	c0,7.232-5.863,13.095-13.095,13.095h-1.811C99.863,119,94,113.137,94,105.905V45.095C94,37.863,99.863,32,107.095,32h1.811
	C116.137,32,122,37.863,122,45.095V105.905z"/>
<path d="M53.976,88.328c-4.143,0-7.5,3.357-7.5,7.5c0,33.68,23.368,61.564,53.524,65.811V181H73c-4.143,0-7.5,3.357-7.5,7.5
	s3.357,7.5,7.5,7.5h70c4.143,0,7.5-3.357,7.5-7.5s-3.357-7.5-7.5-7.5h-28v-19.224c30.639-3.763,54.524-31.896,54.524-65.948
	c0-4.143-3.357-7.5-7.5-7.5s-7.5,3.357-7.5,7.5c0,28.337-20.871,51.391-46.524,51.391s-46.524-23.054-46.524-51.391
	C61.476,91.686,58.118,88.328,53.976,88.328z"/>
</svg>
