<?xml version="1.0" encoding="utf-8"?>
<!-- Generator: Adobe Illustrator 18.0.0, SVG Export Plug-In . SVG Version: 6.00 Build 0)  -->
<!DOCTYPE svg PUBLIC "-//W3C//DTD SVG 1.1//EN" "http://www.w3.org/Graphics/SVG/1.1/DTD/svg11.dtd">
<svg version="1.1" id="Layer_1" xmlns="http://www.w3.org/2000/svg" xmlns:xlink="http://www.w3.org/1999/xlink" x="0px" y="0px"
	 viewBox="0 0 216 216" enable-background="new 0 0 216 216" xml:space="preserve">
<g>
	<path d="M135,46.6c0-14.7-11.9-26.6-26.6-26.6h-1.8C91.9,20,80,31.9,80,46.6v60.8c0,14.7,11.9,26.6,26.6,26.6h1.8
		c14.7,0,26.6-11.9,26.6-26.6V46.6z M123,107.4c0,8.1-6.5,14.6-14.6,14.6h-1.8c-8.1,0-14.6-6.5-14.6-14.6V46.6
		c0-8.1,6.5-14.6,14.6-14.6h1.8c8.1,0,14.6,6.5,14.6,14.6V107.4z"/>
	<path d="M54,90.8c-3.3,0-6,2.7-6,6c0,32.8,22.7,60.1,52,64.3V185H73c-3.3,0-6,2.7-6,6s2.7,6,6,6h70c3.3,0,6-2.7,6-6s-2.7-6-6-6h-31
		v-23.4c31.2-2.2,56-30.4,56-64.7c0-3.3-2.7-6-6-6s-6,2.7-6,6c0,29.2-21.5,52.9-48,52.9S60,126,60,96.8C60,93.5,57.3,90.8,54,90.8z"
		/>
</g>
</svg>
