<?xml version="1.0" encoding="utf-8"?>
<!-- Generator: Adobe Illustrator 17.0.0, SVG Export Plug-In . SVG Version: 6.00 Build 0)  -->
<!DOCTYPE svg PUBLIC "-//W3C//DTD SVG 1.1//EN" "http://www.w3.org/Graphics/SVG/1.1/DTD/svg11.dtd">
<svg version="1.1" id="Layer_1" xmlns="http://www.w3.org/2000/svg" xmlns:xlink="http://www.w3.org/1999/xlink" x="0px" y="0px"
	 width="216px" height="216px" viewBox="0 0 216 216" style="enable-background:new 0 0 216 216;" xml:space="preserve">
<path d="M95.124,160.524c0,7.029,5.719,12.748,12.749,12.748c7.029,0,12.748-5.719,12.748-12.748c0-7.03-5.719-12.749-12.748-12.749
	C100.843,147.775,95.124,153.494,95.124,160.524z"/>
<path d="M156.862,112.344c2.023,0,4.042-0.814,5.521-2.421c2.805-3.048,2.608-7.792-0.439-10.598
	c-14.774-13.599-33.977-21.088-54.07-21.088c-19.887,0-38.942,7.355-53.657,20.71c-3.066,2.784-3.297,7.527-0.513,10.595
	c2.785,3.067,7.527,3.296,10.595,0.513c11.948-10.845,27.424-16.817,43.575-16.817c16.319,0,31.914,6.082,43.912,17.125
	C153.227,111.689,155.047,112.344,156.862,112.344z"/>
<path d="M134.535,139.178c2.023,0,4.042-0.814,5.521-2.421c2.805-3.048,2.608-7.792-0.439-10.598
	c-8.651-7.963-19.895-12.348-31.657-12.348c-11.644,0-22.801,4.307-31.416,12.126c-3.066,2.784-3.297,7.527-0.513,10.595
	s7.527,3.297,10.595,0.513c5.85-5.31,13.426-8.233,21.334-8.233c7.989,0,15.624,2.978,21.499,8.385
	C130.899,138.523,132.72,139.178,134.535,139.178z"/>
<path d="M185.021,87.86c2.023,0,4.041-0.814,5.521-2.421c2.805-3.047,2.608-7.792-0.439-10.598
	c-22.498-20.708-51.739-32.113-82.338-32.113c-30.284,0-59.302,11.2-81.708,31.536c-3.066,2.784-3.297,7.527-0.513,10.595
	s7.528,3.297,10.595,0.513c19.64-17.826,45.077-27.644,71.626-27.644c26.824,0,52.458,9.997,72.18,28.15
	C181.386,87.205,183.206,87.86,185.021,87.86z"/>
</svg>
