<?xml version="1.0" encoding="utf-8"?>
<!-- Generator: Adobe Illustrator 18.0.0, SVG Export Plug-In . SVG Version: 6.00 Build 0)  -->
<!DOCTYPE svg PUBLIC "-//W3C//DTD SVG 1.1//EN" "http://www.w3.org/Graphics/SVG/1.1/DTD/svg11.dtd">
<svg version="1.1" id="Layer_1" xmlns="http://www.w3.org/2000/svg" xmlns:xlink="http://www.w3.org/1999/xlink" x="0px" y="0px"
	 viewBox="0 0 216 216" enable-background="new 0 0 216 216" xml:space="preserve">
<g>
	<path d="M96.6,160.5c0,6.2,5,11.2,11.2,11.2c6.2,0,11.2-5,11.2-11.2c0-6.2-5-11.2-11.2-11.2C101.7,149.3,96.6,154.3,96.6,160.5z
		 M108.6,160.5c0,0.4-0.3,0.8-0.8,0.8c-0.4,0-0.8-0.3-0.8-0.8c0-0.4,0.3-0.8,0.8-0.8C108.3,159.8,108.6,160.1,108.6,160.5z"/>
	<path d="M156.9,110.8c1.6,0,3.2-0.7,4.4-1.9c2.2-2.4,2.1-6.2-0.4-8.5c-14.5-13.3-33.3-20.7-53.1-20.7c-19.5,0-38.2,7.2-52.6,20.3
		c-2.5,2.2-2.6,6-0.4,8.5c2.2,2.5,6,2.6,8.5,0.4c12.2-11.1,28.1-17.2,44.6-17.2c16.7,0,32.7,6.2,44.9,17.5
		C154,110.3,155.4,110.8,156.9,110.8z"/>
	<path d="M134.5,137.7c1.6,0,3.2-0.7,4.4-1.9c2.2-2.4,2.1-6.2-0.4-8.5c-8.4-7.7-19.3-12-30.6-12c-11.3,0-22.1,4.2-30.4,11.7
		c-2.5,2.2-2.6,6-0.4,8.5c2.2,2.5,6,2.6,8.5,0.4c6.1-5.6,14.1-8.6,22.3-8.6c8.4,0,16.4,3.1,22.5,8.8
		C131.6,137.2,133.1,137.7,134.5,137.7z"/>
	<path d="M185,86.4c1.6,0,3.2-0.7,4.4-1.9c2.2-2.4,2.1-6.2-0.4-8.5c-22.2-20.5-51.1-31.7-81.3-31.7c-29.9,0-58.6,11.1-80.7,31.1
		c-2.5,2.2-2.6,6-0.4,8.5c2.2,2.5,6,2.6,8.5,0.4c19.9-18.1,45.7-28,72.6-28c27.2,0,53.2,10.1,73.2,28.5
		C182.1,85.8,183.6,86.4,185,86.4z"/>
</g>
</svg>
