<?xml version="1.0" encoding="utf-8"?>
<!-- Generator: Adobe Illustrator 17.0.0, SVG Export Plug-In . SVG Version: 6.00 Build 0)  -->
<!DOCTYPE svg PUBLIC "-//W3C//DTD SVG 1.1//EN" "http://www.w3.org/Graphics/SVG/1.1/DTD/svg11.dtd">
<svg version="1.1" id="Layer_1" xmlns="http://www.w3.org/2000/svg" xmlns:xlink="http://www.w3.org/1999/xlink" x="0px" y="0px"
	 width="216px" height="216px" viewBox="0 0 216 216" style="enable-background:new 0 0 216 216;" xml:space="preserve">
<path d="M195.379,187c0.007,0,0.015,0,0.02,0c4.143,0,7.5-3.357,7.5-7.5c0-1.553-0.472-2.995-1.279-4.191L114.495,24.404
	c-1.34-2.32-3.815-3.75-6.495-3.75s-5.155,1.43-6.495,3.75L14.126,175.75c-1.34,2.32-1.34,5.18,0,7.5s3.815,3.75,6.495,3.75H195.379
	z M108,43.154L182.389,172H33.611L108,43.154z"/>
<path d="M113.306,144.7c-1.399-1.4-3.33-2.2-5.31-2.2c-1.97,0-3.9,0.8-5.3,2.2c-1.4,1.39-2.2,3.319-2.2,5.3c0,1.97,0.8,3.91,2.2,5.3
	c1.399,1.4,3.33,2.2,5.3,2.2c1.979,0,3.91-0.8,5.31-2.2c1.391-1.39,2.19-3.33,2.19-5.3C115.496,148.02,114.696,146.09,113.306,144.7
	z"/>
<path d="M107.406,128.5c4.143,0,7.5-3.357,7.5-7.5V87c0-4.143-3.357-7.5-7.5-7.5s-7.5,3.357-7.5,7.5v34
	C99.906,125.143,103.264,128.5,107.406,128.5z"/>
</svg>
