<?xml version="1.0" encoding="utf-8"?>
<!-- Generator: Adobe Illustrator 17.0.0, SVG Export Plug-In . SVG Version: 6.00 Build 0)  -->
<!DOCTYPE svg PUBLIC "-//W3C//DTD SVG 1.1//EN" "http://www.w3.org/Graphics/SVG/1.1/DTD/svg11.dtd">
<svg version="1.1" id="Layer_1" xmlns="http://www.w3.org/2000/svg" xmlns:xlink="http://www.w3.org/1999/xlink" x="0px" y="0px"
	 width="216px" height="216px" viewBox="0 0 216 216" style="enable-background:new 0 0 216 216;" xml:space="preserve">
<path d="M91.359,156.974c14.746,0,28.396-4.749,39.532-12.778l48.428,48.429c1.465,1.464,3.384,2.196,5.304,2.196
	c1.919,0,3.839-0.732,5.304-2.196c2.929-2.93,2.929-7.678,0-10.607l-47.889-47.89c10.619-11.967,17.087-27.698,17.087-44.918
	c0-37.365-30.399-67.765-67.765-67.765S23.596,51.844,23.596,89.209S53.994,156.974,91.359,156.974z M91.359,36.444
	c29.095,0,52.765,23.67,52.765,52.765s-23.67,52.765-52.765,52.765c-29.094,0-52.764-23.67-52.764-52.765
	S62.266,36.444,91.359,36.444z"/>
<path d="M66,97h50c4.143,0,7.5-3.357,7.5-7.5S120.143,82,116,82H66c-4.143,0-7.5,3.357-7.5,7.5S61.857,97,66,97z"/>
</svg>
