<?xml version="1.0" encoding="utf-8"?>
<!-- Generator: Adobe Illustrator 18.0.0, SVG Export Plug-In . SVG Version: 6.00 Build 0)  -->
<!DOCTYPE svg PUBLIC "-//W3C//DTD SVG 1.1//EN" "http://www.w3.org/Graphics/SVG/1.1/DTD/svg11.dtd">
<svg version="1.1" id="Layer_1" xmlns="http://www.w3.org/2000/svg" xmlns:xlink="http://www.w3.org/1999/xlink" x="0px" y="0px"
	 viewBox="0 0 216 216" enable-background="new 0 0 216 216" xml:space="preserve">
<g>
	<path d="M91.4,155.5c14.9,0,28.6-4.9,39.7-13.2l49.3,49.3c1.2,1.2,2.7,1.8,4.2,1.8c1.5,0,3.1-0.6,4.2-1.8c2.3-2.3,2.3-6.1,0-8.5
		L140,134.2c10.9-11.8,17.7-27.6,17.7-45c0-36.5-29.7-66.3-66.3-66.3S25.1,52.7,25.1,89.2S54.8,155.5,91.4,155.5z M91.4,34.9
		c29.9,0,54.3,24.3,54.3,54.3s-24.3,54.3-54.3,54.3c-29.9,0-54.3-24.3-54.3-54.3S61.4,34.9,91.4,34.9z"/>
	<path d="M66,96h50c3.3,0,6-2.7,6-6s-2.7-6-6-6H66c-3.3,0-6,2.7-6,6S62.7,96,66,96z"/>
</g>
</svg>
