<?xml version="1.0" encoding="utf-8"?>
<!-- Generator: Adobe Illustrator 18.0.0, SVG Export Plug-In . SVG Version: 6.00 Build 0)  -->
<!DOCTYPE svg PUBLIC "-//W3C//DTD SVG 1.1//EN" "http://www.w3.org/Graphics/SVG/1.1/DTD/svg11.dtd">
<svg version="1.1" id="Layer_1" xmlns="http://www.w3.org/2000/svg" xmlns:xlink="http://www.w3.org/1999/xlink" x="0px" y="0px"
	 viewBox="0 0 216 216" enable-background="new 0 0 216 216" xml:space="preserve">
<path d="M108,33c-3.3,0-6,2.7-6,6v122.2l-39-43.8c-2.2-2.5-6-2.7-8.5-0.5c-2.5,2.2-2.7,6-0.5,8.5l49.1,55c1.1,1.6,2.9,2.6,4.9,2.6
	c0,0,0,0,0,0c0,0,0,0,0,0c1.7,0,3.3-0.7,4.5-2l49.6-55.6c2.2-2.5,2-6.3-0.5-8.5c-2.5-2.2-6.3-2-8.5,0.5L114,161.3V39
	C114,35.7,111.3,33,108,33z"/>
</svg>
