<?xml version="1.0" encoding="utf-8"?>
<!-- Generator: Adobe Illustrator 18.0.0, SVG Export Plug-In . SVG Version: 6.00 Build 0)  -->
<!DOCTYPE svg PUBLIC "-//W3C//DTD SVG 1.1//EN" "http://www.w3.org/Graphics/SVG/1.1/DTD/svg11.dtd">
<svg version="1.1" id="Layer_1" xmlns="http://www.w3.org/2000/svg" xmlns:xlink="http://www.w3.org/1999/xlink" x="0px" y="0px"
	 viewBox="0 0 216 216" enable-background="new 0 0 216 216" xml:space="preserve">
<path d="M140.1,74.1c2.3-2.3,2.3-6.1,0-8.5c-2.3-2.3-6.1-2.3-8.5,0l-62.9,62.9c-7.5,7.5-7.5,19.8,0,27.3c7.5,7.5,19.8,7.5,27.3,0
	l65.9-65.9c0.6-0.3,1.2-0.7,1.8-1.2c8.8-8.8,32.2-32.2,9.7-54.7c-8.6-8.6-18.9-11.9-29.8-9.5c-8.9,1.9-18.1,7.6-27.3,16.8
	l-71.4,71.4c-8.5,8.5-13,20.3-12.5,33.2c0.5,12.3,5.6,24.3,14.1,32.8c8.5,8.5,20.3,13.4,32.5,13.7c0.3,0,0.6,0,1,0
	c12.2,0,23.4-4.6,31.7-12.9l70.4-70.4c2.3-2.3,2.3-6.1,0-8.5c-2.3-2.3-6.1-2.3-8.5,0l-70.4,70.4c-6.2,6.2-14.7,9.5-24,9.4
	c-9.1-0.2-17.9-3.9-24.2-10.2c-13.5-13.5-14.2-36.4-1.6-49l71.4-71.4c7.4-7.4,14.8-12.1,21.3-13.5c6.9-1.5,13.1,0.5,18.8,6.3
	c5.6,5.6,7.2,10.8,5.2,17.1c-1.4,4.5-4.6,9.5-10,15.5c-0.4,0.3-0.9,0.6-1.2,0.9l-71.3,71.3c-2.8,2.8-7.5,2.8-10.3,0
	c-2.8-2.8-2.8-7.5,0-10.3L140.1,74.1z"/>
</svg>
