<?xml version="1.0" encoding="utf-8"?>
<!-- Generator: Adobe Illustrator 18.0.0, SVG Export Plug-In . SVG Version: 6.00 Build 0)  -->
<!DOCTYPE svg PUBLIC "-//W3C//DTD SVG 1.1//EN" "http://www.w3.org/Graphics/SVG/1.1/DTD/svg11.dtd">
<svg version="1.1" id="Layer_1" xmlns="http://www.w3.org/2000/svg" xmlns:xlink="http://www.w3.org/1999/xlink" x="0px" y="0px"
	 viewBox="0 0 216 216" enable-background="new 0 0 216 216" xml:space="preserve">
<path d="M181.1,103.5l-55.6-49.6c-2.5-2.2-6.3-2-8.5,0.5c-2.2,2.5-2,6.3,0.5,8.5l43.8,39.1H39c-3.3,0-6,2.7-6,6s2.7,6,6,6h122.3
	l-43.8,39.1c-2.5,2.2-2.7,6-0.5,8.5c1.2,1.3,2.8,2,4.5,2c1.4,0,2.8-0.5,4-1.5l55.6-49.6c1.3-1.1,2-2.8,2-4.5
	S182.3,104.7,181.1,103.5z"/>
</svg>
