<?xml version="1.0" encoding="utf-8"?>
<!-- Generator: Adobe Illustrator 18.0.0, SVG Export Plug-In . SVG Version: 6.00 Build 0)  -->
<!DOCTYPE svg PUBLIC "-//W3C//DTD SVG 1.1//EN" "http://www.w3.org/Graphics/SVG/1.1/DTD/svg11.dtd">
<svg version="1.1" id="Layer_1" xmlns="http://www.w3.org/2000/svg" xmlns:xlink="http://www.w3.org/1999/xlink" x="0px" y="0px"
	 viewBox="0 0 216 216" enable-background="new 0 0 216 216" xml:space="preserve">
<path d="M30.8,75.9l-0.2,50c0,1.7,0.7,3.3,1.9,4.4c1.2,1.1,2.9,1.7,4.5,1.6c0.1,0,5.2-0.4,13.1-0.5c0.1,1.9,0.7,9.4,4.3,17.1
	c4,8.5,12.5,18.8,29.9,19.2c0.3,0,0.7,0,1,0c9.1,0,16.7-2.8,22.5-8.3c6.8-6.5,9.4-15.1,10.4-20.7c28.7,10.2,45.6,25.1,45.8,25.2v0
	c1.1,1,2.5,1.5,4,1.5c0.8,0,1.7-0.2,2.4-0.5c2.2-1,3.6-3.1,3.6-5.5V44.7c0-2.4-1.4-4.5-3.6-5.5c-2.2-1-4.7-0.6-6.5,1
	c-0.2,0.2-24.2,21.6-42.4,27.2c-10.5,3.2-25.1,4.9-43.4,4.9c-21.5,0-40.3-2.4-40.5-2.4c-1.7-0.2-3.4,0.3-4.7,1.4
	C31.6,72.5,30.8,74.2,30.8,75.9z M85.3,155.7c-0.2,0-0.5,0-0.7,0c-9.1-0.2-15.3-4.1-19.2-12c-2.6-5.3-3.2-10.6-3.3-12.4
	c2.4,0,5,0.1,7.5,0.2c0.7,0.3,1.5,0.5,2.4,0.5c0,0,0,0,0,0c0.7,0,1.3-0.1,2-0.4c10.7,0.5,22.3,1.6,32.5,3.8
	C105.8,141.6,102.1,155.7,85.3,155.7z M125.1,78.9c12.9-4,27.5-14.1,36.9-21.5v89.9c-8.4-5.7-22-13.7-39.8-20
	c-12.7-4.5-28.9-6.6-44-7.4l0.2-35.5C97.8,84.3,113.5,82.5,125.1,78.9z M42.8,82.6c5.5,0.5,13.9,1.2,23.6,1.5l-0.2,35.2
	c-2.7-0.1-5.3-0.1-7.7-0.1c-6.4,0-11.9,0.2-15.9,0.3L42.8,82.6z"/>
</svg>
