<?xml version="1.0" encoding="utf-8"?>
<!-- Generator: Adobe Illustrator 18.0.0, SVG Export Plug-In . SVG Version: 6.00 Build 0)  -->
<!DOCTYPE svg PUBLIC "-//W3C//DTD SVG 1.1//EN" "http://www.w3.org/Graphics/SVG/1.1/DTD/svg11.dtd">
<svg version="1.1" id="Layer_1" xmlns="http://www.w3.org/2000/svg" xmlns:xlink="http://www.w3.org/1999/xlink" x="0px" y="0px"
	 viewBox="0 0 216 216" enable-background="new 0 0 216 216" xml:space="preserve">
<path d="M102,123v10c0,3.3-2.7,6-6,6H85c-3.3,0-6-2.7-6-6v-10c0-3.3,2.7-6,6-6h11C99.3,117,102,119.7,102,123z M136,133v-10
	c0-3.3-2.7-6-6-6h-10c-3.3,0-6,2.7-6,6v10c0,3.3,2.7,6,6,6h10C133.3,139,136,136.3,136,133z M96,84H85c-3.3,0-6,2.7-6,6v10
	c0,3.3,2.7,6,6,6h11c3.3,0,6-2.7,6-6V90C102,86.7,99.3,84,96,84z M120,106h10c3.3,0,6-2.7,6-6V90c0-3.3-2.7-6-6-6h-10
	c-3.3,0-6,2.7-6,6v10C114,103.3,116.7,106,120,106z M96,52H85c-3.3,0-6,2.7-6,6v10c0,3.3,2.7,6,6,6h11c3.3,0,6-2.7,6-6V58
	C102,54.7,99.3,52,96,52z M120,74h10c3.3,0,6-2.7,6-6V58c0-3.3-2.7-6-6-6h-10c-3.3,0-6,2.7-6,6v10C114,71.3,116.7,74,120,74z
	 M190.3,82.3c1.1,1.1,1.7,2.6,1.7,4.2V192c0,3.3-2.7,6-6,6h-29h-25c-1.9,0-3.6-0.9-4.7-2.2c-2.5-0.7-4.3-3-4.3-5.8v-23H92v23
	c0,2.2-1.2,4.1-2.9,5.1c-1.1,1.7-2.9,2.9-5.1,2.9H58H29c-3.3,0-6-2.7-6-6V86.5c0-1.6,0.6-3.1,1.7-4.2L52,54.1V28c0-3.3,2.7-6,6-6h99
	c3.3,0,6,2.7,6,6v26.1L190.3,82.3z M35,186h17V71.3L35,88.9V186z M129,155c3.3,0,6,2.7,6,6v25h16V56.5V34H64v22.5V186h16v-25
	c0-3.3,2.7-6,6-6H129z M180,88.9l-17-17.6V186h17V88.9z"/>
</svg>
