<?xml version="1.0" encoding="utf-8"?>
<!-- Generator: Adobe Illustrator 18.0.0, SVG Export Plug-In . SVG Version: 6.00 Build 0)  -->
<!DOCTYPE svg PUBLIC "-//W3C//DTD SVG 1.1//EN" "http://www.w3.org/Graphics/SVG/1.1/DTD/svg11.dtd">
<svg version="1.1" id="Layer_1" xmlns="http://www.w3.org/2000/svg" xmlns:xlink="http://www.w3.org/1999/xlink" x="0px" y="0px"
	 viewBox="0 0 216 216" enable-background="new 0 0 216 216" xml:space="preserve">
<path d="M154,27H58c-3.3,0-6,2.7-6,6v153.7c0,2.5,1.5,4.7,3.8,5.6c2.3,0.9,4.9,0.3,6.6-1.6l44.8-49.1l42.3,49
	c1.2,1.3,2.8,2.1,4.5,2.1c0.7,0,1.4-0.1,2.1-0.4c2.3-0.9,3.9-3.1,3.9-5.6V33C160,29.7,157.3,27,154,27z M148,170.6l-36.1-41.9
	c-1.1-1.3-2.7-2.1-4.5-2.1c-1.7,0-3.4,0.7-4.5,2L64,171.3V39h84V170.6z"/>
</svg>
