<?xml version="1.0" encoding="utf-8"?>
<!-- Generator: Adobe Illustrator 18.0.0, SVG Export Plug-In . SVG Version: 6.00 Build 0)  -->
<!DOCTYPE svg PUBLIC "-//W3C//DTD SVG 1.1//EN" "http://www.w3.org/Graphics/SVG/1.1/DTD/svg11.dtd">
<svg version="1.1" id="Layer_1" xmlns="http://www.w3.org/2000/svg" xmlns:xlink="http://www.w3.org/1999/xlink" x="0px" y="0px"
	 viewBox="0 0 216 216" enable-background="new 0 0 216 216" xml:space="preserve">
<path d="M23,40c0-3.3,2.7-6,6-6h21.8c2.7,0,5.1,1.8,5.8,4.4L81,127h66.8L170,76H96c-3.3,0-6-2.7-6-6s2.7-6,6-6h83.2c2,0,3.9,1,5,2.7
	s1.3,3.8,0.5,5.7l-27.4,63c-1,2.2-3.1,3.6-5.5,3.6H76.4c-2.7,0-5.1-1.8-5.8-4.4L46.2,46H29C25.7,46,23,43.3,23,40z M79.8,186.7
	c-10.5,0-19.1-8.6-19.1-19.1s8.6-19.1,19.1-19.1s19.1,8.6,19.1,19.1S90.4,186.7,79.8,186.7z M79.8,174.7c3.9,0,7.1-3.2,7.1-7.1
	s-3.2-7.1-7.1-7.1s-7.1,3.2-7.1,7.1S75.9,174.7,79.8,174.7z M146.8,186.7c-10.5,0-19.1-8.6-19.1-19.1s8.6-19.1,19.1-19.1
	s19.1,8.6,19.1,19.1S157.4,186.7,146.8,186.7z M146.8,174.7c3.9,0,7.1-3.2,7.1-7.1s-3.2-7.1-7.1-7.1s-7.1,3.2-7.1,7.1
	S142.9,174.7,146.8,174.7z"/>
</svg>
