<?xml version="1.0" encoding="utf-8"?>
<!-- Generator: Adobe Illustrator 18.0.0, SVG Export Plug-In . SVG Version: 6.00 Build 0)  -->
<!DOCTYPE svg PUBLIC "-//W3C//DTD SVG 1.1//EN" "http://www.w3.org/Graphics/SVG/1.1/DTD/svg11.dtd">
<svg version="1.1" id="Layer_1" xmlns="http://www.w3.org/2000/svg" xmlns:xlink="http://www.w3.org/1999/xlink" x="0px" y="0px"
	 viewBox="0 0 216 216" enable-background="new 0 0 216 216" xml:space="preserve">
<path d="M174.6,56.1L155.5,56l-18.2-27.1c-1.1-1.7-3-2.6-5-2.6H82.9c-2,0-3.8,1-4.9,2.6L59.1,56.1l-17.7,0C28,56.1,17,67.1,17,80.5
	v78.9c0,13.4,10.9,24.4,24.4,24.4h133.2c13.4,0,24.4-10.9,24.4-24.4V80.5C199,67.1,188,56.1,174.6,56.1z M187,159.4
	c0,6.8-5.5,12.4-12.4,12.4H41.4c-6.8,0-12.4-5.5-12.4-12.4V80.5c0-6.8,5.5-12.4,12.4-12.4l20.8,0c2,0,3.8-1,4.9-2.6l18.9-27.2H129
	l18.2,27.1c1.1,1.6,3,2.6,4.9,2.6l22.4,0.1c6.8,0,12.4,5.5,12.4,12.4V159.4z M108.5,70.5C85,70.5,66,89.6,66,113
	s19.1,42.5,42.5,42.5S151,136.4,151,113S131.9,70.5,108.5,70.5z M108.5,143.5C91.7,143.5,78,129.8,78,113s13.7-30.5,30.5-30.5
	S139,96.2,139,113S125.3,143.5,108.5,143.5z M174.2,88.1c0,4.8-3.9,8.8-8.8,8.8c-4.8,0-8.8-3.9-8.8-8.8c0-4.8,3.9-8.8,8.8-8.8
	C170.3,79.3,174.2,83.3,174.2,88.1z"/>
</svg>
