<?xml version="1.0" encoding="utf-8"?>
<!-- Generator: Adobe Illustrator 18.0.0, SVG Export Plug-In . SVG Version: 6.00 Build 0)  -->
<!DOCTYPE svg PUBLIC "-//W3C//DTD SVG 1.1//EN" "http://www.w3.org/Graphics/SVG/1.1/DTD/svg11.dtd">
<svg version="1.1" id="Layer_1" xmlns="http://www.w3.org/2000/svg" xmlns:xlink="http://www.w3.org/1999/xlink" x="0px" y="0px"
	 viewBox="0 0 216 216" enable-background="new 0 0 216 216" xml:space="preserve">
<path d="M140.7,27H72c-3.3,0-6,2.7-6,6v26H40c-3.3,0-6,2.7-6,6v122c0,3.3,2.7,6,6,6h101c3.3,0,6-2.7,6-6v-27h25c3.3,0,6-2.7,6-6
	V64.5c0-1.6-0.6-3.1-1.7-4.2L145,28.8C143.9,27.6,142.3,27,140.7,27z M135,181H46V71h20v83c0,3.3,2.7,6,6,6h63V181z M78,148V39h52
	v34c0,3.3,2.7,6,6,6h30v69H78z M166,67h-24V42.8L166,67L166,67z"/>
</svg>
