<?xml version="1.0" encoding="utf-8"?>
<!-- Generator: Adobe Illustrator 18.0.0, SVG Export Plug-In . SVG Version: 6.00 Build 0)  -->
<!DOCTYPE svg PUBLIC "-//W3C//DTD SVG 1.1//EN" "http://www.w3.org/Graphics/SVG/1.1/DTD/svg11.dtd">
<svg version="1.1" id="Layer_1" xmlns="http://www.w3.org/2000/svg" xmlns:xlink="http://www.w3.org/1999/xlink" x="0px" y="0px"
	 viewBox="0 0 216 216" enable-background="new 0 0 216 216" xml:space="preserve">
<path d="M145.3,184.2c14.1,0,25.6-11.5,25.6-25.6S159.4,133,145.3,133c-4.7,0-9,1.3-12.8,3.4l-16.2-15.7l2.3-1.9c1-0.8,1.7-1.8,2-3
	l22.4-75.5c0.9-3.2-0.9-6.5-4-7.5c-3.2-0.9-6.5,0.9-7.5,4l-21.8,73.7l-2,1.6l-1.3-1.3L85.8,36.2c-0.9-3.2-4.2-5.1-7.4-4.2
	c-3.2,0.9-5.1,4.2-4.2,7.4l21,76.5c0.3,1,0.8,2,1.6,2.7l1.4,1.4l-18,14.4c-0.1,0.1-0.3,0.2-0.4,0.4c-2.8-1.1-5.9-1.7-9.1-1.7
	c-14.1,0-25.6,11.5-25.6,25.6s11.5,25.6,25.6,25.6s25.6-11.5,25.6-25.6c0-6.4-2.4-12.2-6.3-16.7l16.9-13.5l16.9,16.4
	c-2.6,4-4.1,8.8-4.1,13.9C119.7,172.7,131.2,184.2,145.3,184.2z M70.7,172.2c-7.5,0-13.6-6.1-13.6-13.6c0-7.5,6.1-13.6,13.6-13.6
	c7.5,0,13.6,6.1,13.6,13.6C84.3,166.1,78.2,172.2,70.7,172.2z M158.9,158.6c0,7.5-6.1,13.6-13.6,13.6c-7.5,0-13.6-6.1-13.6-13.6
	c0-7.5,6.1-13.6,13.6-13.6C152.8,145,158.9,151.1,158.9,158.6z"/>
</svg>
