<?xml version="1.0" encoding="utf-8"?>
<!-- Generator: Adobe Illustrator 18.0.0, SVG Export Plug-In . SVG Version: 6.00 Build 0)  -->
<!DOCTYPE svg PUBLIC "-//W3C//DTD SVG 1.1//EN" "http://www.w3.org/Graphics/SVG/1.1/DTD/svg11.dtd">
<svg version="1.1" id="Layer_1" xmlns="http://www.w3.org/2000/svg" xmlns:xlink="http://www.w3.org/1999/xlink" x="0px" y="0px"
	 viewBox="0 0 216 216" enable-background="new 0 0 216 216" xml:space="preserve">
<path d="M194,40v146c0,3.3-2.7,6-6,6H28c-3.3,0-6-2.7-6-6V40c0-3.3,2.7-6,6-6h22c3.3,0,6,2.7,6,6s-2.7,6-6,6H34v134h148V46h-12
	c-3.3,0-6-2.7-6-6s2.7-6,6-6h18C191.3,34,194,36.7,194,40z M116,34H99c-3.3,0-6,2.7-6,6s2.7,6,6,6h17c3.3,0,6-2.7,6-6
	S119.3,34,116,34z M72,142H58c-3.3,0-6,2.7-6,6v10c0,3.3,2.7,6,6,6h14c3.3,0,6-2.7,6-6v-10C78,144.7,75.3,142,72,142z M115,142h-15
	c-3.3,0-6,2.7-6,6v10c0,3.3,2.7,6,6,6h15c3.3,0,6-2.7,6-6v-10C121,144.7,118.3,142,115,142z M78,115c0-3.3-2.7-6-6-6H58
	c-3.3,0-6,2.7-6,6v10c0,3.3,2.7,6,6,6h14c3.3,0,6-2.7,6-6V115z M121,115c0-3.3-2.7-6-6-6h-15c-3.3,0-6,2.7-6,6v10c0,3.3,2.7,6,6,6
	h15c3.3,0,6-2.7,6-6V115z M157,109h-14c-3.3,0-6,2.7-6,6v10c0,3.3,2.7,6,6,6h14c3.3,0,6-2.7,6-6v-10C163,111.7,160.3,109,157,109z
	 M52,81v10c0,3.3,2.7,6,6,6h14c3.3,0,6-2.7,6-6V81c0-3.3-2.7-6-6-6H58C54.7,75,52,77.7,52,81z M121,81c0-3.3-2.7-6-6-6h-15
	c-3.3,0-6,2.7-6,6v10c0,3.3,2.7,6,6,6h15c3.3,0,6-2.7,6-6V81z M163,81c0-3.3-2.7-6-6-6h-14c-3.3,0-6,2.7-6,6v10c0,3.3,2.7,6,6,6h14
	c3.3,0,6-2.7,6-6V81z M76,58c3.3,0,6-2.7,6-6V24c0-3.3-2.7-6-6-6h-6c-3.3,0-6,2.7-6,6v28c0,3.3,2.7,6,6,6H76z M145,18h-6
	c-3.3,0-6,2.7-6,6v28c0,3.3,2.7,6,6,6h6c3.3,0,6-2.7,6-6V24C151,20.7,148.3,18,145,18z"/>
</svg>
