<?xml version="1.0" encoding="utf-8"?>
<!-- Generator: Adobe Illustrator 18.0.0, SVG Export Plug-In . SVG Version: 6.00 Build 0)  -->
<!DOCTYPE svg PUBLIC "-//W3C//DTD SVG 1.1//EN" "http://www.w3.org/Graphics/SVG/1.1/DTD/svg11.dtd">
<svg version="1.1" id="Layer_1" xmlns="http://www.w3.org/2000/svg" xmlns:xlink="http://www.w3.org/1999/xlink" x="0px" y="0px"
	 viewBox="0 0 216 216" enable-background="new 0 0 216 216" xml:space="preserve">
<path d="M43.1,137.2c12.3,12.1,33.6,26.4,65.4,26.4s53.1-14.4,65.4-26.4c13.3-13,19-26.1,19.3-26.6c0.7-1.5,0.7-3.3,0-4.8
	c-0.2-0.5-5.6-12.8-18.8-25c-12.1-11.2-33.5-24.5-66.5-24.5c-33,0-54,13.4-65.9,24.6C29,93.1,23.9,105.4,23.7,106
	c-0.6,1.5-0.6,3.2,0.1,4.6C24,111.1,29.8,124.2,43.1,137.2z M107.6,68.7c16.1,0,29.2,13.1,29.2,29.2c0,16.1-13.1,29.2-29.2,29.2
	s-29.2-13.1-29.2-29.2C78.4,81.8,91.5,68.7,107.6,68.7z M73.7,74.5c-4.6,6.6-7.3,14.7-7.3,23.4c0,22.7,18.5,41.2,41.2,41.2
	s41.2-18.5,41.2-41.2c0-8.8-2.8-16.9-7.5-23.6c24.4,9.4,36,27.4,39.5,34c-2.2,4-7.3,12.5-15.8,20.8c-15.5,15.1-34.5,22.7-56.6,22.7
	S67.3,144,51.8,129c-8.6-8.4-13.7-16.9-15.9-20.9C39.2,101.7,50,84,73.7,74.5z"/>
</svg>
