<?xml version="1.0" encoding="utf-8"?>
<!-- Generator: Adobe Illustrator 18.0.0, SVG Export Plug-In . SVG Version: 6.00 Build 0)  -->
<!DOCTYPE svg PUBLIC "-//W3C//DTD SVG 1.1//EN" "http://www.w3.org/Graphics/SVG/1.1/DTD/svg11.dtd">
<svg version="1.1" id="Layer_1" xmlns="http://www.w3.org/2000/svg" xmlns:xlink="http://www.w3.org/1999/xlink" x="0px" y="0px"
	 viewBox="0 0 216 216" enable-background="new 0 0 216 216" xml:space="preserve">
<path d="M79.6,59c3.3,0,6-2.7,6-6s-2.7-6-6-6H49.5c-3.3,0-6,2.7-6,6v115.5c0,3.3,2.7,6,6,6H165c3.3,0,6-2.7,6-6V140c0-3.3-2.7-6-6-6
	s-6,2.7-6,6v22.5H55.5V59H79.6z"/>
<path d="M94.5,123.5c1.2,1.2,2.7,1.8,4.2,1.8s3.1-0.6,4.2-1.8l56-56v33.3c0,3.3,2.7,6,6,6s6-2.7,6-6V53c0-0.4,0-0.7-0.1-1.1
	c0,0,0,0,0-0.1c-0.1-0.4-0.2-0.7-0.3-1c0,0,0-0.1,0-0.1c-0.1-0.3-0.3-0.7-0.5-1c0,0,0,0,0-0.1c-0.4-0.7-1-1.2-1.7-1.7c0,0,0,0-0.1,0
	c-0.3-0.2-0.6-0.4-1-0.5c0,0-0.1,0-0.1,0c-0.3-0.1-0.7-0.2-1-0.3c0,0,0,0-0.1,0c-0.4-0.1-0.7-0.1-1.1-0.1h-47.8c-3.3,0-6,2.7-6,6
	s2.7,6,6,6h33.3l-56,56C92.2,117.4,92.2,121.1,94.5,123.5z"/>
</svg>
