<?xml version="1.0" encoding="utf-8"?>
<!-- Generator: Adobe Illustrator 18.0.0, SVG Export Plug-In . SVG Version: 6.00 Build 0)  -->
<!DOCTYPE svg PUBLIC "-//W3C//DTD SVG 1.1//EN" "http://www.w3.org/Graphics/SVG/1.1/DTD/svg11.dtd">
<svg version="1.1" id="Layer_1" xmlns="http://www.w3.org/2000/svg" xmlns:xlink="http://www.w3.org/1999/xlink" x="0px" y="0px"
	 viewBox="0 0 216 216" enable-background="new 0 0 216 216" xml:space="preserve">
<path d="M147.5,30.6L87.4,90.7c-1.1,1.1-1.7,2.6-1.8,4.2l-0.4,30.7c0,1.6,0.6,3.3,1.8,4.4c1.1,1.1,2.7,2,4.2,2c0,0,0.1,0,0.1,0
	l29.7-0.6c1.6,0,3.1-0.9,4.2-2l60.6-60.6c2.3-2.3,2.3-6.1,0-8.5l-29.7-29.7C153.6,28.3,149.8,28.3,147.5,30.6z M118.3,119.2l-21,0.3
	l0.3-22l30.6-30.6l21.1,21.4L118.3,119.2z M157.8,79.7l-21.1-21.4l15-15l21.2,21.2L157.8,79.7z M52,48v125h100v-50c0-3.3,2.7-6,6-6
	s6,2.7,6,6v56c0,3.3-2.7,6-6,6H46c-3.3,0-6-2.7-6-6V42c0-3.3,2.7-6,6-6h60c3.3,0,6,2.7,6,6s-2.7,6-6,6H52z"/>
</svg>
