<?xml version="1.0" encoding="utf-8"?>
<!-- Generator: Adobe Illustrator 18.0.0, SVG Export Plug-In . SVG Version: 6.00 Build 0)  -->
<!DOCTYPE svg PUBLIC "-//W3C//DTD SVG 1.1//EN" "http://www.w3.org/Graphics/SVG/1.1/DTD/svg11.dtd">
<svg version="1.1" id="Layer_1" xmlns="http://www.w3.org/2000/svg" xmlns:xlink="http://www.w3.org/1999/xlink" x="0px" y="0px"
	 viewBox="0 0 216 216" enable-background="new 0 0 216 216" xml:space="preserve">
<path d="M35.6,174.4c0,3.3,2.7,6,6,6h41.9c3.3,0,6-2.7,6-6s-2.7-6-6-6H56.1l34.2-34.2c2.3-2.3,2.3-6.1,0-8.5c-2.3-2.3-6.1-2.3-8.5,0
	l-34.2,34.2v-29.3c0-3.3-2.7-6-6-6s-6,2.7-6,6V174.4z"/>
<path d="M125.1,174.4c0,3.3,2.7,6,6,6h43.2c3.3,0,6-2.7,6-6v-42.5c0-3.3-2.7-6-6-6s-6,2.7-6,6v26.6l-32.8-32.8
	c-2.3-2.3-6.1-2.3-8.5,0c-2.3,2.3-2.3,6.1,0,8.5l34.2,34.2h-30.2C127.8,168.4,125.1,171.1,125.1,174.4z"/>
<path d="M92,41.6c0-3.3-2.7-6-6-6H41.6c-3.3,0-6,2.7-6,6v42.9c0,3.3,2.7,6,6,6s6-2.7,6-6V54.7l34.2,34.2c1.2,1.2,2.7,1.8,4.2,1.8
	s3.1-0.6,4.2-1.8c2.3-2.3,2.3-6.1,0-8.5L57.5,47.6H86C89.4,47.6,92,44.9,92,41.6z"/>
<path d="M127.1,88.9c1.2,1.2,2.7,1.8,4.2,1.8s3.1-0.6,4.2-1.8l32.8-32.8v28.4c0,3.3,2.7,6,6,6s6-2.7,6-6V41.6c0-3.3-2.7-6-6-6h-40.7
	c-3.3,0-6,2.7-6,6s2.7,6,6,6h26.3l-32.8,32.8C124.8,82.7,124.8,86.5,127.1,88.9z"/>
</svg>
