<?xml version="1.0" encoding="utf-8"?>
<!-- Generator: Adobe Illustrator 18.0.0, SVG Export Plug-In . SVG Version: 6.00 Build 0)  -->
<!DOCTYPE svg PUBLIC "-//W3C//DTD SVG 1.1//EN" "http://www.w3.org/Graphics/SVG/1.1/DTD/svg11.dtd">
<svg version="1.1" id="Layer_1" xmlns="http://www.w3.org/2000/svg" xmlns:xlink="http://www.w3.org/1999/xlink" x="0px" y="0px"
	 viewBox="0 0 216 216" enable-background="new 0 0 216 216" xml:space="preserve">
<path d="M159.3,35.7c0-9.5-6.6-16.2-16.1-16.2l-0.2,0c-1.2,0-2.4,0-3.5,0c-1.5,0-3,0-4.6,0c-1.6,0-3.1,0-4.7,0c-3.5,0-6.3,0-8.9,0.1
	c-11.4,0.4-21.6,4.3-29.6,11.2c-8.1,7-13.3,16.7-15,28c-0.8,5.4-0.9,10.6-0.9,15.6c-2.1,0-4.3,0-6.4,0c-2.2,0-8,0-12.4,4.5
	c-4.4,4.4-4.4,10.2-4.4,12.4c0,7.1,0,14.4,0,21.5c0,2.5,0,8.2,4.6,12.7c4.4,4.3,10.1,4.3,12.5,4.3c2,0,4,0,6,0l0,7.3
	c0,14,0,28.1,0,42.1c0,2.7,0,8.2,4.3,12.6c4.4,4.5,10,4.5,12.7,4.5c2.8,0,5.7,0,8.5,0l6.3,0l5.7,0c4.4,0,9.8,0,14.2-4.3
	c4.5-4.4,4.5-9.9,4.5-14.2l0-40.1l0-7.8c0.3,0,0.6,0,0.9,0c3,0,6,0,9,0c10.1,0,16.5-6.4,16.5-16.6c0-7.2,0-14.7,0-22.1
	c0-2.2,0-7.9-4.5-12.3c-4.4-4.3-10-4.4-12.2-4.4c-1.8,0-3.7,0-5.5,0c-1.3,0-2.7,0-4,0c0,0-0.1,0-0.1,0c0-0.4,0-0.8,0-1.2
	c1.7,0,3.4,0,5.2,0c1.8,0,3.7,0,5.6,0c10-0.2,16.3-6.4,16.4-16.3c0-5.2,0-10.4,0-15.5C159.4,39.5,159.4,37.6,159.3,35.7z
	 M147.3,56.8c0,3.4-1,4.3-4.6,4.4c-4.7,0.1-9.3,0-14,0.2c-5.9,0.2-8.3,2.4-8.5,8.3c-0.2,5.5,0,10.9,0,16.8c1.8,0,3.6,0,5.4,0
	c0.9,0,1.8,0,2.7,0c0,0,0,0,0.1,0c2.6,0,5.3,0,7.9,0c1.8,0,3.6,0,5.4,0c3.9,0,4.8,0.9,4.8,4.7c0,7.3,0,14.7,0,22
	c0,3.6-1,4.6-4.6,4.6c-3,0-5.9,0-8.9,0c-4.2,0-8.5,0-12.9,0c0,1.4,0,2.6,0,3.8c0,18.7,0,37.5,0,56.2c0,6.4-0.2,6.5-6.7,6.5
	c-4,0-8,0-12,0c-2.8,0-5.7,0-8.5,0c-4.3,0-5-0.7-5-5.1c0-19.1,0-38.3,0-57.4c0-1.2,0-2.4,0-4c-3.7,0-7.3,0-10.9,0c-2.4,0-4.7,0-7,0
	c-4.3,0-5.1-0.8-5.2-5c0-7.1,0-14.3,0-21.4c0-4.1,0.9-5,4.9-5c2.4,0,4.7,0,7.1,0c3.6,0,7.2,0,10.9,0c0.1-1.4,0.1-2.6,0.2-3.8
	c0.2-7.3-0.2-14.8,0.9-22c2.6-17.3,15.6-28.4,33.1-29c2.8-0.1,5.7-0.1,8.5-0.1c3.1,0,6.2,0,9.3,0c1.2,0,2.5,0,3.7,0c0,0,0.1,0,0.1,0
	c2.8,0,4.1,1.4,4.1,4.2C147.4,42.8,147.4,49.8,147.3,56.8z"/>
</svg>
