<?xml version="1.0" encoding="utf-8"?>
<!-- Generator: Adobe Illustrator 18.0.0, SVG Export Plug-In . SVG Version: 6.00 Build 0)  -->
<!DOCTYPE svg PUBLIC "-//W3C//DTD SVG 1.1//EN" "http://www.w3.org/Graphics/SVG/1.1/DTD/svg11.dtd">
<svg version="1.1" id="Layer_1" xmlns="http://www.w3.org/2000/svg" xmlns:xlink="http://www.w3.org/1999/xlink" x="0px" y="0px"
	 viewBox="0 0 216 216" enable-background="new 0 0 216 216" xml:space="preserve">
<path d="M187.8,36.1c-1.1-1.9-3.1-3.1-5.3-3.1h-149c-2.1,0-4.1,1.1-5.2,3c-1.1,1.9-1.1,4.1,0,6L79,129.6V183c0,3.3,2.7,6,6,6h40
	c3.3,0,6-2.7,6-6v-53.1l56.5-87.7C188.7,40.4,188.8,38.1,187.8,36.1z M120,124.9c-0.6,1-1,2.1-1,3.3V177H91v-49c0-1.1-0.3-2.1-0.8-3
	L43.9,45h127.6L120,124.9z"/>
</svg>
