<?xml version="1.0" encoding="utf-8"?>
<!-- Generator: Adobe Illustrator 18.0.0, SVG Export Plug-In . SVG Version: 6.00 Build 0)  -->
<!DOCTYPE svg PUBLIC "-//W3C//DTD SVG 1.1//EN" "http://www.w3.org/Graphics/SVG/1.1/DTD/svg11.dtd">
<svg version="1.1" id="Layer_1" xmlns="http://www.w3.org/2000/svg" xmlns:xlink="http://www.w3.org/1999/xlink" x="0px" y="0px"
	 viewBox="0 0 216 216" enable-background="new 0 0 216 216" xml:space="preserve">
<path d="M113.7,20.4c-2.3,0.9-3.7,3.1-3.7,5.6v39.1c-6.2,0.3-16.3,1.2-27.1,3.7c-20.4,4.9-34.6,13.6-42.3,26
	c-8.7,14.1-1.3,35.4,22.2,63.5c16.4,19.6,34.7,35.5,35.4,36.2c1.1,1,2.5,1.5,3.9,1.5c0,0,0,0,0,0c3.3,0,6-2.7,6-6
	c0-1.2-0.4-2.3-1-3.3c-1.2-2.1-7-13-12.4-25.3c-10.5-23.9-10.6-32.7-10.1-35.3c1-5.6,11.1-6.5,17.1-6.5c3.6,0,7.1,0.3,9.7,0.6
	l2,36.1c0.1,2.3,1.5,4.3,3.6,5.2c2.1,0.9,4.5,0.5,6.3-1l67.2-58c1.3-1.1,2-2.6,2.1-4.3s-0.6-3.3-1.7-4.5l-70.7-72
	C118.6,20.1,116,19.5,113.7,20.4z M122,40.7l55.9,57l-53.2,45.9l-1.6-28.8c-0.2-2.7-2.1-5-4.8-5.5c-0.3-0.1-7.9-1.5-16.6-1.5
	c-21.5,0-27.6,8.9-28.9,16.4c-1.4,7.7,1.6,20.2,9.1,37.9c-3.3-3.6-6.7-7.4-10-11.3c-19.2-23-26.7-40.5-21.1-49.4
	C65.4,77.7,110.2,77,115.3,77c0.3,0,0.5,0,0.6,0c1.6,0,3.2-0.6,4.3-1.7c1.2-1.1,1.8-2.7,1.8-4.3V40.7z"/>
</svg>
