<?xml version="1.0" encoding="utf-8"?>
<!-- Generator: Adobe Illustrator 18.0.0, SVG Export Plug-In . SVG Version: 6.00 Build 0)  -->
<!DOCTYPE svg PUBLIC "-//W3C//DTD SVG 1.1//EN" "http://www.w3.org/Graphics/SVG/1.1/DTD/svg11.dtd">
<svg version="1.1" id="Layer_1" xmlns="http://www.w3.org/2000/svg" xmlns:xlink="http://www.w3.org/1999/xlink" x="0px" y="0px"
	 viewBox="0 0 216 216" enable-background="new 0 0 216 216" xml:space="preserve">
<path d="M170.8,46.2c-0.1-0.1-0.2-0.2-0.3-0.2c-16-16.1-38.1-26.1-62.5-26.1c-48.6,0-88.1,39.5-88.1,88.1s39.5,88.1,88.1,88.1
	s88.1-39.5,88.1-88.1c0-23.9-9.6-45.6-25-61.5C171,46.4,170.9,46.3,170.8,46.2z M31.9,108c0-42,34.1-76.1,76.1-76.1
	c19.1,0,36.5,7.1,49.9,18.7L50.6,157.9C39,144.5,31.9,127.1,31.9,108z M108,184.1c-18.6,0-35.6-6.7-48.9-17.8L166.3,59.1
	c11.1,13.2,17.8,30.3,17.8,48.9C184.1,150,150,184.1,108,184.1z"/>
</svg>
