<?xml version="1.0" encoding="utf-8"?>
<!-- Generator: Adobe Illustrator 18.0.0, SVG Export Plug-In . SVG Version: 6.00 Build 0)  -->
<!DOCTYPE svg PUBLIC "-//W3C//DTD SVG 1.1//EN" "http://www.w3.org/Graphics/SVG/1.1/DTD/svg11.dtd">
<svg version="1.1" id="Layer_1" xmlns="http://www.w3.org/2000/svg" xmlns:xlink="http://www.w3.org/1999/xlink" x="0px" y="0px"
	 viewBox="0 0 216 216" enable-background="new 0 0 216 216" xml:space="preserve">
<path d="M136.7,41.8c-0.9-2.2-3.1-3.8-5.5-3.8c0,0-0.1,0-0.1,0c-2.4,0-4.5,1.5-5.5,3.7l-29.8,66.7L70.5,46.7
	C69.6,44.4,67.4,43,65,43c0,0-0.1,0-0.1,0c-2.4,0-4.5,1.3-5.5,3.5l-33.3,74.4c-1.4,3,0,6.6,3,7.9c3,1.4,6.6,0,7.9-3l7.1-15.8h39.3
	l5.6,13.5l-20.4,45.8c-1.4,3,0,6.6,3,7.9c3,1.3,6.6,0,7.9-3L91.8,147h75.1l11.1,27.1c1,2.3,3.2,3.7,5.6,3.7c0.8,0,1.5-0.2,2.3-0.5
	c3.1-1.3,4.5-4.8,3.3-7.9L136.7,41.8z M49.6,98l15.1-33.9L78.6,98H49.6z M97.1,135l33.7-75.5l31,75.5H97.1z"/>
</svg>
