<?xml version="1.0" encoding="utf-8"?>
<!-- Generator: Adobe Illustrator 18.0.0, SVG Export Plug-In . SVG Version: 6.00 Build 0)  -->
<!DOCTYPE svg PUBLIC "-//W3C//DTD SVG 1.1//EN" "http://www.w3.org/Graphics/SVG/1.1/DTD/svg11.dtd">
<svg version="1.1" id="Layer_1" xmlns="http://www.w3.org/2000/svg" xmlns:xlink="http://www.w3.org/1999/xlink" x="0px" y="0px"
	 viewBox="0 0 216 216" enable-background="new 0 0 216 216" xml:space="preserve">
<path d="M42.3,97h47.9c3.3,0,6-2.7,6-6V43.1c0-3.3-2.7-6-6-6H42.3c-3.3,0-6,2.7-6,6V91C36.3,94.3,39,97,42.3,97z M48.3,49.1h35.9V85
	H48.3V49.1z"/>
<path d="M173.7,37.1h-47.9c-3.3,0-6,2.7-6,6V91c0,3.3,2.7,6,6,6h47.9c3.3,0,6-2.7,6-6V43.1C179.7,39.7,177,37.1,173.7,37.1z
	 M167.7,85h-35.9V49.1h35.9V85z"/>
<path d="M36.3,172.9c0,3.3,2.7,6,6,6h47.9c3.3,0,6-2.7,6-6V125c0-3.3-2.7-6-6-6H42.3c-3.3,0-6,2.7-6,6V172.9z M48.3,131h35.9v35.9
	H48.3V131z"/>
<path d="M125.8,178.9h47.9c3.3,0,6-2.7,6-6V125c0-3.3-2.7-6-6-6h-47.9c-3.3,0-6,2.7-6,6v47.9C119.8,176.3,122.5,178.9,125.8,178.9z
	 M131.8,131h35.9v35.9h-35.9V131z"/>
</svg>
