<?xml version="1.0" encoding="utf-8"?>
<!-- Generator: Adobe Illustrator 18.0.0, SVG Export Plug-In . SVG Version: 6.00 Build 0)  -->
<!DOCTYPE svg PUBLIC "-//W3C//DTD SVG 1.1//EN" "http://www.w3.org/Graphics/SVG/1.1/DTD/svg11.dtd">
<svg version="1.1" id="Layer_1" xmlns="http://www.w3.org/2000/svg" xmlns:xlink="http://www.w3.org/1999/xlink" x="0px" y="0px"
	 viewBox="0 0 216 216" enable-background="new 0 0 216 216" xml:space="preserve">
<path d="M166.8,94h-11.3c-6.7,0-12.1,5.4-12.1,12.1v65.6c0,6.7,5.4,12.1,12.1,12.1h11.4c0.3,0,0.7,0,1-0.1
	c3.2-0.6,19.4-5.5,19.4-46.6c0-10.5-1.1-19.1-3.2-25.9c0.1-0.4,0.2-0.9,0.2-1.3c0-42.1-34.2-76.3-76.3-76.3S31.7,67.9,31.7,110
	c0,0.9,0.2,1.8,0.6,2.6c-2.1,6.7-3.6,15.8-3.6,28.1c0,16.5,2.7,28.5,7.9,35.8c5,6.9,10.8,7.4,12.5,7.4c0,0,0.1,0,0.2,0h11.3
	c6.7,0,12.1-5.4,12.1-12.1v-65.6c0-6.7-5.4-12.1-12.1-12.1H49.1c-0.3,0-0.7,0-1,0.1c-0.5,0.1-1.5,0.3-2.6,0.8
	c6.8-28.2,32.2-49.2,62.5-49.2c30.2,0,55.5,20.9,62.4,48.9c-1.6-0.5-2.8-0.6-3.5-0.6C166.9,94,166.9,94,166.8,94z M50.2,106h10.3
	c0.1,0,0.1,0.1,0.1,0.1v65.6c0,0.1-0.1,0.1-0.1,0.1H49.2c-2.3-0.4-8.5-7-8.5-31.2C40.7,113,48.4,107,50.2,106z M175.3,137.2
	c0,27.7-7.7,33.7-9.5,34.7h-10.3c-0.1,0-0.1-0.1-0.1-0.1v-65.6c0-0.1,0.1-0.1,0.1-0.1h11.4C169.1,106.4,175.3,113,175.3,137.2z"/>
</svg>
