<?xml version="1.0" encoding="utf-8"?>
<!-- Generator: Adobe Illustrator 18.0.0, SVG Export Plug-In . SVG Version: 6.00 Build 0)  -->
<!DOCTYPE svg PUBLIC "-//W3C//DTD SVG 1.1//EN" "http://www.w3.org/Graphics/SVG/1.1/DTD/svg11.dtd">
<svg version="1.1" id="Layer_1" xmlns="http://www.w3.org/2000/svg" xmlns:xlink="http://www.w3.org/1999/xlink" x="0px" y="0px"
	 viewBox="0 0 216 216" enable-background="new 0 0 216 216" xml:space="preserve">
<path d="M112,149v4c0,3.3-2.7,6-6,6s-6-2.7-6-6v-4c0-3.3,2.7-6,6-6S112,145.7,112,149z M24.4,108c0-46.1,37.5-83.6,83.6-83.6
	s83.6,37.5,83.6,83.6s-37.5,83.6-83.6,83.6S24.4,154.1,24.4,108z M36.4,108c0,39.5,32.1,71.6,71.6,71.6s71.6-32.1,71.6-71.6
	S147.5,36.4,108,36.4S36.4,68.5,36.4,108z M82,93C82.1,93,82.1,93,82,93c3.3,0,6-2.5,6-5.8c0,0,0.1-4.8,2.5-9.5c3-6,8.3-9,16.1-9
	c7.3,0,12.7,2,15.7,5.9c2.5,3.2,3.2,7.6,2,12.4c-1.5,5.9-6.6,11-11.5,16c-6,6.2-12.3,12.5-12.3,21c0,3.3,2.7,6,6,6s6-2.7,6-6
	c0-3.6,4.3-8,8.9-12.6c5.7-5.8,12.2-12.4,14.5-21.4c2.2-8.3,0.7-16.6-4.1-22.7c-3.7-4.8-11.1-10.6-25.1-10.6
	c-15.7,0-23.2,8.4-26.8,15.6c-3.6,7.2-3.8,14.1-3.8,14.9C76.1,90.4,78.7,93,82,93z"/>
</svg>
