<?xml version="1.0" encoding="utf-8"?>
<!-- Generator: Adobe Illustrator 18.0.0, SVG Export Plug-In . SVG Version: 6.00 Build 0)  -->
<!DOCTYPE svg PUBLIC "-//W3C//DTD SVG 1.1//EN" "http://www.w3.org/Graphics/SVG/1.1/DTD/svg11.dtd">
<svg version="1.1" id="Layer_1" xmlns="http://www.w3.org/2000/svg" xmlns:xlink="http://www.w3.org/1999/xlink" x="0px" y="0px"
	 viewBox="0 0 216 216" enable-background="new 0 0 216 216" xml:space="preserve">
<path d="M197.8,112.4l-86.2-82c-2.4-2.2-6.1-2.2-8.4,0.1l-82.5,82.3c-1.7,1.7-2.2,4.3-1.3,6.5c0.9,2.2,3.1,3.7,5.5,3.7h23v56
	c0,3.3,2.7,6,6,6h35c3.3,0,6-2.7,6-6v-44h25v44c0,3.3,2.7,6,6,6h36c3.3,0,6-2.7,6-6v-56h26c0,0,0,0,0,0c3.3,0,6-2.7,6-6
	C200,115.1,199.2,113.5,197.8,112.4z M162,111c-3.3,0-6,2.7-6,6v56h-24v-44c0-3.3-2.7-6-6-6H89c-3.3,0-6,2.7-6,6v44H60v-56
	c0-3.3-2.7-6-6-6H39.5l68.1-67.9L179,111H162z"/>
</svg>
