<?xml version="1.0" encoding="utf-8"?>
<!-- Generator: Adobe Illustrator 18.0.0, SVG Export Plug-In . SVG Version: 6.00 Build 0)  -->
<!DOCTYPE svg PUBLIC "-//W3C//DTD SVG 1.1//EN" "http://www.w3.org/Graphics/SVG/1.1/DTD/svg11.dtd">
<svg version="1.1" id="Layer_1" xmlns="http://www.w3.org/2000/svg" xmlns:xlink="http://www.w3.org/1999/xlink" x="0px" y="0px"
	 viewBox="0 0 216 216" enable-background="new 0 0 216 216" xml:space="preserve">
<path d="M30.4,90.2c4.1,42.6,71.5,87.1,74.3,88.9c1,0.7,2.1,1,3.3,1c1.1,0,2.3-0.3,3.3-1c2.7-1.8,66.5-43.6,73.7-86.1
	c3.7-21.8-2.7-34.9-8.8-42.1c-7-8.3-17.5-13.2-28.2-13.2c-3.9,0-7.5,0.6-10.8,1.9c-15.1,5.7-24.6,17.8-29.8,26.7
	c-6-8.6-16.1-20.5-27.6-24.4c-3.8-1.3-8.1-2-12.3-2c-10.7,0-20.3,4.1-27,11.5C34.7,57.6,28.4,69.4,30.4,90.2z"/>
</svg>
