<?xml version="1.0" encoding="utf-8"?>
<!-- Generator: Adobe Illustrator 18.0.0, SVG Export Plug-In . SVG Version: 6.00 Build 0)  -->
<!DOCTYPE svg PUBLIC "-//W3C//DTD SVG 1.1//EN" "http://www.w3.org/Graphics/SVG/1.1/DTD/svg11.dtd">
<svg version="1.1" id="Layer_1" xmlns="http://www.w3.org/2000/svg" xmlns:xlink="http://www.w3.org/1999/xlink" x="0px" y="0px"
	 viewBox="0 0 216 216" enable-background="new 0 0 216 216" xml:space="preserve">
<path d="M148,37.8c-3.9,0-7.5,0.6-10.8,1.9c-15.1,5.7-24.6,17.8-29.8,26.7c-6-8.6-16.1-20.5-27.6-24.4c-3.8-1.3-8.1-2-12.3-2
	c-10.7,0-20.3,4.1-27,11.5c-5.7,6.2-12,18-10,38.8c4.1,42.6,71.5,87.1,74.3,88.9c1,0.7,2.1,1,3.3,1c1.1,0,2.3-0.3,3.3-1
	c2.7-1.8,66.5-43.6,73.7-86.1c3.7-21.8-2.7-34.9-8.8-42.1C169.2,42.7,158.6,37.8,148,37.8z M173.1,91c-2.6,15.2-15.1,33.4-36.1,52.7
	c-11.9,10.9-23.5,19.4-29,23.2c-5.7-4-17.9-12.9-30.3-24.3C56,122.5,43.8,104,42.3,89c-1.3-13,1.1-23.2,6.9-29.6
	c6-6.6,13.9-7.6,18.1-7.6c3,0,5.9,0.5,8.5,1.3c11.4,3.9,23.3,21.7,26.9,28.3c1.1,2.1,3.4,3.3,5.7,3.1c2.4-0.2,4.4-1.7,5.2-4
	c0.1-0.2,8.2-22.4,27.7-29.7c1.9-0.7,4.2-1.1,6.6-1.1c7.2,0,14.3,3.3,19,9C173.3,66.2,175.5,77.4,173.1,91z"/>
</svg>
