<?xml version="1.0" encoding="utf-8"?>
<!-- Generator: Adobe Illustrator 18.0.0, SVG Export Plug-In . SVG Version: 6.00 Build 0)  -->
<!DOCTYPE svg PUBLIC "-//W3C//DTD SVG 1.1//EN" "http://www.w3.org/Graphics/SVG/1.1/DTD/svg11.dtd">
<svg version="1.1" id="Layer_1" xmlns="http://www.w3.org/2000/svg" xmlns:xlink="http://www.w3.org/1999/xlink" x="0px" y="0px"
	 viewBox="0 0 216 216" enable-background="new 0 0 216 216" xml:space="preserve">
<path d="M102,79v-6c0-3.3,2.7-6,6-6s6,2.7,6,6v6c0,3.3-2.7,6-6,6S102,82.3,102,79z M96,109h6v34c0,3.3,2.7,6,6,6s6-2.7,6-6v-40
	c0-3.3-2.7-6-6-6H96c-3.3,0-6,2.7-6,6S92.7,109,96,109z M186.1,35.9v144.2c0,3.3-2.7,6-6,6H35.9c-3.3,0-6-2.7-6-6V35.9
	c0-3.3,2.7-6,6-6h144.2C183.4,29.9,186.1,32.6,186.1,35.9z M174.1,41.9H41.9v132.2h132.2V41.9z"/>
</svg>
