<?xml version="1.0" encoding="utf-8"?>
<!-- Generator: Adobe Illustrator 18.0.0, SVG Export Plug-In . SVG Version: 6.00 Build 0)  -->
<!DOCTYPE svg PUBLIC "-//W3C//DTD SVG 1.1//EN" "http://www.w3.org/Graphics/SVG/1.1/DTD/svg11.dtd">
<svg version="1.1" id="Layer_1" xmlns="http://www.w3.org/2000/svg" xmlns:xlink="http://www.w3.org/1999/xlink" x="0px" y="0px"
	 viewBox="0 0 216 216" enable-background="new 0 0 216 216" xml:space="preserve">
<path d="M65.8,192.3h84.4c13.7,0,24.8-11.1,24.8-24.8v-54.8c0-11.1-7.4-20.6-17.5-23.7V71.7c0-24.5-20-44.5-44.5-44.5h-10
	c-24.5,0-44.5,20-44.5,44.5V89C48.4,92.2,41,101.6,41,112.8v54.8C41,181.2,52.1,192.3,65.8,192.3z M103,39.2h10
	c17.9,0,32.5,14.6,32.5,32.5v16.3h-75V71.7C70.5,53.8,85.1,39.2,103,39.2z M53,112.8c0-7.1,5.7-12.8,12.8-12.8h84.4
	c7.1,0,12.8,5.7,12.8,12.8v54.8c0,7.1-5.7,12.8-12.8,12.8H65.8c-7.1,0-12.8-5.7-12.8-12.8V112.8z M100,159v-19c0-3.3,2.7-6,6-6
	s6,2.7,6,6v19c0,3.3-2.7,6-6,6S100,162.3,100,159z"/>
</svg>
