<?xml version="1.0" encoding="utf-8"?>
<!-- Generator: Adobe Illustrator 18.0.0, SVG Export Plug-In . SVG Version: 6.00 Build 0)  -->
<!DOCTYPE svg PUBLIC "-//W3C//DTD SVG 1.1//EN" "http://www.w3.org/Graphics/SVG/1.1/DTD/svg11.dtd">
<svg version="1.1" id="Layer_1" xmlns="http://www.w3.org/2000/svg" xmlns:xlink="http://www.w3.org/1999/xlink" x="0px" y="0px"
	 viewBox="0 0 216 216" enable-background="new 0 0 216 216" xml:space="preserve">
<path d="M178.4,130.6c-0.7-1.7-1.7-3.3-3-4.5c1.2-2.3,2-5,2-7.8V51.8c0-9.2-7.5-16.7-16.7-16.7H55.4c-9.2,0-16.7,7.5-16.7,16.7v66.4
	c0,2.8,0.7,5.5,2,7.8c-1.3,1.2-2.4,2.8-3,4.5l-13,34c-1.4,3.7-0.9,7.9,1.3,11.1c2.2,3.3,6,5.2,9.9,5.2h144.3c4,0,7.7-2,9.9-5.2
	c2.2-3.3,2.7-7.4,1.3-11.1L178.4,130.6z M50.7,51.8c0-2.6,2.1-4.7,4.7-4.7h105.2c2.6,0,4.7,2.1,4.7,4.7v66.4c0,2.2-1.6,4.1-3.6,4.6
	H54.3c-2.1-0.5-3.6-2.4-3.6-4.6V51.8z M180.2,168.9l-144.4-0.1l13-34l4.5,0c0.7,0.1,1.4,0.1,2.1,0.1h105.2c0.6,0,1.3,0,1.9-0.1
	l4.7,0L180.2,168.9C180.2,168.9,180.2,168.9,180.2,168.9z"/>
</svg>
