<?xml version="1.0" encoding="utf-8"?>
<!-- Generator: Adobe Illustrator 18.0.0, SVG Export Plug-In . SVG Version: 6.00 Build 0)  -->
<!DOCTYPE svg PUBLIC "-//W3C//DTD SVG 1.1//EN" "http://www.w3.org/Graphics/SVG/1.1/DTD/svg11.dtd">
<svg version="1.1" id="Layer_1" xmlns="http://www.w3.org/2000/svg" xmlns:xlink="http://www.w3.org/1999/xlink" x="0px" y="0px"
	 viewBox="0 0 216 216" enable-background="new 0 0 216 216" xml:space="preserve">
<path d="M78,65c0,3.3,2.7,6,6,6h85c3.3,0,6-2.7,6-6s-2.7-6-6-6H84C80.7,59,78,61.7,78,65z"/>
<path d="M84,116h85c3.3,0,6-2.7,6-6s-2.7-6-6-6H84c-3.3,0-6,2.7-6,6S80.7,116,84,116z"/>
<path d="M84,161h85c3.3,0,6-2.7,6-6s-2.7-6-6-6H84c-3.3,0-6,2.7-6,6S80.7,161,84,161z"/>
<path d="M47,71h10c3.3,0,6-2.7,6-6s-2.7-6-6-6H47c-3.3,0-6,2.7-6,6S43.7,71,47,71z"/>
<path d="M47,116h10c3.3,0,6-2.7,6-6s-2.7-6-6-6H47c-3.3,0-6,2.7-6,6S43.7,116,47,116z"/>
<path d="M47,161h10c3.3,0,6-2.7,6-6s-2.7-6-6-6H47c-3.3,0-6,2.7-6,6S43.7,161,47,161z"/>
</svg>
