<?xml version="1.0" encoding="utf-8"?>
<!-- Generator: Adobe Illustrator 18.0.0, SVG Export Plug-In . SVG Version: 6.00 Build 0)  -->
<!DOCTYPE svg PUBLIC "-//W3C//DTD SVG 1.1//EN" "http://www.w3.org/Graphics/SVG/1.1/DTD/svg11.dtd">
<svg version="1.1" id="Layer_1" xmlns="http://www.w3.org/2000/svg" xmlns:xlink="http://www.w3.org/1999/xlink" x="0px" y="0px"
	 viewBox="0 0 216 216" enable-background="new 0 0 216 216" xml:space="preserve">
<path d="M185,172.9V101c0-3.3-2.7-6-6-6h-31c-1.3,0-2.4,0.4-3.4,1c-7-2.2-19.6-7.4-23.8-14.2c-6.9-11.2-20.1-45.4-20.2-45.7
	c-0.8-2.1-2.7-3.5-4.9-3.8c-0.2,0-1.3-0.1-2.9-0.1c-18.2,0-24.7,11.9-24.7,23c0,11.1,2.2,21.4,4.3,28.5c-2.1-0.2-4.4-0.3-6.8-0.3
	c-13.1,0-23,4.1-28.5,12c-11.3,16.2-8.4,32.7-5.8,47.2c0.2,1,0.4,2,0.5,3c2.4,13.8,5.7,32.6,21.7,35.4c6.2,1.1,20.1,2.9,33.1,2.9
	c10.2,0,17.6-1.1,22.4-3.4c5.8-2.7,9.5-5.6,12.5-7.9c2.9-2.2,4.3-3.2,6-3.4c0.7-0.1,1.5-0.1,2.5-0.1c3.9,0,8.7,0.5,11.8,0.9
	c-0.6,0.9-0.9,2-0.9,3.2c0,3.3,2.7,5.9,6,5.9c0,0,0,0,0,0l32-0.1C182.3,178.8,185,176.2,185,172.9z M140,157.7
	c-4.4-0.5-10.1-0.8-13.7-0.5c-5.2,0.5-8.6,3.1-12.1,5.9c-2.6,2-5.6,4.3-10.2,6.5c-1.8,0.8-6.4,2.3-17.3,2.3c-12.2,0-25.2-1.7-31-2.7
	c-6.5-1.1-9.2-9.9-11.9-25.6c-0.2-1-0.4-2-0.5-3c-2.4-13.4-4.7-26.1,3.8-38.2c4-5.7,12.3-6.9,18.7-6.9c7.6,0,14.2,1.7,14.3,1.7
	c2.2,0.6,4.6-0.1,6.1-1.9c1.5-1.7,1.9-4.2,1-6.3c-0.1-0.2-6.8-15.9-6.8-33.7c0-5.9,2.5-8,4.3-9.1c2.1-1.2,4.5-1.7,6.4-1.8
	c3.8,9.5,13.6,33.9,19.7,43.8c6.4,10.5,21.6,16.6,29.4,19.1V157.7z M173,167l-21.6,0.1c0.4-0.8,0.6-1.7,0.6-2.6V107h21V167z"/>
</svg>
