<?xml version="1.0" encoding="utf-8"?>
<!-- Generator: Adobe Illustrator 18.0.0, SVG Export Plug-In . SVG Version: 6.00 Build 0)  -->
<!DOCTYPE svg PUBLIC "-//W3C//DTD SVG 1.1//EN" "http://www.w3.org/Graphics/SVG/1.1/DTD/svg11.dtd">
<svg version="1.1" id="Layer_1" xmlns="http://www.w3.org/2000/svg" xmlns:xlink="http://www.w3.org/1999/xlink" x="0px" y="0px"
	 viewBox="0 0 216 216" enable-background="new 0 0 216 216" xml:space="preserve">
<path d="M47.9,66h82.1c4.5,0,7.9,5.4,7.9,12.5v24.3c0,8.8-4.9,16.2-7.9,16.2H98c-3.3,0-6,2.7-6,6s2.7,6,6,6h32.1
	c11.9,0,19.9-14.6,19.9-28.2V78.5c0-14-8.6-24.5-19.9-24.5H47.9C36.4,54,27,65,27,78.5v24.3c0,13,8.5,27.4,20.6,27.4
	c3.3,0,6-2.7,6-6s-2.7-6-6-6c-3.4,0-8.6-6.9-8.6-15.4V78.5C39,70.8,43.6,66,47.9,66z"/>
<path d="M86,164h82.1c9.1,0,18.9-9.7,18.9-27.6v-24.3c0-14.5-8.3-25.4-19.3-25.4c-3.3,0-6,2.7-6,6s2.7,6,6,6c4.1,0,7.3,6,7.3,13.4
	v24.3c0,8.6-3.7,15.6-6.9,15.6H86c-3.5,0-9-7.1-9-15.6v-24.3c0-7.5,4.8-13.1,9-13.1h32c3.3,0,6-2.7,6-6s-2.7-6-6-6H86
	c-11.6,0-21,11.3-21,25.1v24.3C65,149.4,74,164,86,164z"/>
</svg>
