<?xml version="1.0" encoding="utf-8"?>
<!-- Generator: Adobe Illustrator 18.0.0, SVG Export Plug-In . SVG Version: 6.00 Build 0)  -->
<!DOCTYPE svg PUBLIC "-//W3C//DTD SVG 1.1//EN" "http://www.w3.org/Graphics/SVG/1.1/DTD/svg11.dtd">
<svg version="1.1" id="Layer_1" xmlns="http://www.w3.org/2000/svg" xmlns:xlink="http://www.w3.org/1999/xlink" x="0px" y="0px"
	 viewBox="0 0 216 216" enable-background="new 0 0 216 216" xml:space="preserve">
<path d="M50,137.1c1.2,1.2,2.7,1.8,4.2,1.8s3.1-0.6,4.2-1.8c2.3-2.3,2.3-6.1,0-8.5L43.9,114H102v58.1l-15.4-15.4
	c-2.3-2.3-6.1-2.3-8.5,0c-2.3,2.3-2.3,6.1,0,8.5l25.6,25.6c1.1,1.1,2.7,1.8,4.2,1.8s3.1-0.6,4.2-1.8l25.2-25.2
	c2.3-2.3,2.3-6.1,0-8.5c-2.3-2.3-6.1-2.3-8.5,0L114,172.1V114h58.1L157,129.2c-2.3,2.3-2.3,6.1,0,8.5c1.2,1.2,2.7,1.8,4.2,1.8
	s3.1-0.6,4.2-1.8l25.4-25.4c1.1-1.1,1.8-2.7,1.8-4.2c0-1.6-0.6-3.1-1.8-4.2l-24.1-24.1c-2.3-2.3-6.1-2.3-8.5,0
	c-2.3,2.3-2.3,6.1,0,8.5l13.9,13.9H114V43.9l16.1,16.1c1.2,1.2,2.7,1.8,4.2,1.8c1.5,0,3.1-0.6,4.2-1.8c2.3-2.3,2.3-6.1,0-8.5
	l-26.3-26.3c-1.1-1.1-2.7-1.8-4.2-1.8c-1.6,0-3.1,0.6-4.2,1.8L78.4,50.6c-2.3,2.3-2.3,6.1,0,8.5c2.3,2.3,6.1,2.3,8.5,0L102,43.9V102
	H43.9l15.7-15.7c2.3-2.3,2.3-6.1,0-8.5c-2.3-2.3-6.1-2.3-8.5,0l-25.9,25.9c-1.1,1.1-1.8,2.7-1.8,4.2s0.6,3.1,1.8,4.2L50,137.1z"/>
</svg>
