<?xml version="1.0" encoding="utf-8"?>
<!-- Generator: Adobe Illustrator 18.0.0, SVG Export Plug-In . SVG Version: 6.00 Build 0)  -->
<!DOCTYPE svg PUBLIC "-//W3C//DTD SVG 1.1//EN" "http://www.w3.org/Graphics/SVG/1.1/DTD/svg11.dtd">
<svg version="1.1" id="Layer_1" xmlns="http://www.w3.org/2000/svg" xmlns:xlink="http://www.w3.org/1999/xlink" x="0px" y="0px"
	 viewBox="0 0 216 216" enable-background="new 0 0 216 216" xml:space="preserve">
<path d="M45,72h128c3.3,0,6-2.7,6-6s-2.7-6-6-6H45c-3.3,0-6,2.7-6,6S41.7,72,45,72z"/>
<path d="M45,117h128c3.3,0,6-2.7,6-6s-2.7-6-6-6H45c-3.3,0-6,2.7-6,6S41.7,117,45,117z"/>
<path d="M45,162h128c3.3,0,6-2.7,6-6s-2.7-6-6-6H45c-3.3,0-6,2.7-6,6S41.7,162,45,162z"/>
</svg>
