<?xml version="1.0" encoding="utf-8"?>
<!-- Generator: Adobe Illustrator 18.0.0, SVG Export Plug-In . SVG Version: 6.00 Build 0)  -->
<!DOCTYPE svg PUBLIC "-//W3C//DTD SVG 1.1//EN" "http://www.w3.org/Graphics/SVG/1.1/DTD/svg11.dtd">
<svg version="1.1" id="Layer_1" xmlns="http://www.w3.org/2000/svg" xmlns:xlink="http://www.w3.org/1999/xlink" x="0px" y="0px"
	 viewBox="0 0 216 216" enable-background="new 0 0 216 216" xml:space="preserve">
<path d="M116.1,149.7c0,4.6-3.8,8.4-8.4,8.4s-8.4-3.8-8.4-8.4c0-4.6,3.8-8.4,8.4-8.4S116.1,145.1,116.1,149.7z M132,186.2H84
	c-11.6,0-21-9.4-21-21V52.8c0-11.6,9.4-21,21-21H132c11.6,0,21,9.4,21,21v112.3C153,176.8,143.6,186.2,132,186.2z M141,52.8
	c0-5-4.1-9-9-9H84c-5,0-9,4.1-9,9v112.3c0,5,4.1,9,9,9H132c5,0,9-4.1,9-9V52.8z"/>
</svg>
