<?xml version="1.0" encoding="utf-8"?>
<!-- Generator: Adobe Illustrator 18.0.0, SVG Export Plug-In . SVG Version: 6.00 Build 0)  -->
<!DOCTYPE svg PUBLIC "-//W3C//DTD SVG 1.1//EN" "http://www.w3.org/Graphics/SVG/1.1/DTD/svg11.dtd">
<svg version="1.1" id="Layer_1" xmlns="http://www.w3.org/2000/svg" xmlns:xlink="http://www.w3.org/1999/xlink" x="0px" y="0px"
	 viewBox="0 0 216 216" enable-background="new 0 0 216 216" xml:space="preserve">
<path d="M37.1,171h141.9c3.3,0,6-2.7,6-6V74.7c0,0,0-0.1,0-0.1V50.7c0-3.3-2.7-6-6-6H37.1c-3.3,0-6,2.7-6,6v25.1c0,0,0,0,0,0.1V165
	C31.1,168.3,33.8,171,37.1,171z M43.1,56.7h129.9v15.2l-65.5,55.5L43.1,73V56.7z M43.1,88.7l60.5,51.1c2.2,1.9,5.5,1.9,7.7,0
	l61.6-52.2V159H43.1V88.7z"/>
</svg>
