<?xml version="1.0" encoding="utf-8"?>
<!-- Generator: Adobe Illustrator 18.0.0, SVG Export Plug-In . SVG Version: 6.00 Build 0)  -->
<!DOCTYPE svg PUBLIC "-//W3C//DTD SVG 1.1//EN" "http://www.w3.org/Graphics/SVG/1.1/DTD/svg11.dtd">
<svg version="1.1" id="Layer_1" xmlns="http://www.w3.org/2000/svg" xmlns:xlink="http://www.w3.org/1999/xlink" x="0px" y="0px"
	 viewBox="0 0 216 216" enable-background="new 0 0 216 216" xml:space="preserve">
<path d="M51,149.9h51V174H64c-3.3,0-6,2.7-6,6s2.7,6,6,6h87c3.3,0,6-2.7,6-6s-2.7-6-6-6h-37v-24.1h51c11.5,0,20.8-9.4,20.8-20.8
	V56.2c0-11.5-9.4-20.8-20.8-20.8H51c-11.5,0-20.8,9.4-20.8,20.8V129C30.2,140.5,39.5,149.9,51,149.9z M42.2,56.2
	c0-4.9,4-8.8,8.8-8.8h114c4.9,0,8.8,4,8.8,8.8V129c0,4.9-4,8.8-8.8,8.8H51c-4.9,0-8.8-4-8.8-8.8V56.2z"/>
</svg>
