<?xml version="1.0" encoding="utf-8"?>
<!-- Generator: Adobe Illustrator 18.0.0, SVG Export Plug-In . SVG Version: 6.00 Build 0)  -->
<!DOCTYPE svg PUBLIC "-//W3C//DTD SVG 1.1//EN" "http://www.w3.org/Graphics/SVG/1.1/DTD/svg11.dtd">
<svg version="1.1" id="Layer_1" xmlns="http://www.w3.org/2000/svg" xmlns:xlink="http://www.w3.org/1999/xlink" x="0px" y="0px"
	 viewBox="0 0 216 216" enable-background="new 0 0 216 216" xml:space="preserve">
<path d="M50.5,190.9h119.8c0.9,0,1.8-0.2,2.6-0.6c0.8-0.4,19.1-9.5,19.1-27.8V68.9c0-3.3-2.7-6-6-6h-21v-12v-17c0-3.3-2.7-6-6-6H27
	c-3.3,0-6,2.7-6,6v127.3c0,0.4,0,0.9,0.1,1.3C21.4,163.7,27.7,190.9,50.5,190.9z M33,39.9h120v11v18v84c0,3.3,2.7,6,6,6s6-2.7,6-6
	v-78h15v87.6c0,8.8-8.2,14.6-11.3,16.4H50.5c-11.8,0-16.6-15.3-17.5-18.5V39.9z"/>
<path d="M57,103.7h27.6c3.3,0,6-2.7,6-6v-32c0-3.3-2.7-6-6-6H57c-3.3,0-6,2.7-6,6v32C51,101,53.7,103.7,57,103.7z M63,71.7h15.6v20
	H63V71.7z"/>
<path d="M55,159.9h78c3.3,0,6-2.7,6-6s-2.7-6-6-6H55c-3.3,0-6,2.7-6,6S51.7,159.9,55,159.9z"/>
<path d="M56,130.9h76c3.3,0,6-2.7,6-6c0-3.3-2.7-6-6-6H56c-3.3,0-6,2.7-6,6C50,128.2,52.7,130.9,56,130.9z"/>
<path d="M110,72.9h23c3.3,0,6-2.7,6-6c0-3.3-2.7-6-6-6h-23c-3.3,0-6,2.7-6,6C104,70.2,106.7,72.9,110,72.9z"/>
<path d="M110,101.9h23c3.3,0,6-2.7,6-6s-2.7-6-6-6h-23c-3.3,0-6,2.7-6,6S106.7,101.9,110,101.9z"/>
</svg>
