<?xml version="1.0" encoding="utf-8"?>
<!-- Generator: Adobe Illustrator 18.0.0, SVG Export Plug-In . SVG Version: 6.00 Build 0)  -->
<!DOCTYPE svg PUBLIC "-//W3C//DTD SVG 1.1//EN" "http://www.w3.org/Graphics/SVG/1.1/DTD/svg11.dtd">
<svg version="1.1" id="Layer_1" xmlns="http://www.w3.org/2000/svg" xmlns:xlink="http://www.w3.org/1999/xlink" x="0px" y="0px"
	 viewBox="0 0 216 216" enable-background="new 0 0 216 216" xml:space="preserve">
<path d="M190.2,171.1V44.9c0-3.3-2.7-6-6-6H32c-3.3,0-6,2.7-6,6v126.2c0,3.3,2.7,6,6,6h152.2C187.5,177.1,190.2,174.4,190.2,171.1z
	 M178.2,50.9v76.9l-35.4-24.7c-2.4-1.6-5.5-1.4-7.6,0.6L117,121.3l-38-36.7c-1.2-1.2-2.9-1.8-4.6-1.7c-1.7,0.1-3.3,1-4.3,2.3
	l-32,41.1V50.9H178.2z M38,165.1v-19.3l37.4-47.9l37.4,36.1c2.3,2.2,6,2.2,8.3,0l18.9-18.2l38.2,26.7v22.6H38z M110.4,83
	c0-5.7,4.6-10.3,10.3-10.3S131,77.3,131,83c0,5.7-4.6,10.3-10.3,10.3S110.4,88.7,110.4,83z"/>
</svg>
