<?xml version="1.0" encoding="utf-8"?>
<!-- Generator: Adobe Illustrator 18.0.0, SVG Export Plug-In . SVG Version: 6.00 Build 0)  -->
<!DOCTYPE svg PUBLIC "-//W3C//DTD SVG 1.1//EN" "http://www.w3.org/Graphics/SVG/1.1/DTD/svg11.dtd">
<svg version="1.1" id="Layer_1" xmlns="http://www.w3.org/2000/svg" xmlns:xlink="http://www.w3.org/1999/xlink" x="0px" y="0px"
	 viewBox="0 0 216 216" enable-background="new 0 0 216 216" xml:space="preserve">
<path d="M54.3,115.3c0,29.6,24.1,53.7,53.7,53.7s53.7-24.1,53.7-53.7c0-17.8-8.8-34.4-23.5-44.4c-2.7-1.9-3.4-5.6-1.6-8.3
	c1.9-2.7,5.6-3.4,8.3-1.6c18,12.3,28.7,32.6,28.7,54.3c0,36.2-29.5,65.7-65.7,65.7s-65.7-29.5-65.7-65.7c0-22.6,11.4-43.3,30.4-55.4
	c2.8-1.8,6.5-1,8.3,1.8c1.8,2.8,1,6.5-1.8,8.3C63.6,80,54.3,96.9,54.3,115.3z M114,121V39c0-3.3-2.7-6-6-6s-6,2.7-6,6v82
	c0,3.3,2.7,6,6,6S114,124.3,114,121z"/>
</svg>
