<?xml version="1.0" encoding="utf-8"?>
<!-- Generator: Adobe Illustrator 18.0.0, SVG Export Plug-In . SVG Version: 6.00 Build 0)  -->
<!DOCTYPE svg PUBLIC "-//W3C//DTD SVG 1.1//EN" "http://www.w3.org/Graphics/SVG/1.1/DTD/svg11.dtd">
<svg version="1.1" id="Layer_1" xmlns="http://www.w3.org/2000/svg" xmlns:xlink="http://www.w3.org/1999/xlink" x="0px" y="0px"
	 viewBox="0 0 216 216" enable-background="new 0 0 216 216" xml:space="preserve">
<path d="M57,114h45v45c0,3.3,2.7,6,6,6s6-2.7,6-6v-45h45c3.3,0,6-2.7,6-6s-2.7-6-6-6h-45V57c0-3.3-2.7-6-6-6s-6,2.7-6,6v45H57
	c-3.3,0-6,2.7-6,6S53.7,114,57,114z"/>
<path d="M108,196.1c48.6,0,88.1-39.5,88.1-88.1S156.6,19.9,108,19.9S19.9,59.4,19.9,108S59.4,196.1,108,196.1z M108,31.9
	c42,0,76.1,34.1,76.1,76.1S150,184.1,108,184.1S31.9,150,31.9,108S66,31.9,108,31.9z"/>
</svg>
