<?xml version="1.0" encoding="utf-8"?>
<!-- Generator: Adobe Illustrator 18.0.0, SVG Export Plug-In . SVG Version: 6.00 Build 0)  -->
<!DOCTYPE svg PUBLIC "-//W3C//DTD SVG 1.1//EN" "http://www.w3.org/Graphics/SVG/1.1/DTD/svg11.dtd">
<svg version="1.1" id="Layer_1" xmlns="http://www.w3.org/2000/svg" xmlns:xlink="http://www.w3.org/1999/xlink" x="0px" y="0px"
	 viewBox="0 0 216 216" enable-background="new 0 0 216 216" xml:space="preserve">
<path d="M132,27.8l-92.9,92.9c-1.1,1.1-1.7,2.6-1.8,4.1l-0.7,47.3c0,1.6,0.6,3.1,1.8,4.2c1.1,1.1,2.7,1.6,4.2,1.6c0,0,0.1,0,0.1,0
	l45.9-0.4c1.6,0,3.1-0.5,4.2-1.6l93.7-93.7c2.3-2.3,2.3-6.1,0-8.5l-46-46C138.1,25.5,134.3,25.5,132,27.8z M86,165.7l-37.3,0.5
	l0.6-38.8l62-62l37.5,37.5L86,165.7z M157.2,94.5L119.8,57l16.5-16.5L173.7,78L157.2,94.5z"/>
</svg>
