<?xml version="1.0" encoding="utf-8"?>
<!-- Generator: Adobe Illustrator 18.0.0, SVG Export Plug-In . SVG Version: 6.00 Build 0)  -->
<!DOCTYPE svg PUBLIC "-//W3C//DTD SVG 1.1//EN" "http://www.w3.org/Graphics/SVG/1.1/DTD/svg11.dtd">
<svg version="1.1" id="Layer_1" xmlns="http://www.w3.org/2000/svg" xmlns:xlink="http://www.w3.org/1999/xlink" x="0px" y="0px"
	 viewBox="0 0 216 216" enable-background="new 0 0 216 216" xml:space="preserve">
<path d="M41,50.4v130.2c0,3.3,2.7,6,6,6h122c3.3,0,6-2.7,6-6V50.4c0-3.3-2.7-6-6-6h-18v-9c0-3.3-2.7-6-6-6h-20.2
	c-2.6-4.8-8-12-16.8-12c-8,0-13.5,6.4-16.4,12H72c-3.3,0-6,2.7-6,6v9.1c-0.3-0.1-0.7-0.1-1-0.1H47C43.7,44.4,41,47.1,41,50.4z
	 M78,41.4h17.5c2.6,0,4.9-1.7,5.7-4.1c0.9-2.5,3.8-7.9,6.8-7.9c3.2,0,6.4,5.6,7.4,8.1c0.9,2.3,3.1,3.9,5.6,3.9h18v28H78V41.4z
	 M53,56.4h12c0.3,0,0.7,0,1-0.1v19.1c0,3.3,2.7,6,6,6h73c3.3,0,6-2.7,6-6v-19h12v118.2H53V56.4z"/>
</svg>
