<?xml version="1.0" encoding="utf-8"?>
<!-- Generator: Adobe Illustrator 18.0.0, SVG Export Plug-In . SVG Version: 6.00 Build 0)  -->
<!DOCTYPE svg PUBLIC "-//W3C//DTD SVG 1.1//EN" "http://www.w3.org/Graphics/SVG/1.1/DTD/svg11.dtd">
<svg version="1.1" id="Layer_1" xmlns="http://www.w3.org/2000/svg" xmlns:xlink="http://www.w3.org/1999/xlink" x="0px" y="0px"
	 viewBox="0 0 216 216" enable-background="new 0 0 216 216" xml:space="preserve">
<path d="M25,166h30.6l-7.1,21.1c-0.6,1.8-0.3,3.8,0.8,5.4c1.1,1.6,2.9,2.5,4.9,2.5h107.4c2,0,3.8-1,4.9-2.6s1.4-3.7,0.7-5.5
	l-7.9-20.9H190c3.3,0,6-2.7,6-6v-49c0-0.6-0.1-1.2-0.3-1.7l-13.6-45c-0.8-2.5-3.1-4.3-5.7-4.3H148V30c0-3.3-2.7-6-6-6H72
	c-3.3,0-6,2.7-6,6v30H39.7c-2.6,0-4.9,1.6-5.7,4.1l-14.7,43.5c-0.2,0.6-0.3,1.3-0.3,1.9V160C19,163.3,21.7,166,25,166z M62.5,183
	l14.4-43h59.7l16.3,43H62.5z M78,36h58v46H78V36z M31,110.5L44,72h22v16c0,3.3,2.7,6,6,6h70c3.3,0,6-2.7,6-6V72h23.9l12.1,39.9V154
	h-29.2l-8.4-22.1c-0.9-2.3-3.1-3.9-5.6-3.9H72.6c-2.6,0-4.9,1.6-5.7,4.1L59.6,154H31V110.5z"/>
</svg>
