<?xml version="1.0" encoding="utf-8"?>
<!-- Generator: Adobe Illustrator 18.0.0, SVG Export Plug-In . SVG Version: 6.00 Build 0)  -->
<!DOCTYPE svg PUBLIC "-//W3C//DTD SVG 1.1//EN" "http://www.w3.org/Graphics/SVG/1.1/DTD/svg11.dtd">
<svg version="1.1" id="Layer_1" xmlns="http://www.w3.org/2000/svg" xmlns:xlink="http://www.w3.org/1999/xlink" x="0px" y="0px"
	 viewBox="0 0 216 216" enable-background="new 0 0 216 216" xml:space="preserve">
<path d="M108,19.9c-48.6,0-88.1,39.5-88.1,88.1s39.5,88.1,88.1,88.1s88.1-39.5,88.1-88.1S156.6,19.9,108,19.9z M108,184.1
	c-42,0-76.1-34.1-76.1-76.1S66,31.9,108,31.9S184.1,66,184.1,108S150,184.1,108,184.1z"/>
<path d="M87.9,69c-3.3,0-6,2.7-6,6v63c0,3.3,2.7,6,6,6s6-2.7,6-6V75C93.9,71.7,91.2,69,87.9,69z"/>
<path d="M128.9,69c-3.3,0-6,2.7-6,6v63c0,3.3,2.7,6,6,6s6-2.7,6-6V75C134.9,71.7,132.2,69,128.9,69z"/>
</svg>
