<?xml version="1.0" encoding="utf-8"?>
<!-- Generator: Adobe Illustrator 18.0.0, SVG Export Plug-In . SVG Version: 6.00 Build 0)  -->
<!DOCTYPE svg PUBLIC "-//W3C//DTD SVG 1.1//EN" "http://www.w3.org/Graphics/SVG/1.1/DTD/svg11.dtd">
<svg version="1.1" id="Layer_1" xmlns="http://www.w3.org/2000/svg" xmlns:xlink="http://www.w3.org/1999/xlink" x="0px" y="0px"
	 viewBox="0 0 216 216" enable-background="new 0 0 216 216" xml:space="preserve">
<path d="M108.7,159.2c-22.3,0-42.4-14.9-48.8-36.2c-1-3.2-4.3-5-7.5-4c-3.2,1-5,4.3-4,7.5c8.1,26.8,32.3,44.7,60.3,44.7
	c34.7,0,63-28.3,63-63c0-34.7-28.3-63-63-63c-19.7,0-38.2,9.4-50,24.6l-2.5-19.8c-0.4-3.3-3.4-5.6-6.7-5.2c-3.3,0.4-5.6,3.4-5.2,6.7
	L49,88.1c0.4,3,3,5.2,5.9,5.2c0.2,0,0.5,0,0.7,0l36.2-4.1c3.3-0.4,5.7-3.3,5.3-6.6s-3.3-5.7-6.6-5.3L66.2,80
	c9.4-14.1,25.3-22.8,42.5-22.8c28.1,0,51,22.9,51,51S136.8,159.2,108.7,159.2z"/>
</svg>
