<?xml version="1.0" encoding="utf-8"?>
<!-- Generator: Adobe Illustrator 18.0.0, SVG Export Plug-In . SVG Version: 6.00 Build 0)  -->
<!DOCTYPE svg PUBLIC "-//W3C//DTD SVG 1.1//EN" "http://www.w3.org/Graphics/SVG/1.1/DTD/svg11.dtd">
<svg version="1.1" id="Layer_1" xmlns="http://www.w3.org/2000/svg" xmlns:xlink="http://www.w3.org/1999/xlink" x="0px" y="0px"
	 viewBox="0 0 216 216" enable-background="new 0 0 216 216" xml:space="preserve">
<path d="M101.6,42.2L73.6,73H35c-3.3,0-6,2.7-6,6v58c0,3.3,2.7,6,6,6h36.2l30.8,27.4c1.1,1,2.5,1.5,4,1.5c0.8,0,1.7-0.2,2.5-0.5
	c2.2-1,3.5-3.1,3.5-5.5V46.3c0-2.5-1.5-4.7-3.8-5.6C105.8,39.8,103.2,40.4,101.6,42.2z M100,152.6l-22.5-20c-1.1-1-2.5-1.5-4-1.5H41
	V85h35.3c1.7,0,3.3-0.7,4.4-2L100,61.8V152.6z M160.1,150.7c11.3-12.3,17.5-28.2,17.5-44.9c0-16.5-6.1-32.4-17.2-44.6
	c-2.2-2.5-2-6.2,0.4-8.5c2.5-2.2,6.2-2,8.5,0.4c13.1,14.4,20.3,33.1,20.3,52.6c0,19.7-7.3,38.6-20.7,53.1c-1.2,1.3-2.8,1.9-4.4,1.9
	c-1.5,0-2.9-0.5-4.1-1.6C158,157,157.8,153.2,160.1,150.7z M133.2,128.4c5.7-6.2,8.8-14.1,8.8-22.5c0-8.3-3.1-16.2-8.6-22.3
	c-2.2-2.5-2-6.2,0.4-8.5c2.5-2.2,6.2-2,8.5,0.4c7.6,8.3,11.7,19.1,11.7,30.4c0,11.4-4.2,22.3-12,30.6c-1.2,1.3-2.8,1.9-4.4,1.9
	c-1.5,0-2.9-0.5-4.1-1.6C131.2,134.6,131,130.8,133.2,128.4z"/>
</svg>
