<?xml version="1.0" encoding="utf-8"?>
<!-- Generator: Adobe Illustrator 18.0.0, SVG Export Plug-In . SVG Version: 6.00 Build 0)  -->
<!DOCTYPE svg PUBLIC "-//W3C//DTD SVG 1.1//EN" "http://www.w3.org/Graphics/SVG/1.1/DTD/svg11.dtd">
<svg version="1.1" id="Layer_1" xmlns="http://www.w3.org/2000/svg" xmlns:xlink="http://www.w3.org/1999/xlink" x="0px" y="0px"
	 viewBox="0 0 216 216" enable-background="new 0 0 216 216" xml:space="preserve">
<path d="M108,17.8c-49.8,0-90.2,40.5-90.2,90.2c0,49.7,40.5,90.2,90.2,90.2s90.2-40.5,90.2-90.2C198.2,58.2,157.8,17.8,108,17.8z
	 M169.7,60l-26.2,26.2c-3.2-5.2-7.5-9.6-12.5-12.9l26.1-26.1C161.8,50.9,166,55.3,169.7,60z M108,137.7c-16.4,0-29.7-13.3-29.7-29.7
	S91.6,78.3,108,78.3s29.7,13.3,29.7,29.7S124.4,137.7,108,137.7z M147,40.3l-27.6,27.6c-3.6-1-7.4-1.6-11.4-1.6
	c-4.2,0-8.3,0.6-12.2,1.8L68.3,40.6C80,33.7,93.5,29.8,108,29.8C122.2,29.8,135.5,33.6,147,40.3z M58.3,47.6l26.1,26.1
	c-5,3.4-9.2,7.9-12.3,13.2L45.9,60.6C49.5,55.8,53.7,51.4,58.3,47.6z M39.2,70.9L67.3,99c-0.6,2.9-1,5.9-1,9c0,4,0.6,7.8,1.6,11.4
	L40.3,147c-6.7-11.5-10.5-24.8-10.5-39C29.8,94.6,33.2,81.9,39.2,70.9z M47.2,157.1L73.2,131c3.4,5,7.8,9.3,12.9,12.5L60,169.7
	C55.3,166,50.9,161.8,47.2,157.1z M70.2,176.5L98,148.7c0.1-0.1,0.1-0.2,0.2-0.2c3.2,0.8,6.5,1.2,9.9,1.2c3.1,0,6.1-0.4,9-1
	c0,0,0,0,0,0l28.1,28.1c-11.1,6-23.7,9.4-37.1,9.4C94.3,186.2,81.4,182.7,70.2,176.5z M155.4,170.1l-26.3-26.3
	c5.2-3.1,9.7-7.3,13.2-12.3l26.1,26.1C164.6,162.3,160.2,166.5,155.4,170.1z M175.4,147.7l-27.5-27.5c1.2-3.9,1.8-7.9,1.8-12.2
	c0-3.4-0.4-6.7-1.2-9.8l28-28c6.2,11.2,9.8,24.1,9.8,37.8C186.2,122.5,182.3,136,175.4,147.7z"/>
</svg>
