<?xml version="1.0" encoding="utf-8"?>
<!-- Generator: Adobe Illustrator 18.0.0, SVG Export Plug-In . SVG Version: 6.00 Build 0)  -->
<!DOCTYPE svg PUBLIC "-//W3C//DTD SVG 1.1//EN" "http://www.w3.org/Graphics/SVG/1.1/DTD/svg11.dtd">
<svg version="1.1" id="Layer_1" xmlns="http://www.w3.org/2000/svg" xmlns:xlink="http://www.w3.org/1999/xlink" x="0px" y="0px"
	 viewBox="0 0 216 216" enable-background="new 0 0 216 216" xml:space="preserve">
<path d="M155.5,71.8c0.5,0,1,0.1,1.5,0.1c0,0,0,0,0,0c13.8,0,25.3-10.9,26.1-24.7c0.8-14.4-10.2-26.8-24.6-27.7
	c-14.5-0.8-26.8,10.3-27.6,24.6c-0.2,3.5,0.3,6.8,1.3,9.9L70,91.1c-4.6-3.9-10.5-6.3-17-6.3c-14.4,0-26.1,11.7-26.1,26.1
	c0,14.4,11.7,26.1,26.1,26.1c6.1,0,11.8-2.1,16.2-5.7l60.7,33c-1.6,6.2-0.8,12.7,2.2,18.4c4.5,8.7,13.4,14.2,23.2,14.2c0,0,0,0,0,0
	c4.2,0,8.3-1.1,12-3.1c12.8-6.6,17.8-22.6,11.2-35.3c-4.5-8.7-13.4-14.1-23.2-14.1c-4.2,0-8.3,1-12,3c-3,1.6-5.7,3.7-7.8,6.2
	l-58.7-31.9c1.5-3.3,2.4-7,2.4-10.9c0-3.6-0.7-7-2-10.1l61.5-36.5C143,68.6,148.9,71.5,155.5,71.8z M142.9,44.9
	c0.4-7.5,6.6-13.3,14.1-13.3c0.3,0,0.6,0,0.8,0c7.8,0.5,13.7,7.1,13.3,14.9c-0.4,7.7-7.1,13.7-14.9,13.3
	C148.4,59.3,142.4,52.6,142.9,44.9z M38.9,110.9c0-7.8,6.3-14.1,14.1-14.1c7.8,0,14.1,6.3,14.1,14.1c0,7.8-6.3,14.1-14.1,14.1
	C45.2,125,38.9,118.7,38.9,110.9z M148.8,158.1c2-1.1,4.2-1.6,6.5-1.6c5.3,0,10.1,2.9,12.6,7.6c3.6,6.9,0.9,15.5-6,19
	c-2,1.1-4.2,1.6-6.5,1.6h0c-5.3,0-10.1-2.9-12.6-7.6c-1.7-3.3-2.1-7.2-0.9-10.8C142.9,162.8,145.4,159.8,148.8,158.1z"/>
</svg>
