<?xml version="1.0" encoding="utf-8"?>
<!-- Generator: Adobe Illustrator 18.0.0, SVG Export Plug-In . SVG Version: 6.00 Build 0)  -->
<!DOCTYPE svg PUBLIC "-//W3C//DTD SVG 1.1//EN" "http://www.w3.org/Graphics/SVG/1.1/DTD/svg11.dtd">
<svg version="1.1" id="Layer_1" xmlns="http://www.w3.org/2000/svg" xmlns:xlink="http://www.w3.org/1999/xlink" x="0px" y="0px"
	 viewBox="0 0 216 216" enable-background="new 0 0 216 216" xml:space="preserve">
<path d="M108,25c-45.8,0-83,37.2-83,83s37.2,83,83,83s83-37.2,83-83S153.8,25,108,25z M108,179c-39.1,0-71-31.9-71-71s31.9-71,71-71
	s71,31.9,71,71S147.1,179,108,179z"/>
<path d="M83,94.4c2.5,0,4.9-1,6.7-2.8c3.7-3.7,3.7-9.7,0-13.4c-1.8-1.8-4.2-2.8-6.7-2.8s-4.9,1-6.7,2.8c-3.7,3.7-3.7,9.7,0,13.4
	C78.1,93.4,80.5,94.4,83,94.4z"/>
<path d="M130.6,94.4c2.5,0,4.9-1,6.7-2.8c3.7-3.7,3.7-9.7,0-13.4c-1.8-1.8-4.2-2.8-6.7-2.8c-2.5,0-4.9,1-6.7,2.8
	c-3.7,3.7-3.7,9.7,0,13.4C125.7,93.4,128,94.4,130.6,94.4z"/>
<path d="M148.3,117.9c-3-1.3-6.6,0.1-7.9,3.1c-0.1,0.2-7.5,16.8-32.4,16.8c-24.5,0-32.1-16-32.5-16.8c-1.3-3-4.8-4.4-7.9-3.1
	c-3,1.3-4.5,4.8-3.1,7.9c0.4,1,10.7,24,43.5,24s43-23.1,43.5-24C152.8,122.7,151.4,119.2,148.3,117.9z"/>
</svg>
