<?xml version="1.0" encoding="utf-8"?>
<!-- Generator: Adobe Illustrator 18.0.0, SVG Export Plug-In . SVG Version: 6.00 Build 0)  -->
<!DOCTYPE svg PUBLIC "-//W3C//DTD SVG 1.1//EN" "http://www.w3.org/Graphics/SVG/1.1/DTD/svg11.dtd">
<svg version="1.1" id="Layer_1" xmlns="http://www.w3.org/2000/svg" xmlns:xlink="http://www.w3.org/1999/xlink" x="0px" y="0px"
	 viewBox="0 0 216 216" enable-background="new 0 0 216 216" xml:space="preserve">
<path d="M87.4,152c3.3,0,6-2.7,6-6V40.4c0-2.3-1.3-4.4-3.3-5.4c-2-1-4.5-0.8-6.3,0.6L44.6,65c-2.7,2-3.2,5.7-1.2,8.4
	c2,2.7,5.7,3.2,8.4,1.2l29.6-22.2V146C81.4,149.3,84.1,152,87.4,152z"/>
<path d="M122.4,65c-3.3,0-6,2.7-6,6v104.6c0,2.3,1.3,4.3,3.3,5.4c0.9,0.4,1.8,0.6,2.7,0.6c1.3,0,2.5-0.4,3.6-1.2l39.2-28.9
	c2.7-2,3.2-5.7,1.3-8.4c-2-2.7-5.7-3.2-8.4-1.3l-29.7,21.9V71C128.4,67.7,125.7,65,122.4,65z"/>
</svg>
