<?xml version="1.0" encoding="utf-8"?>
<!-- Generator: Adobe Illustrator 18.0.0, SVG Export Plug-In . SVG Version: 6.00 Build 0)  -->
<!DOCTYPE svg PUBLIC "-//W3C//DTD SVG 1.1//EN" "http://www.w3.org/Graphics/SVG/1.1/DTD/svg11.dtd">
<svg version="1.1" id="Layer_1" xmlns="http://www.w3.org/2000/svg" xmlns:xlink="http://www.w3.org/1999/xlink" x="0px" y="0px"
	 viewBox="0 0 216 216" enable-background="new 0 0 216 216" xml:space="preserve">
<path d="M148.8,31H36c-3.3,0-6,2.7-6,6v145c0,3.3,2.7,6,6,6h140c3.3,0,6-2.7,6-6V71.9c0-1.3-0.4-2.6-1.3-3.7l-27.2-34.9
	C152.4,31.9,150.6,31,148.8,31z M75.5,43h63.8v59.1H75.5V43z M170,176H42V43h21.5v65.1c0,3.3,2.7,6,6,6h75.8c3.3,0,6-2.7,6-6V50
	l18.7,24V176z"/>
<path d="M119,53.5h-6.9c-3.3,0-6,2.7-6,6v23.7c0,3.3,2.7,6,6,6h6.9c3.3,0,6-2.7,6-6V59.5C125,56.2,122.4,53.5,119,53.5z"/>
</svg>
