<?xml version="1.0" encoding="utf-8"?>
<!-- Generator: Adobe Illustrator 18.0.0, SVG Export Plug-In . SVG Version: 6.00 Build 0)  -->
<!DOCTYPE svg PUBLIC "-//W3C//DTD SVG 1.1//EN" "http://www.w3.org/Graphics/SVG/1.1/DTD/svg11.dtd">
<svg version="1.1" id="Layer_1" xmlns="http://www.w3.org/2000/svg" xmlns:xlink="http://www.w3.org/1999/xlink" x="0px" y="0px"
	 viewBox="0 0 216 216" enable-background="new 0 0 216 216" xml:space="preserve">
<path d="M140,134.2c10.9-11.8,17.7-27.6,17.7-45c0-36.5-29.7-66.3-66.3-66.3S25.1,52.7,25.1,89.2s29.7,66.3,66.3,66.3
	c14.9,0,28.6-4.9,39.7-13.2l49.3,49.3c1.2,1.2,2.7,1.8,4.2,1.8c1.5,0,3.1-0.6,4.2-1.8c2.3-2.3,2.3-6.1,0-8.5L140,134.2z M37.1,89.2
	c0-29.9,24.3-54.3,54.3-54.3c29.9,0,54.3,24.3,54.3,54.3s-24.3,54.3-54.3,54.3C61.4,143.5,37.1,119.1,37.1,89.2z"/>
</svg>
