<?xml version="1.0" encoding="utf-8"?>
<!-- Generator: Adobe Illustrator 18.0.0, SVG Export Plug-In . SVG Version: 6.00 Build 0)  -->
<!DOCTYPE svg PUBLIC "-//W3C//DTD SVG 1.1//EN" "http://www.w3.org/Graphics/SVG/1.1/DTD/svg11.dtd">
<svg version="1.1" id="Layer_1" xmlns="http://www.w3.org/2000/svg" xmlns:xlink="http://www.w3.org/1999/xlink" x="0px" y="0px"
	 viewBox="0 0 216 216" enable-background="new 0 0 216 216" xml:space="preserve">
<path d="M32,28.9v128.7c0,2.1,1.1,4.1,2.9,5.1l69.4,41.6c1,0.6,2,0.9,3.1,0.9c1.1,0,2.2-0.3,3.2-0.9l70.6-44.2
	c1.8-1.1,2.8-3,2.8-5.1V28.9c0-3.3-2.7-6-6-6H38C34.7,22.9,32,25.6,32,28.9z M44,34.9h128v116.8l-64.7,40.5l-63.3-38V34.9z"/>
<path d="M102.4,70c0-12.4-10.1-22.5-22.5-22.5S57.5,57.7,57.5,70S67.6,92.5,80,92.5S102.4,82.4,102.4,70z M69.5,70
	c0-5.8,4.7-10.5,10.5-10.5S90.4,64.3,90.4,70S85.7,80.5,80,80.5S69.5,75.8,69.5,70z"/>
<path d="M110.5,134.4c0,12.4,10.1,22.5,22.5,22.5s22.5-10.1,22.5-22.5S145.3,112,133,112S110.5,122.1,110.5,134.4z M143.4,134.4
	c0,5.8-4.7,10.5-10.5,10.5s-10.5-4.7-10.5-10.5S127.2,124,133,124S143.4,128.7,143.4,134.4z"/>
<path d="M142.8,53.6c-2.6-2-6.4-1.5-8.4,1.1l-62.6,82.4c-2,2.6-1.5,6.4,1.1,8.4c1.1,0.8,2.4,1.2,3.6,1.2c1.8,0,3.6-0.8,4.8-2.4
	L144,62C146,59.4,145.5,55.6,142.8,53.6z"/>
</svg>
