<?xml version="1.0" encoding="utf-8"?>
<!-- Generator: Adobe Illustrator 18.0.0, SVG Export Plug-In . SVG Version: 6.00 Build 0)  -->
<!DOCTYPE svg PUBLIC "-//W3C//DTD SVG 1.1//EN" "http://www.w3.org/Graphics/SVG/1.1/DTD/svg11.dtd">
<svg version="1.1" id="Layer_1" xmlns="http://www.w3.org/2000/svg" xmlns:xlink="http://www.w3.org/1999/xlink" x="0px" y="0px"
	 viewBox="0 0 216 216" enable-background="new 0 0 216 216" xml:space="preserve">
<path d="M163.1,86.3h-25.4c-3.3,0-6,2.7-6,6s2.7,6,6,6h19.4v71.2H58.9V98.3h21.4c3.3,0,6-2.7,6-6s-2.7-6-6-6H52.9c-3.3,0-6,2.7-6,6
	v83.2c0,3.3,2.7,6,6,6h110.2c3.3,0,6-2.7,6-6V92.3C169.1,89,166.4,86.3,163.1,86.3z"/>
<path d="M108,131c3.3,0,6-2.7,6-6V44.5l22.4,21.8c2.4,2.3,6.2,2.3,8.5-0.1c2.3-2.4,2.3-6.2-0.1-8.5L113.3,27
	c-2.2-2.1-5.5-2.2-7.9-0.4c-1.1,0.5-2,1.4-2.6,2.4L72.9,57.7c-2.4,2.3-2.5,6.1-0.2,8.5c1.2,1.2,2.8,1.8,4.3,1.8c1.5,0,3-0.6,4.2-1.7
	L102,46.4V125C102,128.3,104.7,131,108,131z"/>
</svg>
