<?xml version="1.0" encoding="utf-8"?>
<!-- Generator: Adobe Illustrator 18.0.0, SVG Export Plug-In . SVG Version: 6.00 Build 0)  -->
<!DOCTYPE svg PUBLIC "-//W3C//DTD SVG 1.1//EN" "http://www.w3.org/Graphics/SVG/1.1/DTD/svg11.dtd">
<svg version="1.1" id="Layer_1" xmlns="http://www.w3.org/2000/svg" xmlns:xlink="http://www.w3.org/1999/xlink" x="0px" y="0px"
	 viewBox="0 0 216 216" enable-background="new 0 0 216 216" xml:space="preserve">
<path d="M65.8,186.2h84.4c13.7,0,24.8-11.1,24.8-24.8V56.6c0-13.7-11.1-24.8-24.8-24.8H65.8C52.1,31.8,41,42.9,41,56.6v104.8
	C41,175.1,52.1,186.2,65.8,186.2z M53,56.6c0-7.1,5.7-12.8,12.8-12.8h84.4c7.1,0,12.8,5.7,12.8,12.8v104.8c0,7.1-5.7,12.8-12.8,12.8
	H65.8c-7.1,0-12.8-5.7-12.8-12.8V56.6z M98.3,149.7c0-4.6,3.8-8.4,8.4-8.4s8.4,3.8,8.4,8.4c0,4.6-3.8,8.4-8.4,8.4
	S98.3,154.3,98.3,149.7z"/>
</svg>
