<?xml version="1.0" encoding="utf-8"?>
<!-- Generator: Adobe Illustrator 18.0.0, SVG Export Plug-In . SVG Version: 6.00 Build 0)  -->
<!DOCTYPE svg PUBLIC "-//W3C//DTD SVG 1.1//EN" "http://www.w3.org/Graphics/SVG/1.1/DTD/svg11.dtd">
<svg version="1.1" id="Layer_1" xmlns="http://www.w3.org/2000/svg" xmlns:xlink="http://www.w3.org/1999/xlink" x="0px" y="0px"
	 viewBox="0 0 216 216" enable-background="new 0 0 216 216" xml:space="preserve">
<path d="M26,155h14.9c0,0.3,0,0.6,0,0.8c0,14.9,12.1,27.1,27.1,27.1c14.9,0,27.1-12.1,27.1-27.1c0-1.3-0.1-2.6-0.3-3.9h28.4
	c-0.1,1-0.2,2.1-0.3,3.2c-0.2,7.2,2.4,14.1,7.4,19.4s11.7,8.2,18.9,8.4c0.2,0,0.5,0,0.7,0c0,0,0,0,0,0c14.8,0,26.7-11.6,27.1-26.4
	c0-1.6-0.1-3.1-0.3-4.6h5.9c3.3,0,6-2.7,6-6V43.2c0-3.3-2.7-6-6-6H76c-3.3,0-6,2.7-6,6V52H41.8c-2.4,0-4.6,1.5-5.5,3.7L20.5,93.4
	c-0.3,0.7-0.5,1.5-0.5,2.3V149C20,152.3,22.7,155,26,155z M32,143v-34h37c0.3,0,0.7,0,1-0.1v19.9c-0.7-0.1-1.4-0.1-2.1-0.1
	c-10.3,0-19.3,5.8-23.8,14.2H32z M67.9,170.9c-8.3,0-15.1-6.8-15.1-15.1s6.8-15.1,15.1-15.1S83,147.5,83,155.8
	S76.2,170.9,67.9,170.9z M149.5,170.9c-4-0.1-7.8-1.8-10.5-4.7s-4.2-6.8-4.1-10.8c0.2-8.2,6.8-14.7,15.1-14.7c0.1,0,0.3,0,0.4,0
	c4,0.1,7.8,1.8,10.5,4.7c2.8,2.9,4.2,6.8,4.1,10.8C164.8,164.6,157.9,171.2,149.5,170.9z M176.6,49.2v90.8H173c-0.4,0-0.7,0-1.1,0.1
	c-0.7-1-1.5-1.9-2.3-2.8c-5-5.2-11.7-8.2-18.9-8.4c-0.2,0-0.5,0-0.7,0c-9.1,0-17.1,4.4-22,11.2H89.8c-2.1-2.9-4.8-5.4-7.8-7.2V49.2
	H176.6z M45.7,64H70v33.1C69.7,97,69.3,97,69,97H32v-0.1L45.7,64z"/>
</svg>
