<?xml version="1.0" encoding="utf-8"?>
<!-- Generator: Adobe Illustrator 18.0.0, SVG Export Plug-In . SVG Version: 6.00 Build 0)  -->
<!DOCTYPE svg PUBLIC "-//W3C//DTD SVG 1.1//EN" "http://www.w3.org/Graphics/SVG/1.1/DTD/svg11.dtd">
<svg version="1.1" id="Layer_1" xmlns="http://www.w3.org/2000/svg" xmlns:xlink="http://www.w3.org/1999/xlink" x="0px" y="0px"
	 viewBox="0 0 216 216" enable-background="new 0 0 216 216" xml:space="preserve">
<path d="M95.2,186C95.3,186,95.3,186,95.2,186c1.7,0,3.2-0.6,4.3-1.7l64.8-66.7c2.3-2.4,2.3-6.1-0.1-8.4L94.7,39.7
	c-1.1-1.1-2.7-1.7-4.2-1.7c0,0,0,0,0,0l-67.1,0.1c-3.3,0-6,2.6-6,5.9L17,109.9c0,1.6,0.6,3.2,1.8,4.3l72.3,70.2
	C92.2,185.5,93.7,186,95.2,186z M29.4,50L88,49.8l63.6,63.6l-56.5,58.2L29,107.4L29.4,50z M200.3,110.2c2.3,2.3,2.3,6,0,8.4
	l-64.8,66.8c-1.2,1.2-2.7,1.8-4.3,1.8c-1.5,0-3-0.6-4.2-1.7c-2.4-2.3-2.4-6.1-0.1-8.5l60.7-62.6L130.2,56c-2.3-2.4-2.3-6.2,0.1-8.5
	c2.4-2.3,6.2-2.3,8.5,0.1L200.3,110.2z M67.1,77.7c0,4.6-3.8,8.4-8.4,8.4s-8.4-3.8-8.4-8.4c0-4.6,3.8-8.4,8.4-8.4
	S67.1,73.1,67.1,77.7z"/>
</svg>
