<?xml version="1.0" encoding="utf-8"?>
<!-- Generator: Adobe Illustrator 18.0.0, SVG Export Plug-In . SVG Version: 6.00 Build 0)  -->
<!DOCTYPE svg PUBLIC "-//W3C//DTD SVG 1.1//EN" "http://www.w3.org/Graphics/SVG/1.1/DTD/svg11.dtd">
<svg version="1.1" id="Layer_1" xmlns="http://www.w3.org/2000/svg" xmlns:xlink="http://www.w3.org/1999/xlink" x="0px" y="0px"
	 viewBox="0 0 216 216" enable-background="new 0 0 216 216" xml:space="preserve">
<path d="M33,71h12v117c0,3.3,2.7,6,6,6h110c3.3,0,6-2.7,6-6V71h15c3.3,0,6-2.7,6-6s-2.7-6-6-6h-28.6c-0.2-5.2-1.5-17.7-10.9-27.6
	c-8.3-8.8-20.4-13.3-36.1-13.3c-15.7,0-27.5,4.5-35,13.4c-8.3,9.8-8.7,22-8.4,27.5H33c-3.3,0-6,2.7-6,6S29.7,71,33,71z M80.4,39.2
	c5.1-6.1,13.8-9.1,25.9-9.1c12.2,0,21.4,3.2,27.3,9.4c6.5,6.8,7.5,15.9,7.7,19.5H75C74.7,55.9,74.5,46.3,80.4,39.2z M155,71v111H57
	V71H155z"/>
<path d="M87,165c3.3,0,6-2.7,6-6V90c0-3.3-2.7-6-6-6s-6,2.7-6,6v69C81,162.3,83.7,165,87,165z"/>
<path d="M125,165c3.3,0,6-2.7,6-6V90c0-3.3-2.7-6-6-6s-6,2.7-6,6v69C119,162.3,121.7,165,125,165z"/>
</svg>
