<?xml version="1.0" encoding="utf-8"?>
<!-- Generator: Adobe Illustrator 18.0.0, SVG Export Plug-In . SVG Version: 6.00 Build 0)  -->
<!DOCTYPE svg PUBLIC "-//W3C//DTD SVG 1.1//EN" "http://www.w3.org/Graphics/SVG/1.1/DTD/svg11.dtd">
<svg version="1.1" id="Layer_1" xmlns="http://www.w3.org/2000/svg" xmlns:xlink="http://www.w3.org/1999/xlink" x="0px" y="0px"
	 viewBox="0 0 216 216" enable-background="new 0 0 216 216" xml:space="preserve">
<path d="M108,184.3c42.1,0,76.3-34.2,76.3-76.3S150.1,31.7,108,31.7S31.7,65.9,31.7,108S65.9,184.3,108,184.3z M108,43.7
	c35.5,0,64.3,28.9,64.3,64.3s-28.9,64.3-64.3,64.3S43.7,143.5,43.7,108S72.5,43.7,108,43.7z"/>
<path d="M98.3,120.7l25.7,20c1.1,0.8,2.4,1.3,3.7,1.3c1.8,0,3.6-0.8,4.7-2.3c2-2.6,1.6-6.4-1.1-8.4L108,113.1V72c0-3.3-2.7-6-6-6
	s-6,2.7-6,6v44C96,117.9,96.9,119.6,98.3,120.7z"/>
</svg>
