<?xml version="1.0" encoding="utf-8"?>
<!-- Generator: Adobe Illustrator 18.0.0, SVG Export Plug-In . SVG Version: 6.00 Build 0)  -->
<!DOCTYPE svg PUBLIC "-//W3C//DTD SVG 1.1//EN" "http://www.w3.org/Graphics/SVG/1.1/DTD/svg11.dtd">
<svg version="1.1" id="Layer_1" xmlns="http://www.w3.org/2000/svg" xmlns:xlink="http://www.w3.org/1999/xlink" x="0px" y="0px"
	 viewBox="0 0 216 216" enable-background="new 0 0 216 216" xml:space="preserve">
<path d="M51.1,176c0,3.3,2.7,6,6,6h101.8c3.3,0,6-2.7,6-6c0-33.2-15-61.7-36.1-73.1c10.2-6.7,16.9-18.3,16.9-31.4
	c0-20.7-16.9-37.6-37.6-37.6S70.4,50.7,70.4,71.5c0,13.1,6.7,24.6,16.9,31.4C66.1,114.3,51.1,142.8,51.1,176z M82.4,71.5
	c0-14.1,11.5-25.6,25.6-25.6s25.6,11.5,25.6,25.6S122.1,97.1,108,97.1S82.4,85.6,82.4,71.5z M108,109.4c23.4,0,42.6,26.7,44.7,60.6
	H63.3C65.4,136.1,84.6,109.4,108,109.4z"/>
</svg>
