<?xml version="1.0" encoding="utf-8"?>
<!-- Generator: Adobe Illustrator 18.0.0, SVG Export Plug-In . SVG Version: 6.00 Build 0)  -->
<!DOCTYPE svg PUBLIC "-//W3C//DTD SVG 1.1//EN" "http://www.w3.org/Graphics/SVG/1.1/DTD/svg11.dtd">
<svg version="1.1" id="Layer_1" xmlns="http://www.w3.org/2000/svg" xmlns:xlink="http://www.w3.org/1999/xlink" x="0px" y="0px"
	 viewBox="0 0 216 216" enable-background="new 0 0 216 216" xml:space="preserve">
<path d="M113.2,26.7c-1.1-1.9-3.1-3-5.2-3s-4.1,1.1-5.2,3L15.4,178c-1.1,1.9-1.1,4.1,0,6s3.1,3,5.2,3h174.8c0,0,0,0,0,0
	c3.3,0,6-2.7,6-6c0-1.3-0.4-2.4-1-3.4L113.2,26.7z M31,175l77-133.3L185,175H31z M107.9,77c3.3,0,6,2.7,6,6v43c0,3.3-2.7,6-6,6
	s-6-2.7-6-6V83C101.9,79.7,104.6,77,107.9,77z M113.9,149v4c0,3.3-2.7,6-6,6s-6-2.7-6-6v-4c0-3.3,2.7-6,6-6S113.9,145.7,113.9,149z"
	/>
</svg>
